<svg width="15" height="16" viewBox="0 0 15 16" fill="none" xmlns="http://www.w3.org/2000/svg">
<path d="M3.93121 9.43153C3.87263 9.48963 3.82614 9.55876 3.7944 9.63492C3.76267 9.71108 3.74634 9.79277 3.74634 9.87528C3.74634 9.95779 3.76267 10.0395 3.7944 10.1156C3.82614 10.1918 3.87263 10.2609 3.93121 10.319L7.05621 13.444C7.11431 13.5026 7.18344 13.5491 7.2596 13.5808C7.33576 13.6126 7.41745 13.6289 7.49996 13.6289C7.58247 13.6289 7.66416 13.6126 7.74032 13.5808C7.81648 13.5491 7.88561 13.5026 7.94371 13.444L11.0687 10.319C11.1273 10.2609 11.1738 10.1918 11.2055 10.1156C11.2372 10.0395 11.2536 9.95779 11.2536 9.87528C11.2536 9.79277 11.2372 9.71108 11.2055 9.63492C11.1738 9.55876 11.1273 9.48963 11.0687 9.43153C11.0106 9.37295 10.9415 9.32646 10.8653 9.29473C10.7892 9.26299 10.7075 9.24666 10.625 9.24666C10.5425 9.24666 10.4608 9.26299 10.3846 9.29473C10.3084 9.32646 10.2393 9.37295 10.1812 9.43153L7.49996 12.119L4.81871 9.43153C4.76061 9.37295 4.69148 9.32646 4.61532 9.29473C4.53916 9.26299 4.45747 9.24666 4.37496 9.24666C4.29245 9.24666 4.21076 9.26299 4.1346 9.29473C4.05844 9.32646 3.98931 9.37295 3.93121 9.43153ZM7.05621 2.55653L3.93121 5.68153C3.87294 5.73981 3.82671 5.80899 3.79517 5.88513C3.76364 5.96127 3.7474 6.04287 3.7474 6.12528C3.7474 6.29172 3.81352 6.45134 3.93121 6.56903C3.98949 6.62731 4.05867 6.67353 4.13481 6.70507C4.21094 6.73661 4.29255 6.75284 4.37496 6.75284C4.5414 6.75284 4.70102 6.68672 4.81871 6.56903L7.49996 3.88153L10.1812 6.56903C10.2393 6.62761 10.3084 6.67411 10.3846 6.70584C10.4608 6.73757 10.5425 6.75391 10.625 6.75391C10.7075 6.75391 10.7892 6.73757 10.8653 6.70584C10.9415 6.67411 11.0106 6.62761 11.0687 6.56903C11.1273 6.51093 11.1738 6.4418 11.2055 6.36564C11.2372 6.28948 11.2536 6.20779 11.2536 6.12528C11.2536 6.04277 11.2372 5.96108 11.2055 5.88492C11.1738 5.80876 11.1273 5.73963 11.0687 5.68153L7.94371 2.55653C7.88561 2.49795 7.81648 2.45145 7.74032 2.41972C7.66416 2.38799 7.58247 2.37166 7.49996 2.37166C7.41745 2.37166 7.33576 2.38799 7.2596 2.41972C7.18344 2.45145 7.11431 2.49795 7.05621 2.55653Z" fill="white" fill-opacity="0.36"/>
</svg>
