<svg width="20" height="20" viewBox="0 0 20 20" fill="none" xmlns="http://www.w3.org/2000/svg">
    <path
        d="M17.5 6.25H15.8333V4.16667H4.16667V15.8333H15.8333V13.75H17.5V17.5H2.5V2.5H17.5V6.25ZM9.16667 14.1667V5.83333H18.3333V14.1667H9.16667ZM13.3333 11.25C13.6806 11.25 13.9758 11.1286 14.2192 10.8858C14.4625 10.6431 14.5839 10.3478 14.5833 10C14.5828 9.65222 14.4614 9.35722 14.2192 9.115C13.9769 8.87278 13.6817 8.75111 13.3333 8.75C12.985 8.74889 12.69 8.87056 12.4483 9.115C12.2067 9.35944 12.085 9.65444 12.0833 10C12.0817 10.3456 12.2033 10.6408 12.4483 10.8858C12.6933 11.1308 12.9883 11.2522 13.3333 11.25ZM16.6667 12.5V7.5H10.8333V12.5H16.6667Z"
        fill="white" />
</svg>
    