<svg width="16" height="16" viewBox="0 0 16 16" fill="none" xmlns="http://www.w3.org/2000/svg">
    <path fill-rule="evenodd" clip-rule="evenodd"
        d="M3.47422 3.04316C3.35989 3.04316 3.25025 3.08858 3.16942 3.16942C3.08858 3.25025 3.04316 3.35989 3.04316 3.47422V12.0953C3.04316 12.2096 3.08858 12.3193 3.16942 12.4001C3.25025 12.4809 3.35989 12.5264 3.47422 12.5264H8.00028C8.17177 12.5264 8.33623 12.5945 8.45749 12.7157C8.57874 12.837 8.64687 13.0014 8.64687 13.1729C8.64687 13.3444 8.57874 13.5089 8.45749 13.6301C8.33623 13.7514 8.17177 13.8195 8.00028 13.8195H3.47422C3.01693 13.8195 2.57836 13.6379 2.25501 13.3145C1.93166 12.9911 1.75 12.5526 1.75 12.0953V3.47422C1.75 3.01693 1.93166 2.57836 2.25501 2.25501C2.57836 1.93166 3.01693 1.75 3.47422 1.75H12.0953C12.5526 1.75 12.9911 1.93166 13.3145 2.25501C13.6379 2.57836 13.8195 3.01693 13.8195 3.47422V8.86239C13.8195 9.03388 13.7514 9.19834 13.6301 9.31959C13.5089 9.44085 13.3444 9.50897 13.1729 9.50897C13.0015 9.50897 12.837 9.44085 12.7157 9.31959C12.5945 9.19834 12.5264 9.03388 12.5264 8.86239V3.47422C12.5264 3.35989 12.4809 3.25025 12.4001 3.16942C12.3193 3.08858 12.2096 3.04316 12.0953 3.04316H3.47422ZM14.0609 10.5607C14.182 10.682 14.25 10.8463 14.25 11.0177C14.25 11.189 14.182 11.3533 14.0609 11.4746L11.9056 13.6299C11.7844 13.7509 11.6201 13.8189 11.4487 13.8189C11.2774 13.8189 11.113 13.7509 10.9918 13.6299L10.1297 12.7677C10.0662 12.7085 10.0152 12.6372 9.97987 12.5579C9.94453 12.4785 9.92553 12.3929 9.924 12.3061C9.92247 12.2193 9.93844 12.133 9.97096 12.0525C10.0035 11.972 10.0519 11.8989 10.1133 11.8375C10.1747 11.7761 10.2478 11.7277 10.3283 11.6952C10.4088 11.6627 10.4951 11.6467 10.5819 11.6482C10.6687 11.6497 10.7543 11.6687 10.8336 11.7041C10.9129 11.7394 10.9843 11.7904 11.0435 11.8539L11.4487 12.2591L13.1471 10.5607C13.2683 10.4397 13.4326 10.3717 13.604 10.3717C13.7753 10.3717 13.9397 10.4397 14.0609 10.5607ZM4.98291 4.33632C4.81142 4.33632 4.64696 4.40445 4.5257 4.5257C4.40445 4.64696 4.33632 4.81142 4.33632 4.98291C4.33632 5.15439 4.40445 5.31885 4.5257 5.44011C4.64696 5.56137 4.81142 5.62949 4.98291 5.62949H10.5866C10.7581 5.62949 10.9226 5.56137 11.0438 5.44011C11.1651 5.31885 11.2332 5.15439 11.2332 4.98291C11.2332 4.81142 11.1651 4.64696 11.0438 4.5257C10.9226 4.40445 10.7581 4.33632 10.5866 4.33632H4.98291ZM4.33632 7.78476C4.33632 7.61327 4.40445 7.44881 4.5257 7.32756C4.64696 7.2063 4.81142 7.13818 4.98291 7.13818H10.5866C10.7581 7.13818 10.9226 7.2063 11.0438 7.32756C11.1651 7.44881 11.2332 7.61327 11.2332 7.78476C11.2332 7.95624 11.1651 8.1207 11.0438 8.24196C10.9226 8.36322 10.7581 8.43134 10.5866 8.43134H4.98291C4.81142 8.43134 4.64696 8.36322 4.5257 8.24196C4.40445 8.1207 4.33632 7.95624 4.33632 7.78476ZM4.98291 9.94003C4.81142 9.94003 4.64696 10.0082 4.5257 10.1294C4.40445 10.2507 4.33632 10.4151 4.33632 10.5866C4.33632 10.7581 4.40445 10.9226 4.5257 11.0438C4.64696 11.1651 4.81142 11.2332 4.98291 11.2332H8.00028C8.17177 11.2332 8.33623 11.1651 8.45749 11.0438C8.57874 10.9226 8.64687 10.7581 8.64687 10.5866C8.64687 10.4151 8.57874 10.2507 8.45749 10.1294C8.33623 10.0082 8.17177 9.94003 8.00028 9.94003H4.98291Z"
        fill="white" />
</svg>
    