<svg width="18" height="18" viewBox="0 0 18 18" fill="none" xmlns="http://www.w3.org/2000/svg">
<path d="M6.375 9.75C5.96079 9.75 5.625 10.0858 5.625 10.5C5.625 10.9142 5.96079 11.25 6.375 11.25H11.625C12.0392 11.25 12.375 10.9142 12.375 10.5C12.375 10.0858 12.0392 9.75 11.625 9.75H6.375Z" fill="white" fill-opacity="1"/>
<path d="M6.375 12C5.96079 12 5.625 12.3358 5.625 12.75C5.625 13.1642 5.96079 13.5 6.375 13.5H9C9.41421 13.5 9.75 13.1642 9.75 12.75C9.75 12.3358 9.41421 12 9 12H6.375Z" fill="white" fill-opacity="1"/>
<path fill-rule="evenodd" clip-rule="evenodd" d="M6.375 4.5C5.96079 4.5 5.625 4.83579 5.625 5.25V7.5C5.625 7.91421 5.96079 8.25 6.375 8.25H8.625C9.03921 8.25 9.375 7.91421 9.375 7.5V5.25C9.375 4.83579 9.03921 4.5 8.625 4.5H6.375ZM7.125 6.75V6H7.875V6.75H7.125Z" fill="white" fill-opacity="1"/>
<path fill-rule="evenodd" clip-rule="evenodd" d="M4.125 1.5C3.72718 1.5 3.34564 1.65804 3.06434 1.93934C2.78304 2.22064 2.625 2.60217 2.625 3V15C2.625 15.3978 2.78304 15.7794 3.06434 16.0607C3.34565 16.342 3.72718 16.5 4.125 16.5H14.625C15.0228 16.5 15.4044 16.342 15.6857 16.0607C15.967 15.7794 16.125 15.3978 16.125 15V3C16.125 2.60218 15.967 2.22065 15.6857 1.93934C15.4044 1.65803 15.0228 1.5 14.625 1.5H4.125ZM4.125 3H14.625V15H4.125L4.125 3Z" fill="white" fill-opacity="1"/>
</svg>
