<svg width="25" height="25" viewBox="0 0 25 25" fill="none" xmlns="http://www.w3.org/2000/svg">
    <path
        d="M19.2098 20.0672C18.3798 21.3072 17.4998 22.5172 16.1598 22.5372C14.8198 22.5672 14.3898 21.7472 12.8698 21.7472C11.3398 21.7472 10.8698 22.5172 9.59985 22.5672C8.28985 22.6172 7.29985 21.2472 6.45985 20.0372C4.74985 17.5672 3.43985 13.0172 5.19985 9.95717C6.06985 8.43717 7.62985 7.47717 9.31985 7.44717C10.5998 7.42717 11.8198 8.31717 12.6098 8.31717C13.3898 8.31717 14.8698 7.24717 16.4198 7.40717C17.0698 7.43717 18.8898 7.66717 20.0598 9.38717C19.9698 9.44717 17.8898 10.6672 17.9098 13.1972C17.9398 16.2172 20.5598 17.2272 20.5898 17.2372C20.5598 17.3072 20.1698 18.6772 19.2098 20.0672ZM13.4998 4.06717C14.2298 3.23717 15.4398 2.60717 16.4398 2.56717C16.5698 3.73717 16.0998 4.91717 15.3998 5.75717C14.7098 6.60717 13.5698 7.26717 12.4498 7.17717C12.2998 6.02717 12.8598 4.82717 13.4998 4.06717Z"
        fill="white" />
</svg>
    