<svg width="22" height="20" viewBox="0 0 22 20" fill="none" xmlns="http://www.w3.org/2000/svg">
<path d="M1.91304 4.7619H4.94522L6.69565 2.85714H12.4348V4.7619H7.53739L5.78695 6.66667H1.91304V18.0952H17.2174V9.52381H19.1304V18.0952C19.1304 19.1429 18.2696 20 17.2174 20H1.91304C0.860868 20 0 19.1429 0 18.0952V6.66667C0 5.61905 0.860868 4.7619 1.91304 4.7619ZM14.3478 12.381C14.3478 15.0095 12.2052 17.1429 9.56522 17.1429C6.92522 17.1429 4.78261 15.0095 4.78261 12.381C4.78261 9.75238 6.92522 7.61905 9.56522 7.61905C12.2052 7.61905 14.3478 9.75238 14.3478 12.381ZM9.56522 9.52381C7.98696 9.52381 6.69565 10.8095 6.69565 12.381C6.69565 13.9524 7.98696 15.2381 9.56522 15.2381C11.1435 15.2381 12.4348 13.9524 12.4348 12.381C12.4348 10.8095 11.1435 9.52381 9.56522 9.52381ZM17.2174 4.7619H14.3478V2.85714H17.2174V0H19.1304V2.85714H22V4.7619H19.1304V7.61905H17.2174V4.7619Z" fill="white" fill-opacity="0.54"/>
</svg>
