<svg width="16" height="16" viewBox="0 0 16 16" fill="none" xmlns="http://www.w3.org/2000/svg">
    <path
        d="M7.99325 1.33334C4.31325 1.33334 1.33325 4.32001 1.33325 8.00001C1.33325 11.68 4.31325 14.6667 7.99325 14.6667C11.6799 14.6667 14.6666 11.68 14.6666 8.00001C14.6666 4.32001 11.6799 1.33334 7.99325 1.33334ZM7.99992 13.3333C5.05325 13.3333 2.66659 10.9467 2.66659 8.00001C2.66659 5.05334 5.05325 2.66668 7.99992 2.66668C10.9466 2.66668 13.3333 5.05334 13.3333 8.00001C13.3333 10.9467 10.9466 13.3333 7.99992 13.3333ZM8.33325 4.66668H7.33325V8.66668L10.8333 10.7667L11.3333 9.94668L8.33325 8.16668V4.66668Z"
        fill="white" />
</svg>