<svg width="24" height="24" viewBox="0 0 24 24" fill="none" xmlns="http://www.w3.org/2000/svg">
    <path
        d="M18.1748 12.9984H12.9998V10.9984H18.1748L16.2998 9.12344C16.1165 8.92344 16.0205 8.68611 16.0118 8.41144C16.0032 8.13677 16.0992 7.89911 16.2998 7.69844C16.5005 7.49777 16.7338 7.39777 16.9998 7.39844C17.2658 7.39911 17.4992 7.49911 17.6998 7.69844L21.2998 11.2984C21.3998 11.3984 21.4708 11.5068 21.5128 11.6234C21.5548 11.7401 21.5755 11.8651 21.5748 11.9984C21.5742 12.1318 21.5535 12.2568 21.5128 12.3734C21.4722 12.4901 21.4012 12.5984 21.2998 12.6984L17.6998 16.2984C17.4998 16.4984 17.2665 16.5984 16.9998 16.5984C16.7332 16.5984 16.4998 16.4984 16.2998 16.2984C16.0998 16.0984 15.9998 15.8611 15.9998 15.5864C15.9998 15.3118 16.0998 15.0741 16.2998 14.8734L18.1748 12.9984ZM5.82484 12.9984L7.69984 14.8734C7.88318 15.0734 7.97884 15.3111 7.98684 15.5864C7.99484 15.8618 7.89918 16.0991 7.69984 16.2984C7.50051 16.4978 7.26718 16.5978 6.99984 16.5984C6.73251 16.5991 6.49918 16.4991 6.29984 16.2984L2.69984 12.6984C2.59984 12.5984 2.52884 12.4901 2.48684 12.3734C2.44484 12.2568 2.42451 12.1318 2.42584 11.9984C2.42718 11.8651 2.44818 11.7401 2.48884 11.6234C2.52951 11.5068 2.60018 11.3984 2.70084 11.2984L6.30084 7.69844C6.50084 7.49844 6.73418 7.39844 7.00084 7.39844C7.26751 7.39844 7.50084 7.49844 7.70084 7.69844C7.90084 7.89844 8.00084 8.13611 8.00084 8.41144C8.00084 8.68677 7.90084 8.92411 7.70084 9.12344L5.82484 10.9984H10.9998V12.9984H5.82484Z"
        fill="black" />
</svg>
    