<svg width="24" height="24" viewBox="0 0 24 24" fill="none" xmlns="http://www.w3.org/2000/svg">
    <g clip-path="url(#clip0_9604_71472)">
        <path
            d="M12 22C10.6167 22 9.31667 21.7373 8.1 21.212C6.88333 20.6867 5.825 19.9743 4.925 19.075C4.025 18.175 3.31267 17.1167 2.788 15.9C2.26333 14.6833 2.00067 13.3833 2 12C2 10.6167 2.26267 9.31667 2.788 8.1C3.31333 6.88333 4.02567 5.825 4.925 4.925C5.825 4.025 6.88333 3.31267 8.1 2.788C9.31667 2.26333 10.6167 2.00067 12 2C12.55 2 13.0917 2.04167 13.625 2.125C14.1583 2.20833 14.675 2.33333 15.175 2.5C15.5583 2.63333 15.8 2.82933 15.9 3.088C16 3.34667 16.0083 3.60067 15.925 3.85C15.8417 4.1 15.6877 4.296 15.463 4.438C15.2383 4.58 14.984 4.59233 14.7 4.475C14.2667 4.325 13.8293 4.20833 13.388 4.125C12.9467 4.04167 12.484 4 12 4C9.78333 4 7.89567 4.77933 6.337 6.338C4.77833 7.89667 3.99933 9.784 4 12C4 14.2167 4.77933 16.1043 6.338 17.663C7.89667 19.2217 9.784 20.0007 12 20C14.2167 20 16.1043 19.221 17.663 17.663C19.2217 16.105 20.0007 14.2173 20 12C20 11.7 19.9833 11.4 19.95 11.1C19.9167 10.8 19.8667 10.5083 19.8 10.225C19.7167 9.90833 19.7583 9.65 19.925 9.45C20.0917 9.25 20.3 9.125 20.55 9.075C20.8 9.025 21.046 9.06267 21.288 9.188C21.53 9.31333 21.6923 9.55067 21.775 9.9C21.8583 10.2333 21.9167 10.575 21.95 10.925C21.9833 11.275 22 11.6333 22 12C22 13.3833 21.7377 14.6833 21.213 15.9C20.6883 17.1167 19.9757 18.175 19.075 19.075C18.175 19.975 17.1167 20.6877 15.9 21.213C14.6833 21.7383 13.3833 22.0007 12 22ZM20 5H19C18.7167 5 18.4793 4.904 18.288 4.712C18.0967 4.52 18.0007 4.28267 18 4C18 3.71667 18.096 3.47933 18.288 3.288C18.48 3.09667 18.7173 3.00067 19 3H20V2C20 1.71667 20.096 1.47933 20.288 1.288C20.48 1.09667 20.7173 1.00067 21 1C21.2833 1 21.521 1.096 21.713 1.288C21.905 1.48 22.0007 1.71733 22 2V3H23C23.2833 3 23.521 3.096 23.713 3.288C23.905 3.48 24.0007 3.71733 24 4C24 4.28333 23.904 4.521 23.712 4.713C23.52 4.905 23.2827 5.00067 23 5H22V6C22 6.28333 21.904 6.521 21.712 6.713C21.52 6.905 21.2827 7.00067 21 7C20.7167 7 20.4793 6.904 20.288 6.712C20.0967 6.52 20.0007 6.28267 20 6V5ZM15.5 11C15.9167 11 16.271 10.8543 16.563 10.563C16.855 10.2717 17.0007 9.91733 17 9.5C17 9.08333 16.8543 8.72933 16.563 8.438C16.2717 8.14667 15.9173 8.00067 15.5 8C15.0833 8 14.7293 8.146 14.438 8.438C14.1467 8.73 14.0007 9.084 14 9.5C14 9.91667 14.146 10.271 14.438 10.563C14.73 10.855 15.084 11.0007 15.5 11ZM8.5 11C8.91667 11 9.271 10.8543 9.563 10.563C9.855 10.2717 10.0007 9.91733 10 9.5C10 9.08333 9.85433 8.72933 9.563 8.438C9.27167 8.14667 8.91733 8.00067 8.5 8C8.08333 8 7.72933 8.146 7.438 8.438C7.14667 8.73 7.00067 9.084 7 9.5C7 9.91667 7.146 10.271 7.438 10.563C7.73 10.855 8.084 11.0007 8.5 11ZM12 17.5C12.9667 17.5 13.8583 17.2667 14.675 16.8C15.4917 16.3333 16.15 15.7 16.65 14.9C16.75 14.7 16.7417 14.5 16.625 14.3C16.5083 14.1 16.3333 14 16.1 14H7.9C7.66667 14 7.49167 14.1 7.375 14.3C7.25833 14.5 7.25 14.7 7.35 14.9C7.85 15.7 8.51267 16.3333 9.338 16.8C10.1633 17.2667 11.0507 17.5 12 17.5Z"
            fill="white" />
    </g>
    <defs>
        <clipPath id="clip0_9604_71472">
            <rect width="24" height="24" fill="white" />
        </clipPath>
    </defs>
</svg>
    