<svg width="120" height="120" viewBox="0 0 120 120" fill="none" xmlns="http://www.w3.org/2000/svg">
    <path d="M60 0C93 0 120 27 120 60C120 93 93 120 60 120C27 120 0 93 0 60C0 27 27 0 60 0Z"
        fill="url(#paint0_linear_7971_11431)" />
    <g filter="url(#filter0_i_7971_11431)">
        <path
            d="M30.6 22.2C38.4 15.6 48.6 12 60 12C86.4 12 108 33.6 108 60C108 70.8 103.8 81 97.8 89.4L30.6 22.2Z"
            fill="url(#paint1_linear_7971_11431)" />
        <path
            d="M22.2 30.6L89.4 97.8C81.6 104.4 71.4 108 60 108C33.6 108 12 86.4 12 60C12 48.6 15.6 38.4 22.2 30.6Z"
            fill="url(#paint2_linear_7971_11431)" />
    </g>
    <defs>
        <filter id="filter0_i_7971_11431" x="12" y="12" width="100" height="104"
            filterUnits="userSpaceOnUse" color-interpolation-filters="sRGB">
            <feFlood flood-opacity="0" result="BackgroundImageFix" />
            <feBlend mode="normal" in="SourceGraphic" in2="BackgroundImageFix" result="shape" />
            <feColorMatrix in="SourceAlpha" type="matrix"
                values="0 0 0 0 0 0 0 0 0 0 0 0 0 0 0 0 0 0 127 0" result="hardAlpha" />
            <feOffset dx="4" dy="8" />
            <feGaussianBlur stdDeviation="4" />
            <feComposite in2="hardAlpha" operator="arithmetic" k2="-1" k3="1" />
            <feColorMatrix type="matrix" values="0 0 0 0 0 0 0 0 0 0 0 0 0 0 0 0 0 0 0.24 0" />
            <feBlend mode="normal" in2="shape" result="effect1_innerShadow_7971_11431" />
        </filter>
        <linearGradient id="paint0_linear_7971_11431" x1="60.1102" y1="-0.000253024" x2="60.1102"
            y2="120" gradientUnits="userSpaceOnUse">
            <stop stop-color="#6D6D6D" />
            <stop offset="1" stop-color="#404040" />
        </linearGradient>
        <linearGradient id="paint1_linear_7971_11431" x1="60" y1="12" x2="60" y2="111"
            gradientUnits="userSpaceOnUse">
            <stop stop-color="#383838" />
            <stop offset="1" stop-color="#202020" />
        </linearGradient>
        <linearGradient id="paint2_linear_7971_11431" x1="60" y1="12" x2="60" y2="111"
            gradientUnits="userSpaceOnUse">
            <stop stop-color="#383838" />
            <stop offset="1" stop-color="#202020" />
        </linearGradient>
    </defs>
</svg>
    