<svg width="15" height="16" viewBox="0 0 15 16" fill="none" xmlns="http://www.w3.org/2000/svg">
    <path
        d="M9.375 3C8.71196 3 8.07607 3.26339 7.60723 3.73223C7.13839 4.20107 6.875 4.83696 6.875 5.5C6.875 6.16304 7.13839 6.79893 7.60723 7.26777C8.07607 7.73661 8.71196 8 9.375 8C10.038 8 10.6739 7.73661 11.1428 7.26777C11.6116 6.79893 11.875 6.16304 11.875 5.5C11.875 4.83696 11.6116 4.20107 11.1428 3.73223C10.6739 3.26339 10.038 3 9.375 3ZM9.375 4.1875C9.54736 4.1875 9.71803 4.22145 9.87727 4.28741C10.0365 4.35337 10.1812 4.45005 10.3031 4.57192C10.425 4.6938 10.5216 4.83849 10.5876 4.99773C10.6536 5.15697 10.6875 5.32764 10.6875 5.5C10.6875 5.67236 10.6536 5.84303 10.5876 6.00227C10.5216 6.16151 10.425 6.3062 10.3031 6.42808C10.1812 6.54995 10.0365 6.64663 9.87727 6.71259C9.71803 6.77855 9.54736 6.8125 9.375 6.8125C9.20264 6.8125 9.03197 6.77855 8.87273 6.71259C8.71349 6.64663 8.5688 6.54995 8.44692 6.42808C8.32505 6.3062 8.22837 6.16151 8.16241 6.00227C8.09645 5.84303 8.0625 5.67236 8.0625 5.5C8.0625 5.1519 8.20078 4.81806 8.44692 4.57192C8.69306 4.32578 9.0269 4.1875 9.375 4.1875ZM2.5 4.875V6.75H0.625V8H2.5V9.875H3.75V8H5.625V6.75H3.75V4.875H2.5ZM9.375 8.625C7.70625 8.625 4.375 9.45625 4.375 11.125V13H14.375V11.125C14.375 9.45625 11.0437 8.625 9.375 8.625ZM9.375 9.8125C11.2312 9.8125 13.1875 10.725 13.1875 11.125V11.8125H5.5625V11.125C5.5625 10.725 7.5 9.8125 9.375 9.8125Z"
        fill="white" />
</svg>
    