<svg width="18" height="18" viewBox="0 0 18 18" fill="none" xmlns="http://www.w3.org/2000/svg">
<path d="M14.25 3.75C14.4489 3.75 14.6397 3.67098 14.7803 3.53033C14.921 3.38968 15 3.19891 15 3C15 2.80109 14.921 2.61032 14.7803 2.46967C14.6397 2.32902 14.4489 2.25 14.25 2.25H3.75C3.55109 2.25 3.36032 2.32902 3.21967 2.46967C3.07902 2.61032 3 2.80109 3 3C3 3.19891 3.07902 3.38968 3.21967 3.53033C3.36032 3.67098 3.55109 3.75 3.75 3.75H14.25ZM5.2875 9.52725C5.35715 9.59698 5.43987 9.6523 5.53092 9.69005C5.62197 9.72779 5.71956 9.74721 5.81813 9.74721C5.91669 9.74721 6.01428 9.72779 6.10533 9.69005C6.19638 9.6523 6.27909 9.59698 6.34875 9.52725L8.25 7.62525V15C8.25 15.1989 8.32902 15.3897 8.46967 15.5303C8.61032 15.671 8.80109 15.75 9 15.75C9.19891 15.75 9.38968 15.671 9.53033 15.5303C9.67098 15.3897 9.75 15.1989 9.75 15V7.62525L11.652 9.52725C11.7927 9.66788 11.9836 9.74685 12.1825 9.74678C12.3815 9.74671 12.5722 9.66761 12.7129 9.52688C12.8535 9.38614 12.9325 9.19531 12.9324 8.99636C12.9323 8.79741 12.8532 8.60663 12.7125 8.466L9.53025 5.2845C9.3896 5.1439 9.19887 5.06491 9 5.06491C8.80113 5.06491 8.6104 5.1439 8.46975 5.2845L5.2875 8.466C5.21777 8.53566 5.16245 8.61837 5.1247 8.70942C5.08696 8.80047 5.06753 8.89806 5.06753 8.99662C5.06753 9.09519 5.08696 9.19278 5.1247 9.28383C5.16245 9.37488 5.21777 9.4576 5.2875 9.52725Z" fill="white"/>
</svg>
