<svg width="18" height="19" viewBox="0 0 18 19" fill="none" xmlns="http://www.w3.org/2000/svg">
    <path
        d="M3.75 13.9969C4.425 13.3344 5.2095 12.8126 6.1035 12.4316C6.9975 12.0506 7.963 11.8599 9 11.8594C10.037 11.8589 11.0028 12.0496 11.8973 12.4316C12.7917 12.8136 13.576 13.3354 14.25 13.9969V4.35938H3.75V13.9969ZM9 10.3594C9.725 10.3594 10.3438 10.1031 10.8563 9.59063C11.3688 9.07813 11.625 8.45937 11.625 7.73438C11.625 7.00938 11.3688 6.39062 10.8563 5.87813C10.3438 5.36563 9.725 5.10938 9 5.10938C8.275 5.10938 7.65625 5.36563 7.14375 5.87813C6.63125 6.39062 6.375 7.00938 6.375 7.73438C6.375 8.45937 6.63125 9.07813 7.14375 9.59063C7.65625 10.1031 8.275 10.3594 9 10.3594ZM3.75 16.3594C3.3375 16.3594 2.9845 16.2126 2.691 15.9191C2.3975 15.6256 2.2505 15.2724 2.25 14.8594V4.35938C2.25 3.94687 2.397 3.59388 2.691 3.30038C2.985 3.00688 3.338 2.85987 3.75 2.85938H14.25C14.6625 2.85938 15.0157 3.00638 15.3097 3.30038C15.6038 3.59438 15.7505 3.94738 15.75 4.35938V14.8594C15.75 15.2719 15.6033 15.6251 15.3097 15.9191C15.0162 16.2131 14.663 16.3599 14.25 16.3594H3.75ZM5.04375 14.8594H12.9562C12.4062 14.3719 11.7842 14.0001 11.0903 13.7441C10.3962 13.4881 9.6995 13.3599 9 13.3594C8.3005 13.3589 7.5975 13.4871 6.891 13.7441C6.1845 14.0011 5.56875 14.3729 5.04375 14.8594ZM9 8.85938C8.6875 8.85938 8.422 8.75012 8.2035 8.53162C7.985 8.31312 7.8755 8.04738 7.875 7.73438C7.8745 7.42137 7.984 7.15587 8.2035 6.93787C8.423 6.71987 8.6885 6.61037 9 6.60938C9.3115 6.60838 9.57725 6.71787 9.79725 6.93787C10.0172 7.15787 10.1265 7.42338 10.125 7.73438C10.1235 8.04537 10.0142 8.31112 9.79725 8.53162C9.58025 8.75212 9.3145 8.86137 9 8.85938Z"
        fill="white" />
</svg>