<svg width="18" height="18" viewBox="0 0 18 18" fill="none" xmlns="http://www.w3.org/2000/svg">
<path fill-rule="evenodd" clip-rule="evenodd" d="M8.99966 3.75C9.41388 3.75 9.74966 4.08579 9.74966 4.5V7.70094L12.5217 6.10049C12.8804 5.89337 13.3391 6.01627 13.5462 6.37499C13.7533 6.73371 13.6304 7.1924 13.2717 7.39951L10.4996 9L13.2717 10.6005C13.6304 10.8076 13.7533 11.2663 13.5462 11.625C13.3391 11.9837 12.8804 12.1066 12.5217 11.8995L9.74966 10.2991V13.5C9.74966 13.9142 9.41388 14.25 8.99966 14.25C8.58545 14.25 8.24966 13.9142 8.24966 13.5V10.2991L5.47767 11.8995C5.11896 12.1066 4.66026 11.9837 4.45315 11.625C4.24604 11.2663 4.36894 10.8076 4.72766 10.6005L7.4997 9L4.72766 7.39951C4.36894 7.1924 4.24604 6.73371 4.45315 6.37499C4.66026 6.01627 5.11896 5.89337 5.47767 6.10049L8.24966 7.70094V4.5C8.24966 4.08579 8.58545 3.75 8.99966 3.75Z" fill="white" fill-opacity="0.54"/>
</svg>
