<svg width="18" height="19" viewBox="0 0 18 19" fill="none" xmlns="http://www.w3.org/2000/svg">
    <g id="ic_bank" opacity="0.87">
        <path id="Vector" fill-rule="evenodd" clip-rule="evenodd"
            d="M8.99971 2.88706L4.46671 5.74981H13.5327L8.99971 2.88706ZM9.40021 1.36531L16.5252 5.86531C16.808 6.04381 16.9385 6.38731 16.8455 6.70831C16.7525 7.02931 16.4585 7.24981 16.1247 7.24981H1.87471C1.54096 7.24981 1.24696 7.02931 1.15471 6.70831C1.06171 6.38731 1.19221 6.04381 1.47421 5.86531L8.59921 1.36531C8.84371 1.21156 9.15571 1.21156 9.40021 1.36531ZM13.125 9.49982H13.875V12.4998H13.125V9.49982ZM14.625 13.9998C15.0398 13.9998 15.375 13.6646 15.375 13.2498V8.74982C15.375 8.33582 15.0398 7.99982 14.625 7.99982H12.375C11.961 7.99982 11.625 8.33582 11.625 8.74982V13.2498C11.625 13.6646 11.961 13.9998 12.375 13.9998H14.625ZM1.87501 15.4998C1.87501 15.914 2.2108 16.2498 2.62501 16.2498H15.375C15.7892 16.2498 16.125 15.914 16.125 15.4998C16.125 15.0856 15.7892 14.7498 15.375 14.7498H2.62501C2.2108 14.7498 1.87501 15.0856 1.87501 15.4998ZM9.37501 9.49982H8.62501V12.4998H9.37501V9.49982ZM10.875 13.2498C10.875 13.6646 10.5398 13.9998 10.125 13.9998H7.87501C7.46101 13.9998 7.12501 13.6646 7.12501 13.2498V8.74982C7.12501 8.33582 7.46101 7.99982 7.87501 7.99982H10.125C10.5398 7.99982 10.875 8.33582 10.875 8.74982V13.2498ZM4.12501 9.49982H4.87501V12.4998H4.12501V9.49982ZM5.62501 13.9998C6.03976 13.9998 6.37501 13.6646 6.37501 13.2498V8.74982C6.37501 8.33582 6.03976 7.99982 5.62501 7.99982H3.37501C2.96101 7.99982 2.62501 8.33582 2.62501 8.74982V13.2498C2.62501 13.6646 2.96101 13.9998 3.37501 13.9998H5.62501Z"
            fill="white" />
    </g>
</svg>