<svg width="19" height="19" viewBox="0 0 19 19" fill="none" xmlns="http://www.w3.org/2000/svg">
    <g clip-path="url(#clip0_5444_51133)">
        <path
            d="M15.6873 3.49316H5.31836C5.07564 3.49378 4.83717 3.55692 4.62596 3.67651C4.41474 3.79609 4.2379 3.96809 4.1125 4.1759L0.901324 9.52809C0.822752 9.65915 0.78125 9.8091 0.78125 9.96191C0.78125 10.1147 0.822752 10.2647 0.901324 10.3957L4.1125 15.7479C4.2379 15.9557 4.41474 16.1277 4.62596 16.2473C4.83717 16.3669 5.07564 16.4301 5.31836 16.4307H15.6873C16.0603 16.4307 16.418 16.2825 16.6817 16.0188C16.9454 15.7551 17.0936 15.3974 17.0936 15.0244V4.89941C17.0936 4.52645 16.9454 4.16877 16.6817 3.90505C16.418 3.64132 16.0603 3.49316 15.6873 3.49316ZM15.4061 14.7432H5.47796L2.60921 9.96191L5.47796 5.18066H15.4061V14.7432ZM7.77789 11.0525L8.86703 9.96191L7.77578 8.87137C7.61727 8.71286 7.52822 8.49788 7.52822 8.27371C7.52822 8.04955 7.61727 7.83456 7.77578 7.67605C7.93429 7.51755 8.14927 7.4285 8.37343 7.4285C8.5976 7.4285 8.81258 7.51755 8.97109 7.67605L10.0623 8.7666L11.1529 7.67535C11.3114 7.51684 11.5264 7.42779 11.7505 7.42779C11.9747 7.42779 12.1897 7.51684 12.3482 7.67535C12.5067 7.83386 12.5958 8.04884 12.5958 8.27301C12.5958 8.49717 12.5067 8.71216 12.3482 8.87066L11.2577 9.96191L12.3489 11.0525C12.5074 11.211 12.5965 11.426 12.5965 11.6501C12.5965 11.8743 12.5074 12.0893 12.3489 12.2478C12.1904 12.4063 11.9754 12.4953 11.7512 12.4953C11.5271 12.4953 11.3121 12.4063 11.1536 12.2478L10.0623 11.1572L8.97179 12.2485C8.81328 12.407 8.5983 12.496 8.37414 12.496C8.14997 12.496 7.93499 12.407 7.77648 12.2485C7.61797 12.09 7.52892 11.875 7.52892 11.6508C7.52892 11.4267 7.61797 11.2117 7.77648 11.0532L7.77789 11.0525Z"
            fill="white" fill-opacity="0.54" />
    </g>
    <defs>
        <clipPath id="clip0_5444_51133">
            <rect width="18" height="18" fill="white" transform="translate(0.5 0.961914)" />
        </clipPath>
    </defs>
</svg>