<svg width="25" height="25" viewBox="0 0 25 25" fill="none" xmlns="http://www.w3.org/2000/svg">
    <path
        d="M7 16.5C7.78333 16.5 8.546 16.5877 9.288 16.763C10.03 16.9383 10.7673 17.2007 11.5 17.55V7.7C10.8167 7.3 10.0917 7 9.325 6.8C8.55833 6.6 7.78333 6.5 7 6.5C6.4 6.5 5.804 6.55833 5.212 6.675C4.62 6.79167 4.04933 6.96667 3.5 7.2V17.1C4.08333 16.9 4.66267 16.75 5.238 16.65C5.81333 16.55 6.40067 16.5 7 16.5ZM13.5 17.55C14.2333 17.2 14.971 16.9377 15.713 16.763C16.455 16.5883 17.2173 16.5007 18 16.5C18.6 16.5 19.1877 16.55 19.763 16.65C20.3383 16.75 20.9173 16.9 21.5 17.1V7.2C20.95 6.96667 20.379 6.79167 19.787 6.675C19.195 6.55833 18.5993 6.5 18 6.5C17.2167 6.5 16.4417 6.6 15.675 6.8C14.9083 7 14.1833 7.3 13.5 7.7V17.55ZM12.5 19.975C12.2667 19.975 12.0457 19.946 11.837 19.888C11.6283 19.83 11.4327 19.7507 11.25 19.65C10.6 19.2667 9.91666 18.9793 9.2 18.788C8.48333 18.5967 7.75 18.5007 7 18.5C6.3 18.5 5.61267 18.5917 4.938 18.775C4.26333 18.9583 3.61733 19.2167 3 19.55C2.65 19.7333 2.31267 19.725 1.988 19.525C1.66333 19.325 1.50067 19.0333 1.5 18.65V6.6C1.5 6.41667 1.546 6.24167 1.638 6.075C1.73 5.90833 1.86733 5.78333 2.05 5.7C2.81667 5.3 3.61667 5 4.45 4.8C5.28333 4.6 6.13333 4.5 7 4.5C7.96667 4.5 8.91267 4.625 9.838 4.875C10.7633 5.125 11.6507 5.5 12.5 6C13.35 5.5 14.2377 5.125 15.163 4.875C16.0883 4.625 17.034 4.5 18 4.5C18.8667 4.5 19.7167 4.6 20.55 4.8C21.3833 5 22.1833 5.3 22.95 5.7C23.1333 5.78333 23.271 5.90833 23.363 6.075C23.455 6.24167 23.5007 6.41667 23.5 6.6V18.65C23.5 19.0333 23.3377 19.325 23.013 19.525C22.6883 19.725 22.3507 19.7333 22 19.55C21.3833 19.2167 20.7377 18.9583 20.063 18.775C19.3883 18.5917 18.7007 18.5 18 18.5C17.25 18.5 16.5167 18.596 15.8 18.788C15.0833 18.98 14.4 19.2673 13.75 19.65C13.5667 19.75 13.371 19.8293 13.163 19.888C12.955 19.9467 12.734 19.9757 12.5 19.975ZM14.5 9.275C14.5 9.125 14.5543 8.971 14.663 8.813C14.7717 8.655 14.8923 8.55067 15.025 8.5C15.5083 8.33333 15.9917 8.20833 16.475 8.125C16.9583 8.04167 17.4667 8 18 8C18.3333 8 18.6627 8.021 18.988 8.063C19.3133 8.105 19.634 8.159 19.95 8.225C20.1 8.25833 20.2293 8.34167 20.338 8.475C20.4467 8.60833 20.5007 8.75833 20.5 8.925C20.5 9.20833 20.4083 9.41667 20.225 9.55C20.0417 9.68333 19.8083 9.71667 19.525 9.65C19.2917 9.6 19.046 9.56267 18.788 9.538C18.53 9.51333 18.2673 9.50067 18 9.5C17.5667 9.5 17.1417 9.54167 16.725 9.625C16.3083 9.70833 15.9083 9.81667 15.525 9.95C15.225 10.0667 14.9793 10.0583 14.788 9.925C14.5967 9.79167 14.5007 9.575 14.5 9.275ZM14.5 14.775C14.5 14.625 14.5543 14.471 14.663 14.313C14.7717 14.155 14.8923 14.0507 15.025 14C15.5083 13.8333 15.9917 13.7083 16.475 13.625C16.9583 13.5417 17.4667 13.5 18 13.5C18.3333 13.5 18.6627 13.521 18.988 13.563C19.3133 13.605 19.634 13.659 19.95 13.725C20.1 13.7583 20.2293 13.8417 20.338 13.975C20.4467 14.1083 20.5007 14.2583 20.5 14.425C20.5 14.7083 20.4083 14.9167 20.225 15.05C20.0417 15.1833 19.8083 15.2167 19.525 15.15C19.2917 15.1 19.046 15.0627 18.788 15.038C18.53 15.0133 18.2673 15.0007 18 15C17.5667 15 17.1417 15.0377 16.725 15.113C16.3083 15.1883 15.9083 15.2923 15.525 15.425C15.225 15.5417 14.9793 15.5377 14.788 15.413C14.5967 15.2883 14.5007 15.0757 14.5 14.775ZM14.5 12.025C14.5 11.875 14.5543 11.721 14.663 11.563C14.7717 11.405 14.8923 11.3007 15.025 11.25C15.5083 11.0833 15.9917 10.9583 16.475 10.875C16.9583 10.7917 17.4667 10.75 18 10.75C18.3333 10.75 18.6627 10.771 18.988 10.813C19.3133 10.855 19.634 10.909 19.95 10.975C20.1 11.0083 20.2293 11.0917 20.338 11.225C20.4467 11.3583 20.5007 11.5083 20.5 11.675C20.5 11.9583 20.4083 12.1667 20.225 12.3C20.0417 12.4333 19.8083 12.4667 19.525 12.4C19.2917 12.35 19.046 12.3127 18.788 12.288C18.53 12.2633 18.2673 12.2507 18 12.25C17.5667 12.25 17.1417 12.2917 16.725 12.375C16.3083 12.4583 15.9083 12.5667 15.525 12.7C15.225 12.8167 14.9793 12.8083 14.788 12.675C14.5967 12.5417 14.5007 12.325 14.5 12.025Z"
        fill="white" />
</svg>