<svg width="15" height="16" viewBox="0 0 15 16" fill="none" xmlns="http://www.w3.org/2000/svg">
    <g clip-path="url(#clip0_9279_18032)">
        <path
            d="M8.75 2.375C9.24728 2.375 9.72419 2.57254 10.0758 2.92417C10.4275 3.27581 10.625 3.75272 10.625 4.25H12.5C12.8315 4.25 13.1495 4.3817 13.3839 4.61612C13.6183 4.85054 13.75 5.16848 13.75 5.5V12.375C13.75 12.7065 13.6183 13.0245 13.3839 13.2589C13.1495 13.4933 12.8315 13.625 12.5 13.625H2.5C2.16848 13.625 1.85054 13.4933 1.61612 13.2589C1.3817 13.0245 1.25 12.7065 1.25 12.375V5.5C1.25 5.16848 1.3817 4.85054 1.61612 4.61612C1.85054 4.3817 2.16848 4.25 2.5 4.25H4.375C4.375 3.75272 4.57254 3.27581 4.92417 2.92417C5.27581 2.57254 5.75272 2.375 6.25 2.375H8.75ZM6.875 8H2.5V12.375H12.5V8H8.125V8.625C8.12482 8.7843 8.06383 8.93752 7.95447 9.05336C7.84511 9.16919 7.69565 9.2389 7.53663 9.24823C7.3776 9.25757 7.22101 9.20583 7.09886 9.10358C6.9767 9.00134 6.89819 8.85631 6.87937 8.69812L6.875 8.625V8ZM12.5 5.5H2.5V6.75H12.5V5.5ZM8.75 3.625H6.25C6.09692 3.62502 5.94916 3.68122 5.83477 3.78295C5.72037 3.88467 5.64729 4.02484 5.62937 4.17687L5.625 4.25H9.375C9.37498 4.09692 9.31878 3.94916 9.21705 3.83477C9.11533 3.72037 8.97516 3.64729 8.82312 3.62937L8.75 3.625Z"
            fill="white" />
    </g>
    <defs>
        <clipPath id="clip0_9279_18032">
            <rect width="15" height="15" fill="white" transform="translate(0 0.5)" />
        </clipPath>
    </defs>
</svg>
    