<svg width="18" height="18" viewBox="0 0 18 18" fill="none" xmlns="http://www.w3.org/2000/svg">
    <path fill-rule="evenodd" clip-rule="evenodd"
        d="M5.175 3.45C4.98272 3.45 4.79831 3.52638 4.66235 3.66235C4.52638 3.79831 4.45 3.98272 4.45 4.175V14.5257L8.4403 12.2455C8.66319 12.1182 8.93681 12.1182 9.1597 12.2455L13.15 14.5257V4.175C13.15 3.98272 13.0736 3.79831 12.9377 3.66235C12.8017 3.52638 12.6173 3.45 12.425 3.45H5.175ZM3.63704 2.63704C4.04493 2.22915 4.59815 2 5.175 2H12.425C13.0018 2 13.5551 2.22915 13.963 2.63704C14.3708 3.04493 14.6 3.59815 14.6 4.175V15.775C14.6 16.0334 14.4624 16.2723 14.2389 16.4021C14.0154 16.5318 13.7397 16.5327 13.5153 16.4045L8.8 13.71L4.0847 16.4045C3.86031 16.5327 3.58463 16.5318 3.3611 16.4021C3.13757 16.2723 3 16.0334 3 15.775V4.175C3 3.59815 3.22915 3.04493 3.63704 2.63704Z"
        fill="white" />
</svg>
    