<svg width="15" height="16" viewBox="0 0 15 16" fill="none" xmlns="http://www.w3.org/2000/svg">
    <g clip-path="url(#clip0_9279_18038)">
        <path
            d="M9.375 2.375C9.70652 2.375 10.0245 2.5067 10.2589 2.74112C10.4933 2.97554 10.625 3.29348 10.625 3.625V6.125H11.875C12.2065 6.125 12.5245 6.2567 12.7589 6.49112C12.9933 6.72554 13.125 7.04348 13.125 7.375V12.375C13.2908 12.375 13.4497 12.4408 13.5669 12.5581C13.6842 12.6753 13.75 12.8342 13.75 13C13.75 13.1658 13.6842 13.3247 13.5669 13.4419C13.4497 13.5592 13.2908 13.625 13.125 13.625H1.875C1.70924 13.625 1.55027 13.5592 1.43306 13.4419C1.31585 13.3247 1.25 13.1658 1.25 13C1.25 12.8342 1.31585 12.6753 1.43306 12.5581C1.55027 12.4408 1.70924 12.375 1.875 12.375V6.125C1.875 5.79348 2.0067 5.47554 2.24112 5.24112C2.47554 5.0067 2.79348 4.875 3.125 4.875H4.375V3.625C4.375 3.29348 4.5067 2.97554 4.74112 2.74112C4.97554 2.5067 5.29348 2.375 5.625 2.375H9.375ZM4.375 6.125H3.125V12.375H4.375V6.125ZM11.875 7.375H10.625V12.375H11.875V7.375ZM9.375 3.625H5.625V12.375H9.375V3.625ZM8.125 7.375V8.625H6.875V7.375H8.125ZM8.125 4.875V6.125H6.875V4.875H8.125Z"
            fill="white" />
    </g>
    <defs>
        <clipPath id="clip0_9279_18038">
            <rect width="15" height="15" fill="white" transform="translate(0 0.5)" />
        </clipPath>
    </defs>
</svg>
    