<svg width="24" height="25" viewBox="0 0 24 25" fill="none" xmlns="http://www.w3.org/2000/svg">
    <path
        d="M14.1213 8.96446C14.5118 8.57394 15.145 8.57394 15.5355 8.96446C15.9261 9.35499 15.9261 9.98815 15.5355 10.3787L13.4142 12.5L15.5355 14.6213C15.9261 15.0118 15.9261 15.645 15.5355 16.0355C15.145 16.4261 14.5118 16.4261 14.1213 16.0355L12 13.9142L9.87868 16.0355C9.48815 16.4261 8.85499 16.4261 8.46446 16.0355C8.07394 15.645 8.07394 15.0118 8.46446 14.6213L10.5858 12.5L8.46446 10.3787C8.07394 9.98815 8.07394 9.35499 8.46446 8.96446C8.85499 8.57394 9.48815 8.57394 9.87868 8.96446L12 11.0858L14.1213 8.96446Z"
        fill="#F57968" />
    <path fill-rule="evenodd" clip-rule="evenodd"
        d="M22 12.5C22 18.0228 17.5228 22.5 12 22.5C6.47715 22.5 2 18.0228 2 12.5C2 6.97715 6.47715 2.5 12 2.5C17.5228 2.5 22 6.97715 22 12.5ZM20 12.5C20 16.9183 16.4183 20.5 12 20.5C7.58172 20.5 4 16.9183 4 12.5C4 8.08172 7.58172 4.5 12 4.5C16.4183 4.5 20 8.08172 20 12.5Z"
        fill="#F57968" />
</svg>
    