<svg width="20" height="20" viewBox="0 0 20 20" fill="none" xmlns="http://www.w3.org/2000/svg">
    <path
        d="M5 18.3334C4.30556 18.3334 3.71528 18.0904 3.22917 17.6042C2.74306 17.1181 2.5 16.5279 2.5 15.8334V13.3334H5V1.66675H17.5V15.8334C17.5 16.5279 17.2569 17.1181 16.7708 17.6042C16.2847 18.0904 15.6944 18.3334 15 18.3334H5ZM15 16.6667C15.2361 16.6667 15.4342 16.5867 15.5942 16.4267C15.7542 16.2667 15.8339 16.069 15.8333 15.8334V3.33341H6.66667V13.3334H14.1667V15.8334C14.1667 16.0695 14.2467 16.2676 14.4067 16.4276C14.5667 16.5876 14.7644 16.6673 15 16.6667ZM7.5 7.50008V5.83342H15V7.50008H7.5ZM7.5 10.0001V8.33342H15V10.0001H7.5ZM5 16.6667H12.5V15.0001H4.16667V15.8334C4.16667 16.0695 4.24667 16.2676 4.40667 16.4276C4.56667 16.5876 4.76444 16.6673 5 16.6667ZM5 16.6667H4.16667H12.5H5Z"
        fill="white" />
</svg>
    