<svg width="15" height="16" viewBox="0 0 15 16" fill="none" xmlns="http://www.w3.org/2000/svg">
    <path fill-rule="evenodd" clip-rule="evenodd"
        d="M9.58332 1.75C7.28592 1.75 5.41665 3.61979 5.41665 5.91667C5.41665 8.21406 7.28592 10.0833 9.58332 10.0833C11.8807 10.0833 13.75 8.21406 13.75 5.91667C13.75 3.61979 11.8807 1.75 9.58332 1.75ZM9.58332 9.04167C7.85988 9.04167 6.45832 7.6401 6.45832 5.91667C6.45832 4.19375 7.85988 2.79167 9.58332 2.79167C11.3068 2.79167 12.7083 4.19375 12.7083 5.91667C12.7083 7.6401 11.3068 9.04167 9.58332 9.04167ZM9.06252 3.3125H10.1042V3.83333H11.1458V4.875H9.32293C9.1797 4.875 9.06252 4.99167 9.06252 5.13542C9.06252 5.27917 9.1797 5.39583 9.32293 5.39583H9.84377C10.562 5.39583 11.1458 5.98021 11.1458 6.69792C11.1458 7.32708 10.6979 7.85312 10.1042 7.97396V8.52083H9.06252V8H8.02085V6.95833H9.84377C9.98752 6.95833 10.1042 6.84167 10.1042 6.69792C10.1042 6.55417 9.98752 6.4375 9.84377 6.4375H9.32293C8.60522 6.4375 8.02085 5.85312 8.02085 5.13542C8.02085 4.50625 8.46877 3.98021 9.06252 3.85938V3.3125ZM2.29167 10.0833C2.29167 11.8068 3.69323 13.2083 5.41667 13.2083C6.82604 13.2083 8.01875 12.2708 8.40729 10.987C8.74271 11.0641 9.09062 11.1088 9.44792 11.1182C8.98646 12.9156 7.35677 14.25 5.41667 14.25C3.11927 14.25 1.25 12.3807 1.25 10.0833C1.25 8.14374 2.58437 6.51406 4.38229 6.0526C4.39115 6.40937 4.43542 6.75676 4.51354 7.0927C3.22969 7.48124 2.29167 8.67395 2.29167 10.0833ZM5.42394 9.04167H5.15623C5.013 9.04167 4.89582 9.15834 4.89582 9.30209C4.89582 9.44584 5.013 9.56251 5.15623 9.56251H5.67707C5.74894 9.56251 5.81769 9.5724 5.8854 9.58386C6.18228 9.8823 6.51665 10.1406 6.87759 10.3609C6.94321 10.5162 6.97915 10.6859 6.97915 10.8646C6.97915 11.4938 6.53123 12.0198 5.93748 12.1406V12.6875H4.89582V12.1667H3.85415V11.125H5.67707C5.82082 11.125 5.93748 11.0083 5.93748 10.8646C5.93748 10.7208 5.82082 10.6042 5.67707 10.6042H5.15623C4.43853 10.6042 3.85415 10.0198 3.85415 9.30209C3.85415 8.69584 4.27186 8.19011 4.8328 8.0448C4.99269 8.40053 5.19217 8.73386 5.42394 9.04167Z"
        fill="white" />
</svg>
    