<svg width="18" height="18" viewBox="0 0 18 18" fill="none" xmlns="http://www.w3.org/2000/svg">
<path d="M9 15C9.05092 15 9.09968 15 9.14701 14.9996C9.53129 14.9967 9.91524 15.2108 10.031 15.5772C10.1612 15.9898 9.90518 16.4324 9.47466 16.4751C9.31866 16.4906 9.15933 16.5 9 16.5C4.875 16.5 1.5 13.125 1.5 9C1.5 4.875 4.875 1.5 9 1.5C13.125 1.5 16.5 4.875 16.5 9C16.5 9.1579 16.4909 9.31642 16.4752 9.47465C16.4324 9.90516 15.9898 10.1612 15.5772 10.031C15.2108 9.91524 14.9967 9.53129 14.9996 9.14701C15 9.09968 15 9.05092 15 9C15 5.7 12.3 3 9 3C5.7 3 3 5.7 3 9C3 12.3 5.7 15 9 15ZM9.375 9.225L11.0755 10.2124C11.3847 10.3919 11.4302 10.8202 11.1657 11.0607C10.9931 11.2176 10.7381 11.2429 10.5381 11.1229L9.22101 10.3326C8.6186 9.97116 8.25 9.32015 8.25 8.61762V5.8125C8.25 5.50184 8.50184 5.25 8.8125 5.25C9.12316 5.25 9.375 5.50184 9.375 5.8125V9.225ZM13.305 13.3125L14.25 11.25L15.1875 13.3125L17.25 14.25L15.1875 15.195L14.25 17.25L13.305 15.195L11.25 14.25L13.305 13.3125Z" fill="white" fill-opacity="0.54"/>
</svg>
