<svg width="22" height="23" viewBox="0 0 22 23" fill="none" xmlns="http://www.w3.org/2000/svg">
<path fill-rule="evenodd" clip-rule="evenodd" d="M11.0002 20.6666C16.0628 20.6666 20.1668 16.5625 20.1668 11.4999C20.1668 6.43731 16.0628 2.33325 11.0002 2.33325C5.93755 2.33325 1.8335 6.43731 1.8335 11.4999C1.8335 16.5625 5.93755 20.6666 11.0002 20.6666ZM9.86378 15.4559C10.1677 15.6585 10.5775 15.5834 10.7897 15.2862L14.9713 9.43241C15.3393 8.91733 15.2199 8.20149 14.7047 7.83366C14.1897 7.46591 13.474 7.5853 13.1062 8.10033L9.83417 12.6825L8.96098 12.0998C8.43434 11.7483 7.72249 11.8905 7.37134 12.4174C7.02036 12.944 7.16271 13.6554 7.68929 14.0064L9.86378 15.4559Z" fill="white" fill-opacity="0.87"/>
</svg>
