<svg width="91" height="90" viewBox="0 0 91 90" fill="none" xmlns="http://www.w3.org/2000/svg">
    <g clip-path="url(#clip0_13742_116052)">
        <rect x="7.52298" y="19.3145" width="75.0732" height="14.9268"
            fill="url(#paint0_linear_13742_116052)" />
        <rect x="7.53125" y="33.4023" width="75.7617" height="43.2422"
            fill="url(#paint1_linear_13742_116052)" />
        <g filter="url(#filter0_d_13742_116052)">
            <path
                d="M84.875 22.4997C84.875 19.5161 83.6897 16.6546 81.58 14.5448C79.4702 12.435 76.6087 11.2497 73.625 11.2497H70.8125V8.51634C70.8125 7.00287 69.6488 5.70384 68.1354 5.62826C67.7551 5.60994 67.375 5.66901 67.0183 5.80191C66.6615 5.9348 66.3354 6.13874 66.0598 6.40138C65.7842 6.66402 65.5648 6.97988 65.4148 7.32983C65.2649 7.67978 65.1875 8.05653 65.1875 8.43724V11.2497H25.8125V8.51634C25.8125 7.00287 24.6488 5.70384 23.1354 5.62826C22.7551 5.60994 22.375 5.66901 22.0183 5.80191C21.6615 5.9348 21.3354 6.13874 21.0598 6.40138C20.7842 6.66402 20.5647 6.97988 20.4148 7.32983C20.2649 7.67978 20.1875 8.05653 20.1875 8.43724V11.2497H17.375C14.3913 11.2497 11.5298 12.435 9.42005 14.5448C7.31026 16.6546 6.125 19.5161 6.125 22.4997V24.6091V31.4646L10.7832 31.4332V25.3122H81.58V30.9444L84.875 30.9372V22.4997ZM6.125 73.1247C6.125 76.1084 7.31026 78.9699 9.42005 81.0797C11.5298 83.1895 14.3913 84.3747 17.375 84.3747H73.625C76.6087 84.3747 79.4702 83.1895 81.58 81.0797C83.6897 78.9699 84.875 76.1084 84.875 73.1247V30.9372C84.875 30.9372 84.875 30.9372 84.3477 30.9372L6.125 31.4646V73.1247ZM66.5938 36.5622C67.4281 36.5622 68.2438 36.8097 68.9376 37.2732C69.6313 37.7368 70.1721 38.3957 70.4914 39.1665C70.8107 39.9374 70.8942 40.7857 70.7314 41.604C70.5687 42.4224 70.1669 43.1741 69.5769 43.7641C68.9869 44.3541 68.2351 44.7559 67.4168 44.9187C66.5984 45.0815 65.7502 44.9979 64.9793 44.6786C64.2084 44.3593 63.5496 43.8186 63.086 43.1248C62.6224 42.431 62.375 41.6154 62.375 40.781C62.375 39.6621 62.8195 38.5891 63.6106 37.7979C64.4018 37.0067 65.4749 36.5622 66.5938 36.5622ZM66.5938 50.6247C67.4281 50.6247 68.2438 50.8722 68.9376 51.3357C69.6313 51.7993 70.1721 52.4582 70.4914 53.229C70.8107 53.9999 70.8942 54.8482 70.7314 55.6665C70.5687 56.4849 70.1669 57.2366 69.5769 57.8266C68.9869 58.4166 68.2351 58.8184 67.4168 58.9812C66.5984 59.144 65.7502 59.0604 64.9793 58.7411C64.2084 58.4218 63.5496 57.8811 63.086 57.1873C62.6224 56.4935 62.375 55.6779 62.375 54.8435C62.375 53.7246 62.8195 52.6516 63.6106 51.8604C64.4018 51.0692 65.4749 50.6247 66.5938 50.6247ZM52.5313 36.5622C53.3656 36.5622 54.1813 36.8097 54.8751 37.2732C55.5688 37.7368 56.1096 38.3957 56.4289 39.1665C56.7482 39.9374 56.8317 40.7857 56.6689 41.604C56.5062 42.4224 56.1044 43.1741 55.5144 43.7641C54.9244 44.3541 54.1726 44.7559 53.3543 44.9187C52.5359 45.0815 51.6877 44.9979 50.9168 44.6786C50.1459 44.3593 49.4871 43.8186 49.0235 43.1248C48.5599 42.431 48.3125 41.6154 48.3125 40.781C48.3125 39.6621 48.757 38.5891 49.5481 37.7979C50.3393 37.0067 51.4124 36.5622 52.5313 36.5622ZM52.5313 50.6247C53.3656 50.6247 54.1813 50.8722 54.8751 51.3357C55.5688 51.7993 56.1096 52.4582 56.4289 53.229C56.7482 53.9999 56.8317 54.8482 56.6689 55.6665C56.5062 56.4849 56.1044 57.2366 55.5144 57.8266C54.9244 58.4166 54.1726 58.8184 53.3543 58.9812C52.5359 59.144 51.6877 59.0604 50.9168 58.7411C50.1459 58.4218 49.4871 57.8811 49.0235 57.1873C48.5599 56.4935 48.3125 55.6779 48.3125 54.8435C48.3125 53.7246 48.757 52.6516 49.5481 51.8604C50.3393 51.0692 51.4124 50.6247 52.5313 50.6247ZM52.5313 64.6872C53.3656 64.6872 54.1813 64.9347 54.8751 65.3982C55.5688 65.8618 56.1096 66.5207 56.4289 67.2915C56.7482 68.0624 56.8317 68.9107 56.6689 69.729C56.5062 70.5474 56.1044 71.2991 55.5144 71.8891C54.9244 72.4791 54.1726 72.8809 53.3543 73.0437C52.5359 73.2065 51.6877 73.1229 50.9168 72.8036C50.1459 72.4843 49.4871 71.9436 49.0235 71.2498C48.5599 70.556 48.3125 69.7404 48.3125 68.906C48.3125 67.7871 48.757 66.7141 49.5481 65.9229C50.3393 65.1317 51.4124 64.6872 52.5313 64.6872ZM38.4688 50.6247C39.3031 50.6247 40.1188 50.8722 40.8126 51.3357C41.5063 51.7993 42.0471 52.4582 42.3664 53.229C42.6857 53.9999 42.7692 54.8482 42.6064 55.6665C42.4437 56.4849 42.0419 57.2366 41.4519 57.8266C40.8619 58.4166 40.1101 58.8184 39.2918 58.9812C38.4734 59.144 37.6252 59.0604 36.8543 58.7411C36.0834 58.4218 35.4246 57.8811 34.961 57.1873C34.4974 56.4935 34.25 55.6779 34.25 54.8435C34.25 53.7246 34.6945 52.6516 35.4856 51.8604C36.2768 51.0692 37.3499 50.6247 38.4688 50.6247ZM38.4688 64.6872C39.3031 64.6872 40.1188 64.9347 40.8126 65.3982C41.5063 65.8618 42.0471 66.5207 42.3664 67.2915C42.6857 68.0624 42.7692 68.9107 42.6064 69.729C42.4437 70.5474 42.0419 71.2991 41.4519 71.8891C40.8619 72.4791 40.1101 72.8809 39.2918 73.0437C38.4734 73.2065 37.6252 73.1229 36.8543 72.8036C36.0834 72.4843 35.4246 71.9436 34.961 71.2498C34.4974 70.556 34.25 69.7404 34.25 68.906C34.25 67.7871 34.6945 66.7141 35.4856 65.9229C36.2768 65.1317 37.3499 64.6872 38.4688 64.6872ZM24.4062 50.6247C25.2406 50.6247 26.0563 50.8722 26.7501 51.3357C27.4438 51.7993 27.9846 52.4582 28.3039 53.229C28.6232 53.9999 28.7067 54.8482 28.5439 55.6665C28.3812 56.4849 27.9794 57.2366 27.3894 57.8266C26.7994 58.4166 26.0476 58.8184 25.2293 58.9812C24.4109 59.144 23.5627 59.0604 22.7918 58.7411C22.0209 58.4218 21.362 57.8811 20.8985 57.1873C20.4349 56.4935 20.1875 55.6779 20.1875 54.8435C20.1875 53.7246 20.632 52.6516 21.4231 51.8604C22.2143 51.0692 23.2874 50.6247 24.4062 50.6247ZM24.4062 64.6872C25.2406 64.6872 26.0563 64.9347 26.7501 65.3982C27.4438 65.8618 27.9846 66.5207 28.3039 67.2915C28.6232 68.0624 28.7067 68.9107 28.5439 69.729C28.3812 70.5474 27.9794 71.2991 27.3894 71.8891C26.7994 72.4791 26.0476 72.8809 25.2293 73.0437C24.4109 73.2065 23.5627 73.1229 22.7918 72.8036C22.0209 72.4843 21.362 71.9436 20.8985 71.2498C20.4349 70.556 20.1875 69.7404 20.1875 68.906C20.1875 67.7871 20.632 66.7141 21.4231 65.9229C22.2143 65.1317 23.2874 64.6872 24.4062 64.6872Z"
                fill="url(#paint2_linear_13742_116052)" />
        </g>
    </g>
    <defs>
        <filter id="filter0_d_13742_116052" x="2.80793" y="0.234756" width="91.189" height="91.189"
            filterUnits="userSpaceOnUse" color-interpolation-filters="sRGB">
            <feFlood flood-opacity="0" result="BackgroundImageFix" />
            <feColorMatrix in="SourceAlpha" type="matrix"
                values="0 0 0 0 0 0 0 0 0 0 0 0 0 0 0 0 0 0 127 0" result="hardAlpha" />
            <feOffset dx="2.90244" dy="0.829268" />
            <feGaussianBlur stdDeviation="3.10976" />
            <feComposite in2="hardAlpha" operator="out" />
            <feColorMatrix type="matrix" values="0 0 0 0 0 0 0 0 0 0 0 0 0 0 0 0 0 0 0.18 0" />
            <feBlend mode="normal" in2="BackgroundImageFix" result="effect1_dropShadow_13742_116052" />
            <feBlend mode="normal" in="SourceGraphic" in2="effect1_dropShadow_13742_116052"
                result="shape" />
        </filter>
        <linearGradient id="paint0_linear_13742_116052" x1="45.0596" y1="19.3145" x2="45.0596"
            y2="34.2413" gradientUnits="userSpaceOnUse">
            <stop stop-color="#161616" />
            <stop offset="1" stop-color="#1C1C1C" />
        </linearGradient>
        <linearGradient id="paint1_linear_13742_116052" x1="45.4121" y1="33.4023" x2="45.4121"
            y2="76.6445" gradientUnits="userSpaceOnUse">
            <stop stop-color="#1A1A1A" />
            <stop offset="1" stop-color="#0B0B0B" />
        </linearGradient>
        <linearGradient id="paint2_linear_13742_116052" x1="45.5" y1="5.625" x2="45.5" y2="84.3747"
            gradientUnits="userSpaceOnUse">
            <stop stop-color="#2D2C2C" />
            <stop offset="1" stop-color="#141414" />
        </linearGradient>
        <clipPath id="clip0_13742_116052">
            <rect width="90" height="90" fill="white" transform="translate(0.5)" />
        </clipPath>
    </defs>
</svg>
    