<svg width="18" height="18" viewBox="0 0 18 18" fill="none" xmlns="http://www.w3.org/2000/svg">
    <path
        d="M3.75 15.75C3.3375 15.75 2.9845 15.6033 2.691 15.3097C2.3975 15.0162 2.2505 14.663 2.25 14.25V3.75C2.25 3.3375 2.397 2.9845 2.691 2.691C2.985 2.3975 3.338 2.2505 3.75 2.25H14.25C14.6625 2.25 15.0157 2.397 15.3097 2.691C15.6038 2.985 15.7505 3.338 15.75 3.75V14.25C15.75 14.6625 15.6033 15.0157 15.3097 15.3097C15.0162 15.6038 14.663 15.7505 14.25 15.75H3.75ZM4.5 9.43125L6.975 6.95625C7.125 6.80625 7.3 6.73125 7.5 6.73125C7.7 6.73125 7.875 6.80625 8.025 6.95625L10.5 9.43125L12.975 6.95625C13.125 6.80625 13.3 6.73125 13.5 6.73125C13.7 6.73125 13.875 6.80625 14.025 6.95625L14.25 7.18125V3.75H3.75V8.68125L4.5 9.43125ZM3.75 14.25H14.25V9.3L13.5 8.55L11.025 11.025C10.875 11.175 10.7 11.25 10.5 11.25C10.3 11.25 10.125 11.175 9.975 11.025L7.5 8.55L5.025 11.025C4.875 11.175 4.7 11.25 4.5 11.25C4.3 11.25 4.125 11.175 3.975 11.025L3.75 10.8V14.25ZM3.75 14.25V9.3V10.8V3.75V14.25Z"
        fill="white" />
</svg>
    