<svg width="37" height="36" viewBox="0 0 37 36" fill="none" xmlns="http://www.w3.org/2000/svg">
<g id="fluent-emoji-high-contrast:sparkles">
<path id="Vector" d="M12.335 7.93334C12.1739 7.86744 12.0274 7.77028 11.904 7.64748C11.7806 7.52467 11.6828 7.37865 11.6161 7.21784L10.5463 4.78896C10.346 4.40309 9.77002 4.40309 9.58102 4.78896L8.51002 7.21896C8.36498 7.53601 8.11 7.7898 7.79227 7.93334L6.42652 8.52284C6.33667 8.56457 6.26063 8.63112 6.20734 8.71463C6.15405 8.79814 6.12574 8.89515 6.12574 8.99421C6.12574 9.09328 6.15405 9.19028 6.20734 9.2738C6.26063 9.35731 6.33667 9.42385 6.42652 9.46559L7.79227 10.0551C8.1219 10.1912 8.38065 10.4522 8.51002 10.7706L9.58102 13.2107C9.78127 13.5966 10.3573 13.5966 10.5463 13.2107L11.6173 10.7695C11.759 10.4522 12.0178 10.2025 12.335 10.0551L13.7008 9.46559C13.7906 9.42385 13.8667 9.35731 13.92 9.2738C13.9732 9.19028 14.0016 9.09328 14.0016 8.99421C14.0016 8.89515 13.9732 8.79814 13.92 8.71463C13.8667 8.63112 13.7906 8.56457 13.7008 8.52284L12.335 7.93334ZM29.2708 15.2492C28.2927 14.8108 27.5191 14.0152 27.1085 13.0251L23.8888 5.41109C23.7572 5.13799 23.5511 4.90756 23.2944 4.74631C23.0377 4.58506 22.7407 4.49951 22.4375 4.49951C22.1344 4.49951 21.8373 4.58506 21.5806 4.74631C21.3239 4.90756 21.1179 5.13799 20.9863 5.41109L17.7654 13.0251C17.3481 14.0104 16.5772 14.8038 15.6043 15.2492L11.5295 17.0942C10.3235 17.6905 10.3235 19.4342 11.5295 20.0305L15.6043 21.8755C16.5819 22.3142 17.355 23.1098 17.7654 24.0996L20.9863 31.7136C21.1179 31.9867 21.3239 32.2171 21.5806 32.3784C21.8373 32.5396 22.1344 32.6252 22.4375 32.6252C22.7407 32.6252 23.0377 32.5396 23.2944 32.3784C23.5511 32.2171 23.7572 31.9867 23.8888 31.7136L27.1096 24.0996C27.5269 23.1143 28.2979 22.3208 29.2708 21.8755L33.3455 20.0305C34.5515 19.4342 34.5515 17.6905 33.3455 17.0942L29.2708 15.2492ZM9.81615 22.8711C9.99615 23.3121 10.3269 23.6541 10.7409 23.8521L12.4846 24.6677C12.6026 24.7291 12.7014 24.8217 12.7704 24.9353C12.8393 25.049 12.8758 25.1794 12.8758 25.3123C12.8758 25.4453 12.8393 25.5757 12.7704 25.6893C12.7014 25.803 12.6026 25.8956 12.4846 25.957L10.7409 26.7726C10.3269 26.9706 9.99727 27.3238 9.81615 27.7536L8.43465 31.1027C8.37948 31.2212 8.29162 31.3215 8.18141 31.3917C8.0712 31.462 7.94322 31.4993 7.81252 31.4993C7.68182 31.4993 7.55384 31.462 7.44363 31.3917C7.33342 31.3215 7.24556 31.2212 7.1904 31.1027L5.81002 27.7536C5.63504 27.3226 5.30518 26.9727 4.88527 26.7726L3.14152 25.957C3.0236 25.8956 2.92477 25.803 2.8558 25.6893C2.78684 25.5757 2.75037 25.4453 2.75037 25.3123C2.75037 25.1794 2.78684 25.049 2.8558 24.9353C2.92477 24.8217 3.0236 24.7291 3.14152 24.6677L4.88527 23.8521C5.29927 23.6541 5.6289 23.3008 5.81002 22.8711L7.19152 19.522C7.24669 19.4035 7.33454 19.3032 7.44475 19.2329C7.55496 19.1627 7.68295 19.1254 7.81365 19.1254C7.94435 19.1254 8.07233 19.1627 8.18254 19.2329C8.29275 19.3032 8.3806 19.4035 8.43577 19.522L9.81502 22.8711H9.81615Z" fill="url(#paint0_linear_3734_45943)"/>
</g>
<defs>
<linearGradient id="paint0_linear_3734_45943" x1="18.5002" y1="4.49951" x2="18.5002" y2="32.6252" gradientUnits="userSpaceOnUse">
<stop stop-color="#D9BDFA"/>
<stop offset="1" stop-color="#A667F3"/>
</linearGradient>
</defs>
</svg>
