<svg width="30" height="30" viewBox="0 0 30 30" fill="none" xmlns="http://www.w3.org/2000/svg">
<g id="ic_chat_filled">
<g id="Vector">
<path d="M8.75123 22.5C8.69623 22.09 8.65873 21.675 8.65873 21.25C8.65873 15.7275 13.455 11.25 19.3725 11.25C21.9612 11.25 24.335 12.1075 26.1875 13.5337C26.2275 13.1937 26.2475 12.8488 26.2475 12.5C26.2475 6.98625 21.2 2.5 14.9975 2.5C8.79498 2.5 3.74748 6.98625 3.74748 12.5C3.74748 14.3938 4.33248 16.1988 5.44748 17.7812L2.43654 20.793C1.8067 21.423 2.2529 22.5 3.14374 22.5H8.75123Z" fill="#F7B39D"/>
<path d="M26.8237 24.2362C27.2662 23.2975 27.4962 22.2787 27.4962 21.25C27.4962 17.1138 23.8512 13.75 19.3712 13.75C14.8912 13.75 11.2462 17.1138 11.2462 21.25C11.2462 25.3862 14.8912 28.75 19.3712 28.75H27.9633C28.7619 28.75 29.2383 27.8601 28.7955 27.1955L26.8237 24.2362Z" fill="#F7B39D"/>
</g>
</g>
</svg>
