<svg width="18" height="18" viewBox="0 0 18 18" fill="none" xmlns="http://www.w3.org/2000/svg">
    <path
        d="M5.48438 2.53125C4.9003 2.53125 4.32935 2.70445 3.84371 3.02894C3.35807 3.35344 2.97956 3.81465 2.75604 4.35426C2.53253 4.89388 2.47405 5.48765 2.58799 6.0605C2.70194 6.63335 2.9832 7.15955 3.3962 7.57255C3.8092 7.98555 4.3354 8.26681 4.90825 8.38076C5.4811 8.4947 6.07488 8.43622 6.61449 8.21271C7.1541 7.98919 7.61532 7.61068 7.93981 7.12504C8.2643 6.63941 8.4375 6.06845 8.4375 5.48438C8.4375 4.70116 8.12637 3.95002 7.57255 3.3962C7.01873 2.84238 6.26759 2.53125 5.48438 2.53125ZM5.48438 6.75C5.23406 6.75 4.98936 6.67577 4.78123 6.53671C4.5731 6.39764 4.41088 6.19997 4.31509 5.96871C4.2193 5.73745 4.19424 5.48297 4.24307 5.23747C4.2919 4.99196 4.41244 4.76645 4.58944 4.58944C4.76645 4.41244 4.99196 4.2919 5.23747 4.24307C5.48297 4.19424 5.73745 4.2193 5.96871 4.31509C6.19997 4.41088 6.39764 4.5731 6.53671 4.78123C6.67577 4.98936 6.75 5.23406 6.75 5.48438C6.75 5.82004 6.61666 6.14196 6.37931 6.37931C6.14196 6.61666 5.82004 6.75 5.48438 6.75ZM12.5156 8.4375C13.0997 8.4375 13.6707 8.2643 14.1563 7.93981C14.6419 7.61532 15.0204 7.1541 15.244 6.61449C15.4675 6.07488 15.526 5.4811 15.412 4.90825C15.2981 4.3354 15.0168 3.8092 14.6038 3.3962C14.1908 2.9832 13.6646 2.70194 13.0918 2.58799C12.5189 2.47405 11.9251 2.53253 11.3855 2.75604C10.8459 2.97956 10.3847 3.35807 10.0602 3.84371C9.7357 4.32935 9.5625 4.9003 9.5625 5.48438C9.5625 6.26759 9.87363 7.01873 10.4275 7.57255C10.9813 8.12637 11.7324 8.4375 12.5156 8.4375ZM12.5156 4.21875C12.7659 4.21875 13.0106 4.29298 13.2188 4.43205C13.4269 4.57112 13.5891 4.76878 13.6849 5.00004C13.7807 5.23131 13.8058 5.48578 13.7569 5.73129C13.7081 5.97679 13.5876 6.20231 13.4106 6.37931C13.2336 6.55631 13.008 6.67685 12.7625 6.72568C12.517 6.77452 12.2626 6.74945 12.0313 6.65366C11.8 6.55787 11.6024 6.39565 11.4633 6.18752C11.3242 5.97939 11.25 5.73469 11.25 5.48438C11.25 5.14871 11.3833 4.8268 11.6207 4.58944C11.858 4.35209 12.18 4.21875 12.5156 4.21875ZM5.48438 9.5625C4.9003 9.5625 4.32935 9.7357 3.84371 10.0602C3.35807 10.3847 2.97956 10.8459 2.75604 11.3855C2.53253 11.9251 2.47405 12.5189 2.58799 13.0918C2.70194 13.6646 2.9832 14.1908 3.3962 14.6038C3.8092 15.0168 4.3354 15.2981 4.90825 15.412C5.4811 15.526 6.07488 15.4675 6.61449 15.244C7.1541 15.0204 7.61532 14.6419 7.93981 14.1563C8.2643 13.6707 8.4375 13.0997 8.4375 12.5156C8.4375 11.7324 8.12637 10.9813 7.57255 10.4275C7.01873 9.87363 6.26759 9.5625 5.48438 9.5625ZM5.48438 13.7813C5.23406 13.7813 4.98936 13.707 4.78123 13.568C4.5731 13.4289 4.41088 13.2312 4.31509 13C4.2193 12.7687 4.19424 12.5142 4.24307 12.2687C4.2919 12.0232 4.41244 11.7977 4.58944 11.6207C4.76645 11.4437 4.99196 11.3232 5.23747 11.2743C5.48297 11.2255 5.73745 11.2505 5.96871 11.3463C6.19997 11.4421 6.39764 11.6044 6.53671 11.8125C6.67577 12.0206 6.75 12.2653 6.75 12.5156C6.75 12.8513 6.61666 13.1732 6.37931 13.4106C6.14196 13.6479 5.82004 13.7813 5.48438 13.7813ZM12.5156 9.5625C11.9316 9.5625 11.3606 9.7357 10.875 10.0602C10.3893 10.3847 10.0108 10.8459 9.78729 11.3855C9.56378 11.9251 9.5053 12.5189 9.61924 13.0918C9.73319 13.6646 10.0144 14.1908 10.4275 14.6038C10.8405 15.0168 11.3667 15.2981 11.9395 15.412C12.5124 15.526 13.1061 15.4675 13.6457 15.244C14.1854 15.0204 14.6466 14.6419 14.9711 14.1563C15.2956 13.6707 15.4688 13.0997 15.4688 12.5156C15.4688 11.7324 15.1576 10.9813 14.6038 10.4275C14.05 9.87363 13.2988 9.5625 12.5156 9.5625ZM12.5156 13.7813C12.2653 13.7813 12.0206 13.707 11.8125 13.568C11.6044 13.4289 11.4421 13.2312 11.3463 13C11.2505 12.7687 11.2255 12.5142 11.2743 12.2687C11.3232 12.0232 11.4437 11.7977 11.6207 11.6207C11.7977 11.4437 12.0232 11.3232 12.2687 11.2743C12.5142 11.2255 12.7687 11.2505 13 11.3463C13.2312 11.4421 13.4289 11.6044 13.568 11.8125C13.707 12.0206 13.7813 12.2653 13.7813 12.5156C13.7813 12.8513 13.6479 13.1732 13.4106 13.4106C13.1732 13.6479 12.8513 13.7813 12.5156 13.7813Z"
        fill="white" />
</svg>