<svg width="40" height="40" viewBox="0 0 40 40" fill="none" xmlns="http://www.w3.org/2000/svg">
    <path
        d="M30 6.66732H28.3333V5.00065C28.3333 4.55862 28.1577 4.1347 27.8452 3.82214C27.5326 3.50958 27.1087 3.33398 26.6667 3.33398C26.2246 3.33398 25.8007 3.50958 25.4882 3.82214C25.1756 4.1347 25 4.55862 25 5.00065V6.66732H15V5.00065C15 4.55862 14.8244 4.1347 14.5118 3.82214C14.1993 3.50958 13.7754 3.33398 13.3333 3.33398C12.8913 3.33398 12.4674 3.50958 12.1548 3.82214C11.8423 4.1347 11.6667 4.55862 11.6667 5.00065V6.66732H10C8.67392 6.66732 7.40215 7.1941 6.46447 8.13178C5.52678 9.06947 5 10.3412 5 11.6673V31.6673C5 32.9934 5.52678 34.2652 6.46447 35.2029C7.40215 36.1405 8.67392 36.6673 10 36.6673H30C31.3261 36.6673 32.5979 36.1405 33.5355 35.2029C34.4732 34.2652 35 32.9934 35 31.6673V11.6673C35 10.3412 34.4732 9.06947 33.5355 8.13178C32.5979 7.1941 31.3261 6.66732 30 6.66732ZM13.3333 28.334C13.0037 28.334 12.6815 28.2362 12.4074 28.0531C12.1333 27.87 11.9197 27.6097 11.7935 27.3051C11.6674 27.0006 11.6344 26.6655 11.6987 26.3422C11.763 26.0189 11.9217 25.7219 12.1548 25.4888C12.3879 25.2557 12.6849 25.097 13.0082 25.0327C13.3315 24.9684 13.6666 25.0014 13.9711 25.1275C14.2757 25.2537 14.536 25.4673 14.7191 25.7414C14.9023 26.0154 15 26.3377 15 26.6673C15 27.1093 14.8244 27.5333 14.5118 27.8458C14.1993 28.1584 13.7754 28.334 13.3333 28.334ZM26.6667 28.334H20C19.558 28.334 19.134 28.1584 18.8215 27.8458C18.5089 27.5333 18.3333 27.1093 18.3333 26.6673C18.3333 26.2253 18.5089 25.8014 18.8215 25.4888C19.134 25.1762 19.558 25.0007 20 25.0007H26.6667C27.1087 25.0007 27.5326 25.1762 27.8452 25.4888C28.1577 25.8014 28.3333 26.2253 28.3333 26.6673C28.3333 27.1093 28.1577 27.5333 27.8452 27.8458C27.5326 28.1584 27.1087 28.334 26.6667 28.334ZM31.6667 18.334H8.33333V11.6673C8.33333 11.2253 8.50893 10.8014 8.82149 10.4888C9.13405 10.1762 9.55797 10.0007 10 10.0007H11.6667V11.6673C11.6667 12.1093 11.8423 12.5333 12.1548 12.8458C12.4674 13.1584 12.8913 13.334 13.3333 13.334C13.7754 13.334 14.1993 13.1584 14.5118 12.8458C14.8244 12.5333 15 12.1093 15 11.6673V10.0007H25V11.6673C25 12.1093 25.1756 12.5333 25.4882 12.8458C25.8007 13.1584 26.2246 13.334 26.6667 13.334C27.1087 13.334 27.5326 13.1584 27.8452 12.8458C28.1577 12.5333 28.3333 12.1093 28.3333 11.6673V10.0007H30C30.442 10.0007 30.866 10.1762 31.1785 10.4888C31.4911 10.8014 31.6667 11.2253 31.6667 11.6673V18.334Z"
        fill="url(#paint0_linear_20472_34476)" />
    <defs>
        <linearGradient id="paint0_linear_20472_34476" x1="20" y1="3.33398" x2="20" y2="36.6673"
            gradientUnits="userSpaceOnUse">
            <stop stop-color="#424242" />
            <stop offset="1" stop-color="#272727" />
        </linearGradient>
    </defs>
</svg>
    