<svg width="24" height="24" viewBox="0 0 24 24" fill="none" xmlns="http://www.w3.org/2000/svg">
<path d="M18 2H9C7.9 2 7 2.9 7 4V5C7 5.26522 7.10536 5.51957 7.29289 5.70711C7.48043 5.89464 7.73478 6 8 6C8.26522 6 8.51957 5.89464 8.70711 5.70711C8.89464 5.51957 9 5.26522 9 5V4H18V20H9V19C9 18.7348 8.89464 18.4804 8.70711 18.2929C8.51957 18.1054 8.26522 18 8 18C7.73478 18 7.48043 18.1054 7.29289 18.2929C7.10536 18.4804 7 18.7348 7 19V20C7 21.1 7.9 22 9 22H18C19.1 22 20 21.1 20 20V4C20 2.9 19.1 2 18 2Z" fill="url(#paint0_linear_2597_24783)"/>
<path d="M12.205 16.2951C11.815 16.6851 11.185 16.6851 10.795 16.2951C10.6081 16.108 10.503 15.8543 10.5028 15.5898C10.5026 15.3253 10.6073 15.0715 10.794 14.8841L12.67 13.0001H4C3.73478 13.0001 3.48043 12.8948 3.29289 12.7072C3.10536 12.5197 3 12.2653 3 12.0001C3 11.7349 3.10536 11.4806 3.29289 11.293C3.48043 11.1055 3.73478 11.0001 4 11.0001H12.67L10.794 9.11613C10.6222 8.92604 10.53 8.6772 10.5365 8.42106C10.5429 8.16491 10.6476 7.92104 10.8287 7.73987C11.0099 7.55869 11.2538 7.45405 11.5099 7.44758C11.7661 7.44112 12.0149 7.53332 12.205 7.70513L15.793 11.2931C15.9805 11.4807 16.0858 11.735 16.0858 12.0001C16.0858 12.2653 15.9805 12.5196 15.793 12.7071L12.205 16.2951Z" fill="url(#paint1_linear_2597_24783)"/>
<defs>
<linearGradient id="paint0_linear_2597_24783" x1="11.5" y1="2" x2="11.5" y2="22" gradientUnits="userSpaceOnUse">
<stop stop-color="#FAD3BD"/>
<stop offset="1" stop-color="#F39A68"/>
</linearGradient>
<linearGradient id="paint1_linear_2597_24783" x1="11.5" y1="2" x2="11.5" y2="22" gradientUnits="userSpaceOnUse">
<stop stop-color="#FAD3BD"/>
<stop offset="1" stop-color="#F39A68"/>
</linearGradient>
</defs>
</svg>
