<svg width="25" height="24" viewBox="0 0 25 24" fill="none" xmlns="http://www.w3.org/2000/svg">
<path d="M12.5 5.2909C8.80133 5.2909 5.79091 8.30158 5.79091 12C5.79091 15.699 8.80102 18.7091 12.5 18.7091C13.1326 18.7091 13.6455 19.2219 13.6455 19.8545C13.6455 20.4872 13.1326 21 12.5 21C7.53686 21 3.5 16.9634 3.5 12C3.5 7.03716 7.53716 3 12.5 3C17.4628 3 21.5 7.03716 21.5 12C21.5 12.6326 20.9872 13.1455 20.3545 13.1455C19.7219 13.1455 19.2091 12.6326 19.2091 12C19.2091 8.30158 16.1987 5.2909 12.5 5.2909ZM16.4375 15.9375V14.25C16.4375 13.6287 16.9412 13.125 17.5625 13.125H17.5661C18.186 13.125 18.6891 13.6265 18.6911 14.2464L18.6964 15.9375H20.375C20.9963 15.9375 21.5 16.4412 21.5 17.0625C21.5 17.6838 20.9963 18.1875 20.375 18.1875H18.6875V19.875C18.6875 20.4963 18.1838 21 17.5625 21C16.9412 21 16.4375 20.4963 16.4375 19.875V18.1875H14.75C14.1287 18.1875 13.625 17.6838 13.625 17.0625C13.625 16.4412 14.1287 15.9375 14.75 15.9375H16.4375Z" fill="#C69DF7"/>
</svg>
