<svg width="18" height="18" viewBox="0 0 18 18" fill="none" xmlns="http://www.w3.org/2000/svg">
<path d="M15 3.75H6V6C6 6.41421 5.66421 6.75 5.25 6.75C4.83579 6.75 4.5 6.41421 4.5 6V4.25C4.5 3.14543 5.39543 2.25 6.5 2.25H14.5C15.6046 2.25 16.5 3.14543 16.5 4.25V13.75C16.5 14.8546 15.6046 15.75 14.5 15.75H6.5C5.39543 15.75 4.5 14.8546 4.5 13.75V12C4.5 11.5858 4.83579 11.25 5.25 11.25C5.66421 11.25 6 11.5858 6 12V14.25H15V3.75Z" fill="#C69DF7"/>
<path d="M10.3357 12.1819C10.0429 12.4747 9.5681 12.4747 9.27525 12.1819C8.9824 11.889 8.9824 11.4142 9.27525 11.1214L10.647 9.74961H2.25C1.83579 9.74961 1.5 9.41382 1.5 8.99961C1.5 8.5854 1.83579 8.24961 2.25 8.24961H10.647L9.27541 6.87856C8.98246 6.58572 8.98233 6.11086 9.27512 5.81787C9.56801 5.52477 10.0431 5.52469 10.3361 5.81768L12.8109 8.2925C13.2014 8.68303 13.2014 9.31619 12.8109 9.70672L10.3357 12.1819Z" fill="#C69DF7"/>
</svg>
