<svg width="18" height="18" viewBox="0 0 18 18" fill="none" xmlns="http://www.w3.org/2000/svg">
    <g clip-path="url(#clip0_17586_127540)">
        <path fill-rule="evenodd" clip-rule="evenodd"
            d="M13.5 10.5C13.6989 10.5 13.8897 10.579 14.0303 10.7197C14.171 10.8603 14.25 11.0511 14.25 11.25V12.75H15.75C15.9489 12.75 16.1397 12.829 16.2803 12.9697C16.421 13.1103 16.5 13.3011 16.5 13.5C16.5 13.6989 16.421 13.8897 16.2803 14.0303C16.1397 14.171 15.9489 14.25 15.75 14.25H14.25V15.75C14.25 15.9489 14.171 16.1397 14.0303 16.2803C13.8897 16.421 13.6989 16.5 13.5 16.5C13.3011 16.5 13.1103 16.421 12.9697 16.2803C12.829 16.1397 12.75 15.9489 12.75 15.75V14.25H11.25C11.0511 14.25 10.8603 14.171 10.7197 14.0303C10.579 13.8897 10.5 13.6989 10.5 13.5C10.5 13.3011 10.579 13.1103 10.7197 12.9697C10.8603 12.829 11.0511 12.75 11.25 12.75H12.75V11.25C12.75 11.0511 12.829 10.8603 12.9697 10.7197C13.1103 10.579 13.3011 10.5 13.5 10.5ZM12 2.25C12.1989 2.25 12.3897 2.32902 12.5303 2.46967C12.671 2.61032 12.75 2.80109 12.75 3V3.75H14.25C14.6478 3.75 15.0294 3.90804 15.3107 4.18934C15.592 4.47064 15.75 4.85218 15.75 5.25V8.25C15.75 8.44891 15.671 8.63968 15.5303 8.78033C15.3897 8.92098 15.1989 9 15 9H3.75V14.25H8.25C8.44891 14.25 8.63968 14.329 8.78033 14.4697C8.92098 14.6103 9 14.8011 9 15C9 15.1989 8.92098 15.3897 8.78033 15.5303C8.63968 15.671 8.44891 15.75 8.25 15.75H3.75C3.35218 15.75 2.97064 15.592 2.68934 15.3107C2.40804 15.0294 2.25 14.6478 2.25 14.25V5.25C2.25 4.85218 2.40804 4.47064 2.68934 4.18934C2.97064 3.90804 3.35218 3.75 3.75 3.75H5.25V3C5.25 2.80109 5.32902 2.61032 5.46967 2.46967C5.61032 2.32902 5.80109 2.25 6 2.25C6.19891 2.25 6.38968 2.32902 6.53033 2.46967C6.67098 2.61032 6.75 2.80109 6.75 3V3.75H11.25V3C11.25 2.80109 11.329 2.61032 11.4697 2.46967C11.6103 2.32902 11.8011 2.25 12 2.25ZM14.25 5.25H3.75V7.5H14.25V5.25Z"
            fill="white" />
    </g>
    <defs>
        <clipPath id="clip0_17586_127540">
            <rect width="18" height="18" fill="white" />
        </clipPath>
    </defs>
</svg>
