<svg width="18" height="18" viewBox="0 0 18 18" fill="none" xmlns="http://www.w3.org/2000/svg">
    <path fill-rule="evenodd" clip-rule="evenodd"
        d="M9.62404 1.83397C9.48494 1.62533 9.25076 1.5 9 1.5C8.74923 1.5 8.51506 1.62533 8.37596 1.83397L3.87596 8.58397C3.79231 8.70945 3.75032 8.85386 3.75 8.99833C3.74968 9.14392 3.79167 9.28958 3.87596 9.41602L8.37596 16.166C8.51506 16.3747 8.74923 16.5 9 16.5C9.25076 16.5 9.48494 16.3747 9.62404 16.166L14.1218 9.41942C14.1838 9.32755 14.2256 9.22166 14.2421 9.10847C14.2448 9.0901 14.2468 9.07165 14.2481 9.05317C14.2548 8.95975 14.2438 8.86795 14.2176 8.78166C14.1957 8.71006 14.1634 8.64226 14.1217 8.5805L9.62404 1.83397ZM11.3094 7.06616L9 3.60208L6.6906 7.06618L8.6646 6.07918C8.87574 5.97361 9.12427 5.97361 9.33542 6.07918L11.3094 7.06616ZM6.33656 10.4028L9 14.3979L11.6634 10.4028L9.23718 11.2115C9.08323 11.2628 8.91679 11.2628 8.76284 11.2115L6.33656 10.4028ZM9.00001 9.70943L6.45492 8.86107L9.00001 7.58853L11.5451 8.86107L9.00001 9.70943Z"
        fill="white" />
</svg>