<svg width="16" height="16" viewBox="0 0 16 16" fill="none" xmlns="http://www.w3.org/2000/svg">
    <path
        d="M3 3H13C13.69 3 14.25 3.56125 14.25 4.25V11.75C14.25 12.4394 13.69 13 13 13H3C2.31 13 1.75 12.4394 1.75 11.75V4.25C1.75 3.56125 2.31 3 3 3ZM3 4.25L3.00062 6.125H13V4.25H3ZM13 11.75V7.375H3.00062L3.00187 11.75H13Z"
        fill="white" />
    <path
        d="M4.25 8H5.5C5.84518 8 6.125 8.27982 6.125 8.625C6.125 8.97018 5.84518 9.25 5.5 9.25H4.25C3.90482 9.25 3.625 8.97018 3.625 8.625C3.625 8.27982 3.90482 8 4.25 8Z"
        fill="white" />
    <path
        d="M8.625 8H11.75C12.0952 8 12.375 8.27982 12.375 8.625C12.375 8.97018 12.0952 9.25 11.75 9.25H8.625C8.27982 9.25 8 8.97018 8 8.625C8 8.27982 8.27982 8 8.625 8Z"
        fill="white" />
    <path
        d="M9.875 9.875H11.75C12.0952 9.875 12.375 10.1548 12.375 10.5C12.375 10.8452 12.0952 11.125 11.75 11.125H9.875C9.52982 11.125 9.25 10.8452 9.25 10.5C9.25 10.1548 9.52982 9.875 9.875 9.875Z"
        fill="white" />
</svg>