<svg width="24" height="24" viewBox="0 0 24 24" fill="none" xmlns="http://www.w3.org/2000/svg">
<path d="M12.625 2.21899C12.26 1.92699 11.74 1.92699 11.375 2.21899L6.375 6.21899C6.139 6.40899 6 6.69599 6 6.99999V17C6 17.304 6.139 17.591 6.375 17.781L11.375 21.781C11.559 21.927 11.779 22 12 22C12.221 22 12.441 21.927 12.625 21.781L17.625 17.781C17.861 17.591 18 17.304 18 17V6.99999C18 6.69599 17.861 6.40899 17.625 6.21899L12.625 2.21899ZM11 8.23399L8.748 6.88199L11 5.08199V8.23399ZM13 5.08199L15.252 6.88299L13 8.23399V5.08199ZM8 8.76599L11 10.566V18.919L8 16.519V8.76599ZM13 18.919V10.566L16 8.76599V16.519L13 18.919Z" fill="black"/>
<path d="M22 12C22 11.4477 21.5523 11 21 11H20C19.4477 11 19 11.4477 19 12C19 12.5523 19.4477 13 20 13H21C21.5523 13 22 12.5523 22 12Z" fill="black"/>
<path d="M21.9989 3.41335C22.3892 3.02298 22.3891 2.39011 21.9987 1.99983C21.6083 1.60957 20.9755 1.60964 20.5853 1.99999L18.9992 3.58633C18.6089 3.9767 18.609 4.60957 18.9994 4.99985C19.3897 5.39011 20.0226 5.39004 20.4128 4.99969L21.9989 3.41335Z" fill="black"/>
<path d="M18.9998 19.0008C18.6095 19.3911 18.6095 20.024 18.9998 20.4143L20.586 22.0005C20.9763 22.3908 21.6092 22.3908 21.9995 22.0005C22.3898 21.6102 22.3898 20.9773 21.9995 20.587L20.4133 19.0008C20.023 18.6105 19.3901 18.6105 18.9998 19.0008Z" fill="black"/>
<path d="M5 12C5 11.4477 4.55228 11 4 11H3C2.44771 11 2 11.4477 2 12C2 12.5523 2.44771 13 3 13H4C4.55228 13 5 12.5523 5 12Z" fill="black"/>
<path d="M1.99981 2.00061C1.60948 2.39093 1.60948 3.02378 1.99981 3.4141L3.58599 5.00029C3.97632 5.39061 4.60916 5.39061 4.99949 5.00029C5.38981 4.60996 5.38981 3.97712 4.99949 3.58679L3.4133 2.00061C3.02297 1.61028 2.39013 1.61028 1.99981 2.00061Z" fill="black"/>
<path d="M2.00092 20.5873C1.61062 20.9777 1.6107 21.6106 2.00109 22.0009C2.39146 22.3911 3.02427 22.391 3.41455 22.0007L5.00058 20.4144C5.39089 20.024 5.39081 19.3911 5.00042 19.0008C4.61005 18.6106 3.97723 18.6107 3.58696 19.001L2.00092 20.5873Z" fill="black"/>
</svg>
