<svg width="25" height="24" viewBox="0 0 25 24" fill="none" xmlns="http://www.w3.org/2000/svg">
<path d="M12.9749 20.1416H3.45177C3.07275 20.1416 2.72992 19.9169 2.57946 19.5702C2.42804 19.2226 2.4966 18.8188 2.75468 18.5417L4.95071 16.1762C3.96697 14.801 3.45177 13.2231 3.45177 11.5708C3.45177 6.84448 7.72384 3 12.9749 3C18.2259 3 22.498 6.84448 22.498 11.5708C22.498 16.2971 18.2259 20.1416 12.9749 20.1416ZM5.63542 18.237H12.9749C17.1755 18.237 20.5934 15.2467 20.5934 11.5708C20.5934 7.89583 17.1755 4.90462 12.9749 4.90462C8.77424 4.90462 5.3564 7.89583 5.3564 11.5708C5.3564 13.0345 5.89731 14.4277 6.92009 15.601C7.24007 15.9686 7.2315 16.5181 6.90009 16.8752L5.63542 18.237Z" fill="black"/>
<path d="M12.9749 20.1416H3.45177C3.07275 20.1416 2.72992 19.9169 2.57946 19.5702C2.42804 19.2226 2.4966 18.8188 2.75468 18.5417L4.95071 16.1762C3.96697 14.801 3.45177 13.2231 3.45177 11.5708C3.45177 6.84448 7.72384 3 12.9749 3C18.2259 3 22.498 6.84448 22.498 11.5708C22.498 16.2971 18.2259 20.1416 12.9749 20.1416ZM5.63542 18.237H12.9749C17.1755 18.237 20.5934 15.2467 20.5934 11.5708C20.5934 7.89583 17.1755 4.90462 12.9749 4.90462C8.77424 4.90462 5.3564 7.89583 5.3564 11.5708C5.3564 13.0345 5.89731 14.4277 6.92009 15.601C7.24007 15.9686 7.2315 16.5181 6.90009 16.8752L5.63542 18.237Z" fill="url(#paint0_linear_6745_49161)"/>
<defs>
<linearGradient id="paint0_linear_6745_49161" x1="12.499" y1="3" x2="12.499" y2="20.1416" gradientUnits="userSpaceOnUse">
<stop stop-color="#BDFACE"/>
<stop offset="1" stop-color="#68F38F"/>
</linearGradient>
</defs>
</svg>
