<svg width="16" height="16" viewBox="0 0 16 16" fill="none" xmlns="http://www.w3.org/2000/svg">
<g id="ic:round-calendar-month">
<path id="Vector" d="M11.125 1.75C10.7812 1.75 10.5 2.03125 10.5 2.375V3H5.5V2.375C5.5 2.03125 5.21875 1.75 4.875 1.75C4.53125 1.75 4.25 2.03125 4.25 2.375V3H3.625C2.93125 3 2.38125 3.5625 2.38125 4.25L2.375 13C2.375 13.3315 2.5067 13.6495 2.74112 13.8839C2.97554 14.1183 3.29348 14.25 3.625 14.25H12.375C13.0625 14.25 13.625 13.6875 13.625 13V4.25C13.625 3.5625 13.0625 3 12.375 3H11.75V2.375C11.75 2.03125 11.4688 1.75 11.125 1.75ZM12.375 13H3.625V6.75H12.375V13ZM7.375 8.625C7.375 8.28125 7.65625 8 8 8C8.34375 8 8.625 8.28125 8.625 8.625C8.625 8.96875 8.34375 9.25 8 9.25C7.65625 9.25 7.375 8.96875 7.375 8.625ZM4.875 8.625C4.875 8.28125 5.15625 8 5.5 8C5.84375 8 6.125 8.28125 6.125 8.625C6.125 8.96875 5.84375 9.25 5.5 9.25C5.15625 9.25 4.875 8.96875 4.875 8.625ZM9.875 8.625C9.875 8.28125 10.1562 8 10.5 8C10.8438 8 11.125 8.28125 11.125 8.625C11.125 8.96875 10.8438 9.25 10.5 9.25C10.1562 9.25 9.875 8.96875 9.875 8.625ZM7.375 11.125C7.375 10.7812 7.65625 10.5 8 10.5C8.34375 10.5 8.625 10.7812 8.625 11.125C8.625 11.4688 8.34375 11.75 8 11.75C7.65625 11.75 7.375 11.4688 7.375 11.125ZM4.875 11.125C4.875 10.7812 5.15625 10.5 5.5 10.5C5.84375 10.5 6.125 10.7812 6.125 11.125C6.125 11.4688 5.84375 11.75 5.5 11.75C5.15625 11.75 4.875 11.4688 4.875 11.125ZM9.875 11.125C9.875 10.7812 10.1562 10.5 10.5 10.5C10.8438 10.5 11.125 10.7812 11.125 11.125C11.125 11.4688 10.8438 11.75 10.5 11.75C10.1562 11.75 9.875 11.4688 9.875 11.125Z" fill="white"/>
</g>
</svg>
