<svg width="21" height="21" viewBox="0 0 21 21" fill="none" xmlns="http://www.w3.org/2000/svg">
    <path
        d="M1.75 10.5014C1.75044 8.58307 2.3813 6.71802 3.54549 5.19331C4.70968 3.6686 6.34267 2.56874 8.19315 2.06298C10.0436 1.55723 12.009 1.67362 13.7869 2.39424C15.5648 3.11486 17.0565 4.39977 18.0326 6.05123C19.0087 7.70268 19.4151 9.62915 19.1891 11.5341C18.9631 13.4391 18.1173 15.2171 16.782 16.5943C15.4466 17.9716 13.6956 18.8718 11.7985 19.1565C9.9014 19.4412 7.9633 19.0946 6.2825 18.1699L2.8805 19.2059C2.72876 19.2521 2.56731 19.2562 2.41341 19.2178C2.25952 19.1793 2.11897 19.0998 2.00681 18.9876C1.89464 18.8754 1.81508 18.7349 1.77663 18.581C1.73817 18.4271 1.74228 18.2657 1.7885 18.1139L2.8245 14.7067C2.11884 13.4174 1.7493 11.9712 1.75 10.5014ZM7 9.62642C7 9.85848 7.09219 10.081 7.25628 10.2451C7.42038 10.4092 7.64294 10.5014 7.875 10.5014H13.125C13.3571 10.5014 13.5796 10.4092 13.7437 10.2451C13.9078 10.081 14 9.85848 14 9.62642C14 9.39435 13.9078 9.17179 13.7437 9.0077C13.5796 8.84361 13.3571 8.75142 13.125 8.75142H7.875C7.64294 8.75142 7.42038 8.84361 7.25628 9.0077C7.09219 9.17179 7 9.39435 7 9.62642ZM7.875 12.2514C7.64294 12.2514 7.42038 12.3436 7.25628 12.5077C7.09219 12.6718 7 12.8944 7 13.1264C7 13.3585 7.09219 13.581 7.25628 13.7451C7.42038 13.9092 7.64294 14.0014 7.875 14.0014H11.375C11.6071 14.0014 11.8296 13.9092 11.9937 13.7451C12.1578 13.581 12.25 13.3585 12.25 13.1264C12.25 12.8944 12.1578 12.6718 11.9937 12.5077C11.8296 12.3436 11.6071 12.2514 11.375 12.2514H7.875Z"
        fill="url(#paint0_linear_12291_93600)" />
    <defs>
        <linearGradient id="paint0_linear_12291_93600" x1="10.5" y1="1.75342" x2="10.5" y2="19.2534"
            gradientUnits="userSpaceOnUse">
            <stop stop-color="#BDD5FA" />
            <stop offset="1" stop-color="#687EF3" />
        </linearGradient>
    </defs>
</svg>