<svg width="30" height="30" viewBox="0 0 30 30" fill="none" xmlns="http://www.w3.org/2000/svg">
<g id="mdi:ticket-confirmation">
<path id="Vector" d="M20 10.625C20 11.3154 19.4404 11.875 18.75 11.875C18.0596 11.875 17.5 11.3154 17.5 10.625V9.375C17.5 8.68464 18.0596 8.125 18.75 8.125C19.4404 8.125 20 8.68464 20 9.375V10.625ZM20 15.625C20 16.3154 19.4404 16.875 18.75 16.875C18.0596 16.875 17.5 16.3154 17.5 15.625V14.375C17.5 13.6846 18.0596 13.125 18.75 13.125C19.4404 13.125 20 13.6846 20 14.375V15.625ZM20 20.625C20 21.3154 19.4404 21.875 18.75 21.875C18.0596 21.875 17.5 21.3154 17.5 20.625V19.375C17.5 18.6846 18.0596 18.125 18.75 18.125C19.4404 18.125 20 18.6846 20 19.375V20.625ZM27.5 12.5V7.5C27.5 6.13833 26.3617 5 25 5H20.625C20.2798 5 20 5.27982 20 5.625C20 6.31536 19.4404 6.875 18.75 6.875C18.0596 6.875 17.5 6.31536 17.5 5.625C17.5 5.27982 17.2202 5 16.875 5H5C3.63833 5 2.5 6.13833 2.5 7.5V12.5C3.16304 12.5 3.79893 12.7634 4.26777 13.2322C4.73661 13.7011 5 14.337 5 15C5 15.663 4.73661 16.2989 4.26777 16.7678C3.79893 17.2366 3.16304 17.5 2.5 17.5V22.5C2.5 23.8617 3.63833 25 5 25H16.875C17.2202 25 17.5 24.7202 17.5 24.375C17.5 23.6846 18.0596 23.125 18.75 23.125C19.4404 23.125 20 23.6846 20 24.375C20 24.7202 20.2798 25 20.625 25H25C26.3617 25 27.5 23.8617 27.5 22.5V17.5C26.837 17.5 26.2011 17.2366 25.7322 16.7678C25.2634 16.2989 25 15.663 25 15C25 14.337 25.2634 13.7011 25.7322 13.2322C26.2011 12.7634 26.837 12.5 27.5 12.5Z" fill="#9DF7E7"/>
</g>
</svg>
