<svg width="16" height="15" viewBox="0 0 16 15" fill="none" xmlns="http://www.w3.org/2000/svg">
    <g clip-path="url(#clip0_8165_53914)">
        <path fill-rule="evenodd" clip-rule="evenodd"
            d="M11.125 5.46875C11.125 5.46875 13.4169 4.16625 12.375 0C15.5 3.125 15.5 4.64 15.5 6.25C15.5 7.97625 14.1012 9.375 12.375 9.375C10.6488 9.375 9.25 7.97625 9.25 6.25C9.25 4.93875 10.0581 3.81875 11.125 3.35438V5.46875ZM12.375 10.625C12.0319 10.625 11.6994 10.5819 11.3787 10.5069C10.7006 12.0456 9.1625 13.125 7.375 13.125C4.9625 13.125 3 11.1625 3 8.75C3 6.3375 4.9625 4.375 7.375 4.375C7.7175 4.375 8.04937 4.41875 8.36937 4.49375C8.5475 4.08875 8.78562 3.71688 9.07125 3.3875C8.53562 3.2175 7.96625 3.125 7.375 3.125C4.27375 3.125 1.75 5.64813 1.75 8.75C1.75 11.8519 4.27375 14.375 7.375 14.375C9.82375 14.375 11.9069 12.7994 12.6775 10.61L12.6104 10.6144L12.6103 10.6144C12.5322 10.6197 12.4542 10.625 12.375 10.625ZM8.625 11.25C8.38096 11.494 7.98529 11.494 7.74125 11.25L6.30813 9.81687C6.19063 9.69938 6.125 9.54062 6.125 9.375V6.875C6.125 6.52982 6.40482 6.25 6.75 6.25C7.09518 6.25 7.375 6.52982 7.375 6.875V9.11625L8.625 10.3663C8.86904 10.6103 8.86904 11.006 8.625 11.25Z"
            fill="white" />
    </g>
    <defs>
        <clipPath id="clip0_8165_53914">
            <rect width="15" height="15" fill="white" transform="translate(0.5)" />
        </clipPath>
    </defs>
</svg>
    