<svg width="24" height="24" viewBox="0 0 24 24" fill="none" xmlns="http://www.w3.org/2000/svg">
    <path
        d="M12.4749 20.1416H2.95177C2.57275 20.1416 2.22992 19.9169 2.07946 19.5702C1.92804 19.2226 1.9966 18.8188 2.25468 18.5417L4.45071 16.1762C3.46697 14.801 2.95177 13.2231 2.95177 11.5708C2.95177 6.84448 7.22384 3 12.4749 3C17.7259 3 21.998 6.84448 21.998 11.5708C21.998 16.2971 17.7259 20.1416 12.4749 20.1416ZM5.13542 18.237H12.4749C16.6755 18.237 20.0934 15.2467 20.0934 11.5708C20.0934 7.89583 16.6755 4.90462 12.4749 4.90462C8.27424 4.90462 4.8564 7.89583 4.8564 11.5708C4.8564 13.0345 5.39731 14.4277 6.42009 15.601C6.74007 15.9686 6.7315 16.5181 6.40009 16.8752L5.13542 18.237Z"
        fill="url(#paint0_linear_2620_27715)" />
    <defs>
        <linearGradient id="paint0_linear_2620_27715" x1="11.999" y1="3" x2="11.999" y2="20.1416"
            gradientUnits="userSpaceOnUse">
            <stop stop-color="#BDD5FA" />
            <stop offset="1" stop-color="#68A0F3" />
        </linearGradient>
    </defs>
</svg>