<svg width="24" height="24" viewBox="0 0 24 24" fill="none" xmlns="http://www.w3.org/2000/svg">
<path d="M23.998 23H15.63C12.046 23 9.13004 20.309 9.13004 17C9.13004 13.691 12.046 11 15.63 11C19.214 11 22.13 13.691 22.13 17C22.13 17.822 21.945 18.638 21.591 19.389L23.998 23ZM15.63 13C13.149 13 11.13 14.795 11.13 17C11.13 19.205 13.149 21 15.63 21H20.262L19.238 19.463L19.576 18.917C19.944 18.322 20.13 17.678 20.13 17C20.13 14.795 18.111 13 15.63 13Z" fill="black"/>
<path d="M7.13006 18H0.716064L4.49106 14.226C3.59806 12.959 3.13006 11.515 3.13006 10C3.13006 5.589 7.16807 2 12.1301 2C16.5981 2 20.4301 4.961 21.0441 8.889L19.0681 9.198C18.6051 6.234 15.6221 4 12.1301 4C8.27007 4 5.13006 6.691 5.13006 10C5.13006 11.32 5.63006 12.578 6.57406 13.636L7.20406 14.341L5.54406 16H7.13006V18Z" fill="black"/>
</svg>
