<svg width="18" height="18" viewBox="0 0 18 18" fill="none" xmlns="http://www.w3.org/2000/svg">
    <g clip-path="url(#clip0_19685_25183)">
        <path fill-rule="evenodd" clip-rule="evenodd"
            d="M12 2.25C12.1989 2.25 12.3897 2.32902 12.5303 2.46967C12.671 2.61032 12.75 2.80109 12.75 3V3.75H14.25C14.6478 3.75 15.0294 3.90804 15.3107 4.18934C15.592 4.47064 15.75 4.85218 15.75 5.25V8.25C15.75 8.44891 15.671 8.63968 15.5303 8.78033C15.3897 8.92098 15.1989 9 15 9H3.75V14.25H8.25C8.44891 14.25 8.63968 14.329 8.78033 14.4697C8.92098 14.6103 9 14.8011 9 15C9 15.1989 8.92098 15.3897 8.78033 15.5303C8.63968 15.671 8.44891 15.75 8.25 15.75H3.75C3.35218 15.75 2.97064 15.592 2.68934 15.3107C2.40804 15.0294 2.25 14.6478 2.25 14.25V5.25C2.25 4.85218 2.40804 4.47064 2.68934 4.18934C2.97064 3.90804 3.35218 3.75 3.75 3.75H5.25V3C5.25 2.80109 5.32902 2.61032 5.46967 2.46967C5.61032 2.32902 5.80109 2.25 6 2.25C6.19891 2.25 6.38968 2.32902 6.53033 2.46967C6.67098 2.61032 6.75 2.80109 6.75 3V3.75H11.25V3C11.25 2.80109 11.329 2.61032 11.4697 2.46967C11.6103 2.32902 11.8011 2.25 12 2.25ZM14.25 5.25H3.75V7.5H14.25V5.25Z"
            fill="url(#paint0_linear_19685_25183)" />
        <path fill-rule="evenodd" clip-rule="evenodd"
            d="M16.2803 11.4697C16.5732 11.7626 16.5732 12.2374 16.2803 12.5303L13.2803 15.5303C12.9874 15.8232 12.5126 15.8232 12.2197 15.5303L10.7197 14.0303C10.4268 13.7374 10.4268 13.2626 10.7197 12.9697C11.0126 12.6768 11.4874 12.6768 11.7803 12.9697L12.75 13.9393L15.2197 11.4697C15.5126 11.1768 15.9874 11.1768 16.2803 11.4697Z"
            fill="url(#paint1_linear_19685_25183)" />
    </g>
    <defs>
        <linearGradient id="paint0_linear_19685_25183" x1="9" y1="2.25" x2="9" y2="15.75"
            gradientUnits="userSpaceOnUse">
            <stop stop-color="#D9BDFA" />
            <stop offset="1" stop-color="#A667F3" />
        </linearGradient>
        <linearGradient id="paint1_linear_19685_25183" x1="13.5" y1="11.25" x2="13.5" y2="15.75"
            gradientUnits="userSpaceOnUse">
            <stop stop-color="#D9BDFA" />
            <stop offset="1" stop-color="#A667F3" />
        </linearGradient>
        <clipPath id="clip0_19685_25183">
            <rect width="18" height="18" fill="white" />
        </clipPath>
    </defs>
</svg>
    