<svg width="22" height="21" viewBox="0 0 22 21" fill="none" xmlns="http://www.w3.org/2000/svg">
    <path fill-rule="evenodd" clip-rule="evenodd"
        d="M18.625 4.375C19.108 4.375 19.5 4.767 19.5 5.25V15.75C19.5 16.233 19.108 16.625 18.625 16.625H2.875C2.392 16.625 2 16.233 2 15.75V5.25C2 4.767 2.392 4.375 2.875 4.375H18.625ZM14.6131 6.125L17.75 9.26275V6.125H14.6131ZM6.88775 14.875L3.75 11.7381V14.875H6.88775ZM3.75 9.26275L9.36225 14.875H17.75V11.7372L12.1378 6.125H3.75V9.26275ZM7.6875 10.5C7.6875 8.81125 9.06125 7.4375 10.75 7.4375C12.4388 7.4375 13.8125 8.81125 13.8125 10.5C13.8125 12.1887 12.4388 13.5625 10.75 13.5625C9.06125 13.5625 7.6875 12.1887 7.6875 10.5ZM9.4375 10.5C9.4375 11.2236 10.0264 11.8125 10.75 11.8125C11.4736 11.8125 12.0625 11.2236 12.0625 10.5C12.0625 9.77637 11.4736 9.1875 10.75 9.1875C10.0264 9.1875 9.4375 9.77637 9.4375 10.5Z"
        fill="white" />
</svg>