<svg width="18" height="18" viewBox="0 0 18 18" fill="none" xmlns="http://www.w3.org/2000/svg">
<g id="ic_close">
<path id="Vector" d="M13.7213 5.33625C14.0133 5.04423 14.0133 4.57077 13.7213 4.27875C13.4292 3.98673 12.9558 3.98673 12.6638 4.27875L9 7.9425L5.33625 4.27875C5.04423 3.98673 4.57077 3.98673 4.27875 4.27875C3.98673 4.57077 3.98673 5.04423 4.27875 5.33625L7.9425 9L4.27875 12.6638C3.98673 12.9558 3.98673 13.4292 4.27875 13.7213C4.57077 14.0133 5.04423 14.0133 5.33625 13.7213L9 10.0575L12.6638 13.7213C12.9558 14.0133 13.4292 14.0133 13.7213 13.7213C14.0133 13.4292 14.0133 12.9558 13.7213 12.6638L10.0575 9L13.7213 5.33625Z" fill="white" fill-opacity="0.75"/>
</g>
</svg>
