<svg width="24" height="24" viewBox="0 0 24 24" fill="none" xmlns="http://www.w3.org/2000/svg">
    <path
        d="M12 17C12.2833 17 12.521 16.904 12.713 16.712C12.905 16.52 13.0007 16.2827 13 16C12.9993 15.7173 12.9033 15.48 12.712 15.288C12.5207 15.096 12.2833 15 12 15C11.7167 15 11.4793 15.096 11.288 15.288C11.0967 15.48 11.0007 15.7173 11 16C10.9993 16.2827 11.0953 16.5203 11.288 16.713C11.4807 16.9057 11.718 17.0013 12 17ZM12 13C12.2833 13 12.521 12.904 12.713 12.712C12.905 12.52 13.0007 12.2827 13 12C12.9993 11.7173 12.9033 11.48 12.712 11.288C12.5207 11.096 12.2833 11 12 11C11.7167 11 11.4793 11.096 11.288 11.288C11.0967 11.48 11.0007 11.7173 11 12C10.9993 12.2827 11.0953 12.5203 11.288 12.713C11.4807 12.9057 11.718 13.0013 12 13ZM12 9C12.2833 9 12.521 8.904 12.713 8.712C12.905 8.52 13.0007 8.28267 13 8C12.9993 7.71733 12.9033 7.48 12.712 7.288C12.5207 7.096 12.2833 7 12 7C11.7167 7 11.4793 7.096 11.288 7.288C11.0967 7.48 11.0007 7.71733 11 8C10.9993 8.28267 11.0953 8.52033 11.288 8.713C11.4807 8.90567 11.718 9.00133 12 9ZM2 20V14C2.55 14 3.021 13.8043 3.413 13.413C3.805 13.0217 4.00067 12.5507 4 12C3.99933 11.4493 3.80367 10.9787 3.413 10.588C3.02233 10.1973 2.55133 10.0013 2 10V4H22V10C21.45 10 20.9793 10.196 20.588 10.588C20.1967 10.98 20.0007 11.4507 20 12C19.9993 12.5493 20.1953 13.0203 20.588 13.413C20.9807 13.8057 21.4513 14.0013 22 14V20H2ZM4 18H20V15.45C19.3833 15.0833 18.8957 14.596 18.537 13.988C18.1783 13.38 17.9993 12.7173 18 12C18.0007 11.2827 18.18 10.6203 18.538 10.013C18.896 9.40567 19.3833 8.918 20 8.55V6H4V8.55C4.61667 8.91667 5.10433 9.40433 5.463 10.013C5.82167 10.6217 6.00067 11.284 6 12C5.99933 12.716 5.82033 13.3787 5.463 13.988C5.10567 14.5973 4.618 15.0847 4 15.45V18Z"
        fill="white" />
</svg>
    