<svg width="384" height="384" viewBox="0 0 384 384" fill="none" xmlns="http://www.w3.org/2000/svg">
    <path
        d="M192 288C209.673 288 224 302.327 224 320C224 337.673 209.673 352 192 352C174.327 352 160 337.673 160 320C160 302.327 174.327 288 192 288Z"
        fill="black" />
    <path
        d="M78.8594 259.891C91.3562 247.394 111.628 247.394 124.125 259.891C136.616 272.387 136.618 292.645 124.125 305.141C111.628 317.637 91.3562 317.637 78.8594 305.141C66.3668 292.645 66.3688 272.387 78.8594 259.891Z"
        fill="black" />
    <path
        d="M259.875 259.891C272.372 247.394 292.644 247.394 305.141 259.891C317.631 272.387 317.633 292.645 305.141 305.141C292.644 317.637 272.372 317.637 259.875 305.141C247.382 292.645 247.384 272.387 259.875 259.891Z"
        fill="black" />
    <path
        d="M64 160C81.6731 160 96 174.327 96 192C96 209.673 81.6731 224 64 224C46.3269 224 32 209.673 32 192C32 174.327 46.3269 160 64 160Z"
        fill="black" />
    <path
        d="M320 160C337.673 160 352 174.327 352 192C352 209.673 337.673 224 320 224C302.327 224 288 209.673 288 192C288 174.327 302.327 160 320 160Z"
        fill="black" />
    <path
        d="M78.8594 78.8594C91.3562 66.3626 111.628 66.3626 124.125 78.8594C136.618 91.3542 136.615 111.613 124.125 124.109C111.628 136.606 91.3562 136.606 78.8594 124.109C66.3694 111.613 66.3662 91.3542 78.8594 78.8594Z"
        fill="black" />
    <path
        d="M259.875 78.8594C272.372 66.3626 292.644 66.3626 305.141 78.8594C317.634 91.3542 317.631 111.613 305.141 124.109C292.644 136.606 272.372 136.606 259.875 124.109C247.385 111.613 247.382 91.3542 259.875 78.8594Z"
        fill="black" />
    <path
        d="M192 32C209.673 32 224 46.3269 224 64C224 81.6731 209.673 96 192 96C174.327 96 160 81.6731 160 64C160 46.3269 174.327 32 192 32Z"
        fill="black" />
</svg>
    