<svg width="24" height="24" viewBox="0 0 24 24" fill="none" xmlns="http://www.w3.org/2000/svg">
<path d="M12 7.999C9.243 7.999 7 10.242 7 12.999C7 15.757 9.243 17.999 12 17.999C14.757 17.999 17 15.757 17 12.999C17 10.241 14.757 7.999 12 7.999ZM12 15.999C10.346 15.999 9 14.653 9 12.999C9 11.345 10.346 9.999 12 9.999C13.654 9.999 15 11.345 15 12.999C15 14.653 13.654 15.999 12 15.999Z" fill="black"/>
<path d="M20 5.999H16.535L15.129 3.89C14.757 3.332 14.135 2.999 13.465 2.999H10.535C9.865 2.999 9.243 3.332 8.871 3.89L7.465 5.999H4C2.897 5.999 2 6.896 2 7.999V18.999C2 20.102 2.897 20.999 4 20.999H20C21.103 20.999 22 20.102 22 18.999V7.999C22 6.896 21.103 5.999 20 5.999ZM4 18.999V7.999H8.535L10.535 4.999H13.465L15.465 7.999H20L20.001 18.999H4Z" fill="black"/>
</svg>
