<svg width="18" height="18" viewBox="0 0 18 18" fill="none" xmlns="http://www.w3.org/2000/svg">
    <path
        d="M3.75 12.75C3.3375 12.75 2.9845 12.6033 2.691 12.3097C2.3975 12.0162 2.2505 11.663 2.25 11.25V6.75C2.25 6.3375 2.397 5.9845 2.691 5.691C2.985 5.3975 3.338 5.2505 3.75 5.25H14.25C14.6625 5.25 15.0157 5.397 15.3097 5.691C15.6038 5.985 15.7505 6.338 15.75 6.75V11.25C15.75 11.6625 15.6033 12.0157 15.3097 12.3097C15.0162 12.6038 14.663 12.7505 14.25 12.75H3.75ZM3.75 11.25H14.25V6.75H3.75V11.25ZM2.98125 3.75C2.76875 3.75 2.59375 3.678 2.45625 3.534C2.31875 3.39 2.25 3.212 2.25 3C2.25 2.788 2.322 2.61 2.466 2.466C2.61 2.322 2.788 2.25 3 2.25H15.0187C15.2312 2.25 15.4062 2.322 15.5438 2.466C15.6813 2.61 15.75 2.788 15.75 3C15.75 3.212 15.678 3.39025 15.534 3.53475C15.39 3.67925 15.212 3.751 15 3.75H2.98125ZM2.98125 15.75C2.76875 15.75 2.59375 15.678 2.45625 15.534C2.31875 15.39 2.25 15.212 2.25 15C2.25 14.788 2.322 14.61 2.466 14.466C2.61 14.322 2.788 14.25 3 14.25H15.0187C15.2312 14.25 15.4062 14.322 15.5438 14.466C15.6813 14.61 15.75 14.788 15.75 15C15.75 15.212 15.678 15.3902 15.534 15.5347C15.39 15.6792 15.212 15.751 15 15.75H2.98125Z"
        fill="white" />
</svg>
    