<svg width="22" height="22" viewBox="0 0 22 22" fill="none" xmlns="http://www.w3.org/2000/svg">
<g id="ic_chat_bubble">
<path id="Vector" d="M11.4353 18.4631H2.70579C2.35835 18.4631 2.04409 18.2571 1.90616 17.9394C1.76736 17.6207 1.83022 17.2506 2.06679 16.9966L4.07981 14.8282C3.17805 13.5676 2.70579 12.1211 2.70579 10.6066C2.70579 6.27411 6.62185 2.75 11.4353 2.75C16.2488 2.75 20.1648 6.27411 20.1648 10.6066C20.1648 14.939 16.2488 18.4631 11.4353 18.4631ZM4.70747 16.7172H11.4353C15.2859 16.7172 18.4189 13.9762 18.4189 10.6066C18.4189 7.23785 15.2859 4.4959 11.4353 4.4959C7.58472 4.4959 4.45169 7.23785 4.45169 10.6066C4.45169 11.9483 4.94753 13.2254 5.88508 14.3009C6.17839 14.6379 6.17053 15.1416 5.86675 15.4689L4.70747 16.7172Z" fill="white"/>
</g>
</svg>
