<svg width="18" height="18" viewBox="0 0 18 18" fill="none" xmlns="http://www.w3.org/2000/svg">
    <path d="M3.75 6H14.25V4.5H3.75V6ZM3.75 16.5C3.3375 16.5 2.9845 16.3533 2.691 16.0598C2.3975 15.7663 2.2505 15.413 2.25 15V4.5C2.25 4.0875 2.397 3.7345 2.691 3.441C2.985 3.1475 3.338 3.0005 3.75 3H4.5V2.25C4.5 2.0375 4.572 1.8595 4.716 1.716C4.86 1.5725 5.038 1.5005 5.25 1.5C5.462 1.4995 5.64025 1.5715 5.78475 1.716C5.92925 1.8605 6.001 2.0385 6 2.25V3H12V2.25C12 2.0375 12.072 1.8595 12.216 1.716C12.36 1.5725 12.538 1.5005 12.75 1.5C12.962 1.4995 13.1402 1.5715 13.2847 1.716C13.4292 1.8605 13.501 2.0385 13.5 2.25V3H14.25C14.6625 3 15.0157 3.147 15.3097 3.441C15.6038 3.735 15.7505 4.088 15.75 4.5V8.00625C15.75 8.21875 15.678 8.397 15.534 8.541C15.39 8.685 15.212 8.75675 15 8.75625C14.788 8.75575 14.61 8.68375 14.466 8.54025C14.322 8.39675 14.25 8.21875 14.25 8.00625V7.5H3.75V15H8.1C8.3125 15 8.49075 15.072 8.63475 15.216C8.77875 15.36 8.8505 15.538 8.85 15.75C8.8495 15.962 8.7775 16.1403 8.634 16.2848C8.4905 16.4293 8.3125 16.501 8.1 16.5H3.75ZM13.5 17.25C12.4625 17.25 11.5782 16.8843 10.8472 16.1528C10.1163 15.4213 9.7505 14.537 9.75 13.5C9.7495 12.463 10.1153 11.5788 10.8472 10.8473C11.5793 10.1158 12.4635 9.75 13.5 9.75C14.5365 9.75 15.421 10.1158 16.1535 10.8473C16.886 11.5788 17.2515 12.463 17.25 13.5C17.2485 14.537 16.8828 15.4215 16.1528 16.1535C15.4228 16.8855 14.5385 17.251 13.5 17.25ZM13.875 13.35V11.625C13.875 11.525 13.8375 11.4375 13.7625 11.3625C13.6875 11.2875 13.6 11.25 13.5 11.25C13.4 11.25 13.3125 11.2875 13.2375 11.3625C13.1625 11.4375 13.125 11.525 13.125 11.625V13.3313C13.125 13.4313 13.1438 13.5283 13.1813 13.6223C13.2188 13.7163 13.275 13.8005 13.35 13.875L14.4938 15.0188C14.5688 15.0938 14.6562 15.1313 14.7562 15.1313C14.8562 15.1313 14.9437 15.0938 15.0187 15.0188C15.0938 14.9438 15.1312 14.8563 15.1312 14.7563C15.1312 14.6563 15.0938 14.5688 15.0187 14.4938L13.875 13.35Z" fill="white"/>
    </svg>
    