<svg width="18" height="18" viewBox="0 0 18 18" fill="none" xmlns="http://www.w3.org/2000/svg">
    <path d="M6 9.75H12C12.2125 9.75 12.3907 9.678 12.5347 9.534C12.6788 9.39 12.7505 9.212 12.75 9C12.7495 8.788 12.6775 8.61 12.534 8.466C12.3905 8.322 12.2125 8.25 12 8.25H6C5.7875 8.25 5.6095 8.322 5.466 8.466C5.3225 8.61 5.2505 8.788 5.25 9C5.2495 9.212 5.3215 9.39025 5.466 9.53475C5.6105 9.67925 5.7885 9.751 6 9.75ZM9 16.5C7.9625 16.5 6.9875 16.303 6.075 15.909C5.1625 15.515 4.36875 14.9808 3.69375 14.3063C3.01875 13.6318 2.4845 12.838 2.091 11.925C1.6975 11.012 1.5005 10.037 1.5 9C1.4995 7.963 1.6965 6.988 2.091 6.075C2.4855 5.162 3.01975 4.36825 3.69375 3.69375C4.36775 3.01925 5.1615 2.485 6.075 2.091C6.9885 1.697 7.9635 1.5 9 1.5C10.0365 1.5 11.0115 1.697 11.925 2.091C12.8385 2.485 13.6323 3.01925 14.3063 3.69375C14.9803 4.36825 15.5148 5.162 15.9098 6.075C16.3048 6.988 16.5015 7.963 16.5 9C16.4985 10.037 16.3015 11.012 15.909 11.925C15.5165 12.838 14.9823 13.6318 14.3063 14.3063C13.6303 14.9808 12.8365 15.5152 11.925 15.9097C11.0135 16.3042 10.0385 16.501 9 16.5Z" fill="white"/>
    </svg>
    