<svg width="25" height="24" viewBox="0 0 25 24" fill="none" xmlns="http://www.w3.org/2000/svg">
<path d="M19.125 15C20.229 15 21.125 14.106 21.125 13C21.125 11.896 20.229 11 19.125 11C18.021 11 17.125 11.896 17.125 13C17.125 13.011 17.128 13.021 17.129 13.032L15.087 14.257C14.8 14.098 14.476 14 14.125 14C13.66 14 13.237 14.166 12.897 14.432L11.095 13.711C10.955 12.745 10.131 12 9.125 12C8.12 12 7.296 12.745 7.154 13.711L5.125 14.522V9.566L8.164 7.743C8.45 7.902 8.774 8 9.125 8C9.303 8 9.473 7.969 9.637 7.926L11.2 9.489C11.156 9.653 11.125 9.823 11.125 10C11.125 11.106 12.021 12 13.125 12C14.229 12 15.125 11.106 15.125 10C15.125 9.823 15.095 9.653 15.051 9.488L18.614 5.926C18.777 5.97 18.947 6 19.125 6C20.229 6 21.125 5.105 21.125 4C21.125 2.896 20.229 2 19.125 2C18.021 2 17.125 2.896 17.125 4C17.125 4.178 17.156 4.347 17.199 4.512L13.636 8.075C13.473 8.031 13.303 8 13.125 8C12.947 8 12.778 8.031 12.613 8.075L11.05 6.512C11.095 6.348 11.125 6.179 11.125 6C11.125 4.896 10.229 4 9.125 4C8.021 4 7.125 4.896 7.125 6C7.125 6.011 7.128 6.021 7.128 6.032L5.125 7.234V3H3.125V20C3.125 20.552 3.573 21 4.125 21H21.125V19H5.125V16.677L7.897 15.568C8.237 15.835 8.66 16 9.125 16C9.591 16 10.014 15.835 10.353 15.568L12.155 16.289C12.295 17.256 13.119 18 14.125 18C15.229 18 16.125 17.106 16.125 16C16.125 15.989 16.122 15.979 16.122 15.969L18.163 14.743C18.45 14.902 18.774 15 19.125 15Z" fill="url(#paint0_linear_7055_46712)"/>
<defs>
<linearGradient id="paint0_linear_7055_46712" x1="12.125" y1="2" x2="12.125" y2="21" gradientUnits="userSpaceOnUse">
<stop stop-color="#FAD3BD"/>
<stop offset="1" stop-color="#F39A68"/>
</linearGradient>
</defs>
</svg>
