<svg width="45" height="44" viewBox="0 0 45 44" fill="none" xmlns="http://www.w3.org/2000/svg">
    <g filter="url(#filter0_d_1855_31264)">
        <path
            d="M20.6299 20C20.6299 18.9672 21.4671 18.1299 22.5 18.1299C23.5329 18.1299 24.3701 18.9672 24.3701 20C24.3701 21.0328 23.5329 21.8701 22.5 21.8701C21.4671 21.8701 20.6299 21.0328 20.6299 20Z"
            fill="url(#paint0_linear_1855_31264)" />
        <path fill-rule="evenodd" clip-rule="evenodd"
            d="M8.57792 20C8.57792 12.3111 14.8111 6.07792 22.5 6.07792C30.1889 6.07792 36.4221 12.3111 36.4221 20C36.4221 27.6889 30.1889 33.9221 22.5 33.9221C14.8111 33.9221 8.57792 27.6889 8.57792 20ZM17.9286 20C17.9286 17.4753 19.9752 15.4286 22.5 15.4286C25.0248 15.4286 27.0714 17.4753 27.0714 20C27.0714 22.5247 25.0248 24.5714 22.5 24.5714C19.9752 24.5714 17.9286 22.5247 17.9286 20ZM11.0713 20C11.0713 23.7403 13.0454 25.6104 13.0454 25.6104C13.0454 25.6104 11.9025 23.0055 11.9025 20C11.9025 16.9945 13.0454 14.3896 13.0454 14.3896C13.0454 14.3896 11.0713 16.2597 11.0713 20ZM14.8118 23.948C14.8118 23.948 13.3572 22.632 13.3572 20C13.3572 17.3679 14.8118 16.0519 14.8118 16.0519C14.8118 16.0519 13.9697 17.885 13.9697 20C13.9697 22.115 14.8118 23.948 14.8118 23.948ZM15.6427 20C15.6427 21.6623 16.6816 22.4935 16.6816 22.4935C16.6816 22.4935 16.0801 21.3358 16.0801 20C16.0801 18.6642 16.6816 17.5065 16.6816 17.5065C16.6816 17.5065 15.6427 18.3377 15.6427 20ZM31.9544 25.6104C31.9544 25.6104 33.9285 23.7403 33.9285 20C33.9285 16.2597 31.9544 14.3896 31.9544 14.3896C31.9544 14.3896 33.0973 16.9945 33.0973 20C33.0973 23.0055 31.9544 25.6104 31.9544 25.6104ZM31.6431 20C31.6431 22.632 30.1885 23.948 30.1885 23.948C30.1885 23.948 31.0306 22.115 31.0306 20C31.0306 17.885 30.1885 16.0519 30.1885 16.0519C30.1885 16.0519 31.6431 17.3679 31.6431 20ZM28.3182 22.4935C28.3182 22.4935 29.3571 21.6623 29.3571 20C29.3571 18.3377 28.3182 17.5065 28.3182 17.5065C28.3182 17.5065 28.9197 18.6642 28.9197 20C28.9197 21.3358 28.3182 22.4935 28.3182 22.4935Z"
            fill="url(#paint1_linear_1855_31264)" />
        <path fill-rule="evenodd" clip-rule="evenodd"
            d="M22.5 4C13.6635 4 6.5 11.1635 6.5 20C6.5 28.8365 13.6635 36 22.5 36C31.3365 36 38.5 28.8365 38.5 20C38.5 11.1635 31.3365 4 22.5 4ZM22.5 4.83117C14.1225 4.83117 7.33117 11.6225 7.33117 20C7.33117 28.3775 14.1225 35.1688 22.5 35.1688C30.8775 35.1688 37.6688 28.3775 37.6688 20C37.6688 11.6225 30.8775 4.83117 22.5 4.83117Z"
            fill="url(#paint2_linear_1855_31264)" />
    </g>
    <defs>
        <filter id="filter0_d_1855_31264" x="-1.5" y="-2" width="48" height="48" filterUnits="userSpaceOnUse"
            color-interpolation-filters="sRGB">
            <feFlood flood-opacity="0" result="BackgroundImageFix" />
            <feColorMatrix in="SourceAlpha" type="matrix" values="0 0 0 0 0 0 0 0 0 0 0 0 0 0 0 0 0 0 127 0"
                result="hardAlpha" />
            <feOffset dy="2" />
            <feGaussianBlur stdDeviation="3" />
            <feComposite in2="hardAlpha" operator="out" />
            <feColorMatrix type="matrix" values="0 0 0 0 0 0 0 0 0 0 0 0 0 0 0 0 0 0 0.24 0" />
            <feBlend mode="normal" in2="BackgroundImageFix" result="effect1_dropShadow_1855_31264" />
            <feBlend mode="normal" in="SourceGraphic" in2="effect1_dropShadow_1855_31264" result="shape" />
        </filter>
        <linearGradient id="paint0_linear_1855_31264" x1="22.5" y1="4" x2="22.5" y2="36" gradientUnits="userSpaceOnUse">
            <stop stop-color="#FEFEF3" />
            <stop offset="1" stop-color="#BFBD74" />
        </linearGradient>
        <linearGradient id="paint1_linear_1855_31264" x1="22.5" y1="4" x2="22.5" y2="36" gradientUnits="userSpaceOnUse">
            <stop stop-color="#FEFEF3" />
            <stop offset="1" stop-color="#BFBD74" />
        </linearGradient>
        <linearGradient id="paint2_linear_1855_31264" x1="22.5" y1="4" x2="22.5" y2="36" gradientUnits="userSpaceOnUse">
            <stop stop-color="#FEFEF3" />
            <stop offset="1" stop-color="#BFBD74" />
        </linearGradient>
    </defs>
</svg>