<svg width="16" height="16" viewBox="0 0 16 16" fill="none" xmlns="http://www.w3.org/2000/svg">
<path d="M1.59435 8.65628C1.46935 8.53128 1.40935 8.38544 1.41435 8.21878C1.41935 8.05211 1.48456 7.90628 1.60998 7.78128C1.73498 7.66669 1.88081 7.60669 2.04748 7.60128C2.21414 7.59586 2.35998 7.65586 2.48498 7.78128L4.70373 10L4.92248 10.2188L5.14123 10.4375C5.26623 10.5625 5.32623 10.7084 5.32123 10.875C5.31623 11.0417 5.25102 11.1875 5.1256 11.3125C5.0006 11.4271 4.85477 11.4871 4.6881 11.4925C4.52143 11.4979 4.3756 11.4379 4.2506 11.3125L1.59435 8.65628ZM8.21935 9.9844L13.5319 4.6719C13.6569 4.5469 13.8027 4.48711 13.9694 4.49252C14.136 4.49794 14.2819 4.56294 14.4069 4.68752C14.5214 4.81252 14.5814 4.95836 14.5869 5.12503C14.5923 5.29169 14.5323 5.43753 14.4069 5.56253L8.65685 11.3125C8.53185 11.4375 8.38602 11.5 8.21935 11.5C8.05268 11.5 7.90685 11.4375 7.78185 11.3125L5.1256 8.65628C5.01102 8.54169 4.95373 8.39857 4.95373 8.2269C4.95373 8.05523 5.01102 7.90669 5.1256 7.78128C5.2506 7.65628 5.39914 7.59378 5.57123 7.59378C5.74331 7.59378 5.89164 7.65628 6.01623 7.78128L8.21935 9.9844ZM10.86 5.57815L8.65685 7.78128C8.54227 7.89586 8.39914 7.95315 8.22748 7.95315C8.05581 7.95315 7.90727 7.89586 7.78185 7.78128C7.65685 7.65628 7.59435 7.50794 7.59435 7.33627C7.59435 7.16461 7.65685 7.01607 7.78185 6.89065L9.98498 4.68752C10.0996 4.57294 10.2429 4.51565 10.415 4.51565C10.5871 4.51565 10.7354 4.57294 10.86 4.68752C10.985 4.81252 11.0475 4.96086 11.0475 5.13253C11.0475 5.30419 10.985 5.45273 10.86 5.57815Z" fill="#67F38E"/>
</svg>
