<svg width="25" height="24" viewBox="0 0 25 24" fill="none" xmlns="http://www.w3.org/2000/svg">
<path d="M12.9001 13C12.6168 13 12.3791 12.904 12.1871 12.712C11.9951 12.52 11.8995 12.2827 11.9001 12C11.9001 11.7167 11.9961 11.479 12.1881 11.287C12.3801 11.095 12.6175 10.9993 12.9001 11C13.1835 11 13.4211 11.096 13.6131 11.288C13.8051 11.48 13.9008 11.7173 13.9001 12C13.9001 12.2833 13.8041 12.521 13.6121 12.713C13.4201 12.905 13.1828 13.0007 12.9001 13ZM12.9001 22C11.5168 22 10.2168 21.7373 9.00015 21.212C7.78348 20.6867 6.72515 19.9743 5.82515 19.075C4.92515 18.175 4.21281 17.1167 3.68815 15.9C3.16348 14.6833 2.90081 13.3833 2.90015 12C2.90015 10.6167 3.16281 9.31667 3.68815 8.1C4.21348 6.88333 4.92581 5.825 5.82515 4.925C6.72515 4.025 7.78348 3.31267 9.00015 2.788C10.2168 2.26333 11.5168 2.00067 12.9001 2C14.2835 2 15.5835 2.26267 16.8001 2.788C18.0168 3.31333 19.0751 4.02567 19.9751 4.925C20.8751 5.825 21.5878 6.88333 22.1131 8.1C22.6385 9.31667 22.9008 10.6167 22.9001 12C22.9001 13.3833 22.6375 14.6833 22.1121 15.9C21.5868 17.1167 20.8745 18.175 19.9751 19.075C19.0751 19.975 18.0168 20.6877 16.8001 21.213C15.5835 21.7383 14.2835 22.0007 12.9001 22ZM12.9001 20C15.1335 20 17.0251 19.225 18.5751 17.675C20.1251 16.125 20.9001 14.2333 20.9001 12C20.9001 9.76667 20.1251 7.875 18.5751 6.325C17.0251 4.775 15.1335 4 12.9001 4C10.6668 4 8.77515 4.775 7.22515 6.325C5.67515 7.875 4.90015 9.76667 4.90015 12C4.90015 14.2333 5.67515 16.125 7.22515 17.675C8.77515 19.225 10.6668 20 12.9001 20ZM8.32515 17.075L14.5751 14.15C14.6751 14.1 14.7668 14.0333 14.8501 13.95C14.9335 13.8667 15.0001 13.775 15.0501 13.675L17.9751 7.425C18.0585 7.25833 18.0375 7.11233 17.9121 6.987C17.7868 6.86167 17.6411 6.841 17.4751 6.925L11.2251 9.85C11.1251 9.9 11.0335 9.96667 10.9501 10.05C10.8668 10.1333 10.8001 10.225 10.7501 10.325L7.82515 16.575C7.74181 16.7417 7.76281 16.8877 7.88815 17.013C8.01348 17.1383 8.15915 17.159 8.32515 17.075Z" fill="white" />
</svg>
