<svg width="18" height="18" viewBox="0 0 18 18" fill="none" xmlns="http://www.w3.org/2000/svg">
    <g clip-path="url(#clip0_13137_124304)">
        <path fill-rule="evenodd" clip-rule="evenodd"
            d="M4.50021 2.25C5.03157 2.24921 5.54606 2.4365 5.95256 2.77869C6.35907 3.12089 6.63134 3.59591 6.72118 4.11962C6.81101 4.64333 6.71259 5.18193 6.44336 5.64004C6.17413 6.09814 5.75146 6.44617 5.25021 6.6225V8.25H11.3777C11.5546 7.74938 11.9029 7.32743 12.3608 7.05873C12.8188 6.79003 13.357 6.69189 13.8803 6.78164C14.4036 6.8714 14.8784 7.14328 15.2206 7.54922C15.5629 7.95517 15.7506 8.46904 15.7506 9C15.7506 9.53097 15.5629 10.0448 15.2206 10.4508C14.8784 10.8567 14.4036 11.1286 13.8803 11.2184C13.357 11.3081 12.8188 11.21 12.3608 10.9413C11.9029 10.6726 11.5546 10.2506 11.3777 9.75H5.25021V12.75C5.25021 12.9489 5.32923 13.1397 5.46988 13.2803C5.61053 13.421 5.8013 13.5 6.00021 13.5H11.3777C11.5546 12.9994 11.9029 12.5774 12.3608 12.3087C12.8188 12.04 13.357 11.9419 13.8803 12.0316C14.4036 12.1214 14.8784 12.3933 15.2206 12.7992C15.5629 13.2052 15.7506 13.719 15.7506 14.25C15.7506 14.781 15.5629 15.2948 15.2206 15.7008C14.8784 16.1067 14.4036 16.3786 13.8803 16.4684C13.357 16.5581 12.8188 16.46 12.3608 16.1913C11.9029 15.9226 11.5546 15.5006 11.3777 15H6.00021C5.40347 15 4.83118 14.7629 4.40922 14.341C3.98726 13.919 3.75021 13.3467 3.75021 12.75V6.6225C3.24985 6.44539 2.82818 6.09714 2.55969 5.63928C2.2912 5.18141 2.19316 4.64339 2.28289 4.12025C2.37262 3.5971 2.64435 3.12251 3.05008 2.78029C3.45581 2.43807 3.96943 2.25025 4.50021 2.25ZM13.5002 13.5C13.3013 13.5 13.1105 13.579 12.9699 13.7197C12.8292 13.8603 12.7502 14.0511 12.7502 14.25C12.7502 14.4489 12.8292 14.6397 12.9699 14.7803C13.1105 14.921 13.3013 15 13.5002 15C13.6991 15 13.8899 14.921 14.0305 14.7803C14.1712 14.6397 14.2502 14.4489 14.2502 14.25C14.2502 14.0511 14.1712 13.8603 14.0305 13.7197C13.8899 13.579 13.6991 13.5 13.5002 13.5ZM13.5002 8.25C13.3013 8.25 13.1105 8.32902 12.9699 8.46967C12.8292 8.61032 12.7502 8.80109 12.7502 9C12.7502 9.19891 12.8292 9.38968 12.9699 9.53033C13.1105 9.67098 13.3013 9.75 13.5002 9.75C13.6991 9.75 13.8899 9.67098 14.0305 9.53033C14.1712 9.38968 14.2502 9.19891 14.2502 9C14.2502 8.80109 14.1712 8.61032 14.0305 8.46967C13.8899 8.32902 13.6991 8.25 13.5002 8.25ZM4.50021 3.75C4.3013 3.75 4.11053 3.82902 3.96988 3.96967C3.82923 4.11032 3.75021 4.30109 3.75021 4.5C3.75021 4.69891 3.82923 4.88968 3.96988 5.03033C4.11053 5.17098 4.3013 5.25 4.50021 5.25C4.69912 5.25 4.88989 5.17098 5.03054 5.03033C5.17119 4.88968 5.25021 4.69891 5.25021 4.5C5.25021 4.30109 5.17119 4.11032 5.03054 3.96967C4.88989 3.82902 4.69912 3.75 4.50021 3.75Z"
            fill="white" />
    </g>
    <defs>
        <clipPath id="clip0_13137_124304">
            <rect width="18" height="18" fill="white" />
        </clipPath>
    </defs>
</svg>
    