<svg width="25" height="25" viewBox="0 0 25 25" fill="none" xmlns="http://www.w3.org/2000/svg">
<path d="M19.5 15.5C20.604 15.5 21.5 14.606 21.5 13.5C21.5 12.396 20.604 11.5 19.5 11.5C18.396 11.5 17.5 12.396 17.5 13.5C17.5 13.511 17.503 13.521 17.504 13.532L15.462 14.757C15.175 14.598 14.851 14.5 14.5 14.5C14.035 14.5 13.612 14.666 13.272 14.932L11.47 14.211C11.33 13.245 10.506 12.5 9.5 12.5C8.495 12.5 7.671 13.245 7.529 14.211L5.5 15.022V10.066L8.539 8.243C8.825 8.402 9.149 8.5 9.5 8.5C9.678 8.5 9.848 8.469 10.012 8.426L11.575 9.989C11.531 10.153 11.5 10.323 11.5 10.5C11.5 11.606 12.396 12.5 13.5 12.5C14.604 12.5 15.5 11.606 15.5 10.5C15.5 10.323 15.47 10.153 15.426 9.988L18.989 6.426C19.152 6.47 19.322 6.5 19.5 6.5C20.604 6.5 21.5 5.605 21.5 4.5C21.5 3.396 20.604 2.5 19.5 2.5C18.396 2.5 17.5 3.396 17.5 4.5C17.5 4.678 17.531 4.847 17.574 5.012L14.011 8.575C13.848 8.531 13.678 8.5 13.5 8.5C13.322 8.5 13.153 8.531 12.988 8.575L11.425 7.012C11.47 6.848 11.5 6.679 11.5 6.5C11.5 5.396 10.604 4.5 9.5 4.5C8.396 4.5 7.5 5.396 7.5 6.5C7.5 6.511 7.503 6.521 7.503 6.532L5.5 7.734V3.5H3.5V20.5C3.5 21.052 3.948 21.5 4.5 21.5H21.5V19.5H5.5V17.177L8.272 16.068C8.612 16.335 9.035 16.5 9.5 16.5C9.966 16.5 10.389 16.335 10.728 16.068L12.53 16.789C12.67 17.756 13.494 18.5 14.5 18.5C15.604 18.5 16.5 17.606 16.5 16.5C16.5 16.489 16.497 16.479 16.497 16.469L18.538 15.243C18.825 15.402 19.149 15.5 19.5 15.5Z" fill="white"/>
</svg>
