<svg width="16" height="16" viewBox="0 0 16 16" fill="none" xmlns="http://www.w3.org/2000/svg">
<path d="M1.59337 8.65628C1.46837 8.53128 1.40837 8.38544 1.41337 8.21878C1.41837 8.05211 1.48358 7.90628 1.609 7.78128C1.734 7.66669 1.87983 7.60669 2.0465 7.60128C2.21317 7.59586 2.359 7.65586 2.484 7.78128L4.70275 10L4.9215 10.2188L5.14025 10.4375C5.26525 10.5625 5.32525 10.7084 5.32025 10.875C5.31525 11.0417 5.25004 11.1875 5.12462 11.3125C4.99962 11.4271 4.85379 11.4871 4.68712 11.4925C4.52046 11.4979 4.37462 11.4379 4.24962 11.3125L1.59337 8.65628ZM8.21837 9.9844L13.5309 4.6719C13.6559 4.5469 13.8017 4.48711 13.9684 4.49252C14.135 4.49794 14.2809 4.56294 14.4059 4.68752C14.5205 4.81252 14.5805 4.95836 14.5859 5.12503C14.5913 5.29169 14.5313 5.43753 14.4059 5.56253L8.65587 11.3125C8.53087 11.4375 8.38504 11.5 8.21837 11.5C8.05171 11.5 7.90587 11.4375 7.78087 11.3125L5.12462 8.65628C5.01004 8.54169 4.95275 8.39857 4.95275 8.2269C4.95275 8.05523 5.01004 7.90669 5.12462 7.78128C5.24962 7.65628 5.39817 7.59378 5.57025 7.59378C5.74233 7.59378 5.89067 7.65628 6.01525 7.78128L8.21837 9.9844ZM10.859 5.57815L8.65587 7.78128C8.54129 7.89586 8.39817 7.95315 8.2265 7.95315C8.05483 7.95315 7.90629 7.89586 7.78087 7.78128C7.65587 7.65628 7.59337 7.50794 7.59337 7.33627C7.59337 7.16461 7.65587 7.01607 7.78087 6.89065L9.984 4.68752C10.0986 4.57294 10.2419 4.51565 10.414 4.51565C10.5861 4.51565 10.7344 4.57294 10.859 4.68752C10.984 4.81252 11.0465 4.96086 11.0465 5.13253C11.0465 5.30419 10.984 5.45273 10.859 5.57815Z" fill="#67F38E"/>
</svg>
