<svg width="18" height="18" viewBox="0 0 18 18" fill="none" xmlns="http://www.w3.org/2000/svg">
<path fill-rule="evenodd" clip-rule="evenodd" d="M3 6C3 5.58579 3.33579 5.25 3.75 5.25H14.25C14.6642 5.25 15 5.58579 15 6C15 6.41421 14.6642 6.75 14.25 6.75H3.75C3.33579 6.75 3 6.41421 3 6ZM3 9C3 8.58579 3.33579 8.25 3.75 8.25H14.25C14.6642 8.25 15 8.58579 15 9C15 9.41421 14.6642 9.75 14.25 9.75H3.75C3.33579 9.75 3 9.41421 3 9ZM3 12C3 11.5858 3.33579 11.25 3.75 11.25H8.25C8.66421 11.25 9 11.5858 9 12C9 12.4142 8.66421 12.75 8.25 12.75H3.75C3.33579 12.75 3 12.4142 3 12Z" fill="white"/>
</svg>
