<svg width="41" height="41" viewBox="0 0 41 41" fill="none" xmlns="http://www.w3.org/2000/svg">
    <g filter="url(#filter0_d_1855_31237)">
        <path
            d="M16.1962 11.65C18.0998 11.65 20.734 13.1001 23.0656 15.4344C25.9435 18.3107 28.1047 22.3415 26.0519 24.3942C25.7196 24.7265 8.40319 32.1939 7.96954 32.3826C7.44156 32.6135 6.82347 32.498 6.41235 32.0869C6.00263 31.6787 5.88577 31.0606 6.11808 30.5312C6.30393 30.1018 13.7773 12.7777 14.1068 12.4468C14.4701 12.085 15.1276 11.65 16.1962 11.65ZM28.5271 21.2363C28.5271 20.4588 29.1672 19.8104 29.9206 20.0029C31.9085 20.5108 33.4765 22.0791 33.9843 24.0664C34.1769 24.8198 33.5285 25.46 32.7509 25.46C31.9733 25.46 31.3718 24.7919 30.9978 24.1101C30.7391 23.6382 30.349 23.248 29.8769 22.9892C29.1952 22.6153 28.5271 22.0139 28.5271 21.2363ZM16.1948 14.4672C15.7386 15.509 18.2363 18.5698 19.0839 19.4159C19.9202 20.2536 22.9783 22.7695 24.0357 22.3105C24.0568 21.6601 23.3416 19.6904 21.0748 17.4266C19.1332 15.4837 17.1508 14.4672 16.1948 14.4672ZM32.4531 13.1735C33.2071 12.9853 33.9709 13.4439 34.1592 14.1979C34.3474 14.9519 33.8887 15.7158 33.1347 15.904L30.2332 16.6283C29.4792 16.8165 28.7154 16.3579 28.5272 15.6039C28.3389 14.8499 28.7976 14.086 29.5516 13.8978L32.4531 13.1735ZM29.3522 7.15788C29.9017 6.60828 30.7927 6.60816 31.3423 7.1576C31.8919 7.70707 31.8921 8.5981 31.3426 9.14773L30.5173 9.97313C29.9679 10.5227 29.0769 10.5229 28.5273 9.97341C27.9776 9.42394 27.9775 8.53291 28.527 7.98328L29.3522 7.15788ZM22.595 5.3665C22.7836 4.6118 23.5484 4.15293 24.3031 4.34158C25.0578 4.53024 25.5167 5.29501 25.328 6.04973L24.6035 8.94786C24.4149 9.70256 23.6501 10.1614 22.8954 9.97278C22.1407 9.78412 21.6818 9.01935 21.8705 8.26463L22.595 5.3665ZM13.0396 5.74948C13.0396 4.97193 13.6798 4.32359 14.4331 4.51616C16.4204 5.02416 17.9887 6.59242 18.4968 8.5796C18.6894 9.33296 18.041 9.97316 17.2634 9.97316C16.4858 9.97316 15.8843 9.30504 15.5104 8.62326C15.2516 8.15141 14.8615 7.76121 14.3895 7.50233C13.7077 7.12846 13.0396 6.52704 13.0396 5.74948Z"
            fill="url(#paint0_linear_1855_31237)" />
    </g>
    <defs>
        <filter id="filter0_d_1855_31237" x="-4.5" y="-3" width="48" height="48" filterUnits="userSpaceOnUse"
            color-interpolation-filters="sRGB">
            <feFlood flood-opacity="0" result="BackgroundImageFix" />
            <feColorMatrix in="SourceAlpha" type="matrix" values="0 0 0 0 0 0 0 0 0 0 0 0 0 0 0 0 0 0 127 0"
                result="hardAlpha" />
            <feOffset dy="2" />
            <feGaussianBlur stdDeviation="3" />
            <feComposite in2="hardAlpha" operator="out" />
            <feColorMatrix type="matrix" values="0 0 0 0 0 0 0 0 0 0 0 0 0 0 0 0 0 0 0.24 0" />
            <feBlend mode="normal" in2="BackgroundImageFix" result="effect1_dropShadow_1855_31237" />
            <feBlend mode="normal" in="SourceGraphic" in2="effect1_dropShadow_1855_31237" result="shape" />
        </filter>
        <linearGradient id="paint0_linear_1855_31237" x1="20.25" y1="4" x2="20.25" y2="32.5"
            gradientUnits="userSpaceOnUse">
            <stop stop-color="#D9BDFA" />
            <stop offset="1" stop-color="#A667F3" />
        </linearGradient>
    </defs>
</svg>