<svg width="15" height="16" viewBox="0 0 15 16" fill="none" xmlns="http://www.w3.org/2000/svg">
<path d="M1.09435 8.65628C0.969351 8.53128 0.909351 8.38544 0.914351 8.21878C0.919351 8.05211 0.984559 7.90628 1.10998 7.78128C1.23498 7.66669 1.38081 7.60669 1.54748 7.60128C1.71414 7.59586 1.85998 7.65586 1.98498 7.78128L4.20373 10L4.42248 10.2188L4.64123 10.4375C4.76623 10.5625 4.82623 10.7084 4.82123 10.875C4.81623 11.0417 4.75102 11.1875 4.6256 11.3125C4.5006 11.4271 4.35477 11.4871 4.1881 11.4925C4.02143 11.4979 3.8756 11.4379 3.7506 11.3125L1.09435 8.65628ZM7.71935 9.9844L13.0319 4.6719C13.1569 4.5469 13.3027 4.48711 13.4694 4.49252C13.636 4.49794 13.7819 4.56294 13.9069 4.68752C14.0214 4.81252 14.0814 4.95836 14.0869 5.12503C14.0923 5.29169 14.0323 5.43753 13.9069 5.56253L8.15685 11.3125C8.03185 11.4375 7.88602 11.5 7.71935 11.5C7.55268 11.5 7.40685 11.4375 7.28185 11.3125L4.6256 8.65628C4.51102 8.54169 4.45373 8.39857 4.45373 8.2269C4.45373 8.05523 4.51102 7.90669 4.6256 7.78128C4.7506 7.65628 4.89914 7.59378 5.07123 7.59378C5.24331 7.59378 5.39164 7.65628 5.51623 7.78128L7.71935 9.9844ZM10.36 5.57815L8.15685 7.78128C8.04227 7.89586 7.89914 7.95315 7.72748 7.95315C7.55581 7.95315 7.40727 7.89586 7.28185 7.78128C7.15685 7.65628 7.09435 7.50794 7.09435 7.33627C7.09435 7.16461 7.15685 7.01607 7.28185 6.89065L9.48498 4.68752C9.59956 4.57294 9.74289 4.51565 9.91498 4.51565C10.0871 4.51565 10.2354 4.57294 10.36 4.68752C10.485 4.81252 10.5475 4.96086 10.5475 5.13253C10.5475 5.30419 10.485 5.45273 10.36 5.57815Z" fill="white" fill-opacity="0.54"/>
</svg>
