<svg width="18" height="18" viewBox="0 0 18 18" fill="none" xmlns="http://www.w3.org/2000/svg">
    <path
        d="M6.07168 7.26876L8.99668 4.36251L11.9217 7.26876C12.0592 7.40626 12.2342 7.47501 12.4467 7.47501C12.6592 7.47501 12.8342 7.40626 12.9717 7.26876C13.1222 7.11926 13.1942 6.94126 13.1877 6.73476C13.1812 6.52826 13.1092 6.35626 12.9717 6.21876L9.52168 2.76876C9.44668 2.69476 9.36543 2.64176 9.27793 2.60976C9.19043 2.57776 9.09668 2.56201 8.99668 2.56251C8.89668 2.56301 8.80293 2.57876 8.71543 2.60976C8.62793 2.64076 8.54668 2.69376 8.47168 2.76876L5.02168 6.21876C4.88418 6.35626 4.81543 6.53126 4.81543 6.74376C4.81543 6.95626 4.88418 7.13126 5.02168 7.26876C5.17218 7.41926 5.35043 7.49126 5.55643 7.48476C5.76243 7.47826 5.93418 7.40626 6.07168 7.26876Z"
        fill="white" />
    <path
        d="M9.00683 13.6383L11.9318 10.732C12.0693 10.5945 12.2413 10.5225 12.4478 10.516C12.6543 10.5095 12.8323 10.5815 12.9818 10.732C13.1193 10.8695 13.1881 11.0445 13.1881 11.257C13.1881 11.4695 13.1193 11.6445 12.9818 11.782L9.53183 15.232C9.45683 15.307 9.37558 15.3603 9.28808 15.3918C9.20058 15.4233 9.10683 15.4388 9.00683 15.4383C8.90683 15.4378 8.81308 15.4223 8.72558 15.3918C8.63808 15.3613 8.55683 15.308 8.48183 15.232L5.03183 11.782C4.89433 11.6445 4.82233 11.4728 4.81583 11.2668C4.80933 11.0608 4.88133 10.8825 5.03183 10.732C5.16933 10.5945 5.34433 10.5258 5.55683 10.5258C5.76933 10.5258 5.94433 10.5945 6.08183 10.732L9.00683 13.6383Z"
        fill="white" />
</svg>
    