<svg width="18" height="18" viewBox="0 0 18 18" fill="none" xmlns="http://www.w3.org/2000/svg">
<path d="M7.8826 2.7494C8.02329 2.59228 8.19553 2.46658 8.38809 2.38053C8.58065 2.29448 8.78919 2.25 9.0001 2.25C9.21101 2.25 9.41955 2.29448 9.6121 2.38053C9.80466 2.46658 9.9769 2.59228 10.1176 2.7494L10.6426 3.3359C10.7926 3.50353 10.9785 3.63525 11.1863 3.72132C11.3942 3.8074 11.6187 3.84562 11.8433 3.83315L12.6308 3.78965C12.8415 3.77804 13.0522 3.81099 13.2492 3.88635C13.4463 3.9617 13.6252 4.07777 13.7743 4.22697C13.9235 4.37617 14.0394 4.55515 14.1147 4.75222C14.19 4.9493 14.2228 5.16003 14.2111 5.37065L14.1676 6.1574C14.1552 6.3819 14.1935 6.60631 14.2796 6.81402C14.3657 7.02173 14.4973 7.20744 14.6648 7.3574L15.2513 7.8824C15.4086 8.0231 15.5344 8.19539 15.6205 8.38801C15.7067 8.58064 15.7512 8.78927 15.7512 9.00028C15.7512 9.21128 15.7067 9.41991 15.6205 9.61254C15.5344 9.80517 15.4086 9.97746 15.2513 10.1182L14.6648 10.6432C14.4972 10.7932 14.3655 10.979 14.2794 11.1869C14.1934 11.3947 14.1551 11.6193 14.1676 11.8439L14.2111 12.6314C14.2227 12.842 14.1898 13.0528 14.1144 13.2498C14.039 13.4468 13.923 13.6257 13.7738 13.7749C13.6246 13.924 13.4456 14.04 13.2485 14.1153C13.0515 14.1905 12.8407 14.2234 12.6301 14.2117L11.8433 14.1682C11.6188 14.1558 11.3944 14.1941 11.1867 14.2801C10.979 14.3662 10.7933 14.4979 10.6433 14.6654L10.1183 15.2519C9.97765 15.4092 9.80536 15.535 9.61273 15.6211C9.42011 15.7072 9.21148 15.7517 9.00047 15.7517C8.78947 15.7517 8.58083 15.7072 8.38821 15.6211C8.19558 15.535 8.02329 15.4092 7.8826 15.2519L7.3576 14.6654C7.20755 14.4978 7.02172 14.3661 6.81387 14.28C6.60602 14.1939 6.38147 14.1557 6.15685 14.1682L5.36935 14.2117C5.15871 14.2233 4.948 14.1903 4.75096 14.115C4.55393 14.0396 4.375 13.9235 4.22587 13.7743C4.07674 13.6251 3.96076 13.4462 3.88549 13.2491C3.81023 13.052 3.77738 12.8413 3.7891 12.6307L3.8326 11.8439C3.84495 11.6194 3.80667 11.395 3.7206 11.1873C3.63453 10.9796 3.50287 10.7939 3.33535 10.6439L2.74885 10.1189C2.59159 9.97821 2.4658 9.80592 2.37967 9.61329C2.29354 9.42066 2.24902 9.21203 2.24902 9.00103C2.24902 8.79002 2.29354 8.58139 2.37967 8.38877C2.4658 8.19614 2.59159 8.02385 2.74885 7.88315L3.33535 7.35815C3.50297 7.20811 3.63469 7.02228 3.72077 6.81443C3.80684 6.60658 3.84506 6.38203 3.8326 6.1574L3.7891 5.3699C3.77759 5.15933 3.81062 4.9487 3.88603 4.75175C3.96143 4.55481 4.07752 4.37598 4.22671 4.22693C4.3759 4.07788 4.55484 3.96197 4.75186 3.88675C4.94887 3.81153 5.15953 3.7787 5.3701 3.7904L6.15685 3.8339C6.38134 3.84625 6.60575 3.80798 6.81346 3.72191C7.02117 3.63584 7.20688 3.50417 7.35685 3.33665L7.8826 2.7494Z" stroke="white" stroke-opacity="1" stroke-width="1.5"/>
<path d="M7.125 7.125H7.1325V7.1325H7.125V7.125ZM10.875 10.875H10.8825V10.8825H10.875V10.875Z" stroke="white" stroke-opacity="1" stroke-width="2.25" stroke-linejoin="round"/>
<path d="M11.25 6.75L6.75 11.25" stroke="white" stroke-opacity="1" stroke-width="1.5" stroke-linecap="round" stroke-linejoin="round"/>
</svg>
