<svg width="24" height="24" viewBox="0 0 24 24" fill="none" xmlns="http://www.w3.org/2000/svg">
<path d="M19 15C20.104 15 21 14.106 21 13C21 11.896 20.104 11 19 11C17.896 11 17 11.896 17 13C17 13.011 17.003 13.021 17.004 13.032L14.962 14.257C14.675 14.098 14.351 14 14 14C13.535 14 13.112 14.166 12.772 14.432L10.97 13.711C10.83 12.745 10.006 12 9 12C7.995 12 7.171 12.745 7.029 13.711L5 14.522V9.566L8.039 7.743C8.325 7.902 8.649 8 9 8C9.178 8 9.348 7.969 9.512 7.926L11.075 9.489C11.031 9.653 11 9.823 11 10C11 11.106 11.896 12 13 12C14.104 12 15 11.106 15 10C15 9.823 14.97 9.653 14.926 9.488L18.489 5.926C18.652 5.97 18.822 6 19 6C20.104 6 21 5.105 21 4C21 2.896 20.104 2 19 2C17.896 2 17 2.896 17 4C17 4.178 17.031 4.347 17.074 4.512L13.511 8.075C13.348 8.031 13.178 8 13 8C12.822 8 12.653 8.031 12.488 8.075L10.925 6.512C10.97 6.348 11 6.179 11 6C11 4.896 10.104 4 9 4C7.896 4 7 4.896 7 6C7 6.011 7.003 6.021 7.003 6.032L5 7.234V3H3V20C3 20.552 3.448 21 4 21H21V19H5V16.677L7.772 15.568C8.112 15.835 8.535 16 9 16C9.466 16 9.889 15.835 10.228 15.568L12.03 16.289C12.17 17.256 12.994 18 14 18C15.104 18 16 17.106 16 16C16 15.989 15.997 15.979 15.997 15.969L18.038 14.743C18.325 14.902 18.649 15 19 15Z" fill="url(#paint0_linear_2597_24812)"/>
<defs>
<linearGradient id="paint0_linear_2597_24812" x1="12" y1="2" x2="12" y2="21" gradientUnits="userSpaceOnUse">
<stop stop-color="#BDF3FA"/>
<stop offset="1" stop-color="#68E2F3"/>
</linearGradient>
</defs>
</svg>
