<svg width="45" height="41" viewBox="0 0 45 41" fill="none" xmlns="http://www.w3.org/2000/svg">
    <g filter="url(#filter0_d_1855_31244)">
        <path
            d="M13.4017 8.24026C12.8788 8.74904 12.9542 9.58805 13.512 10.0583C14.0701 10.5288 14.8989 10.4504 15.4346 9.95462C17.38 8.15418 19.9328 7.14286 22.615 7.14286C25.2894 7.14286 27.8364 8.14958 29.7796 9.94022C30.316 10.4345 31.1443 10.5114 31.7013 10.0405C32.2587 9.56921 32.3326 8.72965 31.8083 8.22183C29.3518 5.84246 26.068 4.5 22.615 4.5C19.1512 4.5 15.8599 5.84872 13.4017 8.24026Z"
            fill="url(#paint0_linear_1855_31244)" />
        <path
            d="M22.615 12.4285C23.847 12.4285 25.0051 12.8431 25.9333 13.595C26.4999 14.0541 27.3191 14.1898 27.9026 13.7525C28.4868 13.3148 28.612 12.4761 28.0849 11.9711C26.6221 10.5697 24.6888 9.78569 22.615 9.78569C20.5764 9.78569 18.6127 10.5847 17.1502 11.9717C16.6207 12.4739 16.7452 13.3122 17.3289 13.7504C17.9129 14.1887 18.7333 14.0531 19.3009 13.5937C20.2281 12.8431 21.385 12.4285 22.615 12.4285Z"
            fill="url(#paint1_linear_1855_31244)" />
        <path
            d="M30.5355 30.25C30.5355 31.3546 29.64 32.25 28.5355 32.25H16.6783C15.5738 32.25 14.6783 31.3546 14.6783 30.25V29.6071C14.6783 25.964 17.6423 23 21.2855 23H22.603C20.4191 22.9979 18.6426 21.2201 18.6426 19.0357C18.6426 16.8501 20.4213 15.0714 22.6069 15.0714C24.7925 15.0714 26.5712 16.8501 26.5712 19.0357C26.5712 21.2201 24.7947 22.9979 22.6108 23H23.9283C27.5715 23 30.5355 25.964 30.5355 29.6071V30.25Z"
            fill="url(#paint2_linear_1855_31244)" />
        <path
            d="M12.4255 26.9643C12.1745 27.8034 12.0357 28.6887 12.0357 29.6071V32.25H8.07143C7.34162 32.25 6.75 31.6583 6.75 30.9285C6.75 28.7429 8.52864 26.9643 10.7143 26.9643H12.4255Z"
            fill="url(#paint3_linear_1855_31244)" />
        <path
            d="M16.6897 21.5901C16.3501 20.1286 15.0445 19.0357 13.4787 19.0357C11.6551 19.0357 10.1764 20.5144 10.1764 22.3393C10.1764 23.9885 11.3882 25.3429 12.9659 25.5913C13.7786 23.9118 15.0802 22.5164 16.6897 21.5901Z"
            fill="url(#paint4_linear_1855_31244)" />
        <path
            d="M32.7884 26.9643H34.4996C36.6853 26.9643 38.4639 28.7416 38.4639 30.9285C38.4639 31.6583 37.8723 32.25 37.1425 32.25H33.1782V29.6071C33.1782 28.6887 33.0381 27.8034 32.7884 26.9643Z"
            fill="url(#paint5_linear_1855_31244)" />
        <path
            d="M31.9786 19.0357C30.3665 19.0357 29.0292 20.1933 28.7385 21.7209C30.2568 22.6498 31.4844 24.0017 32.2601 25.6138C33.9502 25.4698 35.2835 24.0664 35.2835 22.338C35.2835 20.5144 33.8035 19.0357 31.9786 19.0357Z"
            fill="url(#paint6_linear_1855_31244)" />
    </g>
    <defs>
        <filter id="filter0_d_1855_31244" x="-1.5" y="-4" width="48" height="48" filterUnits="userSpaceOnUse"
            color-interpolation-filters="sRGB">
            <feFlood flood-opacity="0" result="BackgroundImageFix" />
            <feColorMatrix in="SourceAlpha" type="matrix" values="0 0 0 0 0 0 0 0 0 0 0 0 0 0 0 0 0 0 127 0"
                result="hardAlpha" />
            <feOffset dy="2" />
            <feGaussianBlur stdDeviation="3" />
            <feComposite in2="hardAlpha" operator="out" />
            <feColorMatrix type="matrix" values="0 0 0 0 0 0 0 0 0 0 0 0 0 0 0 0 0 0 0.24 0" />
            <feBlend mode="normal" in2="BackgroundImageFix" result="effect1_dropShadow_1855_31244" />
            <feBlend mode="normal" in="SourceGraphic" in2="effect1_dropShadow_1855_31244" result="shape" />
        </filter>
        <linearGradient id="paint0_linear_1855_31244" x1="22.607" y1="4.5" x2="22.607" y2="32.25"
            gradientUnits="userSpaceOnUse">
            <stop stop-color="#BDF6FA" />
            <stop offset="1" stop-color="#68EAF3" />
        </linearGradient>
        <linearGradient id="paint1_linear_1855_31244" x1="22.607" y1="4.5" x2="22.607" y2="32.25"
            gradientUnits="userSpaceOnUse">
            <stop stop-color="#BDF6FA" />
            <stop offset="1" stop-color="#68EAF3" />
        </linearGradient>
        <linearGradient id="paint2_linear_1855_31244" x1="22.607" y1="4.5" x2="22.607" y2="32.25"
            gradientUnits="userSpaceOnUse">
            <stop stop-color="#BDF6FA" />
            <stop offset="1" stop-color="#68EAF3" />
        </linearGradient>
        <linearGradient id="paint3_linear_1855_31244" x1="22.607" y1="4.5" x2="22.607" y2="32.25"
            gradientUnits="userSpaceOnUse">
            <stop stop-color="#BDF6FA" />
            <stop offset="1" stop-color="#68EAF3" />
        </linearGradient>
        <linearGradient id="paint4_linear_1855_31244" x1="22.607" y1="4.5" x2="22.607" y2="32.25"
            gradientUnits="userSpaceOnUse">
            <stop stop-color="#BDF6FA" />
            <stop offset="1" stop-color="#68EAF3" />
        </linearGradient>
        <linearGradient id="paint5_linear_1855_31244" x1="22.607" y1="4.5" x2="22.607" y2="32.25"
            gradientUnits="userSpaceOnUse">
            <stop stop-color="#BDF6FA" />
            <stop offset="1" stop-color="#68EAF3" />
        </linearGradient>
        <linearGradient id="paint6_linear_1855_31244" x1="22.607" y1="4.5" x2="22.607" y2="32.25"
            gradientUnits="userSpaceOnUse">
            <stop stop-color="#BDF6FA" />
            <stop offset="1" stop-color="#68EAF3" />
        </linearGradient>
    </defs>
</svg>