<svg width="25" height="24" viewBox="0 0 25 24" fill="none" xmlns="http://www.w3.org/2000/svg">
    <path
        d="M7.80005 16.5L14.8 14.5L16.8 7.5L9.80005 9.5L7.80005 16.5ZM12.3 13.5C11.8834 13.5 11.5294 13.3543 11.238 13.063C10.9467 12.7717 10.8007 12.4173 10.8 12C10.7994 11.5827 10.9454 11.2287 11.238 10.938C11.5307 10.6473 11.8847 10.5013 12.3 10.5C12.7154 10.4987 13.0697 10.6447 13.363 10.938C13.6564 11.2313 13.802 11.5853 13.8 12C13.798 12.4147 13.6524 12.769 13.363 13.063C13.0737 13.357 12.7194 13.5027 12.3 13.5ZM12.3 22C10.9167 22 9.61672 21.7373 8.40005 21.212C7.18338 20.6867 6.12505 19.9743 5.22505 19.075C4.32505 18.1757 3.61272 17.1173 3.08805 15.9C2.56338 14.6827 2.30072 13.3827 2.30005 12C2.29938 10.6173 2.56205 9.31733 3.08805 8.1C3.61405 6.88267 4.32638 5.82433 5.22505 4.925C6.12372 4.02567 7.18205 3.31333 8.40005 2.788C9.61805 2.26267 10.918 2 12.3 2C13.682 2 14.982 2.26267 16.2 2.788C17.418 3.31333 18.4764 4.02567 19.3751 4.925C20.2737 5.82433 20.9864 6.88267 21.5131 8.1C22.0397 9.31733 22.3021 10.6173 22.3001 12C22.298 13.3827 22.0354 14.6827 21.5121 15.9C20.9887 17.1173 20.2764 18.1757 19.3751 19.075C18.4737 19.9743 17.4154 20.687 16.2 21.213C14.9847 21.739 13.6847 22.0013 12.3 22ZM12.3 20C14.5167 20 16.4044 19.221 17.963 17.663C19.5217 16.105 20.3007 14.2173 20.3001 12C20.2994 9.78267 19.5204 7.895 17.963 6.337C16.4057 4.779 14.518 4 12.3 4C10.082 4 8.19438 4.77933 6.63705 6.338C5.07972 7.89667 4.30072 9.784 4.30005 12C4.29938 14.216 5.07872 16.1037 6.63805 17.663C8.19738 19.2223 10.0847 20.0013 12.3 20Z"
        fill="white" />
</svg>
    