<svg width="15" height="16" viewBox="0 0 15 16" fill="none" xmlns="http://www.w3.org/2000/svg">
    <path
        d="M7.5 1.75C4.05375 1.75 1.25 4.55375 1.25 8C1.25 11.4469 4.05375 14.25 7.5 14.25C8.56241 14.25 9.58789 13.9885 10.5004 13.4891C10.8032 13.3234 10.8742 12.9312 10.6789 12.6467C10.4837 12.3623 10.0965 12.2938 9.78967 12.4514C9.08839 12.8115 8.3081 13 7.5 13C4.74313 13 2.5 10.7569 2.5 8C2.5 5.24313 4.74313 3 7.5 3C10.2569 3 12.5 5.24313 12.5 8V8.48875C12.5 9.35625 12.1263 9.875 11.5 9.875L11.4988 9.88625C11.4613 9.87813 11.4206 9.875 11.3806 9.875H11.25C10.8981 9.875 10.375 9.36375 10.375 9.01937V8C10.375 6.415 9.08562 5.125 7.5 5.125C5.91438 5.125 4.625 6.41438 4.625 8C4.625 9.58562 5.91438 10.875 7.5 10.875C8.27125 10.875 8.96875 10.5662 9.48563 10.0706C9.89125 10.6681 10.5813 11.125 11.25 11.125L11.2513 11.1131C11.29 11.1213 11.3306 11.125 11.3719 11.125H11.5C12.845 11.125 13.75 10.0662 13.75 8.48875V8C13.75 4.55375 10.9462 1.75 7.5 1.75ZM7.5 9.62437C6.60375 9.62437 5.875 8.89562 5.875 7.99937C5.875 7.10312 6.60375 6.37438 7.5 6.37438C8.39625 6.37438 9.125 7.10312 9.125 7.99937C9.125 8.89562 8.39625 9.62437 7.5 9.62437Z"
        fill="white" />
</svg>
    