<svg width="181" height="160" viewBox="0 0 181 160" fill="none" xmlns="http://www.w3.org/2000/svg">
    <ellipse cx="90.5" cy="150.782" rx="90" ry="9" fill="#0F0F0F" />
    <path
        d="M111.214 0.217957C111.214 0.217957 111.002 0.272472 110.593 0.377461C109.986 0.495294 109.387 0.64901 108.799 0.837797C106.523 1.56607 104.389 2.68093 102.492 4.13347C99.4787 6.41518 97.128 9.45846 95.6814 12.9502C94.7954 15.126 94.3164 17.446 94.2683 19.7948C94.2314 25.3698 96.4006 30.7332 100.303 34.7152C101.371 35.8206 102.577 36.7849 103.89 37.5847C105.229 38.4456 106.696 39.0881 108.236 39.4882C109.82 39.9119 111.489 39.9035 113.068 39.464C114.7 39.0242 116.107 37.9866 117.01 36.5573C117.431 35.8064 117.699 34.98 117.801 34.1252C117.902 33.2705 117.835 32.4041 117.601 31.5755C117.145 29.8468 116.162 28.3027 114.79 27.1567C112.015 24.808 108.217 23.7285 104.433 23.5926C100.524 23.5042 96.6591 24.4383 93.2214 26.3022C91.4712 27.2714 89.8481 28.4541 88.3894 29.8231C86.9231 31.2307 85.6798 32.8533 84.702 34.6351C84.4744 35.0877 84.1914 35.5209 84.0053 36.0047L83.4232 37.4286C83.0989 38.41 82.8406 39.412 82.65 40.4278C82.2811 42.4856 82.2073 44.5855 82.4308 46.6641C82.8872 50.8142 84.4796 54.7579 87.0328 58.0613C89.4935 61.2978 92.9362 63.6504 96.8456 64.7669C98.7353 65.2856 100.718 65.3702 102.645 65.0145C104.528 64.6418 106.261 63.7249 107.628 62.3771C108.997 61.086 109.903 59.3801 110.206 57.5228C110.474 55.7003 110.048 53.8436 109.013 52.3197C107.976 50.8593 106.59 49.6816 104.981 48.8934C103.417 48.1158 101.722 47.638 99.9824 47.4845C96.6198 47.302 93.2765 48.0989 90.3577 49.7785C87.6214 51.33 85.3065 53.5277 83.615 56.1796C82.0862 58.6418 81.1557 61.428 80.8979 64.3148C80.4374 69.327 81.8035 74.3367 84.7445 78.4214C86.9994 81.4556 89.9928 83.8626 93.4402 85.4138C95.6133 86.3967 97.9206 87.0509 100.286 87.3548C101.096 87.4404 101.723 87.4976 102.145 87.5068L102.775 87.5462C102.775 87.5462 102.561 87.5593 102.139 87.5501C101.518 87.5437 100.898 87.5042 100.281 87.4317C97.8966 87.1726 95.5676 86.5424 93.3781 85.5639C89.8827 84.0267 86.8414 81.6164 84.5465 78.5645C81.5631 74.445 80.1668 69.3871 80.6142 64.3205C80.8635 61.3932 81.8017 58.5663 83.3523 56.0709C85.0646 53.3692 87.4107 51.1263 90.1867 49.5372C93.1658 47.8185 96.5795 47.0007 100.014 47.1829C101.803 47.3342 103.547 47.8226 105.155 48.6225C106.825 49.4342 108.263 50.6544 109.336 52.1699C110.433 53.7579 110.9 55.6971 110.648 57.6107C110.317 59.5451 109.37 61.3208 107.947 62.6726C106.53 64.0717 104.735 65.0276 102.783 65.4234C100.809 65.7858 98.7776 65.6934 96.8441 65.1531C92.8499 64.0286 89.3273 61.6405 86.8041 58.3464C84.199 54.9838 82.5708 50.9684 82.0983 46.7411C81.874 44.6194 81.9508 42.4767 82.3266 40.3766C82.521 39.3393 82.7852 38.3162 83.1171 37.3143L83.7168 35.8607C83.9009 35.369 84.1836 34.9023 84.4212 34.4556C85.4235 32.6384 86.6951 30.9834 88.1926 29.5466C89.6863 28.1496 91.3492 26.9453 93.1425 25.9619C96.6459 24.0627 100.585 23.1125 104.569 23.2056C108.431 23.3549 112.293 24.4517 115.172 26.8824C116.612 28.0738 117.642 29.6864 118.117 31.4935C118.612 33.2648 118.384 35.1603 117.482 36.7632C116.526 38.2678 115.04 39.3585 113.319 39.819C111.676 40.2804 109.94 40.2885 108.293 39.8424C106.717 39.4349 105.217 38.775 103.851 37.8883C102.518 37.0681 101.293 36.0837 100.206 34.9581C96.2331 30.9017 94.0337 25.4339 94.0907 19.7565C94.1513 17.3775 94.6489 15.0299 95.5585 12.8308C97.0398 9.30645 99.4391 6.24383 102.506 3.962C104.426 2.52243 106.586 1.43447 108.885 0.748609C109.477 0.554238 110.082 0.399113 110.694 0.284237L111.214 0.217957Z"
        fill="#333333" />
    <path d="M149.309 60.8968H35.4272V148.731H149.309V60.8968Z" fill="#212121" />
    <path d="M35.4272 60.8968L56.4638 80.5201H168.413L149.309 60.8968H35.4272Z" fill="#424242" />
    <path
        d="M35.4272 60.8968L149.342 60.6938H149.431L149.496 60.7506L168.404 80.1709L168.599 80.3739L168.949 80.7313H168.445L56.4963 80.642H56.4475L35.4272 60.8968L56.545 80.3902H56.4557L168.404 80.309L168.258 80.6663L168.055 80.4633L149.155 61.043L149.301 61.108L35.4272 60.8968Z"
        fill="#263238" />
    <path
        d="M72.4457 103C72.0528 103.014 71.6813 103.182 71.4109 103.468C71.1406 103.753 70.9931 104.133 71.0002 104.527C71.0074 104.92 71.1685 105.295 71.449 105.57C71.7295 105.846 72.1069 106 72.5 106C72.8931 106 73.2705 105.846 73.551 105.57C73.8315 105.295 73.9926 104.92 73.9998 104.527C74.0069 104.133 73.8594 103.753 73.5891 103.468C73.3187 103.182 72.9472 103.014 72.5543 103"
        fill="white" />
    <path
        d="M93.4429 103C93.0503 103.015 92.6792 103.183 92.4095 103.469C92.1397 103.755 91.9928 104.135 92.0003 104.528C92.0078 104.921 92.169 105.295 92.4495 105.571C92.7299 105.846 93.1071 106 93.5 106C93.8929 106 94.2701 105.846 94.5505 105.571C94.831 105.295 94.9922 104.921 94.9997 104.528C95.0072 104.135 94.8603 103.755 94.5905 103.469C94.3208 103.183 93.9497 103.015 93.5571 103"
        fill="white" />
    <path
        d="M96.7013 122.423C96.2317 120.629 95.4688 118.924 94.4433 117.379C93.3027 115.726 91.8381 114.322 90.1385 113.253C88.0881 111.892 85.6965 111.135 83.2366 111.067C80.7766 111 78.3472 111.625 76.2252 112.871C74.4726 113.849 72.9342 115.17 71.7011 116.753C70.5905 118.242 69.7367 119.905 69.175 121.676C69.1813 121.543 69.2031 121.413 69.24 121.286C69.3178 120.92 69.4182 120.559 69.5406 120.205C69.9856 118.901 70.6354 117.675 71.4655 116.575C72.6899 114.917 74.2475 113.534 76.0383 112.514C78.2151 111.214 80.7166 110.561 83.2507 110.63C85.7848 110.699 88.247 111.488 90.3497 112.904C92.0788 114.015 93.5562 115.476 94.687 117.192C95.4586 118.338 96.0426 119.599 96.417 120.928C96.517 121.289 96.5957 121.655 96.6526 122.025C96.6806 122.156 96.6969 122.289 96.7013 122.423Z"
        fill="#787878" />
    <path opacity="0.5" d="M35.6871 61.8634L55.8303 87.3997H149.309V80.5201H56.4638L35.6871 61.8634Z" fill="black" />
    <path
        d="M126.851 148.536C126.737 148.536 126.64 133.258 126.64 114.422C126.64 95.5869 126.737 80.309 126.851 80.309C126.965 80.309 127.07 95.5788 127.07 114.422C127.07 133.266 126.973 148.536 126.851 148.536Z"
        fill="white" fill-opacity="0.18" />
    <path d="M144.736 128.62H134.697V139.967H144.736V128.62Z" fill="white" fill-opacity="0.06" />
    <path d="M35.4272 60.8968L12.0514 80.5201H35.4272V60.8968Z" fill="#212121" />
    <g opacity="0.4">
        <path d="M35.4272 60.8968L12.0514 80.5201H35.4272V60.8968Z" fill="black" />
    </g>
</svg>