<svg width="24" height="24" viewBox="0 0 24 24" fill="none" xmlns="http://www.w3.org/2000/svg">
    <path
        d="M12.002 12.998C11.7186 12.998 11.4813 12.902 11.29 12.71C11.0986 12.518 11.0026 12.2807 11.002 11.998C11.0013 11.7154 11.0973 11.478 11.29 11.286C11.4826 11.094 11.72 10.998 12.002 10.998C12.284 10.998 12.5216 11.094 12.715 11.286C12.9083 11.478 13.004 11.7154 13.002 11.998C13 12.2807 12.904 12.5184 12.714 12.711C12.524 12.9037 12.2866 12.9994 12.002 12.998ZM12.002 21.998C10.6186 21.998 9.31862 21.7354 8.10195 21.21C6.88529 20.6847 5.82695 19.9724 4.92695 19.073C4.02695 18.1737 3.31462 17.1154 2.78995 15.898C2.26529 14.6807 2.00262 13.3807 2.00195 11.998C2.00129 10.6154 2.26395 9.31538 2.78995 8.09805C3.31595 6.88071 4.02829 5.82238 4.92695 4.92305C5.82562 4.02371 6.88395 3.31138 8.10195 2.78605C9.31995 2.26071 10.62 1.99805 12.002 1.99805C13.384 1.99805 14.684 2.26071 15.902 2.78605C17.12 3.31138 18.1783 4.02371 19.077 4.92305C19.9756 5.82238 20.6883 6.88071 21.215 8.09805C21.7416 9.31538 22.004 10.6154 22.002 11.998C22 13.3807 21.7373 14.6807 21.214 15.898C20.6906 17.1154 19.9783 18.1737 19.077 19.073C18.1756 19.9724 17.1173 20.685 15.902 21.211C14.6866 21.737 13.3866 21.9994 12.002 21.998ZM12.002 19.998C14.2353 19.998 16.127 19.223 17.677 17.673C19.227 16.123 20.002 14.2314 20.002 11.998C20.002 9.76471 19.227 7.87305 17.677 6.32305C16.127 4.77305 14.2353 3.99805 12.002 3.99805C9.76862 3.99805 7.87695 4.77305 6.32695 6.32305C4.77695 7.87305 4.00195 9.76471 4.00195 11.998C4.00195 14.2314 4.77695 16.123 6.32695 17.673C7.87695 19.223 9.76862 19.998 12.002 19.998ZM12.002 19.998C9.76862 19.998 7.87695 19.223 6.32695 17.673C4.77695 16.123 4.00195 14.2314 4.00195 11.998C4.00195 9.76471 4.77695 7.87305 6.32695 6.32305C7.87695 4.77305 9.76862 3.99805 12.002 3.99805C14.2353 3.99805 16.127 4.77305 17.677 6.32305C19.227 7.87305 20.002 9.76471 20.002 11.998C20.002 14.2314 19.227 16.123 17.677 17.673C16.127 19.223 14.2353 19.998 12.002 19.998ZM13.677 14.148C13.777 14.098 13.8686 14.0314 13.952 13.948C14.0353 13.8647 14.102 13.773 14.152 13.673L17.077 7.42305C17.1603 7.25638 17.1396 7.11038 17.015 6.98505C16.8903 6.85971 16.7443 6.83905 16.577 6.92305L10.327 9.84805C10.227 9.89805 10.1353 9.96471 10.052 10.048C9.96862 10.1314 9.90195 10.223 9.85195 10.323L6.92695 16.573C6.84362 16.7397 6.86462 16.8857 6.98995 17.011C7.11529 17.1364 7.26095 17.157 7.42695 17.073L13.677 14.148Z"
        fill="url(#paint0_linear_20193_42173)" />
    <defs>
        <linearGradient id="paint0_linear_20193_42173" x1="12.002" y1="1.99805" x2="12.002"
            y2="21.9981" gradientUnits="userSpaceOnUse">
            <stop stop-color="#C69DF7" />
            <stop offset="1" stop-color="#A667F3" />
        </linearGradient>
    </defs>
</svg>
    