<svg width="16" height="16" viewBox="0 0 16 16" fill="none" xmlns="http://www.w3.org/2000/svg">
<path fill-rule="evenodd" clip-rule="evenodd" d="M6.04688 1.75C6.04688 1.44797 5.80203 1.20312 5.5 1.20312C5.19797 1.20312 4.95312 1.44797 4.95312 1.75V2.45312H3.625C2.63261 2.45312 1.82812 3.25761 1.82812 4.25V6.75V13C1.82812 13.9924 2.63261 14.7969 3.625 14.7969H12.375C13.3674 14.7969 14.1719 13.9924 14.1719 13V6.75V4.25C14.1719 3.25761 13.3674 2.45312 12.375 2.45312H11.0469V1.75C11.0469 1.44797 10.802 1.20312 10.5 1.20312C10.198 1.20312 9.95312 1.44797 9.95312 1.75V2.45312H6.04688V1.75ZM4.95312 3.54688V4.25C4.95312 4.55203 5.19797 4.79688 5.5 4.79688C5.80203 4.79688 6.04688 4.55203 6.04688 4.25V3.54688H9.95312V4.25C9.95312 4.55203 10.198 4.79688 10.5 4.79688C10.802 4.79688 11.0469 4.55203 11.0469 4.25V3.54688H12.375C12.7633 3.54688 13.0781 3.86167 13.0781 4.25V6.20312H2.92188V4.25C2.92188 3.86167 3.23667 3.54688 3.625 3.54688H4.95312ZM2.92188 7.29688V13C2.92188 13.3883 3.23667 13.7031 3.625 13.7031H12.375C12.7633 13.7031 13.0781 13.3883 13.0781 13V7.29688H2.92188Z" fill="white" />
<path d="M7.99827 11.5966L9.07441 12.2461C9.1533 12.2937 9.25061 12.223 9.22968 12.1333L8.9441 10.9091L9.89499 10.0853C9.96464 10.025 9.92741 9.91061 9.8356 9.90282L8.58368 9.7966L8.09417 8.64164C8.05828 8.55695 7.93825 8.55695 7.90236 8.64164L7.41285 9.7966L6.16094 9.90282C6.06912 9.91061 6.03189 10.025 6.10154 10.0853L7.05243 10.9091L6.76685 12.1333C6.74592 12.223 6.84323 12.2937 6.92212 12.2461L7.99827 11.5966Z" fill="white" />
</svg>
