<svg width="18" height="18" viewBox="0 0 18 18" fill="none" xmlns="http://www.w3.org/2000/svg">
<path d="M9 12.75C9.2125 12.75 9.39075 12.678 9.53475 12.534C9.67875 12.39 9.7505 12.212 9.75 12C9.7495 11.788 9.6775 11.61 9.534 11.466C9.3905 11.322 9.2125 11.25 9 11.25C8.7875 11.25 8.6095 11.322 8.466 11.466C8.3225 11.61 8.2505 11.788 8.25 12C8.2495 12.212 8.3215 12.3902 8.466 12.5347C8.6105 12.6792 8.7885 12.751 9 12.75ZM9 9.75C9.2125 9.75 9.39075 9.678 9.53475 9.534C9.67875 9.39 9.7505 9.212 9.75 9V6C9.75 5.7875 9.678 5.6095 9.534 5.466C9.39 5.3225 9.212 5.2505 9 5.25C8.788 5.2495 8.61 5.3215 8.466 5.466C8.322 5.6105 8.25 5.7885 8.25 6V9C8.25 9.2125 8.322 9.39075 8.466 9.53475C8.61 9.67875 8.788 9.7505 9 9.75ZM9 16.5C7.9625 16.5 6.9875 16.303 6.075 15.909C5.1625 15.515 4.36875 14.9808 3.69375 14.3063C3.01875 13.6318 2.4845 12.838 2.091 11.925C1.6975 11.012 1.5005 10.037 1.5 9C1.4995 7.963 1.6965 6.988 2.091 6.075C2.4855 5.162 3.01975 4.36825 3.69375 3.69375C4.36775 3.01925 5.1615 2.485 6.075 2.091C6.9885 1.697 7.9635 1.5 9 1.5C10.0365 1.5 11.0115 1.697 11.925 2.091C12.8385 2.485 13.6323 3.01925 14.3063 3.69375C14.9803 4.36825 15.5148 5.162 15.9098 6.075C16.3048 6.988 16.5015 7.963 16.5 9C16.4985 10.037 16.3015 11.012 15.909 11.925C15.5165 12.838 14.9823 13.6318 14.3063 14.3063C13.6303 14.9808 12.8365 15.5152 11.925 15.9097C11.0135 16.3042 10.0385 16.501 9 16.5Z" fill="url(#paint0_linear_14647_133161)"/>
<defs>
<linearGradient id="paint0_linear_14647_133161" x1="9" y1="1.5" x2="9" y2="16.5" gradientUnits="userSpaceOnUse">
<stop stop-color="#F7D79A"/>
<stop offset="1" stop-color="#F1B846"/>
</linearGradient>
</defs>
</svg>
