<svg width="24" height="24" viewBox="0 0 24 24" fill="none" xmlns="http://www.w3.org/2000/svg">
<path d="M12 13C11.7167 13 11.4793 12.904 11.288 12.712C11.0967 12.52 11.0007 12.2827 11 12C10.9993 11.7173 11.0953 11.48 11.288 11.288C11.4807 11.096 11.718 11 12 11C12.282 11 12.5197 11.096 12.713 11.288C12.9063 11.48 13.002 11.7173 13 12C12.998 12.2827 12.902 12.5203 12.712 12.713C12.522 12.9057 12.2847 13.0013 12 13ZM12 22C10.6167 22 9.31667 21.7373 8.1 21.212C6.88334 20.6867 5.825 19.9743 4.925 19.075C4.025 18.1757 3.31267 17.1173 2.788 15.9C2.26333 14.6827 2.00067 13.3827 2 12C1.99933 10.6173 2.262 9.31733 2.788 8.1C3.314 6.88267 4.02633 5.82433 4.925 4.925C5.82367 4.02567 6.882 3.31333 8.1 2.788C9.318 2.26267 10.618 2 12 2C13.382 2 14.682 2.26267 15.9 2.788C17.118 3.31333 18.1763 4.02567 19.075 4.925C19.9737 5.82433 20.6863 6.88267 21.213 8.1C21.7397 9.31733 22.002 10.6173 22 12C21.998 13.3827 21.7353 14.6827 21.212 15.9C20.6887 17.1173 19.9763 18.1757 19.075 19.075C18.1737 19.9743 17.1153 20.687 15.9 21.213C14.6847 21.739 13.3847 22.0013 12 22ZM12 20C14.2333 20 16.125 19.225 17.675 17.675C19.225 16.125 20 14.2333 20 12C20 9.76667 19.225 7.875 17.675 6.325C16.125 4.775 14.2333 4 12 4C9.76667 4 7.875 4.775 6.325 6.325C4.775 7.875 4 9.76667 4 12C4 14.2333 4.775 16.125 6.325 17.675C7.875 19.225 9.76667 20 12 20ZM12 20C9.76667 20 7.875 19.225 6.325 17.675C4.775 16.125 4 14.2333 4 12C4 9.76667 4.775 7.875 6.325 6.325C7.875 4.775 9.76667 4 12 4C14.2333 4 16.125 4.775 17.675 6.325C19.225 7.875 20 9.76667 20 12C20 14.2333 19.225 16.125 17.675 17.675C16.125 19.225 14.2333 20 12 20ZM13.675 14.15C13.775 14.1 13.8667 14.0333 13.95 13.95C14.0333 13.8667 14.1 13.775 14.15 13.675L17.075 7.425C17.1583 7.25833 17.1377 7.11233 17.013 6.987C16.8883 6.86167 16.7423 6.841 16.575 6.925L10.325 9.85C10.225 9.9 10.1333 9.96667 10.05 10.05C9.96667 10.1333 9.9 10.225 9.85 10.325L6.925 16.575C6.84167 16.7417 6.86267 16.8877 6.988 17.013C7.11333 17.1383 7.259 17.159 7.425 17.075L13.675 14.15Z" fill="url(#paint0_linear_14647_133525)"/>
<defs>
<linearGradient id="paint0_linear_14647_133525" x1="12" y1="2" x2="12" y2="22" gradientUnits="userSpaceOnUse">
<stop stop-color="#C2FBE0"/>
<stop offset="1" stop-color="#76F6DF"/>
</linearGradient>
</defs>
</svg>
