<svg width="15" height="16" viewBox="0 0 15 16" fill="none" xmlns="http://www.w3.org/2000/svg">
<path d="M6.87543 12.2445V13.0001H5.62543V14.2501H9.37543V13.0001H8.12543V11.847C8.84136 11.5372 9.49252 11.0953 10.0448 10.5445C12.4811 8.1082 12.4811 4.14258 10.0448 1.70508L9.16105 2.58883C11.1104 4.53883 11.1104 7.7107 9.16105 9.66008C7.21168 11.6088 4.03918 11.6101 2.0898 9.66008L1.20605 10.5438C1.78607 11.1244 2.47506 11.5848 3.23346 11.8984C3.99187 12.212 4.80474 12.3727 5.62543 12.3713C6.0453 12.3712 6.4641 12.3287 6.87543 12.2445Z" fill="white"/>
<path d="M1.875 6.125C1.875 8.19312 3.55687 9.875 5.625 9.875C7.69312 9.875 9.375 8.19312 9.375 6.125C9.375 4.05687 7.69312 2.375 5.625 2.375C3.55687 2.375 1.875 4.05687 1.875 6.125ZM8.125 6.125C8.125 7.50375 7.00375 8.625 5.625 8.625C4.24625 8.625 3.125 7.50375 3.125 6.125C3.125 4.74625 4.24625 3.625 5.625 3.625C7.00375 3.625 8.125 4.74625 8.125 6.125Z" fill="white"/>
</svg>
