<svg width="25" height="24" viewBox="0 0 25 24" fill="none" xmlns="http://www.w3.org/2000/svg">
    <path
        d="M7.50018 6H17.5002L12.4902 12.3L7.50018 6ZM4.75018 5.61C6.77018 8.2 10.5002 13 10.5002 13V19C10.5002 19.55 10.9502 20 11.5002 20H13.5002C14.0502 20 14.5002 19.55 14.5002 19V13C14.5002 13 18.2202 8.2 20.2402 5.61C20.3548 5.46237 20.4256 5.28553 20.4447 5.09961C20.4637 4.91368 20.4301 4.72615 20.3478 4.55837C20.2655 4.39059 20.1377 4.24929 19.979 4.15058C19.8203 4.05186 19.6371 3.99969 19.4502 4H5.54018C4.71018 4 4.24018 4.95 4.75018 5.61Z"
        fill="white" />
</svg>