<svg width="17" height="18" viewBox="0 0 17 18" fill="none" xmlns="http://www.w3.org/2000/svg">
    <path fill-rule="evenodd" clip-rule="evenodd"
        d="M3.41969 3.91969V10.7815C3.41969 10.9122 3.52562 11.0181 3.6563 11.0181H5.05706C5.45955 11.0181 5.78584 11.3444 5.78584 11.7469V13.3269L7.8728 11.2399C8.01479 11.0979 8.20738 11.0181 8.4082 11.0181H13.5941C13.7248 11.0181 13.8307 10.9122 13.8307 10.7815V4.1563C13.8307 4.02562 13.7248 3.91969 13.5941 3.91969H3.41969ZM2 3.68307C2 3.02968 2.52968 2.5 3.18307 2.5H13.5941C14.5089 2.5 15.2504 3.24155 15.2504 4.1563V10.7815C15.2504 11.6963 14.5089 12.4378 13.5941 12.4378H8.68262L6.38578 14.7347C5.64048 15.48 4.36615 14.9521 4.36615 13.8981V12.4378H3.6563C2.74155 12.4378 2 11.6963 2 10.7815V3.68307Z"
        fill="white" />
</svg>
    