<svg width="25" height="25" viewBox="0 0 25 25" fill="none" xmlns="http://www.w3.org/2000/svg">
<path d="M11.5 15.5V12.5H12.5C13.604 12.5 14.5 11.603 14.5 10.5C14.5 9.396 13.604 8.5 12.5 8.5C11.396 8.5 10.5 9.396 10.5 10.5H8.5C8.5 8.295 10.295 6.5 12.5 6.5C14.705 6.5 16.5 8.295 16.5 10.5C16.5 12.36 15.223 13.928 13.5 14.375V15.5H11.5Z" fill="white" fill-opacity="0.54"/>
<path d="M13.75 17.5C13.75 18.1904 13.1904 18.75 12.5 18.75C11.8096 18.75 11.25 18.1904 11.25 17.5C11.25 16.8096 11.8096 16.25 12.5 16.25C13.1904 16.25 13.75 16.8096 13.75 17.5Z" fill="white" fill-opacity="0.54"/>
<path fill-rule="evenodd" clip-rule="evenodd" d="M12.5 22.5C6.986 22.5 2.5 18.015 2.5 12.5C2.5 6.987 6.986 2.5 12.5 2.5C18.014 2.5 22.5 6.986 22.5 12.5C22.5 18.015 18.014 22.5 12.5 22.5ZM12.5 4.5C8.089 4.5 4.5 8.089 4.5 12.5C4.5 16.911 8.089 20.5 12.5 20.5C16.911 20.5 20.5 16.911 20.5 12.5C20.5 8.089 16.911 4.5 12.5 4.5Z" fill="white" fill-opacity="0.54"/>
</svg>
