<svg width="14" height="14" viewBox="0 0 14 14" fill="none" xmlns="http://www.w3.org/2000/svg">
    <g clip-path="url(#clip0_12210_90599)">
        <path fill-rule="evenodd" clip-rule="evenodd"
            d="M6.405 0.0253536C7.61312 -0.0777467 8.82731 0.134734 9.92862 0.641982C11.0299 1.14923 11.9806 1.93385 12.6875 2.91898V1.53123C12.6875 1.35718 12.7566 1.19026 12.8797 1.06719C13.0028 0.944119 13.1697 0.874979 13.3438 0.874979C13.5178 0.874979 13.6847 0.944119 13.8078 1.06719C13.9309 1.19026 14 1.35718 14 1.53123V5.24998H10.2812C10.1072 5.24998 9.94028 5.18084 9.81721 5.05777C9.69414 4.9347 9.625 4.76778 9.625 4.59373C9.625 4.41968 9.69414 4.25276 9.81721 4.12969C9.94028 4.00662 10.1072 3.93748 10.2812 3.93748H11.7924C11.194 3.00115 10.3344 2.26062 9.31982 1.80737C8.30524 1.35412 7.18011 1.20801 6.08342 1.38708C4.98673 1.56616 3.96652 2.06257 3.14881 2.81501C2.33111 3.56744 1.75173 4.54293 1.48225 5.62098C1.46237 5.70566 1.42586 5.78555 1.37483 5.856C1.3238 5.92644 1.25928 5.98604 1.18501 6.03132C1.11074 6.07661 1.02821 6.10668 0.942215 6.11978C0.856222 6.13288 0.768482 6.12876 0.684097 6.10765C0.599712 6.08654 0.520365 6.04886 0.450672 5.99681C0.380978 5.94476 0.322328 5.87937 0.278132 5.80445C0.233935 5.72953 0.205075 5.64657 0.193228 5.56039C0.181382 5.47422 0.186785 5.38655 0.209125 5.30248C0.563101 3.8871 1.35048 2.6177 2.46119 1.67171C3.57191 0.725716 4.95045 0.150418 6.40412 0.0262286L6.405 0.0253536ZM3.43 13.0209C4.36799 13.5768 5.42288 13.906 6.5106 13.9821C7.59831 14.0582 8.68876 13.8791 9.69502 13.4592C10.7013 13.0393 11.5955 12.3901 12.3065 11.5633C13.0175 10.7366 13.5255 9.75527 13.79 8.69748C13.8294 8.52965 13.8012 8.35306 13.7114 8.20587C13.6217 8.05869 13.4776 7.95272 13.3104 7.91089C13.1431 7.86905 12.9662 7.8947 12.8177 7.98229C12.6692 8.06987 12.5611 8.21237 12.5169 8.37898C12.2472 9.4568 11.6678 10.432 10.8502 11.1843C10.0326 11.9365 9.01253 12.4328 7.91602 12.6119C6.81952 12.7909 5.69458 12.6449 4.68012 12.1919C3.66566 11.7388 2.80612 10.9985 2.20762 10.0625H3.71875C3.8928 10.0625 4.05972 9.99334 4.18279 9.87027C4.30586 9.7472 4.375 9.58028 4.375 9.40623C4.375 9.23218 4.30586 9.06526 4.18279 8.94219C4.05972 8.81912 3.8928 8.74998 3.71875 8.74998H0V12.4687C0 12.6428 0.0691404 12.8097 0.192211 12.9328C0.315282 13.0558 0.482202 13.125 0.65625 13.125C0.830298 13.125 0.997218 13.0558 1.12029 12.9328C1.24336 12.8097 1.3125 12.6428 1.3125 12.4687V11.081C1.87668 11.867 2.59769 12.5275 3.43 13.0209Z"
            fill="white" />
    </g>
    <defs>
        <clipPath id="clip0_12210_90599">
            <rect width="14" height="14" fill="white" />
        </clipPath>
    </defs>
</svg>
    