<svg width="24" height="24" viewBox="0 0 24 24" fill="none" xmlns="http://www.w3.org/2000/svg">
    <path fill-rule="evenodd" clip-rule="evenodd"
        d="M19 8.999C20.654 8.999 22 7.653 22 5.999C22 4.345 20.654 2.999 19 2.999C17.698 2.999 16.599 3.837 16.185 4.999H2V6.999H16.185C16.599 8.161 17.698 8.999 19 8.999ZM19 4.999C19.551 4.999 20 5.448 20 5.999C20 6.552 19.551 6.999 19 6.999C18.449 6.999 18 6.552 18 5.999C18 5.448 18.449 4.999 19 4.999ZM9 8.999C7.698 8.999 6.599 9.837 6.185 10.999H2V12.999H6.185C6.599 14.161 7.699 14.999 9 14.999C10.301 14.999 11.401 14.161 11.815 12.999H22V10.999H11.815C11.401 9.837 10.302 8.999 9 8.999ZM9 12.999C8.449 12.999 8 12.552 8 11.999C8 11.448 8.449 10.999 9 10.999C9.551 10.999 10 11.448 10 11.999C10 12.552 9.551 12.999 9 12.999ZM16.185 16.999C16.599 15.837 17.698 14.999 19 14.999C20.654 14.999 22 16.345 22 17.999C22 19.653 20.654 20.999 19 20.999C17.699 20.999 16.599 20.161 16.185 18.999H2V16.999H16.185ZM18 17.999C18 18.552 18.449 18.999 19 18.999C19.551 18.999 20 18.552 20 17.999C20 17.448 19.551 16.999 19 16.999C18.449 16.999 18 17.448 18 17.999Z"
        fill="black" />
</svg>