<svg width="19" height="18" viewBox="0 0 19 18" fill="none" xmlns="http://www.w3.org/2000/svg">
<path d="M9.5 2.2909C5.80133 2.2909 2.79091 5.30158 2.79091 9C2.79091 12.699 5.80102 15.7091 9.5 15.7091C10.1326 15.7091 10.6455 16.2219 10.6455 16.8545C10.6455 17.4872 10.1326 18 9.5 18C4.53686 18 0.5 13.9634 0.5 9C0.5 4.03716 4.53716 0 9.5 0C14.4628 0 18.5 4.03716 18.5 9C18.5 9.63262 17.9872 10.1455 17.3545 10.1455C16.7219 10.1455 16.2091 9.63262 16.2091 9C16.2091 5.30158 13.1987 2.2909 9.5 2.2909ZM13.4375 12.9375V11.25C13.4375 10.6287 13.9412 10.125 14.5625 10.125H14.5661C15.186 10.125 15.6891 10.6265 15.6911 11.2464L15.6964 12.9375H17.375C17.9963 12.9375 18.5 13.4412 18.5 14.0625C18.5 14.6838 17.9963 15.1875 17.375 15.1875H15.6875V16.875C15.6875 17.4963 15.1838 18 14.5625 18C13.9412 18 13.4375 17.4963 13.4375 16.875V15.1875H11.75C11.1287 15.1875 10.625 14.6838 10.625 14.0625C10.625 13.4412 11.1287 12.9375 11.75 12.9375H13.4375Z" fill="#C69DF7"/>
</svg>
