<svg width="18" height="19" viewBox="0 0 18 19" fill="none" xmlns="http://www.w3.org/2000/svg">
<g id="mdi:account-tick-outline">
<path id="Vector" d="M15.825 9.875L16.875 10.9325L11.9775 15.875L9.375 13.25L10.425 12.1925L11.9775 13.7525L15.825 9.875ZM8.25 3.5C9.04565 3.5 9.80871 3.81607 10.3713 4.37868C10.9339 4.94129 11.25 5.70435 11.25 6.5C11.25 7.29565 10.9339 8.05871 10.3713 8.62132C9.80871 9.18393 9.04565 9.5 8.25 9.5C7.45435 9.5 6.69129 9.18393 6.12868 8.62132C5.56607 8.05871 5.25 7.29565 5.25 6.5C5.25 5.70435 5.56607 4.94129 6.12868 4.37868C6.69129 3.81607 7.45435 3.5 8.25 3.5ZM8.25 5C7.85218 5 7.47064 5.15804 7.18934 5.43934C6.90804 5.72064 6.75 6.10218 6.75 6.5C6.75 6.89782 6.90804 7.27936 7.18934 7.56066C7.47064 7.84196 7.85218 8 8.25 8C8.64782 8 9.02936 7.84196 9.31066 7.56066C9.59196 7.27936 9.75 6.89782 9.75 6.5C9.75 6.10218 9.59196 5.72064 9.31066 5.43934C9.02936 5.15804 8.64782 5 8.25 5ZM8.25 10.25C8.76 10.25 9.375 10.3175 10.0575 10.445L8.805 11.6975L8.25 11.675C6.0225 11.675 3.675 12.77 3.675 13.25V14.075H8.325L9.75 15.5H2.25V13.25C2.25 11.255 6.2475 10.25 8.25 10.25Z" fill="white" fill-opacity="0.87"/>
</g>
</svg>
