<svg width="18" height="18" viewBox="0 0 18 18" fill="none" xmlns="http://www.w3.org/2000/svg">
<path d="M4.64033 2.80078H13.3603V4.56079H15.8403L15.3203 6.3208H14.8803V13.4408C15.1012 13.4408 15.2803 13.6199 15.2803 13.8408V14.3208H15.3603C15.5812 14.3208 15.7603 14.4999 15.7603 14.7208V15.2008H11.2803V14.7208C11.2803 14.4999 11.4594 14.3208 11.6803 14.3208H11.7603V13.8408C11.7603 13.6473 11.8977 13.4859 12.0803 13.4488V9.52077H12.0678C11.9263 7.95096 10.607 6.72077 9.00032 6.72077C7.39368 6.72077 6.07435 7.95096 5.93287 9.52077H5.92033V13.4408H6.0003C6.22122 13.4408 6.40032 13.6199 6.40032 13.8408V14.3208H6.48031C6.70122 14.3208 6.88031 14.4999 6.88031 14.7208V15.2008H2.4003V14.7208C2.4003 14.4999 2.5794 14.3208 2.80032 14.3208H2.88031V13.8408C2.88031 13.6199 3.05939 13.4408 3.28031 13.4408V6.3208H2.84031L2.32031 4.56079H4.64033V2.80078Z" fill="white"/>
</svg>
