<svg width="18" height="18" viewBox="0 0 18 18" fill="none" xmlns="http://www.w3.org/2000/svg">
<path d="M15 6.0015H12.6638C13.002 5.826 13.323 5.61075 13.5908 5.34225C14.4683 4.4655 14.4683 3.03825 13.5908 2.16075C12.7403 1.311 11.2597 1.311 10.4092 2.16075C9.1815 3.3885 9.015 5.69925 9 5.95875C8.985 5.6985 8.8185 3.38775 7.59075 2.16075C6.74025 1.311 5.25825 1.31175 4.40925 2.16075C3.98475 2.58525 3.75 3.15075 3.75 3.7515C3.75 4.35225 3.98475 4.91775 4.40925 5.34225C4.677 5.61075 4.99725 5.82525 5.33625 6.0015H3C2.172 6.0015 1.5 6.67425 1.5 7.5015V9.7515C1.5 10.1655 1.83525 10.5015 2.25 10.5015V15.0015C2.25 15.8288 2.922 16.5015 3.75 16.5015H14.25C15.078 16.5015 15.75 15.8288 15.75 15.0015V10.5015C16.1647 10.5015 16.5 10.1655 16.5 9.7515V7.5015C16.5 6.67425 15.828 6.0015 15 6.0015ZM6 15.0015H3.75V10.5015H6V15.0015ZM6 9.0015H3V7.5015H6V9.0015ZM5.46975 4.28175C5.328 4.14 5.25 3.95175 5.25 3.7515C5.25 3.55125 5.328 3.363 5.46975 3.22125C5.6115 3.0795 5.799 3.00225 6 3.00225C6.201 3.00225 6.3885 3.08025 6.53025 3.222C6.97275 3.66375 7.23075 4.45725 7.36875 5.1195C6.70875 4.98075 5.91 4.72275 5.46975 4.28175ZM10.5 15.0015H7.5V10.5015H10.5V15.0015ZM10.5 9.0015H7.5V7.5015H10.5V9.0015ZM11.4698 3.222C11.6115 3.08025 11.799 3.00225 12 3.00225C12.201 3.00225 12.3885 3.08025 12.5303 3.22125C12.822 3.5145 12.8228 3.98925 12.5303 4.28175C12.087 4.725 11.2927 4.98375 10.6305 5.121C10.7685 4.45875 11.0273 3.6645 11.4698 3.222ZM14.25 15.0015H12V10.5015H14.25V15.0015ZM15 9.0015H12V7.5015H15V9.0015Z" fill="white" fill-opacity="1"/>
</svg>
