<svg width="18" height="18" viewBox="0 0 18 18" fill="none" xmlns="http://www.w3.org/2000/svg">
<g id="bi:gender-ambiguous">
<path id="Union" fill-rule="evenodd" clip-rule="evenodd" d="M15.3378 0.899902H12.479C12.3526 0.899902 12.2314 0.950102 12.1421 1.03946C12.0527 1.12881 12.0025 1.25001 12.0025 1.37637C12.0025 1.50274 12.0527 1.62394 12.1421 1.71329C12.2314 1.80265 12.3526 1.85285 12.479 1.85285H14.1883L11.6821 4.35911C11.3539 4.09063 10.9897 3.86578 10.5981 3.69198C9.75533 3.31791 8.82213 3.19641 7.91168 3.34221C7.00122 3.48802 6.15263 3.89486 5.46882 4.5134C4.78501 5.13193 4.29536 5.93559 4.05925 6.82691C3.82314 7.71822 3.85072 8.6589 4.13865 9.53485C4.42658 10.4108 4.96248 11.1844 5.68136 11.7618C6.40023 12.3392 7.27121 12.6956 8.18864 12.7878V14.2411H6.28275C6.15638 14.2411 6.03519 14.2913 5.94584 14.3806C5.85648 14.47 5.80628 14.5912 5.80628 14.7175C5.80628 14.8439 5.85648 14.9651 5.94584 15.0545C6.03519 15.1438 6.15638 15.194 6.28275 15.194H8.18864V16.6234C8.18864 16.7498 8.23884 16.871 8.3282 16.9603C8.41755 17.0497 8.53874 17.0999 8.66511 17.0999C8.79148 17.0999 8.91267 17.0497 9.00203 16.9603C9.09139 16.871 9.14158 16.7498 9.14158 16.6234V15.194H11.0475C11.1738 15.194 11.295 15.1438 11.3844 15.0545C11.4737 14.9651 11.5239 14.8439 11.5239 14.7175C11.5239 14.5912 11.4737 14.47 11.3844 14.3806C11.295 14.2913 11.1738 14.2411 11.0475 14.2411H9.14158V12.7878C10.3164 12.6684 11.4051 12.1176 12.1972 11.2418C12.9893 10.3661 13.4285 9.22775 13.4298 8.04693C13.4298 7.12487 13.1623 6.22263 12.6596 5.44962C12.5654 5.30465 12.4636 5.16539 12.3549 5.03233L14.8614 2.52586V4.23521C14.8614 4.36158 14.9116 4.48277 15.0009 4.57212C15.0903 4.66148 15.2115 4.71168 15.3378 4.71168C15.4642 4.71168 15.5854 4.66148 15.6748 4.57212C15.7641 4.48277 15.8143 4.36158 15.8143 4.23521V1.37637C15.8143 1.25001 15.7641 1.12881 15.6748 1.03946C15.5854 0.950102 15.4642 0.899902 15.3378 0.899902ZM5.49574 5.92922C5.07689 6.55606 4.85334 7.29303 4.85334 8.04693C4.85491 9.05739 5.25701 10.026 5.97152 10.7405C6.68602 11.455 7.65465 11.8571 8.66511 11.8587C9.41901 11.8587 10.156 11.6351 10.7828 11.2163C11.4097 10.7975 11.8982 10.2021 12.1867 9.50563C12.4752 8.80912 12.5507 8.0427 12.4036 7.30329C12.2566 6.56388 11.8935 5.88468 11.3604 5.35159C10.8274 4.81851 10.1482 4.45547 9.40875 4.30839C8.66934 4.16131 7.90292 4.2368 7.20641 4.52531C6.5099 4.81381 5.91458 5.30237 5.49574 5.92922Z" fill="#A591F6"/>
</g>
</svg>
