<svg width="40" height="40" viewBox="0 0 40 40" fill="none" xmlns="http://www.w3.org/2000/svg">
    <path
        d="M28.3363 4.99967C28.3363 5.4417 28.1607 5.86563 27.8482 6.17819C27.5356 6.49075 27.1117 6.66634 26.6696 6.66634C26.2276 6.66634 25.8037 6.49075 25.4911 6.17819C25.1786 5.86563 25.003 5.4417 25.003 4.99967C25.003 4.55765 25.1786 4.13372 25.4911 3.82116C25.8037 3.5086 26.2276 3.33301 26.6696 3.33301C27.1117 3.33301 27.5356 3.5086 27.8482 3.82116C28.1607 4.13372 28.3363 4.55765 28.3363 4.99967ZM13.3363 15.833C13.3363 14.5069 13.8631 13.2352 14.8008 12.2975C15.7385 11.3598 17.0102 10.833 18.3363 10.833C19.9939 10.833 21.5836 11.4915 22.7557 12.6636C23.9278 13.8357 24.5863 15.4254 24.5863 17.083C24.5863 19.0721 23.7961 20.9798 22.3896 22.3863C20.9831 23.7928 19.0754 24.583 17.0863 24.583C16.7548 24.583 16.4368 24.7147 16.2024 24.9491C15.968 25.1835 15.8363 25.5015 15.8363 25.833C15.8363 26.1645 15.968 26.4825 16.2024 26.7169C16.4368 26.9513 16.7548 27.083 17.0863 27.083C19.7385 27.083 22.282 26.0294 24.1574 24.1541C26.0327 22.2787 27.0863 19.7352 27.0863 17.083C27.0863 12.2497 23.1696 8.33301 18.3363 8.33301C16.3472 8.33301 14.4395 9.12318 13.033 10.5297C11.6265 11.9362 10.8363 13.8439 10.8363 15.833C10.8363 17.4906 11.4948 19.0803 12.6669 20.2524C13.839 21.4245 15.4287 22.083 17.0863 22.083C18.4124 22.083 19.6842 21.5562 20.6218 20.6185C21.5595 19.6809 22.0863 18.4091 22.0863 17.083C22.0863 16.0884 21.6912 15.1346 20.988 14.4314C20.2847 13.7281 19.3309 13.333 18.3363 13.333C17.6733 13.333 17.0374 13.5964 16.5685 14.0652C16.0997 14.5341 15.8363 15.17 15.8363 15.833C15.8363 16.1645 15.968 16.4825 16.2024 16.7169C16.4368 16.9513 16.7548 17.083 17.0863 17.083C17.4178 17.083 17.7358 16.9513 17.9702 16.7169C18.2046 16.4825 18.3363 16.1645 18.3363 15.833C18.6678 15.833 18.9858 15.9647 19.2202 16.1991C19.4546 16.4335 19.5863 16.7515 19.5863 17.083C19.5863 17.746 19.3229 18.3819 18.8541 18.8508C18.3852 19.3196 17.7493 19.583 17.0863 19.583C16.0917 19.583 15.1379 19.1879 14.4347 18.4847C13.7314 17.7814 13.3363 16.8276 13.3363 15.833ZM15.2796 23.543C14.8038 23.9184 14.4566 24.4327 14.2865 25.0145C14.1164 25.5962 14.1318 26.2165 14.3305 26.7891C14.5292 27.3618 14.9013 27.8583 15.3952 28.2096C15.8891 28.561 16.4802 28.7497 17.0863 28.7497C19.6734 28.7505 22.1874 27.8914 24.2329 26.3075C26.2785 24.7235 27.7395 22.5046 28.3863 19.9997H30.8246C31.8946 19.9997 32.9396 20.3163 33.8296 20.9097L37.7796 23.543C37.9182 23.6332 38.0375 23.75 38.1306 23.8865C38.2237 24.0231 38.2888 24.1768 38.3221 24.3388C38.3554 24.5007 38.3563 24.6676 38.3246 24.8298C38.293 24.9921 38.2295 25.1465 38.1378 25.284C38.0461 25.4216 37.928 25.5395 37.7904 25.6311C37.6528 25.7228 37.4984 25.7862 37.3361 25.8177C37.1739 25.8492 37.007 25.8482 36.8451 25.8148C36.6832 25.7814 36.5295 25.7162 36.393 25.623L33.3363 23.5847V31.2497C33.3363 31.961 33.1962 32.6654 32.924 33.3225C32.6518 33.9797 32.2528 34.5769 31.7498 35.0798C31.2468 35.5828 30.6497 35.9818 29.9925 36.254C29.3353 36.5262 28.631 36.6663 27.9196 36.6663H12.0863C11.375 36.6663 10.6706 36.5262 10.0134 36.254C9.35626 35.9818 8.75913 35.5828 8.25614 35.0798C7.75316 34.5769 7.35417 33.9797 7.08196 33.3225C6.80974 32.6654 6.66964 31.961 6.66964 31.2497V23.5847L3.61297 25.623C3.47644 25.7162 3.32278 25.7814 3.16089 25.8148C2.99899 25.8482 2.83207 25.8492 2.6698 25.8177C2.50753 25.7862 2.35312 25.7228 2.21551 25.6311C2.07791 25.5395 1.95984 25.4216 1.86814 25.284C1.77644 25.1465 1.71294 24.9921 1.6813 24.8298C1.64967 24.6676 1.65053 24.5007 1.68384 24.3388C1.71715 24.1768 1.78225 24.0231 1.87536 23.8865C1.96848 23.75 2.08776 23.6332 2.22631 23.543L6.1763 20.9097C7.06616 20.3163 8.11176 19.9997 9.1813 19.9997H10.353C11.4607 21.787 13.2327 23.0615 15.2796 23.543ZM33.753 8.33301C33.753 8.00149 33.6213 7.68354 33.3869 7.44912C33.1524 7.2147 32.8345 7.08301 32.503 7.08301C32.1714 7.08301 31.8535 7.2147 31.6191 7.44912C31.3847 7.68354 31.253 8.00149 31.253 8.33301V9.58301H30.003C29.6714 9.58301 29.3535 9.7147 29.1191 9.94912C28.8847 10.1835 28.753 10.5015 28.753 10.833C28.753 11.1645 28.8847 11.4825 29.1191 11.7169C29.3535 11.9513 29.6714 12.083 30.003 12.083H31.253V13.333C31.253 13.6645 31.3847 13.9825 31.6191 14.2169C31.8535 14.4513 32.1714 14.583 32.503 14.583C32.8345 14.583 33.1524 14.4513 33.3869 14.2169C33.6213 13.9825 33.753 13.6645 33.753 13.333V12.083H35.003C35.3345 12.083 35.6524 11.9513 35.8869 11.7169C36.1213 11.4825 36.253 11.1645 36.253 10.833C36.253 10.5015 36.1213 10.1835 35.8869 9.94912C35.6524 9.7147 35.3345 9.58301 35.003 9.58301H33.753V8.33301Z"
        fill="url(#paint0_linear_19005_114833)" />
    <defs>
        <linearGradient id="paint0_linear_19005_114833" x1="20.003" y1="3.33301" x2="20.003"
            y2="36.6663" gradientUnits="userSpaceOnUse">
            <stop stop-color="#424242" />
            <stop offset="1" stop-color="#272727" />
        </linearGradient>
    </defs>
</svg>