<svg width="16" height="16" viewBox="0 0 16 16" fill="none" xmlns="http://www.w3.org/2000/svg">
    <path
        d="M0.666504 13.3333V11.4667C0.666504 11.0889 0.763837 10.7418 0.958504 10.4253C1.15317 10.1089 1.41139 9.86712 1.73317 9.70001C2.42206 9.35556 3.12206 9.09734 3.83317 8.92534C4.54428 8.75334 5.2665 8.66712 5.99984 8.66667C6.73317 8.66623 7.45539 8.75245 8.1665 8.92534C8.87761 9.09823 9.57761 9.35645 10.2665 9.70001C10.5887 9.86667 10.8472 10.1085 11.0418 10.4253C11.2365 10.7422 11.3336 11.0893 11.3332 11.4667V13.3333H0.666504ZM12.6665 13.3333V11.3333C12.6665 10.8445 12.5305 10.3749 12.2585 9.92467C11.9865 9.47445 11.6003 9.08845 11.0998 8.76667C11.6665 8.83334 12.1998 8.94734 12.6998 9.10867C13.1998 9.27001 13.6665 9.46712 14.0998 9.70001C14.4998 9.92223 14.8054 10.1693 15.0165 10.4413C15.2276 10.7133 15.3332 11.0107 15.3332 11.3333V13.3333H12.6665ZM5.99984 8.00001C5.2665 8.00001 4.63873 7.7389 4.1165 7.21667C3.59428 6.69445 3.33317 6.06667 3.33317 5.33334C3.33317 4.60001 3.59428 3.97223 4.1165 3.45001C4.63873 2.92778 5.2665 2.66667 5.99984 2.66667C6.73317 2.66667 7.36095 2.92778 7.88317 3.45001C8.40539 3.97223 8.6665 4.60001 8.6665 5.33334C8.6665 6.06667 8.40539 6.69445 7.88317 7.21667C7.36095 7.7389 6.73317 8.00001 5.99984 8.00001ZM12.6665 5.33334C12.6665 6.06667 12.4054 6.69445 11.8832 7.21667C11.3609 7.7389 10.7332 8.00001 9.99984 8.00001C9.87761 8.00001 9.72206 7.98623 9.53317 7.95867C9.34428 7.93112 9.18873 7.90045 9.0665 7.86667C9.3665 7.51112 9.59717 7.11667 9.7585 6.68334C9.91984 6.25001 10.0003 5.80001 9.99984 5.33334C9.99939 4.86667 9.91895 4.41667 9.7585 3.98334C9.59806 3.55001 9.36739 3.15556 9.0665 2.80001C9.22206 2.74445 9.37761 2.70823 9.53317 2.69134C9.68873 2.67445 9.84428 2.66623 9.99984 2.66667C10.7332 2.66667 11.3609 2.92778 11.8832 3.45001C12.4054 3.97223 12.6665 4.60001 12.6665 5.33334ZM1.99984 12H9.99984V11.4667C9.99984 11.3445 9.96939 11.2333 9.9085 11.1333C9.84761 11.0333 9.76695 10.9556 9.6665 10.9C9.0665 10.6 8.46095 10.3751 7.84984 10.2253C7.23873 10.0756 6.62206 10.0005 5.99984 10C5.37761 9.99956 4.76095 10.0747 4.14984 10.2253C3.53873 10.376 2.93317 10.6009 2.33317 10.9C2.23317 10.9556 2.1525 11.0333 2.09117 11.1333C2.02984 11.2333 1.99939 11.3445 1.99984 11.4667V12ZM5.99984 6.66667C6.3665 6.66667 6.6805 6.53623 6.94184 6.27534C7.20317 6.01445 7.33361 5.70045 7.33317 5.33334C7.33273 4.96623 7.20228 4.65245 6.94184 4.39201C6.68139 4.13156 6.36739 4.0009 5.99984 4.00001C5.63228 3.99912 5.3185 4.12978 5.0585 4.39201C4.7985 4.65423 4.66784 4.96801 4.6665 5.33334C4.66517 5.69867 4.79584 6.01267 5.0585 6.27534C5.32117 6.53801 5.63495 6.66845 5.99984 6.66667Z"
        fill="white" />
</svg>
    