<svg width="37" height="37" viewBox="0 0 37 37" fill="none" xmlns="http://www.w3.org/2000/svg">
<path d="M33.75 17.0543L29.64 14.6693C30 14.3543 30.345 13.9493 30.6 13.4993C31.845 11.3543 31.11 8.59431 28.95 7.34931C27.66 6.59931 26.145 6.59931 24.87 7.13931L24.885 7.12431L23.565 7.70931L23.4 6.26931L23.385 6.28431C23.25 4.91931 22.455 3.59931 21.165 2.84931C20.1273 2.25642 18.8976 2.09715 17.7431 2.40613C16.5886 2.71512 15.6028 3.46737 15 4.49931C14.745 4.94931 14.58 5.44431 14.49 5.92431L10.365 3.55431C8.925 2.72931 7.095 3.20931 6.27 4.64931L4.02 8.54931C3.92076 8.71926 3.85636 8.90728 3.83056 9.10239C3.80477 9.29749 3.81809 9.49578 3.86976 9.68569C3.92142 9.87559 4.01039 10.0533 4.13148 10.2084C4.25256 10.3636 4.40334 10.4931 4.575 10.5893L7.17 12.0893L13.5 15.7493H3.75V30.7493C3.75 31.545 4.06607 32.308 4.62868 32.8706C5.19129 33.4332 5.95435 33.7493 6.75 33.7493H30.75C32.415 33.7493 33.75 32.4143 33.75 30.7493V23.0543L34.845 21.1493C35.67 19.7093 35.19 17.8793 33.75 17.0543ZM25.41 10.4993C25.815 9.74931 26.745 9.53931 27.45 9.94431C28.17 10.3643 28.425 11.2493 28.005 11.9993C27.585 12.7493 26.67 12.9593 25.95 12.5543C25.245 12.1343 24.99 11.2493 25.41 10.4993ZM21.855 13.6493L32.25 19.6493L30.75 22.2443L20.355 16.2443L21.855 13.6493ZM17.25 30.7493H6.75V18.7493H17.25V30.7493ZM17.76 14.7443L7.365 8.74431L8.865 6.14931L19.26 12.1493L17.76 14.7443ZM18.165 8.05431C17.445 7.63431 17.205 6.74931 17.61 5.99931C18 5.24931 18.945 5.03931 19.665 5.44431C20.385 5.86431 20.625 6.74931 20.205 7.49931C19.8 8.24931 18.885 8.45931 18.165 8.05431ZM20.25 30.7493V19.6493L30.75 25.7093V30.7493H20.25Z" fill="white" fill-opacity="0.54"/>
</svg>
