<svg width="18" height="18" viewBox="0 0 18 18" fill="none" xmlns="http://www.w3.org/2000/svg">
<g id="ph:gender-female">
<path id="Vector" d="M14.625 6.74993C14.625 5.6614 14.3091 4.59625 13.7157 3.68367C13.1224 2.77109 12.2769 2.05029 11.282 1.60869C10.2871 1.16708 9.18537 1.02365 8.11053 1.19577C7.03569 1.3679 6.03388 1.8482 5.22661 2.57842C4.41934 3.30863 3.84128 4.25739 3.56254 5.30964C3.2838 6.36188 3.31637 7.47239 3.65628 8.5065C3.99619 9.5406 4.62885 10.4539 5.47752 11.1355C6.32619 11.8172 7.35442 12.238 8.4375 12.3468V14.0624H6.1875C6.03832 14.0624 5.89524 14.1217 5.78975 14.2272C5.68426 14.3327 5.625 14.4757 5.625 14.6249C5.625 14.7741 5.68426 14.9172 5.78975 15.0227C5.89524 15.1282 6.03832 15.1874 6.1875 15.1874H8.4375V16.8749C8.4375 17.0241 8.49676 17.1672 8.60225 17.2727C8.70774 17.3782 8.85082 17.4374 9 17.4374C9.14918 17.4374 9.29226 17.3782 9.39775 17.2727C9.50324 17.1672 9.5625 17.0241 9.5625 16.8749V15.1874H11.8125C11.9617 15.1874 12.1048 15.1282 12.2102 15.0227C12.3157 14.9172 12.375 14.7741 12.375 14.6249C12.375 14.4757 12.3157 14.3327 12.2102 14.2272C12.1048 14.1217 11.9617 14.0624 11.8125 14.0624H9.5625V12.3468C10.9494 12.2058 12.2347 11.5555 13.1698 10.5217C14.105 9.48786 14.6234 8.14395 14.625 6.74993ZM4.5 6.74993C4.5 5.85992 4.76392 4.98989 5.25839 4.24987C5.75285 3.50985 6.45566 2.93307 7.27793 2.59247C8.10019 2.25188 9.00499 2.16277 9.87791 2.3364C10.7508 2.51003 11.5526 2.93862 12.182 3.56795C12.8113 4.19729 13.2399 4.99911 13.4135 5.87203C13.5872 6.74494 13.4981 7.64974 13.1575 8.47201C12.8169 9.29428 12.2401 9.99708 11.5001 10.4915C10.76 10.986 9.89002 11.2499 9 11.2499C7.8071 11.2481 6.66358 10.7734 5.82007 9.92986C4.97656 9.08635 4.50186 7.94284 4.5 6.74993Z" fill="#F691B5"/>
</g>
</svg>
