<svg width="18" height="18" viewBox="0 0 18 18" fill="none" xmlns="http://www.w3.org/2000/svg">
<path d="M10.5375 11.6625L10.0125 11.1375C9.8625 10.9875 9.6845 10.9095 9.4785 10.9035C9.2725 10.8975 9.09425 10.9692 8.94375 11.1187C8.79325 11.2682 8.71825 11.4465 8.71875 11.6535C8.71925 11.8605 8.79425 12.0385 8.94375 12.1875L10.0125 13.2562C10.1625 13.4062 10.3375 13.4813 10.5375 13.4813C10.7375 13.4813 10.9125 13.4062 11.0625 13.2562L13.7438 10.575C13.8938 10.425 13.9658 10.25 13.9598 10.05C13.9538 9.85 13.8755 9.675 13.725 9.525C13.575 9.3875 13.4 9.31575 13.2 9.30975C13 9.30375 12.825 9.3755 12.675 9.525L10.5375 11.6625ZM6 11.25H6.75C6.9625 11.25 7.14075 11.178 7.28475 11.034C7.42875 10.89 7.5005 10.712 7.5 10.5C7.4995 10.288 7.4275 10.11 7.284 9.966C7.1405 9.822 6.9625 9.75 6.75 9.75H6C5.7875 9.75 5.6095 9.822 5.466 9.966C5.3225 10.11 5.2505 10.288 5.25 10.5C5.2495 10.712 5.3215 10.8903 5.466 11.0347C5.6105 11.1792 5.7885 11.251 6 11.25ZM6 9H9.75C9.9625 9 10.1408 8.928 10.2848 8.784C10.4288 8.64 10.5005 8.462 10.5 8.25C10.4995 8.038 10.4275 7.86 10.284 7.716C10.1405 7.572 9.9625 7.5 9.75 7.5H6C5.7875 7.5 5.6095 7.572 5.466 7.716C5.3225 7.86 5.2505 8.038 5.25 8.25C5.2495 8.462 5.3215 8.64025 5.466 8.78475C5.6105 8.92925 5.7885 9.001 6 9ZM6 6.75H9.75C9.9625 6.75 10.1408 6.678 10.2848 6.534C10.4288 6.39 10.5005 6.212 10.5 6C10.4995 5.788 10.4275 5.61 10.284 5.466C10.1405 5.322 9.9625 5.25 9.75 5.25H6C5.7875 5.25 5.6095 5.322 5.466 5.466C5.3225 5.61 5.2505 5.788 5.25 6C5.2495 6.212 5.3215 6.39025 5.466 6.53475C5.6105 6.67925 5.7885 6.751 6 6.75ZM9 16.5C7.9625 16.5 6.9875 16.303 6.075 15.909C5.1625 15.515 4.36875 14.9808 3.69375 14.3063C3.01875 13.6318 2.4845 12.838 2.091 11.925C1.6975 11.012 1.5005 10.037 1.5 9C1.4995 7.963 1.6965 6.988 2.091 6.075C2.4855 5.162 3.01975 4.36825 3.69375 3.69375C4.36775 3.01925 5.1615 2.485 6.075 2.091C6.9885 1.697 7.9635 1.5 9 1.5C10.0365 1.5 11.0115 1.697 11.925 2.091C12.8385 2.485 13.6323 3.01925 14.3063 3.69375C14.9803 4.36825 15.5148 5.162 15.9098 6.075C16.3048 6.988 16.5015 7.963 16.5 9C16.4985 10.037 16.3015 11.012 15.909 11.925C15.5165 12.838 14.9823 13.6318 14.3063 14.3063C13.6303 14.9808 12.8365 15.5152 11.925 15.9097C11.0135 16.3042 10.0385 16.501 9 16.5ZM9 15C10.675 15 12.0938 14.4187 13.2563 13.2562C14.4187 12.0937 15 10.675 15 9C15 7.325 14.4187 5.90625 13.2563 4.74375C12.0938 3.58125 10.675 3 9 3C7.325 3 5.90625 3.58125 4.74375 4.74375C3.58125 5.90625 3 7.325 3 9C3 10.675 3.58125 12.0937 4.74375 13.2562C5.90625 14.4187 7.325 15 9 15Z" fill="white" fill-opacity="0.54"/>
</svg>
