<svg width="20" height="20" viewBox="0 0 20 20" fill="none" xmlns="http://www.w3.org/2000/svg">
    <path
        d="M10.0008 1.66675C5.39665 1.66675 1.66748 5.39591 1.66748 10.0001C1.66597 11.7495 2.21561 13.4549 3.23836 14.8742C4.26111 16.2936 5.70499 17.3546 7.36498 17.9067C7.78165 17.9792 7.93832 17.7292 7.93832 17.5101C7.93832 17.3126 7.92748 16.6567 7.92748 15.9584C5.83415 16.3442 5.29248 15.4484 5.12582 14.9792C5.03165 14.7392 4.62582 14.0001 4.27165 13.8017C3.97998 13.6459 3.56332 13.2601 4.26082 13.2501C4.91748 13.2392 5.38582 13.8542 5.54248 14.1042C6.29248 15.3642 7.48998 15.0101 7.96915 14.7917C8.04248 14.2501 8.26082 13.8859 8.50082 13.6776C6.64665 13.4692 4.70915 12.7501 4.70915 9.56258C4.70915 8.65592 5.03165 7.90675 5.56332 7.32342C5.47998 7.11508 5.18832 6.26091 5.64665 5.11508C5.64665 5.11508 6.34415 4.89592 7.93832 5.96842C8.61678 5.78062 9.31767 5.68614 10.0216 5.68758C10.73 5.68758 11.4383 5.78092 12.105 5.96842C13.6992 4.88508 14.3966 5.11508 14.3966 5.11508C14.855 6.26091 14.5633 7.11508 14.48 7.32342C15.0108 7.90675 15.3341 8.64592 15.3341 9.56258C15.3341 12.7609 13.3866 13.4692 11.5325 13.6776C11.8341 13.9376 12.095 14.4376 12.095 15.2192C12.095 16.3334 12.0842 17.2292 12.0842 17.5109C12.0842 17.7292 12.2408 17.9892 12.6575 17.9059C14.3112 17.3468 15.7482 16.2835 16.7663 14.8654C17.7844 13.4473 18.3324 11.7458 18.3333 10.0001C18.3333 5.39591 14.6041 1.66675 9.99998 1.66675"
        fill="white" />
</svg>
    