<svg width="25" height="25" viewBox="0 0 25 25" fill="none" xmlns="http://www.w3.org/2000/svg">
<path d="M19.3492 18.2742C19.9137 17.7498 20.2728 17.0094 20.2728 16.1807C20.2728 14.6018 18.9884 13.3174 17.4095 13.3174C15.8306 13.3174 14.5462 14.6018 14.5462 16.1807C14.5462 17.0094 14.9053 17.7498 15.4698 18.2742C14.2607 18.711 13.319 19.552 13.319 20.6802H14.9552C14.9552 20.191 16.1112 19.57 17.4095 19.57C18.7078 19.57 19.8638 20.1918 19.8638 20.6802H21.5C21.5 19.5512 20.5583 18.711 19.3492 18.2742ZM17.4095 14.9535C18.0861 14.9535 18.6366 15.5041 18.6366 16.1807C18.6366 16.8572 18.0861 17.4078 17.4095 17.4078C16.7329 17.4078 16.1824 16.8572 16.1824 16.1807C16.1824 15.5041 16.7329 14.9535 17.4095 14.9535Z" fill="white" fill-opacity="0.54"/>
<path d="M9.5321 18.2742C10.0966 17.7498 10.4557 17.0094 10.4557 16.1807C10.4557 14.6018 9.17132 13.3174 7.59241 13.3174C6.01349 13.3174 4.72909 14.6018 4.72909 16.1807C4.72909 17.0094 5.08823 17.7498 5.65271 18.2742C4.44358 18.711 3.50195 19.5512 3.50195 20.6802H5.13813C5.13813 20.191 6.2941 19.57 7.59241 19.57C8.89072 19.57 10.0467 20.1918 10.0467 20.6802H11.6829C11.6829 19.5512 10.7412 18.711 9.5321 18.2742ZM7.59241 14.9535C8.26897 14.9535 8.81954 15.5041 8.81954 16.1807C8.81954 16.8572 8.26897 17.4078 7.59241 17.4078C6.91585 17.4078 6.36527 16.8572 6.36527 16.1807C6.36527 15.5041 6.91585 14.9535 7.59241 14.9535Z" fill="white" fill-opacity="0.54"/>
<path d="M14.9552 11.6812H16.5914C16.5914 10.5522 15.6498 9.71203 14.4406 9.27517C15.0051 8.75078 15.3643 8.0104 15.3643 7.18168C15.3643 5.60276 14.0799 4.31836 12.501 4.31836C10.922 4.31836 9.63764 5.60276 9.63764 7.18168C9.63764 8.0104 9.99678 8.75078 10.5613 9.27517C9.35212 9.71203 8.4105 10.5522 8.4105 11.6812H10.0467C10.0467 11.192 11.2026 10.571 12.501 10.571C13.7993 10.571 14.9552 11.192 14.9552 11.6812ZM12.501 5.95454C13.1775 5.95454 13.7281 6.50512 13.7281 7.18168C13.7281 7.85824 13.1775 8.40881 12.501 8.40881C11.8244 8.40881 11.2738 7.85824 11.2738 7.18168C11.2738 6.50512 11.8244 5.95454 12.501 5.95454Z" fill="white" fill-opacity="0.54"/>
</svg>
