<svg width="18" height="18" viewBox="0 0 18 18" fill="none" xmlns="http://www.w3.org/2000/svg">
<g id="ph:gender-male">
<path id="Vector" d="M15.1871 2.25024H11.8121C11.6629 2.25024 11.5198 2.30951 11.4143 2.415C11.3088 2.52049 11.2496 2.66356 11.2496 2.81274C11.2496 2.96193 11.3088 3.105 11.4143 3.21049C11.5198 3.31598 11.6629 3.37524 11.8121 3.37524H13.83L10.8699 6.3354C9.75261 5.42196 8.32699 4.9729 6.8879 5.08108C5.44881 5.18926 4.10635 5.84642 3.13819 6.91663C2.17003 7.98684 1.65024 9.38823 1.68633 10.8309C1.72242 12.2736 2.31163 13.6473 3.3321 14.6677C4.35256 15.6882 5.7262 16.2774 7.1689 16.3135C8.6116 16.3496 10.013 15.8298 11.0832 14.8616C12.1534 13.8935 12.8106 12.551 12.9187 11.1119C13.0269 9.67283 12.5779 8.24721 11.6644 7.12993L14.6246 4.16978V6.18774C14.6246 6.33693 14.6838 6.48 14.7893 6.58549C14.8948 6.69098 15.0379 6.75024 15.1871 6.75024C15.3363 6.75024 15.4793 6.69098 15.5848 6.58549C15.6903 6.48 15.7496 6.33693 15.7496 6.18774V2.81274C15.7496 2.66356 15.6903 2.52049 15.5848 2.415C15.4793 2.30951 15.3363 2.25024 15.1871 2.25024ZM10.4972 13.8729C9.86754 14.5013 9.06571 14.929 8.19304 15.1019C7.32037 15.2748 6.41603 15.1852 5.59428 14.8443C4.77254 14.5035 4.07027 13.9267 3.5762 13.1869C3.08213 12.4471 2.81844 11.5774 2.81844 10.6877C2.81844 9.79811 3.08213 8.92844 3.5762 8.18861C4.07027 7.44879 4.77254 6.872 5.59428 6.53115C6.41603 6.19029 7.32037 6.10065 8.19304 6.27355C9.06571 6.44646 9.86754 6.87415 10.4972 7.50259C11.3379 8.34948 11.8097 9.49442 11.8097 10.6877C11.8097 11.8811 11.3379 13.026 10.4972 13.8729Z" fill="#91C0F6"/>
</g>
</svg>
