<svg width="25" height="25" viewBox="0 0 25 25" fill="none" xmlns="http://www.w3.org/2000/svg">
    <path
        d="M21.8503 11.6672H12.6803V14.3972H19.1903C18.8603 18.2072 15.6903 19.8372 12.6903 19.8372C8.86027 19.8372 5.50027 16.8172 5.50027 12.5672C5.50027 8.46717 8.70027 5.29717 12.7003 5.29717C15.7903 5.29717 17.6003 7.26717 17.6003 7.26717L19.5003 5.28717C19.5003 5.28717 17.0603 2.56717 12.6003 2.56717C6.92027 2.56717 2.53027 7.36717 2.53027 12.5672C2.53027 17.6172 6.66027 22.5672 12.7503 22.5672C18.1003 22.5672 22.0003 18.8972 22.0003 13.4772C22.0003 12.3272 21.8503 11.6672 21.8503 11.6672Z"
        fill="white" />
</svg>
    