<svg width="24" height="24" viewBox="0 0 24 24" fill="none" xmlns="http://www.w3.org/2000/svg">
    <path
        d="M18.8492 17.7747C19.4137 17.2503 19.7728 16.5099 19.7728 15.6812C19.7728 14.1023 18.4884 12.8178 16.9095 12.8178C15.3306 12.8178 14.0462 14.1023 14.0462 15.6812C14.0462 16.5099 14.4053 17.2503 14.9698 17.7747C13.7607 18.2115 12.819 19.0525 12.819 20.1807H14.4552C14.4552 19.6915 15.6112 19.0705 16.9095 19.0705C18.2078 19.0705 19.3638 19.6923 19.3638 20.1807H21C21 19.0517 20.0583 18.2115 18.8492 17.7747ZM16.9095 14.454C17.5861 14.454 18.1366 15.0046 18.1366 15.6812C18.1366 16.3577 17.5861 16.9083 16.9095 16.9083C16.2329 16.9083 15.6824 16.3577 15.6824 15.6812C15.6824 15.0046 16.2329 14.454 16.9095 14.454Z"
        fill="#C69DF7" />
    <path
        d="M9.0321 17.7747C9.59658 17.2503 9.95573 16.5099 9.95573 15.6812C9.95573 14.1023 8.67132 12.8178 7.09241 12.8178C5.51349 12.8178 4.22909 14.1023 4.22909 15.6812C4.22909 16.5099 4.58823 17.2503 5.15271 17.7747C3.94358 18.2115 3.00195 19.0517 3.00195 20.1807H4.63813C4.63813 19.6915 5.7941 19.0705 7.09241 19.0705C8.39072 19.0705 9.54668 19.6923 9.54668 20.1807H11.1829C11.1829 19.0517 10.2412 18.2115 9.0321 17.7747ZM7.09241 14.454C7.76897 14.454 8.31954 15.0046 8.31954 15.6812C8.31954 16.3577 7.76897 16.9083 7.09241 16.9083C6.41585 16.9083 5.86527 16.3577 5.86527 15.6812C5.86527 15.0046 6.41585 14.454 7.09241 14.454Z"
        fill="#C69DF7" />
    <path
        d="M14.4552 11.1817H16.0914C16.0914 10.0527 15.1498 9.21252 13.9406 8.77566C14.5051 8.25126 14.8643 7.51089 14.8643 6.68217C14.8643 5.10325 13.5799 3.81885 12.001 3.81885C10.422 3.81885 9.13764 5.10325 9.13764 6.68217C9.13764 7.51089 9.49678 8.25126 10.0613 8.77566C8.85212 9.21252 7.9105 10.0527 7.9105 11.1817H9.54668C9.54668 10.6924 10.7026 10.0715 12.001 10.0715C13.2993 10.0715 14.4552 10.6924 14.4552 11.1817ZM12.001 5.45503C12.6775 5.45503 13.2281 6.0056 13.2281 6.68217C13.2281 7.35873 12.6775 7.9093 12.001 7.9093C11.3244 7.9093 10.7738 7.35873 10.7738 6.68217C10.7738 6.0056 11.3244 5.45503 12.001 5.45503Z"
        fill="#C69DF7" />
</svg>