<svg width="15" height="16" viewBox="0 0 15 16" fill="none" xmlns="http://www.w3.org/2000/svg">
<path d="M7.49375 1.75C4.04375 1.75 1.25 4.55 1.25 8C1.25 11.45 4.04375 14.25 7.49375 14.25C10.95 14.25 13.75 11.45 13.75 8C13.75 4.55 10.95 1.75 7.49375 1.75ZM11.825 5.5H9.98125C9.78125 4.71875 9.49375 3.96875 9.11875 3.275C10.2688 3.66875 11.225 4.46875 11.825 5.5ZM7.5 3.025C8.01875 3.775 8.425 4.60625 8.69375 5.5H6.30625C6.575 4.60625 6.98125 3.775 7.5 3.025ZM2.6625 9.25C2.5625 8.85 2.5 8.43125 2.5 8C2.5 7.56875 2.5625 7.15 2.6625 6.75H4.775C4.725 7.1625 4.6875 7.575 4.6875 8C4.6875 8.425 4.725 8.8375 4.775 9.25H2.6625ZM3.175 10.5H5.01875C5.21875 11.2812 5.50625 12.0312 5.88125 12.725C4.73125 12.3312 3.775 11.5375 3.175 10.5ZM5.01875 5.5H3.175C3.775 4.4625 4.73125 3.66875 5.88125 3.275C5.50625 3.96875 5.21875 4.71875 5.01875 5.5ZM7.5 12.975C6.98125 12.225 6.575 11.3938 6.30625 10.5H8.69375C8.425 11.3938 8.01875 12.225 7.5 12.975ZM8.9625 9.25H6.0375C5.98125 8.8375 5.9375 8.425 5.9375 8C5.9375 7.575 5.98125 7.15625 6.0375 6.75H8.9625C9.01875 7.15625 9.0625 7.575 9.0625 8C9.0625 8.425 9.01875 8.8375 8.9625 9.25ZM9.11875 12.725C9.49375 12.0312 9.78125 11.2812 9.98125 10.5H11.825C11.225 11.5312 10.2688 12.3312 9.11875 12.725ZM10.225 9.25C10.275 8.8375 10.3125 8.425 10.3125 8C10.3125 7.575 10.275 7.1625 10.225 6.75H12.3375C12.4375 7.15 12.5 7.56875 12.5 8C12.5 8.43125 12.4375 8.85 12.3375 9.25H10.225Z" fill="white" fill-opacity="0.54"/>
</svg>
