<svg width="24" height="24" viewBox="0 0 24 24" fill="none" xmlns="http://www.w3.org/2000/svg">
<path d="M18.2995 18.2608H5.70048C5.28741 18.2608 4.92744 17.9791 4.82665 17.5786L3.02679 10.3792C2.9395 10.0264 3.07269 9.65475 3.36426 9.43787C3.65674 9.22189 4.05181 9.20119 4.36319 9.38927L8.12759 11.6481L11.2513 6.96216C11.5851 6.4609 12.4149 6.4609 12.7487 6.96216L15.8724 11.6481L19.6368 9.38927C19.9491 9.20119 20.3432 9.22009 20.6357 9.43787C20.9273 9.65475 21.0614 10.0255 20.9732 10.3792L19.1733 17.5786C19.0725 17.9791 18.7126 18.2608 18.2995 18.2608ZM6.40333 16.4609H17.5967L18.7 12.0513L16.0632 13.6333C15.651 13.8799 15.1165 13.7602 14.851 13.3607L12 9.0842L9.14901 13.3607C8.88264 13.7593 8.34988 13.8799 7.93681 13.6333L5.30001 12.0513L6.40333 16.4609Z" fill="url(#paint0_linear_2597_24794)"/>
<path d="M17.3996 19.1607H6.60041C6.10339 19.1607 5.70048 19.5636 5.70048 20.0606C5.70048 20.5577 6.10339 20.9606 6.60041 20.9606H17.3996C17.8966 20.9606 18.2995 20.5577 18.2995 20.0606C18.2995 19.5636 17.8966 19.1607 17.3996 19.1607Z" fill="url(#paint1_linear_2597_24794)"/>
<path d="M12.3186 2.37972C12.144 2.20513 11.8569 2.20513 11.6823 2.37972L10.5187 3.54333C10.3441 3.71792 10.3441 4.00499 10.5187 4.17958L11.6823 5.34319C11.8569 5.51778 12.144 5.51778 12.3186 5.34319L13.4822 4.17958C13.6568 4.00499 13.6568 3.71792 13.4822 3.54333L12.3186 2.37972Z" fill="url(#paint2_linear_2597_24794)"/>
<defs>
<linearGradient id="paint0_linear_2597_24794" x1="12.0002" y1="2.24878" x2="12.0002" y2="20.9606" gradientUnits="userSpaceOnUse">
<stop stop-color="#D9BDFA"/>
<stop offset="1" stop-color="#A667F3"/>
</linearGradient>
<linearGradient id="paint1_linear_2597_24794" x1="12.0002" y1="2.24878" x2="12.0002" y2="20.9606" gradientUnits="userSpaceOnUse">
<stop stop-color="#D9BDFA"/>
<stop offset="1" stop-color="#A667F3"/>
</linearGradient>
<linearGradient id="paint2_linear_2597_24794" x1="12.0002" y1="2.24878" x2="12.0002" y2="20.9606" gradientUnits="userSpaceOnUse">
<stop stop-color="#D9BDFA"/>
<stop offset="1" stop-color="#A667F3"/>
</linearGradient>
</defs>
</svg>
