<svg width="24" height="24" viewBox="0 0 24 24" fill="none" xmlns="http://www.w3.org/2000/svg">
    <path
        d="M9.79747 7.09998C11.0665 7.09998 12.8227 8.06673 14.3771 9.62292C16.2956 11.5405 17.7364 14.2277 16.3679 15.5961C16.1464 15.8177 4.60213 20.796 4.31303 20.9217C3.96104 21.0757 3.54898 20.9987 3.2749 20.7246C3.00175 20.4524 2.92385 20.0404 3.07872 19.6875C3.20262 19.4012 8.1849 7.85179 8.40454 7.63122C8.64671 7.39 9.08505 7.09998 9.79747 7.09998ZM8.70678 11.4748L5.75383 18.2467L12.5336 15.293C11.8212 14.8669 11.089 14.299 10.3963 13.6054C9.74678 12.9559 9.15638 12.2191 8.70678 11.4748ZM18.018 12.5523C20.0887 12.5523 21.7726 14.2371 21.7726 16.3067H19.8953C19.8953 15.2723 19.0543 14.4295 18.018 14.4295V12.5523ZM9.79653 8.97811C9.49241 9.67267 11.1576 11.7132 11.7226 12.2773C12.2802 12.8357 14.3189 14.513 15.0238 14.207C15.0379 13.7734 14.561 12.4603 13.0498 10.951C11.7555 9.65577 10.4339 8.97811 9.79653 8.97811ZM21.5456 7.88846L22 9.70879L18.2453 10.6461L17.7909 8.82573L21.5456 7.88846ZM19.2314 3.44184L20.5583 4.76835L18.6816 6.6455L17.3547 5.31899L19.2314 3.44184ZM14.291 2L16.1131 2.45545L15.1746 6.20958L13.3526 5.75412L14.291 2ZM7.69305 2.22773C9.76274 2.22773 11.4476 3.91251 11.4476 5.98211H9.57032C9.57032 4.94778 8.7293 4.10492 7.69305 4.10492V2.22773Z"
        fill="white" />
</svg>