<svg width="25" height="24" viewBox="0 0 25 24" fill="none" xmlns="http://www.w3.org/2000/svg">
    <path fill-rule="evenodd" clip-rule="evenodd"
        d="M13.2071 2.29289C12.8166 1.90237 12.1834 1.90237 11.7929 2.29289L2.79292 11.2929C2.50692 11.5789 2.42137 12.009 2.57615 12.3827C2.73093 12.7564 3.09557 13 3.50003 13H4.50003V19C4.50003 19.7957 4.8161 20.5587 5.37871 21.1213C5.94132 21.6839 6.70438 22 7.50003 22H17.5C18.2957 22 19.0587 21.6839 19.6213 21.1213C20.184 20.5587 20.5 19.7957 20.5 19V13H21.5C21.9045 13 22.2691 12.7564 22.4239 12.3827C22.5787 12.009 22.4931 11.5789 22.2071 11.2929L13.2071 2.29289ZM16.5 20H17.5C17.7652 20 18.0196 19.8946 18.2071 19.7071C18.3947 19.5196 18.5 19.2652 18.5 19V12C18.5 11.5712 18.7699 11.2054 19.1491 11.0633L12.5 4.41421L5.85094 11.0633C6.23013 11.2054 6.50003 11.5712 6.50003 12V19C6.50003 19.2652 6.60539 19.5196 6.79292 19.7071C6.98046 19.8946 7.23481 20 7.50003 20H8.5V15C8.5 14.2043 8.81607 13.4413 9.37868 12.8787C9.94129 12.3161 10.7043 12 11.5 12H13.5C14.2957 12 15.0587 12.3161 15.6213 12.8787C16.1839 13.4413 16.5 14.2043 16.5 15V20ZM10.5 20V15C10.5 14.7348 10.6054 14.4804 10.7929 14.2929C10.9804 14.1054 11.2348 14 11.5 14H13.5C13.7652 14 14.0196 14.1054 14.2071 14.2929C14.3946 14.4804 14.5 14.7348 14.5 15V20H10.5Z"
        fill="#C69DF7" />
</svg>