<svg width="18" height="19" viewBox="0 0 18 19" fill="none" xmlns="http://www.w3.org/2000/svg">
<path d="M8.99987 15.4414C8.86185 15.4414 8.72458 15.4032 8.60307 15.3274C8.34278 15.1654 2.24902 11.3092 2.24902 7.19041C2.24902 5.1224 3.93148 3.43994 5.99949 3.43994C7.19514 3.43994 8.30228 4.06777 8.99987 5.00014C9.69745 4.06777 10.8046 3.43994 12.0002 3.43994C14.0682 3.43994 15.7507 5.1224 15.7507 7.19041C15.7507 11.3092 9.65695 15.1654 9.39667 15.3274C9.27515 15.4032 9.13788 15.4414 8.99987 15.4414Z" fill="#FF6476"/>
<path d="M8.99987 15.4414C8.86185 15.4414 8.72458 15.4032 8.60307 15.3274C8.34278 15.1654 2.24902 11.3092 2.24902 7.19041C2.24902 5.1224 3.93148 3.43994 5.99949 3.43994C7.19514 3.43994 8.30228 4.06777 8.99987 5.00014C9.69745 4.06777 10.8046 3.43994 12.0002 3.43994C14.0682 3.43994 15.7507 5.1224 15.7507 7.19041C15.7507 11.3092 9.65695 15.1654 9.39667 15.3274C9.27515 15.4032 9.13788 15.4414 8.99987 15.4414Z" fill="url(#paint0_linear_2620_29921)" fill-opacity="0.36"/>
<defs>
<linearGradient id="paint0_linear_2620_29921" x1="8.99987" y1="3.43994" x2="8.99987" y2="15.4414" gradientUnits="userSpaceOnUse">
<stop stop-color="white"/>
<stop offset="1" stop-color="white" stop-opacity="0"/>
</linearGradient>
</defs>
</svg>
