<svg width="18" height="19" viewBox="0 0 18 19" fill="none" xmlns="http://www.w3.org/2000/svg">
<g opacity="0.54">
<path d="M8.99987 15.0616C8.86185 15.0616 8.72458 15.0233 8.60307 14.9475C8.34278 14.7855 2.24902 10.9293 2.24902 6.81053C2.24902 4.74252 3.93148 3.06006 5.99949 3.06006C7.19514 3.06006 8.30228 3.68789 8.99987 4.62025C9.69745 3.68789 10.8046 3.06006 12.0002 3.06006C14.0682 3.06006 15.7507 4.74252 15.7507 6.81053C15.7507 10.9293 9.65695 14.7855 9.39667 14.9475C9.27515 15.0233 9.13788 15.0616 8.99987 15.0616ZM5.99949 4.56025C4.75884 4.56025 3.74921 5.56987 3.74921 6.81053C3.74921 9.33309 7.2319 12.2165 8.99987 13.4159C10.7678 12.2165 14.2505 9.33384 14.2505 6.81053C14.2505 5.56987 13.2409 4.56025 12.0002 4.56025C10.7333 4.56025 9.74996 5.7694 9.74996 6.81053C9.74996 7.22458 9.41467 7.56062 8.99987 7.56062C8.58506 7.56062 8.24977 7.22458 8.24977 6.81053C8.24977 5.7694 7.2664 4.56025 5.99949 4.56025Z" fill="white"/>
</g>
</svg>
