<svg width="25" height="24" viewBox="0 0 25 24" fill="none" xmlns="http://www.w3.org/2000/svg">
<path d="M6.30005 19H9.30005V14C9.30005 13.7167 9.39605 13.479 9.58805 13.287C9.78005 13.095 10.0174 12.9993 10.3001 13H14.3001C14.5834 13 14.8211 13.096 15.0131 13.288C15.2051 13.48 15.3007 13.7173 15.3001 14V19H18.3001V10L12.3001 5.5L6.30005 10V19ZM4.30005 19V10C4.30005 9.68333 4.37105 9.38333 4.51305 9.1C4.65505 8.81667 4.85072 8.58333 5.10005 8.4L11.1001 3.9C11.4501 3.63333 11.8501 3.5 12.3001 3.5C12.7501 3.5 13.1501 3.63333 13.5001 3.9L19.5001 8.4C19.7501 8.58333 19.9461 8.81667 20.0881 9.1C20.2301 9.38333 20.3007 9.68333 20.3001 10V19C20.3001 19.55 20.1041 20.021 19.7121 20.413C19.3201 20.805 18.8494 21.0007 18.3001 21H14.3001C14.0167 21 13.7791 20.904 13.5871 20.712C13.3951 20.52 13.2994 20.2827 13.3001 20V15H11.3001V20C11.3001 20.2833 11.2041 20.521 11.0121 20.713C10.8201 20.905 10.5827 21.0007 10.3001 21H6.30005C5.75005 21 5.27905 20.804 4.88705 20.412C4.49505 20.02 4.29938 19.5493 4.30005 19Z" fill="white" />
</svg>
