<svg width="24" height="24" viewBox="0 0 24 24" fill="none" xmlns="http://www.w3.org/2000/svg">
<path d="M21.596 8.197C21.271 7.956 20.832 7.935 20.486 8.143L16.303 10.653L12.832 5.446C12.794 5.389 12.731 5.363 12.684 5.318L13.647 4.354C13.841 4.16 13.841 3.841 13.647 3.647L12.354 2.354C12.16 2.16 11.841 2.16 11.647 2.354L10.354 3.647C10.16 3.841 10.16 4.16 10.354 4.354L11.317 5.318C11.269 5.363 11.207 5.389 11.169 5.446L7.698 10.653L3.515 8.143C3.168 7.936 2.73 7.957 2.404 8.197C2.08 8.439 1.932 8.851 2.029 9.243L4.029 17.243C4.141 17.688 4.541 18.001 5 18.001H19C19.459 18.001 19.859 17.689 19.971 17.243L21.971 9.243C22.068 8.851 21.92 8.439 21.596 8.197Z" fill="black"/>
<path d="M19 19.001H5C4.44772 19.001 4 19.4487 4 20.001C4 20.5533 4.44772 21.001 5 21.001H19C19.5523 21.001 20 20.5533 20 20.001C20 19.4487 19.5523 19.001 19 19.001Z" fill="black"/>
</svg>
