<svg width="16" height="16" viewBox="0 0 16 16" fill="none" xmlns="http://www.w3.org/2000/svg">
<g id="mdi:pound">
<path id="Vector" d="M4.61549 13.625C4.2326 13.625 3.94266 13.2791 4.00958 12.9021L4.32501 11.125H2.56889C2.18062 11.125 1.88631 10.7747 1.95324 10.3923C2.00558 10.0932 2.26527 9.875 2.56889 9.875H4.54376L5.20626 6.125H3.45014C3.06187 6.125 2.76756 5.77471 2.83449 5.39226C2.88683 5.09319 3.14652 4.875 3.45014 4.875H5.42501L5.77862 2.88283C5.83077 2.58905 6.08616 2.375 6.38453 2.375C6.76743 2.375 7.05736 2.72093 6.99044 3.09793L6.67501 4.875H10.425L10.7786 2.88283C10.8308 2.58905 11.0862 2.375 11.3845 2.375C11.7674 2.375 12.0574 2.72093 11.9904 3.09793L11.675 4.875H13.4311C13.8194 4.875 14.1137 5.22529 14.0468 5.60774C13.9944 5.9068 13.7348 6.125 13.4311 6.125H11.4563L10.7938 9.875H12.5499C12.9382 9.875 13.2325 10.2253 13.1655 10.6077C13.1132 10.9068 12.8535 11.125 12.5499 11.125H10.575L10.2214 13.1172C10.1693 13.411 9.91387 13.625 9.61549 13.625C9.2326 13.625 8.94266 13.2791 9.00958 12.9021L9.32501 11.125H5.57501L5.2214 13.1172C5.16926 13.411 4.91387 13.625 4.61549 13.625ZM6.45626 6.125L5.79376 9.875H9.54376L10.2063 6.125H6.45626Z" fill="white" fill-opacity="0.36"/>
</g>
</svg>
