<svg width="18" height="18" viewBox="0 0 18 18" fill="none" xmlns="http://www.w3.org/2000/svg">
    <path
        d="M13.7244 13.6965H4.27509C3.96529 13.6965 3.69531 13.4852 3.61971 13.1849L2.26982 7.78531C2.20435 7.52073 2.30424 7.24198 2.52292 7.07932C2.74228 6.91733 3.03858 6.90181 3.27212 7.04287L6.09542 8.73699L8.43817 5.22254C8.68857 4.84659 9.31087 4.84659 9.56128 5.22254L11.904 8.73699L14.7273 7.04287C14.9615 6.90181 15.2572 6.91598 15.4765 7.07932C15.6952 7.24198 15.7958 7.52006 15.7296 7.78531L14.3797 13.1849C14.3041 13.4852 14.0342 13.6965 13.7244 13.6965ZM4.80222 12.3466H13.1972L14.0247 9.03937L12.0471 10.2259C11.738 10.4109 11.3371 10.3211 11.138 10.0214L8.99972 6.81406L6.86149 10.0214C6.6617 10.3204 6.26213 10.4109 5.95233 10.2259L3.97474 9.03937L4.80222 12.3466Z"
        fill="white" />
    <path
        d="M13.0494 14.3715H4.95003C4.57727 14.3715 4.27508 14.6736 4.27508 15.0464C4.27508 15.4192 4.57727 15.7213 4.95003 15.7213H13.0494C13.4222 15.7213 13.7244 15.4192 13.7244 15.0464C13.7244 14.6736 13.4222 14.3715 13.0494 14.3715Z"
        fill="white" />
    <path
        d="M9.23865 1.7857C9.10771 1.65477 8.89241 1.65477 8.76147 1.7857L7.88876 2.65841C7.75782 2.78935 7.75782 3.00466 7.88876 3.1356L8.76147 4.00831C8.89241 4.13925 9.10771 4.13925 9.23865 4.00831L10.1114 3.1356C10.2423 3.00466 10.2423 2.78935 10.1114 2.65841L9.23865 1.7857Z"
        fill="white" />
</svg>
    