<svg width="24" height="24" viewBox="0 0 24 24" fill="none" xmlns="http://www.w3.org/2000/svg">
    <g opacity="0.72">
        <path
            d="M17 21.999H15C13.897 21.999 13 21.103 13 19.999V16.999H11V19.999C11 21.103 10.103 21.999 9.00001 21.999H7.00001C5.89701 21.999 5.00001 21.103 5.00001 19.999V13.999H3.00001C2.59601 13.999 2.23101 13.756 2.07601 13.382C1.92101 13.009 2.00701 12.579 2.29301 12.293L11.293 3.29299C11.684 2.90299 12.316 2.90299 12.707 3.29299L21.707 12.293C21.993 12.579 22.079 13.009 21.924 13.382C21.769 13.756 21.404 13.999 21 13.999H19V19.999C19 21.102 18.103 21.999 17 21.999ZM10 14.999H14C14.552 14.999 15 15.448 15 15.999V19.999H17.001L17 12.999C17 12.448 17.448 11.999 18 11.999H18.586L12 5.41399L5.41401 11.999H6.00001C6.55201 11.999 7.00001 12.448 7.00001 12.999V19.999H9.00001V15.999C9.00001 15.447 9.44701 14.999 10 14.999Z"
            fill="white" />
    </g>
</svg>