<svg width="19" height="19" viewBox="0 0 19 19" fill="none" xmlns="http://www.w3.org/2000/svg">
    <path
        d="M9.21325 15.439C9.07523 15.439 8.93796 15.4007 8.81645 15.325C8.55616 15.163 2.4624 11.3067 2.4624 7.18797C2.4624 5.11996 4.14486 3.4375 6.21287 3.4375C7.40852 3.4375 8.51566 4.06533 9.21325 4.99769C9.91083 4.06533 11.018 3.4375 12.2136 3.4375C14.2816 3.4375 15.9641 5.11996 15.9641 7.18797C15.9641 11.3067 9.87033 15.163 9.61005 15.325C9.48853 15.4007 9.35126 15.439 9.21325 15.439ZM6.21287 4.93769C4.97222 4.93769 3.96259 5.94731 3.96259 7.18797C3.96259 9.71053 7.44527 12.5939 9.21325 13.7933C10.9812 12.5939 14.4639 9.71128 14.4639 7.18797C14.4639 5.94731 13.4543 4.93769 12.2136 4.93769C10.9467 4.93769 9.96334 6.14684 9.96334 7.18797C9.96334 7.60202 9.62805 7.93806 9.21325 7.93806C8.79844 7.93806 8.46315 7.60202 8.46315 7.18797C8.46315 6.14684 7.47978 4.93769 6.21287 4.93769Z"
        fill="white" />
</svg>