<svg width="18" height="19" viewBox="0 0 18 19" fill="none" xmlns="http://www.w3.org/2000/svg">
<g id="mdi:handshake-outline">
<path id="Vector" d="M16.2823 7.03226C17.2198 6.09476 16.7923 4.99976 16.2823 4.46726L14.0323 2.21726C13.0873 1.27976 11.9998 1.70726 11.4673 2.21726L10.1923 3.49976H8.24976C6.82476 3.49976 5.99976 4.24976 5.57976 5.11226L2.24976 8.44226V11.4423L1.71726 11.9673C0.779764 12.9123 1.20726 13.9998 1.71726 14.5323L3.96726 16.7823C4.37226 17.1873 4.80726 17.3373 5.21976 17.3373C5.75226 17.3373 6.23976 17.0748 6.53226 16.7823L8.55726 14.7498H11.2498C12.5248 14.7498 13.1698 13.9548 13.4023 13.1748C14.2498 12.9498 14.7148 12.3048 14.9023 11.6748C16.0648 11.3748 16.4998 10.2723 16.4998 9.49976V7.24976H16.0573L16.2823 7.03226ZM14.9998 9.49976C14.9998 9.83726 14.8573 10.2498 14.2498 10.2498H13.4998V10.9998C13.4998 11.3373 13.3573 11.7498 12.7498 11.7498H11.9998V12.4998C11.9998 12.8373 11.8573 13.2498 11.2498 13.2498H7.94226L5.48226 15.7098C5.24976 15.9273 5.11476 15.7998 5.03226 15.7173L2.78976 13.4823C2.57226 13.2498 2.69976 13.1148 2.78226 13.0323L3.74976 12.0573V9.05726L5.24976 7.55726V8.74976C5.24976 9.65726 5.84976 10.9998 7.49976 10.9998C9.14976 10.9998 9.74976 9.65726 9.74976 8.74976H14.9998V9.49976ZM15.2173 5.96726L13.9423 7.24976H8.24976V8.74976C8.24976 9.08726 8.10726 9.49976 7.49976 9.49976C6.89226 9.49976 6.74976 9.08726 6.74976 8.74976V6.49976C6.74976 6.15476 6.87726 4.99976 8.24976 4.99976H10.8073L12.5173 3.28976C12.7498 3.07226 12.8848 3.19976 12.9673 3.28226L15.2098 5.51726C15.4273 5.74976 15.2998 5.88476 15.2173 5.96726Z" fill="white" fill-opacity="0.87"/>
</g>
</svg>
