<svg width="24" height="24" viewBox="0 0 24 24" fill="none" xmlns="http://www.w3.org/2000/svg">
<path fill-rule="evenodd" clip-rule="evenodd" d="M4 4H20C21.104 4 22 4.898 22 6V18C22 19.103 21.104 20 20 20H4C2.896 20 2 19.103 2 18V6C2 4.898 2.896 4 4 4ZM4 18H19.997L20 6H4V14.132V16.535V18ZM12.959 8.00099C13.352 7.97899 13.719 8.20099 13.895 8.55299L15.388 11.54L18 9.79799V12.202L15.556 13.832C15.317 13.991 15.023 14.041 14.744 13.967C14.467 13.893 14.235 13.704 14.106 13.447L13.102 11.439L11.929 14.371C11.804 14.683 11.53 14.912 11.201 14.979C10.872 15.049 10.531 14.944 10.293 14.706L8.873 13.287L6 15.202V12.798L8.444 11.168C8.841 10.904 9.369 10.956 9.706 11.293L10.634 12.221L12.071 8.62899C12.218 8.26299 12.564 8.01799 12.959 8.00099Z" fill="white"/>
</svg>
