<svg width="24" height="24" viewBox="0 0 24 24" fill="none" xmlns="http://www.w3.org/2000/svg">
    <path
        d="M11.9122 22C10.8089 22 9.90619 21.0769 9.90619 19.9487H13.9182C13.9182 21.0769 13.0155 22 11.9122 22ZM17.9303 15.8461L19.6512 17.606C19.834 17.7928 19.9363 18.0438 19.9363 18.3051V18.4103C19.9363 18.6935 19.7067 18.9231 19.4235 18.9231H4.40096C4.11773 18.9231 3.88814 18.6935 3.88814 18.4103V18.3051C3.88814 18.0438 3.99046 17.7928 4.17319 17.606L5.89415 15.8461V10.718C5.89415 7.55897 7.53909 4.93333 10.4077 4.2359V3.53846C10.4077 2.68718 11.0797 2 11.9122 2C12.7447 2 13.4167 2.68718 13.4167 3.53846V4.2359C16.2954 4.93333 17.9303 7.56923 17.9303 10.718V15.8461ZM15.9242 16.8718V10.718C15.9242 8.17436 14.4097 6.10256 11.9122 6.10256C9.41472 6.10256 7.90017 8.17436 7.90017 10.718V16.8718H15.9242ZM5.26672 2.82267C5.67934 2.43206 6.32898 2.44459 6.72621 2.85083L6.8596 2.98722C6.86842 2.99622 6.87701 3.00543 6.88539 3.01484C7.18107 3.34703 7.15147 3.85602 6.81928 4.15171C6.60114 4.34588 6.3929 4.55114 6.19539 4.76665C5.77882 5.2212 5.40997 5.7213 5.09656 6.25894C4.76202 6.83283 4.49064 7.44947 4.2918 8.09912C4.18925 8.43417 4.10599 8.778 4.04331 9.12927C4.03652 9.1673 4.02974 9.20859 4.02296 9.25314C3.93968 9.8006 3.46898 10.2051 2.91522 10.2051C2.87777 10.2051 2.84036 10.2028 2.80319 10.1983C2.30157 10.1364 1.94509 9.67958 2.00698 9.17796C2.01932 9.07792 2.0318 8.98913 2.04442 8.9116C2.11338 8.48786 2.20672 8.0726 2.32293 7.66732C2.54888 6.87938 2.86132 6.12915 3.24929 5.42763C3.61366 4.7688 4.04466 4.15294 4.53321 3.58917C4.76507 3.32161 5.0099 3.06578 5.26672 2.82267ZM20.9092 10.2051C20.3555 10.2051 19.8847 9.80082 19.8011 9.25345C19.7944 9.20915 19.7876 9.16808 19.7808 9.13025C19.718 8.77947 19.6346 8.4361 19.5319 8.10148C19.333 7.45283 19.0617 6.83706 18.7283 6.26389C18.4154 5.72606 18.0477 5.22573 17.6335 4.77093C17.4366 4.55479 17.2293 4.34894 17.0123 4.15423C17.0044 4.14713 16.9966 4.13987 16.989 4.13246C16.6676 3.82038 16.6601 3.30686 16.9722 2.98549L17.1008 2.85309C17.4959 2.44621 18.1448 2.43318 18.556 2.82385C18.8121 3.06724 19.0563 3.32336 19.2877 3.59124C19.7749 4.15525 20.2051 4.77137 20.5692 5.43046C20.9565 6.13161 21.2691 6.88138 21.496 7.66879C21.6127 8.07375 21.7067 8.48868 21.7766 8.91206C21.7894 8.98961 21.8021 9.07842 21.8147 9.1785C21.8195 9.2163 21.8219 9.25436 21.8219 9.29246C21.8219 9.79651 21.4132 10.2051 20.9092 10.2051Z"
        fill="white" />
</svg>