<svg width="24" height="24" viewBox="0 0 24 24" fill="none" xmlns="http://www.w3.org/2000/svg">
    <path fill-rule="evenodd" clip-rule="evenodd"
        d="M12 22C17.5228 22 22 17.5228 22 12C22 6.47715 17.5228 2 12 2C6.47715 2 2 6.47715 2 12C2 17.5228 6.47715 22 12 22ZM10.7603 16.3156C11.0918 16.5366 11.5389 16.4547 11.7704 16.1305L16.3322 9.74453C16.7336 9.18263 16.6034 8.40171 16.0414 8.00045C15.4795 7.59926 14.6988 7.7295 14.2975 8.29136L10.728 13.29L9.77543 12.6544C9.20092 12.271 8.42435 12.4261 8.04129 13.0009C7.65839 13.5754 7.81368 14.3515 8.38814 14.7344L10.7603 16.3156Z"
        fill="#C69DF7" />
</svg>