<svg width="28" height="28" viewBox="0 0 28 28" fill="none" xmlns="http://www.w3.org/2000/svg">
    <path fill-rule="evenodd" clip-rule="evenodd"
        d="M25.15 14C25.15 20.2132 20.1132 25.25 13.9 25.25C7.68682 25.25 2.65002 20.2132 2.65002 14C2.65002 7.7868 7.68682 2.75 13.9 2.75C20.1132 2.75 25.15 7.7868 25.15 14ZM22.9 14C22.9 18.9706 18.8706 23 13.9 23C8.92946 23 4.90002 18.9706 4.90002 14C4.90002 9.02944 8.92946 5 13.9 5C18.8706 5 22.9 9.02944 22.9 14ZM12.775 9.375C12.775 8.82272 13.2227 8.375 13.775 8.375H14.025C14.5773 8.375 15.025 8.82272 15.025 9.375V12.875H18.525C19.0773 12.875 19.525 13.3227 19.525 13.875V14.125C19.525 14.6773 19.0773 15.125 18.525 15.125H15.025V18.625C15.025 19.1773 14.5773 19.625 14.025 19.625H13.775C13.2227 19.625 12.775 19.1773 12.775 18.625V15.125H9.27502C8.72274 15.125 8.27502 14.6773 8.27502 14.125V13.875C8.27502 13.3227 8.72274 12.875 9.27502 12.875H12.775V9.375Z"
        fill="#FFC50F" />
</svg>