<svg width="18" height="19" viewBox="0 0 18 19" fill="none" xmlns="http://www.w3.org/2000/svg">
    <path
        d="M8.25 8.10938H6.75C6.5375 8.10938 6.3595 8.03738 6.216 7.89338C6.0725 7.74938 6.0005 7.57138 6 7.35938C5.9995 7.14738 6.0715 6.96938 6.216 6.82538C6.3605 6.68138 6.5385 6.60938 6.75 6.60938H11.25C11.4625 6.60938 11.6408 6.68138 11.7848 6.82538C11.9288 6.96938 12.0005 7.14738 12 7.35938C11.9995 7.57138 11.9275 7.74963 11.784 7.89413C11.6405 8.03863 11.4625 8.11038 11.25 8.10938H9.75V11.8594C9.75 12.0719 9.678 12.2501 9.534 12.3941C9.39 12.5381 9.212 12.6099 9 12.6094C8.788 12.6089 8.61 12.5369 8.466 12.3934C8.322 12.2499 8.25 12.0719 8.25 11.8594V8.10938ZM0.75 17.1094V14.1094C0.75 13.8969 0.822 13.7189 0.966 13.5754C1.11 13.4319 1.288 13.3599 1.5 13.3594H2.25V5.85938H1.5C1.2875 5.85938 1.1095 5.78738 0.966 5.64338C0.8225 5.49938 0.7505 5.32138 0.75 5.10938V2.10938C0.75 1.89688 0.822 1.71888 0.966 1.57538C1.11 1.43187 1.288 1.35988 1.5 1.35938H4.5C4.7125 1.35938 4.89075 1.43137 5.03475 1.57538C5.17875 1.71938 5.2505 1.89738 5.25 2.10938V2.85938H12.75V2.10938C12.75 1.89688 12.822 1.71888 12.966 1.57538C13.11 1.43187 13.288 1.35988 13.5 1.35938H16.5C16.7125 1.35938 16.8908 1.43137 17.0347 1.57538C17.1788 1.71938 17.2505 1.89738 17.25 2.10938V5.10938C17.25 5.32188 17.178 5.50013 17.034 5.64412C16.89 5.78813 16.712 5.85988 16.5 5.85938H15.75V13.3594H16.5C16.7125 13.3594 16.8908 13.4314 17.0347 13.5754C17.1788 13.7194 17.2505 13.8974 17.25 14.1094V17.1094C17.25 17.3219 17.178 17.5001 17.034 17.6441C16.89 17.7881 16.712 17.8599 16.5 17.8594H13.5C13.2875 17.8594 13.1095 17.7874 12.966 17.6434C12.8225 17.4994 12.7505 17.3214 12.75 17.1094V16.3594H5.25V17.1094C5.25 17.3219 5.178 17.5001 5.034 17.6441C4.89 17.7881 4.712 17.8599 4.5 17.8594H1.5C1.2875 17.8594 1.1095 17.7874 0.966 17.6434C0.8225 17.4994 0.7505 17.3214 0.75 17.1094ZM5.25 14.8594H12.75V14.1094C12.75 13.8969 12.822 13.7189 12.966 13.5754C13.11 13.4319 13.288 13.3599 13.5 13.3594H14.25V5.85938H13.5C13.2875 5.85938 13.1095 5.78738 12.966 5.64338C12.8225 5.49938 12.7505 5.32138 12.75 5.10938V4.35938H5.25V5.10938C5.25 5.32188 5.178 5.50013 5.034 5.64412C4.89 5.78813 4.712 5.85988 4.5 5.85938H3.75V13.3594H4.5C4.7125 13.3594 4.89075 13.4314 5.03475 13.5754C5.17875 13.7194 5.2505 13.8974 5.25 14.1094V14.8594ZM2.25 4.35938H3.75V2.85938H2.25V4.35938ZM14.25 4.35938H15.75V2.85938H14.25V4.35938ZM14.25 16.3594H15.75V14.8594H14.25V16.3594ZM2.25 16.3594H3.75V14.8594H2.25V16.3594Z"
        fill="white" />
</svg>