<svg width="18" height="18" viewBox="0 0 18 18" fill="none" xmlns="http://www.w3.org/2000/svg">
<g id="ic_enter">
<path id="Vector" fill-rule="evenodd" clip-rule="evenodd" d="M13.5 1.5L5.25 1.5C4.42275 1.5 3.75 2.17275 3.75 3V5.25H5.25V3L13.5 3L13.5 15L5.25 15V12.75H3.75V15C3.75 15.8265 4.42275 16.5 5.25 16.5H13.5C14.3273 16.5 15 15.8265 15 15L15 3C15 2.17275 14.3273 1.5 13.5 1.5ZM9.4425 9.75L3 9.75L3 8.25L9.4365 8.25L7.719 6.5295L8.781 5.4705L12.3105 9.00675L8.78025 12.531L7.71975 11.469L9.4425 9.75Z" fill="white" fill-opacity="0.87"/>
</g>
</svg>
