<svg width="18" height="18" viewBox="0 0 18 18" fill="none" xmlns="http://www.w3.org/2000/svg">
<g opacity="0.87" clip-path="url(#clip0_1_2173)">
<path fill-rule="evenodd" clip-rule="evenodd" d="M0.75 2.1285C0.75 1.7629 0.895235 1.41227 1.15375 1.15376C1.41227 0.895236 1.7629 0.750002 2.1285 0.750002H15.87C16.0512 0.749706 16.2306 0.785149 16.3981 0.854302C16.5656 0.923455 16.7178 1.02496 16.8459 1.153C16.9741 1.28105 17.0758 1.43312 17.1451 1.60051C17.2145 1.7679 17.2501 1.94732 17.25 2.1285V15.87C17.2502 16.0512 17.2147 16.2307 17.1454 16.3982C17.0762 16.5656 16.9746 16.7178 16.8465 16.846C16.7184 16.9742 16.5663 17.0758 16.3989 17.1451C16.2314 17.2145 16.052 17.2501 15.8707 17.25H2.1285C1.94741 17.25 1.76809 17.2143 1.6008 17.145C1.4335 17.0757 1.2815 16.9741 1.15349 16.846C1.02547 16.7179 0.923949 16.5658 0.854717 16.3985C0.785485 16.2312 0.749902 16.0518 0.75 15.8708V2.1285ZM7.281 7.041H9.51525V8.163C9.83775 7.518 10.6628 6.9375 11.9025 6.9375C14.2793 6.9375 14.8425 8.22225 14.8425 10.5795V14.946H12.4373V11.1165C12.4373 9.774 12.1147 9.0165 11.2957 9.0165C10.1595 9.0165 9.687 9.83325 9.687 11.1165V14.946H7.281V7.041ZM3.156 14.8433H5.562V6.9375H3.156V14.8425V14.8433ZM5.90625 4.359C5.91079 4.56501 5.87413 4.76984 5.79843 4.96149C5.72273 5.15313 5.60951 5.32773 5.46542 5.47503C5.32133 5.62232 5.14927 5.73936 4.95934 5.81926C4.76941 5.89916 4.56543 5.94031 4.35938 5.94031C4.15332 5.94031 3.94934 5.89916 3.75941 5.81926C3.56948 5.73936 3.39742 5.62232 3.25333 5.47503C3.10924 5.32773 2.99602 5.15313 2.92032 4.96149C2.84462 4.76984 2.80796 4.56501 2.8125 4.359C2.8214 3.95464 2.98829 3.56985 3.27741 3.28702C3.56654 3.00419 3.95492 2.84581 4.35938 2.84581C4.76383 2.84581 5.15221 3.00419 5.44134 3.28702C5.73046 3.56985 5.89735 3.95464 5.90625 4.359Z" fill="white" fill-opacity="0.72"/>
</g>
<defs>
<clipPath id="clip0_1_2173">
<rect width="18" height="18" fill="white"/>
</clipPath>
</defs>
</svg>
