<svg width="18" height="18" viewBox="0 0 18 18" fill="none" xmlns="http://www.w3.org/2000/svg">
<g id="tabler:logout">
<g id="Group">
<g id="Union">
<path d="M3.75 2.25C3.15326 2.25 2.58097 2.48705 2.15901 2.90901C1.73705 3.33097 1.5 3.90326 1.5 4.5V13.5C1.5 14.0967 1.73705 14.669 2.15901 15.091C2.58097 15.5129 3.15326 15.75 3.75 15.75H9C9.59674 15.75 10.169 15.5129 10.591 15.091C11.0129 14.669 11.25 14.0967 11.25 13.5V12C11.25 11.5858 10.9142 11.25 10.5 11.25C10.0858 11.25 9.75 11.5858 9.75 12V13.5C9.75 13.6989 9.67098 13.8897 9.53033 14.0303C9.38968 14.171 9.19891 14.25 9 14.25H3.75C3.55109 14.25 3.36032 14.171 3.21967 14.0303C3.07902 13.8897 3 13.6989 3 13.5V4.5C3 4.30109 3.07902 4.11032 3.21967 3.96967C3.36032 3.82902 3.55109 3.75 3.75 3.75H9C9.19891 3.75 9.38968 3.82902 9.53033 3.96967C9.67098 4.11032 9.75 4.30109 9.75 4.5V6C9.75 6.41421 10.0858 6.75 10.5 6.75C10.9142 6.75 11.25 6.41421 11.25 6V4.5C11.25 3.90326 11.0129 3.33097 10.591 2.90901C10.169 2.48705 9.59674 2.25 9 2.25H3.75Z" fill="white" fill-opacity="0.54"/>
<path d="M14.0303 6.21967C13.7374 5.92678 13.2626 5.92678 12.9697 6.21967C12.6768 6.51256 12.6768 6.98744 12.9697 7.28033L13.9393 8.25H6.75C6.33579 8.25 6 8.58579 6 9C6 9.41421 6.33579 9.75 6.75 9.75H13.9393L12.9697 10.7197C12.6768 11.0126 12.6768 11.4874 12.9697 11.7803C13.2626 12.0732 13.7374 12.0732 14.0303 11.7803L16.2803 9.53033C16.5732 9.23744 16.5732 8.76256 16.2803 8.46967L14.0303 6.21967Z" fill="white" fill-opacity="0.54"/>
</g>
</g>
</g>
</svg>
