<svg width="46" height="12" viewBox="0 0 46 12" fill="none" xmlns="http://www.w3.org/2000/svg">
    <path fill-rule="evenodd" clip-rule="evenodd"
        d="M12.3692 3.74292C12.9262 3.22742 13.6571 2.9079 14.4717 2.90762C16.2817 2.90822 17.7481 4.37583 17.7481 6.18711C17.7481 7.75411 16.1974 9.09414 15.8097 9.40272C13.9969 10.8463 11.6357 11.6904 9.08726 11.6904C6.53885 11.6904 4.1776 10.8463 2.36484 9.40272C1.97937 9.09414 0.426514 7.75191 0.426514 6.18711C0.426514 4.37546 1.89347 2.90762 3.70183 2.90762C4.51681 2.90762 5.24809 3.22719 5.80535 3.74292L5.86262 3.71427C5.99037 2.02383 7.3648 0.69043 9.08726 0.69043C10.8098 0.69043 12.1842 2.02383 12.312 3.71427L12.3692 3.74292ZM13.0234 7.00326C13.2723 7.2523 13.4507 7.55202 13.5498 7.88041H13.552C13.5983 8.0303 13.4947 8.18679 13.3406 8.2132C13.2106 8.23527 13.0851 8.15372 13.0454 8.0259C12.9705 7.78346 12.8384 7.56083 12.6533 7.37572C12.3538 7.076 11.9551 6.91065 11.53 6.91065C11.5135 6.91065 11.4975 6.91178 11.4815 6.91291C11.4656 6.91398 11.4496 6.91511 11.4331 6.91511C11.671 7.02527 11.8384 7.26551 11.8384 7.54542C11.8384 7.93109 11.5278 8.24187 11.1423 8.24187C10.7569 8.24187 10.4463 7.92889 10.4463 7.54542C10.4463 7.45727 10.4639 7.37132 10.4948 7.29418C10.4639 7.32065 10.4331 7.34706 10.4045 7.37572C10.2194 7.56083 10.0873 7.78346 10.0124 8.0259C9.97495 8.15372 9.84939 8.23527 9.71722 8.2132C9.56304 8.18679 9.45955 8.0303 9.50576 7.88041C9.60492 7.55202 9.7833 7.2523 10.0322 7.00326C10.4309 6.60433 10.9639 6.38396 11.5278 6.38396C12.0917 6.38396 12.6247 6.60433 13.0234 7.00326ZM6.60059 6.91291C6.61656 6.91184 6.63253 6.91071 6.64906 6.91071C7.07417 6.91071 7.47282 7.076 7.77236 7.37578C7.95741 7.56088 8.08957 7.78352 8.16446 8.02596C8.20408 8.15378 8.32964 8.23532 8.45961 8.21326C8.61378 8.18685 8.71734 8.03036 8.67106 7.88047C8.57197 7.55208 8.39352 7.25236 8.14465 7.00332C7.74595 6.60439 7.21294 6.38401 6.64906 6.38401C6.08518 6.38401 5.55213 6.60439 5.15345 7.00332C4.90455 7.25236 4.72614 7.55208 4.62702 7.88047C4.58076 8.03036 4.68429 8.18685 4.83848 8.21326C4.97063 8.23532 5.09618 8.15378 5.13363 8.02596C5.20851 7.78352 5.34068 7.56088 5.5257 7.37578C5.55433 7.34711 5.58517 7.32065 5.61601 7.29423C5.58517 7.37138 5.56755 7.45733 5.56755 7.54548C5.56755 7.92895 5.87812 8.24193 6.26357 8.24193C6.64906 8.24193 6.95961 7.93115 6.95961 7.54548C6.95961 7.26557 6.79223 7.02533 6.55431 6.91517H6.55211C6.56864 6.91517 6.58461 6.91404 6.60059 6.91291ZM9.08968 9.45842C9.49499 9.45842 9.86502 9.30418 10.147 9.05288C10.2505 8.96253 10.4025 8.95813 10.5038 9.04848C10.6183 9.14989 10.6249 9.33279 10.5104 9.43641C10.136 9.778 9.63596 9.98737 9.08968 9.98737C8.54347 9.98737 8.04567 9.778 7.66898 9.43641C7.55448 9.33279 7.56108 9.15209 7.67558 9.04848C7.77914 8.95593 7.93111 8.96253 8.03241 9.05288C8.31215 9.30418 8.68444 9.45842 9.08968 9.45842Z"
        fill="white" fill-opacity="0.54" />
    <path
        d="M42.4892 10.0918C44.2847 10.0918 45.5738 9.35519 45.5738 7.88199C45.5738 6.82312 44.9053 6.0773 43.4561 5.53405L43.0877 5.39594C42.5095 5.1791 42.167 4.9816 42.167 4.61329C42.167 3.78461 44.0085 4.10687 44.9753 4.33706L45.4817 2.77176C44.8832 2.58762 44.2387 2.4495 43.3179 2.4495C41.4764 2.4495 40.2794 3.37026 40.2794 4.65933C40.2794 5.62613 40.9626 6.24118 41.8908 6.63898L42.5353 6.91522C43.369 7.27245 43.7783 7.4216 43.7783 7.78995C43.7783 8.11218 43.3179 8.38843 42.5353 8.38843C41.9368 8.38843 41.2922 8.29633 40.6017 8.15823L40.3715 9.81558C40.8779 9.95373 41.5685 10.0918 42.4892 10.0918ZM33.558 9.99978H35.3994V5.58009C35.3994 4.61329 35.9059 4.06083 36.7345 4.06083C37.5632 4.06083 38.0236 4.65933 38.0236 5.62613V9.99978H39.8651V5.48802C39.8651 3.64649 38.8523 2.35742 36.7345 2.35742C34.847 2.35742 33.558 3.64649 33.558 5.48802V9.99978ZM25.4553 10.0918C26.0999 10.0918 26.6063 9.99978 27.0666 9.81558L26.8825 8.11218C25.5934 8.38843 24.0742 8.43448 24.0742 6.91522V2.67969H22.2327V7.09936C22.2327 9.07901 23.3836 10.0918 25.4553 10.0918ZM26.7904 6.17859C26.7904 9.15864 28.9045 10.13 30.7984 10.13C31.5493 10.13 32.3264 9.97721 32.9033 9.73641L32.6773 8.10942C32.0686 8.28391 31.4347 8.34328 30.8569 8.34328C29.6774 8.34328 28.5909 7.95197 28.5909 6.34942V6.04047C28.5909 4.77673 29.2157 4.10779 30.1415 4.10779C30.7492 4.10779 31.2565 4.45768 31.2565 5.11971C31.2565 5.924 30.188 6.28864 28.2641 6.22464L28.3562 7.28351C30.7745 7.97132 33.052 7.22961 33.052 5.07367C33.052 3.55349 31.89 2.49369 30.211 2.49369C28.1909 2.49369 26.7904 3.93469 26.7904 6.17859Z"
        fill="white" fill-opacity="0.54" />
</svg>
    