<svg width="20" height="20" viewBox="0 0 20 20" fill="none" xmlns="http://www.w3.org/2000/svg">
    <path fill-rule="evenodd" clip-rule="evenodd" d="M11.7364 14.166C12.887 14.166 13.8198 15.0988 13.8198 16.2493C13.8198 17.3999 12.887 18.3327 11.7364 18.3327C10.5858 18.3327 9.6531 17.3999 9.6531 16.2493C9.6531 15.0988 10.5858 14.166 11.7364 14.166ZM4.79199 8.95768C6.51788 8.95768 7.91699 10.3568 7.91699 12.0827C7.91699 13.8086 6.51788 15.2077 4.79199 15.2077C3.0661 15.2077 1.66699 13.8086 1.66699 12.0827C1.66699 10.3568 3.0661 8.95768 4.79199 8.95768ZM13.6462 1.66602C16.235 1.66602 18.3337 3.76468 18.3337 6.35352C18.3337 8.94235 16.235 11.041 13.6462 11.041C11.0573 11.041 8.95866 8.94235 8.95866 6.35352C8.95866 3.76468 11.0573 1.66602 13.6462 1.66602Z" fill="white"/>
    </svg>
    