<svg width="40" height="40" viewBox="0 0 40 40" fill="none" xmlns="http://www.w3.org/2000/svg">
    <path
        d="M35 20C35 28.2843 28.2843 35 20 35C11.7157 35 5 28.2843 5 20C5 11.7157 11.7157 5 20 5C28.2843 5 35 11.7157 35 20ZM6.65 20C6.65 27.373 12.627 33.35 20 33.35C27.373 33.35 33.35 27.373 33.35 20C33.35 12.627 27.373 6.65 20 6.65C12.627 6.65 6.65 12.627 6.65 20Z"
        fill="white" fill-opacity="0.24" />
    <path
        d="M20 5.83325C20 4.45254 21.1255 3.31407 22.4907 3.5204C22.9137 3.58433 23.334 3.66452 23.7508 3.76078C25.0961 4.07151 25.7234 5.54433 25.2151 6.82809L25.1044 7.10785C24.6573 8.23709 23.3792 8.76748 22.1862 8.5399C20.9931 8.31232 20 7.34868 20 6.13415V5.83325Z"
        fill="#FF637E" />
</svg>
    