<svg width="22" height="23" viewBox="0 0 22 23" fill="none" xmlns="http://www.w3.org/2000/svg">
    <path
        d="M11.0003 11.5007C11.5045 11.5007 11.9362 11.3213 12.2956 10.9626C12.6549 10.6038 12.8343 10.1721 12.8337 9.66732C12.833 9.16254 12.6537 8.7311 12.2956 8.37298C11.9375 8.01487 11.5057 7.83521 11.0003 7.83398C10.4949 7.83276 10.0635 8.01243 9.70599 8.37298C9.34849 8.73354 9.16883 9.16498 9.16699 9.66732C9.16516 10.1697 9.34483 10.6014 9.70599 10.9626C10.0672 11.3237 10.4986 11.5031 11.0003 11.5007ZM11.0003 18.2382C12.8642 16.527 14.2469 14.9727 15.1482 13.5751C16.0496 12.1775 16.5003 10.936 16.5003 9.85065C16.5003 8.18537 15.9696 6.82198 14.9081 5.76048C13.8466 4.69898 12.544 4.16793 11.0003 4.16732C9.45666 4.16671 8.15438 4.69776 7.09349 5.76048C6.0326 6.82321 5.50155 8.18659 5.50033 9.85065C5.50033 10.9354 5.95102 12.1768 6.85241 13.5751C7.7538 14.9733 9.13644 16.5277 11.0003 18.2382ZM11.0003 20.6673C8.5406 18.5743 6.7036 16.6303 5.48933 14.8355C4.27505 13.0407 3.6676 11.379 3.66699 9.85065C3.66699 7.55898 4.4043 5.73329 5.87891 4.37357C7.35352 3.01385 9.06066 2.33398 11.0003 2.33398C12.94 2.33398 14.6474 3.01385 16.1227 4.37357C17.5979 5.73329 18.3349 7.55898 18.3337 9.85065C18.3337 11.3784 17.7265 13.04 16.5122 14.8355C15.298 16.6309 13.4607 18.5749 11.0003 20.6673Z"
        fill="white" />
</svg>
    