<svg width="18" height="18" viewBox="0 0 18 18" fill="none" xmlns="http://www.w3.org/2000/svg">
    <path
        d="M16.5 10.5C16.5 9.2595 15.4905 8.25 14.25 8.25V6.75C14.25 3.855 11.8942 1.5 9 1.5C6.10575 1.5 3.75 3.855 3.75 6.75V8.25C2.5095 8.25 1.5 9.2595 1.5 10.5C1.5 11.4765 2.1285 12.3015 3 12.6112V14.25C3 15.0773 3.672 15.75 4.5 15.75V16.5H6V15.75H12V16.5H13.5V15.75C14.328 15.75 15 15.0773 15 14.25V12.612C15.8715 12.3015 16.5 11.4765 16.5 10.5ZM5.25 6.75C5.25 4.68225 6.93225 3 9 3C11.0677 3 12.75 4.68225 12.75 6.75V8.685C11.997 9.18375 11.5822 10.0365 11.391 10.8405C10.8397 10.6545 10.0635 10.5 9 10.5C7.9365 10.5 7.16025 10.6545 6.609 10.8405C6.41775 10.0365 6.003 9.18375 5.25 8.685V6.75ZM14.25 11.25C13.8352 11.25 13.5 11.586 13.5 12V14.25H4.5V12C4.5 11.586 4.16475 11.25 3.75 11.25C3.33675 11.25 3 10.914 3 10.5C3 10.086 3.33675 9.75 3.75 9.75C5.21925 9.75 5.24925 11.91 5.25 12C5.25 12.294 5.4315 12.5505 5.6985 12.6727C5.9655 12.795 6.29025 12.7403 6.5115 12.5483C6.51675 12.543 7.16625 12 9 12C10.812 12 11.4668 12.531 11.4698 12.531V12.5303C11.6835 12.7448 12.0045 12.8077 12.285 12.6937C12.5647 12.5782 12.7485 12.3053 12.75 12.003C12.7507 11.91 12.7808 9.75 14.25 9.75C14.6632 9.75 15 10.086 15 10.5C15 10.914 14.6632 11.25 14.25 11.25Z"
        fill="url(#paint0_linear_15441_114840)" />
    <defs>
        <linearGradient id="paint0_linear_15441_114840" x1="9" y1="1.5" x2="9" y2="16.5"
            gradientUnits="userSpaceOnUse">
            <stop stop-color="#D9BDFA" />
            <stop offset="1" stop-color="#A667F3" />
        </linearGradient>
    </defs>
</svg>
    