<svg width="20" height="20" viewBox="0 0 20 20" fill="none" xmlns="http://www.w3.org/2000/svg">
    <path fill-rule="evenodd" clip-rule="evenodd"
        d="M13.1574 7.64529C13.7054 7.13038 14.4286 6.84307 15.1806 6.84158C15.5948 6.84171 16.0049 6.92343 16.3876 7.08209C16.7702 7.24075 17.1179 7.47323 17.4106 7.76627C17.7034 8.0593 17.9356 8.40714 18.0939 8.78992C18.2522 9.17269 18.3336 9.58291 18.3334 9.99714C18.3334 11.5045 16.8417 12.7934 16.4685 13.0907C14.7241 14.4795 12.4519 15.2916 10 15.2916C7.54817 15.2916 5.27595 14.4795 3.5315 13.0907C3.16113 12.7944 1.66669 11.5027 1.66669 9.99714C1.66644 9.58299 1.74778 9.17285 1.90604 8.79013C2.0643 8.40741 2.2964 8.05961 2.58908 7.76659C2.88175 7.47357 3.22928 7.24107 3.61181 7.08236C3.99434 6.92364 4.40439 6.84183 4.81854 6.84158C5.57079 6.84283 6.29441 7.13016 6.84261 7.64529L6.89724 7.61751C7.02039 5.99066 8.34261 4.70825 10 4.70825C11.6574 4.70825 12.9796 5.99066 13.1028 7.61751L13.1574 7.64529ZM13.7871 10.7823C14.0269 11.0212 14.1982 11.3101 14.2935 11.6258H14.2963C14.306 11.6603 14.3084 11.6965 14.3032 11.7319C14.298 11.7674 14.2853 11.8014 14.2661 11.8316C14.2469 11.8618 14.2215 11.8877 14.1916 11.9074C14.1617 11.9272 14.128 11.9404 14.0926 11.9462C14.0314 11.9557 13.9688 11.9426 13.9165 11.9094C13.8642 11.8762 13.8258 11.8251 13.8084 11.7657C13.7354 11.5298 13.6061 11.3153 13.4315 11.1407C13.2842 10.9929 13.108 10.8772 12.914 10.8005C12.72 10.7239 12.5122 10.6881 12.3037 10.6953L12.2574 10.6971C12.3763 10.7517 12.4765 10.8398 12.5458 10.9507C12.6152 11.0616 12.6505 11.1903 12.6475 11.321C12.6444 11.4518 12.6032 11.5787 12.5288 11.6863C12.4545 11.7938 12.3502 11.8773 12.229 11.9262C12.1078 11.9752 11.9749 11.9877 11.8467 11.962C11.7184 11.9363 11.6006 11.8736 11.5076 11.7817C11.4146 11.6897 11.3505 11.5726 11.3234 11.4447C11.2962 11.3168 11.3071 11.1837 11.3546 11.062C11.3244 11.0866 11.2954 11.1129 11.2676 11.1407C11.0898 11.3184 10.9621 11.5323 10.8898 11.7657C10.8729 11.8252 10.8347 11.8765 10.7825 11.9098C10.7303 11.9431 10.6676 11.9561 10.6065 11.9462C10.5711 11.9404 10.5374 11.9272 10.5075 11.9074C10.4776 11.8877 10.4522 11.8618 10.433 11.8316C10.4138 11.8014 10.4011 11.7674 10.3959 11.7319C10.3907 11.6965 10.3931 11.6603 10.4028 11.6258C10.4982 11.3101 10.6695 11.0212 10.9093 10.7823C11.291 10.4008 11.8085 10.1863 12.3482 10.186C12.8908 10.186 13.4037 10.399 13.7871 10.7823ZM7.60743 10.6953L7.65372 10.6934C7.97969 10.692 8.29748 10.7954 8.56011 10.9885C8.82274 11.1816 9.01626 11.4541 9.11206 11.7657C9.12951 11.8251 9.16795 11.8762 9.22024 11.9094C9.27253 11.9426 9.3351 11.9557 9.39632 11.9462C9.43167 11.9404 9.46541 11.9272 9.4953 11.9074C9.5252 11.8877 9.5506 11.8618 9.56982 11.8316C9.58905 11.8014 9.60168 11.7674 9.60688 11.7319C9.61209 11.6965 9.60975 11.6603 9.60002 11.6258C9.50239 11.3074 9.32816 11.0178 9.09261 10.7823C8.71091 10.4008 8.19341 10.1863 7.65372 10.186C7.11113 10.186 6.59817 10.399 6.21484 10.7823C5.97502 11.0212 5.80372 11.3101 5.70835 11.6258C5.69863 11.6603 5.69629 11.6965 5.70149 11.7319C5.70669 11.7674 5.71932 11.8014 5.73855 11.8316C5.75778 11.8618 5.78317 11.8877 5.81307 11.9074C5.84297 11.9272 5.8767 11.9404 5.91206 11.9462C5.9732 11.9561 6.03583 11.9431 6.08806 11.9098C6.14029 11.8765 6.17848 11.8252 6.19539 11.7657C6.28078 11.4919 6.44193 11.2479 6.6602 11.062C6.61235 11.1839 6.60128 11.3172 6.62837 11.4454C6.65546 11.5736 6.71952 11.6911 6.81264 11.7832C6.90575 11.8754 7.02383 11.9383 7.15229 11.9641C7.28075 11.9899 7.41394 11.9774 7.53542 11.9284C7.6569 11.8793 7.76133 11.7957 7.8358 11.6879C7.91027 11.5801 7.95153 11.4528 7.95446 11.3218C7.95739 11.1908 7.92187 11.0619 7.8523 10.9508C7.78272 10.8398 7.68214 10.7516 7.56298 10.6971H7.56113L7.60743 10.6953ZM10.0019 13.1444C10.3926 13.1444 10.7482 12.9962 11.0204 12.7545C11.0672 12.7122 11.1278 12.6884 11.1908 12.6876C11.2539 12.6867 11.3151 12.7089 11.363 12.7499C11.3897 12.7729 11.4112 12.8013 11.4262 12.8332C11.4412 12.8651 11.4492 12.8998 11.4498 12.935C11.4505 12.9703 11.4436 13.0052 11.4298 13.0376C11.4159 13.0701 11.3954 13.0992 11.3695 13.1231C10.9961 13.4647 10.5084 13.6542 10.0023 13.6542C9.49626 13.6542 9.00853 13.4647 8.6352 13.1231C8.60931 13.0992 8.58877 13.0701 8.57491 13.0376C8.56106 13.0052 8.55422 12.9703 8.55483 12.935C8.55544 12.8998 8.5635 12.8651 8.57847 12.8332C8.59343 12.8013 8.61498 12.7729 8.64169 12.7499C8.68932 12.7083 8.75064 12.6858 8.81387 12.6866C8.8771 12.6875 8.93779 12.7117 8.98428 12.7545C9.25372 12.9953 9.61206 13.1434 10.0028 13.1434"
        fill="white" />
</svg>
    