<svg width="24" height="24" viewBox="0 0 24 24" fill="none" xmlns="http://www.w3.org/2000/svg">
<path fill-rule="evenodd" clip-rule="evenodd" d="M20.2024 4.73094C20.0822 4.55416 19.9408 4.38446 19.7781 4.22182C19.6155 4.05919 19.4458 3.91776 19.269 3.79756C18.0245 2.9066 16.3699 2.82175 15.0405 3.543C13.8738 3.12581 12.6505 2.96317 11.4343 3.03388C9.32002 3.15409 7.24819 4.02383 5.63599 5.63603C4.02379 7.24824 3.15405 9.32006 3.03384 11.4343C2.95606 12.6576 3.12576 13.888 3.54295 15.0406C2.8217 16.3699 2.89949 18.0175 3.79751 19.2691C3.91772 19.4458 4.05914 19.6155 4.22178 19.7782C4.38441 19.9408 4.55412 20.0822 4.73089 20.2024C5.9754 21.0934 7.63003 21.1782 8.95939 20.457C10.112 20.8742 11.3353 21.0368 12.5374 20.9661C14.6587 20.853 16.7446 19.9832 18.3639 18.364C19.9832 16.7447 20.8529 14.6587 20.9731 12.5303C21.0438 11.3282 20.8741 10.0979 20.464 8.95236C21.1782 7.63008 21.1004 5.98252 20.2024 4.73094ZM18.3639 8.46446C18.2932 8.53517 18.2154 8.58467 18.1376 8.64831C18.47 9.26349 18.7033 9.90696 18.8447 10.5716C19.3114 12.8061 18.6821 15.2173 16.9497 16.9497C15.2173 18.6822 12.8061 19.3115 10.5716 18.8448C9.90691 18.7034 9.26345 18.47 8.64826 18.1377C8.58463 18.2155 8.53513 18.2932 8.46442 18.364C7.6866 19.1418 6.41381 19.1418 5.63599 18.364C4.85817 17.5861 4.85817 16.3133 5.63599 15.5355C5.7067 15.4648 5.78448 15.4153 5.86226 15.3517C5.52992 14.7365 5.29658 14.093 5.15516 13.4284C4.68847 11.1939 5.31779 8.78266 7.0502 7.05025C8.78261 5.31784 11.1938 4.68851 13.4283 5.1552C14.093 5.29662 14.7365 5.52997 15.3516 5.86231C15.4153 5.78453 15.4648 5.70674 15.5355 5.63603C16.3133 4.85822 17.5861 4.85822 18.3639 5.63603C19.1417 6.41385 19.1417 7.68664 18.3639 8.46446Z" fill="black"/>
</svg>
