<svg width="18" height="19" viewBox="0 0 18 19" fill="none" xmlns="http://www.w3.org/2000/svg">
    <path
        d="M13.5 6.5H12.75V5C12.75 2.93 11.07 1.25 9 1.25C6.93 1.25 5.25 2.93 5.25 5V6.5H4.5C3.675 6.5 3 7.175 3 8V15.5C3 16.325 3.675 17 4.5 17H13.5C14.325 17 15 16.325 15 15.5V8C15 7.175 14.325 6.5 13.5 6.5ZM6.75 5C6.75 3.755 7.755 2.75 9 2.75C10.245 2.75 11.25 3.755 11.25 5V6.5H6.75V5ZM13.5 15.5H4.5V8H13.5V15.5ZM9 13.25C9.825 13.25 10.5 12.575 10.5 11.75C10.5 10.925 9.825 10.25 9 10.25C8.175 10.25 7.5 10.925 7.5 11.75C7.5 12.575 8.175 13.25 9 13.25Z"
        fill="white" />
</svg>