<svg width="120" height="120" viewBox="0 0 120 120" fill="none" xmlns="http://www.w3.org/2000/svg">
    <path
        d="M89.978 18.1113C112.013 36.1863 115.092 68.4888 96.878 90.3175C78.6755 112.128 45.443 114.925 23.4342 96.8763L16.853 91.4762C16.3718 91.0849 15.9734 90.6017 15.681 90.0547C15.3885 89.5078 15.2079 88.9081 15.1496 88.2906C15.0913 87.6732 15.1565 87.0503 15.3415 86.4583C15.5264 85.8663 15.8273 85.317 16.2267 84.8425L76.3542 13.0563C77.167 12.095 78.3248 11.4915 79.5783 11.3758C80.8317 11.2601 82.0805 11.6414 83.0555 12.4375L89.978 18.1113Z"
        fill="#44911B" />
    <path
        d="M15.9563 85.1692C15.5875 85.6087 15.3153 86.121 15.1576 86.6726C14.9998 87.2243 14.9599 87.803 15.0406 88.3711C15.1212 88.9392 15.3206 89.4839 15.6257 89.9699C15.9307 90.4559 16.3347 90.8721 16.8113 91.1917C38.6963 106.184 68.9213 102.367 86.2238 81.7042C103.534 61.0454 101.711 30.9479 82.7588 12.4492C82.3467 12.0467 81.8562 11.7333 81.3179 11.5285C80.7795 11.3236 80.2048 11.2317 79.6294 11.2584C79.054 11.2852 78.4902 11.43 77.9732 11.6838C77.4561 11.9377 76.9968 12.2952 76.6238 12.7342L15.9563 85.1692Z"
        fill="#86D72F" />
    <path
        d="M81.2737 77.6472C97.2599 58.5597 94.5749 30.1534 75.2849 14.3359L17.2949 83.5684C36.5849 99.3934 65.2874 96.7309 81.2699 77.6434"
        fill="#FFF3D7" />
    <path
        d="M54.7759 45.5155L76.5071 47.9905C80.4071 48.4367 83.6209 44.968 82.7996 41.1655C81.0398 33.0356 76.5739 25.7431 70.1321 20.4805L52.9459 41.0042C52.6249 41.3882 52.4144 41.8522 52.3369 42.3466C52.2593 42.841 52.3177 43.3472 52.5057 43.811C52.6936 44.2748 53.0042 44.6788 53.4041 44.9797C53.804 45.2806 54.2781 45.4671 54.7759 45.5192V45.5155ZM49.5484 55.633L56.5046 77.7805C56.7648 78.5954 57.2029 79.3423 57.7874 79.9669C58.3718 80.5916 59.0879 81.0784 59.8837 81.3922C60.6795 81.7059 61.5352 81.8387 62.3887 81.7809C63.2422 81.7231 64.0721 81.4761 64.8184 81.058C72.6642 76.6332 78.6338 69.5068 81.6146 61.0067C82.8034 57.5792 80.4559 53.9455 76.8146 53.5292L53.5309 50.878C52.9191 50.8033 52.2983 50.8828 51.7251 51.1092C51.1518 51.3356 50.6443 51.7017 50.2486 52.1742C49.8528 52.6466 49.5815 53.2106 49.4592 53.8146C49.3369 54.4187 49.3676 55.0438 49.5484 55.633ZM50.9434 78.5117L44.4559 57.8417C44.3018 57.3644 44.0227 56.9371 43.6477 56.6041C43.2726 56.2712 42.8152 56.0447 42.3231 55.9483C41.8309 55.8518 41.3219 55.8889 40.8489 56.0557C40.3759 56.2225 39.9562 56.5129 39.6334 56.8967L22.4434 77.4205C28.9113 82.7255 36.9702 85.7106 45.3334 85.8992C49.2596 85.993 52.1096 82.2242 50.9434 78.5117Z"
        fill="#AAE64B" />
</svg>