<svg width="12" height="12" viewBox="0 0 12 12" fill="none" xmlns="http://www.w3.org/2000/svg">
    <path
        d="M11.2507 6.00073C11.2519 6.15454 11.2052 6.3049 11.117 6.43092C11.0287 6.55693 10.9035 6.65233 10.7585 6.70386L7.78479 7.78526L6.70386 10.7585C6.65058 10.9021 6.55465 11.0259 6.42896 11.1133C6.30327 11.2007 6.15383 11.2476 6.00073 11.2476C5.84763 11.2476 5.69819 11.2007 5.5725 11.1133C5.44681 11.0259 5.35088 10.9021 5.29761 10.7585L4.2162 7.78198L1.24292 6.70386C1.09938 6.65058 0.975595 6.55465 0.888178 6.42896C0.800762 6.30327 0.753906 6.15383 0.753906 6.00073C0.753906 5.84763 0.800762 5.69819 0.888178 5.5725C0.975595 5.44681 1.09938 5.35088 1.24292 5.29761L4.21948 4.2162L5.29761 1.24292C5.35088 1.09938 5.44681 0.975595 5.5725 0.888178C5.69819 0.800762 5.84763 0.753906 6.00073 0.753906C6.15383 0.753906 6.30327 0.800762 6.42896 0.888178C6.55465 0.975595 6.65058 1.09938 6.70386 1.24292L7.78526 4.21948L10.7585 5.29761C10.9035 5.34913 11.0287 5.44453 11.117 5.57054C11.2052 5.69656 11.2519 5.84692 11.2507 6.00073Z"
        fill="white" />
</svg>