<svg width="72" height="72" viewBox="0 0 72 72" fill="none" xmlns="http://www.w3.org/2000/svg">
<g filter="url(#filter0_di_10728_115562)">
<rect x="6" y="3" width="60" height="60" rx="30" fill="url(#paint0_linear_10728_115562)" shape-rendering="crispEdges"/>
<rect x="6.5" y="3.5" width="59" height="59" rx="29.5" stroke="black" stroke-opacity="0.12" shape-rendering="crispEdges"/>
<path d="M36.0001 41.002C35.8161 41.002 35.6331 40.951 35.4711 40.85C35.124 40.634 26.999 35.4923 26.999 30.0006C26.999 27.2433 29.2423 25 31.9996 25C33.5938 25 35.07 25.8371 36.0001 27.0803C36.9303 25.8371 38.4064 25 40.0006 25C42.758 25 45.0013 27.2433 45.0013 30.0006C45.0013 35.4923 36.8763 40.634 36.5292 40.85C36.3672 40.951 36.1842 41.002 36.0001 41.002ZM31.9996 27.0002C30.3454 27.0002 28.9993 28.3464 28.9993 30.0006C28.9993 33.364 33.6429 37.2085 36.0001 38.8077C38.3574 37.2085 43.001 33.365 43.001 30.0006C43.001 28.3464 41.6549 27.0002 40.0006 27.0002C38.3114 27.0002 37.0003 28.6125 37.0003 30.0006C37.0003 30.5527 36.5532 31.0008 36.0001 31.0008C35.4471 31.0008 35 30.5527 35 30.0006C35 28.6125 33.6889 27.0002 31.9996 27.0002Z" fill="#C69DF7"/>
</g>
<defs>
<filter id="filter0_di_10728_115562" x="0" y="0" width="72" height="72" filterUnits="userSpaceOnUse" color-interpolation-filters="sRGB">
<feFlood flood-opacity="0" result="BackgroundImageFix"/>
<feColorMatrix in="SourceAlpha" type="matrix" values="0 0 0 0 0 0 0 0 0 0 0 0 0 0 0 0 0 0 127 0" result="hardAlpha"/>
<feOffset dy="3"/>
<feGaussianBlur stdDeviation="3"/>
<feComposite in2="hardAlpha" operator="out"/>
<feColorMatrix type="matrix" values="0 0 0 0 0.0352941 0 0 0 0 0.0352941 0 0 0 0 0.0352941 0 0 0 0.18 0"/>
<feBlend mode="normal" in2="BackgroundImageFix" result="effect1_dropShadow_10728_115562"/>
<feBlend mode="normal" in="SourceGraphic" in2="effect1_dropShadow_10728_115562" result="shape"/>
<feColorMatrix in="SourceAlpha" type="matrix" values="0 0 0 0 0 0 0 0 0 0 0 0 0 0 0 0 0 0 127 0" result="hardAlpha"/>
<feOffset dy="2"/>
<feGaussianBlur stdDeviation="2"/>
<feComposite in2="hardAlpha" operator="arithmetic" k2="-1" k3="1"/>
<feColorMatrix type="matrix" values="0 0 0 0 1 0 0 0 0 1 0 0 0 0 1 0 0 0 0.12 0"/>
<feBlend mode="normal" in2="shape" result="effect2_innerShadow_10728_115562"/>
</filter>
<linearGradient id="paint0_linear_10728_115562" x1="36" y1="3" x2="36" y2="63" gradientUnits="userSpaceOnUse">
<stop stop-color="#424242"/>
<stop offset="1" stop-color="#2D2D2D"/>
</linearGradient>
</defs>
</svg>
