<svg width="40" height="40" viewBox="0 0 40 40" fill="none" xmlns="http://www.w3.org/2000/svg">
<path d="M28.3366 5.00065C28.3366 5.44268 28.161 5.8666 27.8485 6.17916C27.5359 6.49172 27.112 6.66732 26.6699 6.66732C26.2279 6.66732 25.804 6.49172 25.4914 6.17916C25.1789 5.8666 25.0033 5.44268 25.0033 5.00065C25.0033 4.55862 25.1789 4.1347 25.4914 3.82214C25.804 3.50958 26.2279 3.33398 26.6699 3.33398C27.112 3.33398 27.5359 3.50958 27.8485 3.82214C28.161 4.1347 28.3366 4.55862 28.3366 5.00065ZM13.3366 15.834C13.3366 14.5079 13.8634 13.2361 14.8011 12.2985C15.7388 11.3608 17.0105 10.834 18.3366 10.834C19.9942 10.834 21.5839 11.4925 22.756 12.6646C23.9281 13.8367 24.5866 15.4264 24.5866 17.084C24.5866 19.0731 23.7964 20.9808 22.3899 22.3873C20.9834 23.7938 19.0757 24.584 17.0866 24.584C16.7551 24.584 16.4371 24.7157 16.2027 24.9501C15.9683 25.1845 15.8366 25.5025 15.8366 25.834C15.8366 26.1655 15.9683 26.4834 16.2027 26.7179C16.4371 26.9523 16.7551 27.084 17.0866 27.084C19.7388 27.084 22.2823 26.0304 24.1577 24.1551C26.033 22.2797 27.0866 19.7361 27.0866 17.084C27.0866 12.2507 23.1699 8.33398 18.3366 8.33398C16.3475 8.33398 14.4398 9.12416 13.0333 10.5307C11.6268 11.9372 10.8366 13.8449 10.8366 15.834C10.8366 17.4916 11.4951 19.0813 12.6672 20.2534C13.8393 21.4255 15.429 22.084 17.0866 22.084C18.4127 22.084 19.6845 21.5572 20.6221 20.6195C21.5598 19.6818 22.0866 18.4101 22.0866 17.084C22.0866 16.0894 21.6915 15.1356 20.9883 14.4323C20.285 13.7291 19.3312 13.334 18.3366 13.334C17.6736 13.334 17.0377 13.5974 16.5688 14.0662C16.1 14.5351 15.8366 15.1709 15.8366 15.834C15.8366 16.1655 15.9683 16.4834 16.2027 16.7179C16.4371 16.9523 16.7551 17.084 17.0866 17.084C17.4181 17.084 17.7361 16.9523 17.9705 16.7179C18.2049 16.4834 18.3366 16.1655 18.3366 15.834C18.6681 15.834 18.9861 15.9657 19.2205 16.2001C19.4549 16.4345 19.5866 16.7525 19.5866 17.084C19.5866 17.747 19.3232 18.3829 18.8544 18.8518C18.3855 19.3206 17.7497 19.584 17.0866 19.584C16.092 19.584 15.1382 19.1889 14.435 18.4856C13.7317 17.7824 13.3366 16.8285 13.3366 15.834ZM15.2799 23.544C14.8041 23.9194 14.4569 24.4337 14.2868 25.0154C14.1167 25.5972 14.1321 26.2175 14.3308 26.7901C14.5295 27.3627 14.9016 27.8592 15.3955 28.2106C15.8894 28.562 16.4805 28.7507 17.0866 28.7507C19.6737 28.7515 22.1877 27.8924 24.2333 26.3085C26.2788 24.7245 27.7398 22.5056 28.3866 20.0007H30.8249C31.8949 20.0007 32.9399 20.3173 33.8299 20.9107L37.7799 23.544C37.9185 23.6342 38.0378 23.7509 38.1309 23.8875C38.224 24.0241 38.2891 24.1778 38.3224 24.3397C38.3557 24.5016 38.3566 24.6686 38.3249 24.8308C38.2933 24.9931 38.2298 25.1474 38.1381 25.285C38.0464 25.4225 37.9283 25.5405 37.7907 25.6321C37.6531 25.7237 37.4987 25.7871 37.3364 25.8187C37.1742 25.8502 37.0073 25.8492 36.8454 25.8158C36.6835 25.7824 36.5298 25.7172 36.3933 25.624L33.3366 23.5857V31.2507C33.3366 31.962 33.1965 32.6663 32.9243 33.3235C32.6521 33.9807 32.2531 34.5778 31.7501 35.0808C31.2471 35.5838 30.65 35.9828 29.9928 36.255C29.3356 36.5272 28.6313 36.6673 27.9199 36.6673H12.0866C11.3753 36.6673 10.6709 36.5272 10.0137 36.255C9.35656 35.9828 8.75943 35.5838 8.25645 35.0808C7.75346 34.5778 7.35448 33.9807 7.08226 33.3235C6.81005 32.6663 6.66994 31.962 6.66994 31.2507V23.5857L3.61328 25.624C3.47675 25.7172 3.32309 25.7824 3.16119 25.8158C2.9993 25.8492 2.83238 25.8502 2.67011 25.8187C2.50783 25.7871 2.35342 25.7237 2.21582 25.6321C2.07821 25.5405 1.96014 25.4225 1.86845 25.285C1.77675 25.1474 1.71324 24.9931 1.68161 24.8308C1.64998 24.6686 1.65084 24.5016 1.68415 24.3397C1.71746 24.1778 1.78256 24.0241 1.87567 23.8875C1.96878 23.7509 2.08807 23.6342 2.22661 23.544L6.17661 20.9107C7.06647 20.3173 8.11207 20.0007 9.18161 20.0007H10.3533C11.461 21.788 13.233 23.0625 15.2799 23.544ZM33.7533 8.33398C33.7533 8.00246 33.6216 7.68452 33.3872 7.4501C33.1527 7.21568 32.8348 7.08398 32.5033 7.08398C32.1718 7.08398 31.8538 7.21568 31.6194 7.4501C31.385 7.68452 31.2533 8.00246 31.2533 8.33398V9.58398H30.0033C29.6718 9.58398 29.3538 9.71568 29.1194 9.9501C28.885 10.1845 28.7533 10.5025 28.7533 10.834C28.7533 11.1655 28.885 11.4834 29.1194 11.7179C29.3538 11.9523 29.6718 12.084 30.0033 12.084H31.2533V13.334C31.2533 13.6655 31.385 13.9834 31.6194 14.2179C31.8538 14.4523 32.1718 14.584 32.5033 14.584C32.8348 14.584 33.1527 14.4523 33.3872 14.2179C33.6216 13.9834 33.7533 13.6655 33.7533 13.334V12.084H35.0033C35.3348 12.084 35.6527 11.9523 35.8872 11.7179C36.1216 11.4834 36.2533 11.1655 36.2533 10.834C36.2533 10.5025 36.1216 10.1845 35.8872 9.9501C35.6527 9.71568 35.3348 9.58398 35.0033 9.58398H33.7533V8.33398Z" fill="url(#paint0_linear_19836_34858)"/>
<defs>
<linearGradient id="paint0_linear_19836_34858" x1="20.0033" y1="3.33398" x2="20.0033" y2="36.6673" gradientUnits="userSpaceOnUse">
<stop stop-color="#424242"/>
<stop offset="1" stop-color="#272727"/>
</linearGradient>
</defs>
</svg>
