<svg width="25" height="25" viewBox="0 0 25 25" fill="none" xmlns="http://www.w3.org/2000/svg">
<path d="M22.5 14.5C22.5 12.846 21.154 11.5 19.5 11.5V9.5C19.5 5.64 16.359 2.5 12.5 2.5C8.641 2.5 5.5 5.64 5.5 9.5V11.5C3.846 11.5 2.5 12.846 2.5 14.5C2.5 15.802 3.338 16.902 4.5 17.315V19.5C4.5 20.603 5.396 21.5 6.5 21.5V22.5H8.5V21.5H16.5V22.5H18.5V21.5C19.604 21.5 20.5 20.603 20.5 19.5V17.316C21.662 16.902 22.5 15.802 22.5 14.5ZM7.5 9.5C7.5 6.743 9.743 4.5 12.5 4.5C15.257 4.5 17.5 6.743 17.5 9.5V12.08C16.496 12.745 15.943 13.882 15.688 14.954C14.953 14.706 13.918 14.5 12.5 14.5C11.082 14.5 10.047 14.706 9.312 14.954C9.057 13.882 8.504 12.745 7.5 12.08V9.5ZM19.5 15.5C18.947 15.5 18.5 15.948 18.5 16.5V19.5H6.5V16.5C6.5 15.948 6.053 15.5 5.5 15.5C4.949 15.5 4.5 15.052 4.5 14.5C4.5 13.948 4.949 13.5 5.5 13.5C7.459 13.5 7.499 16.38 7.5 16.5C7.5 16.892 7.742 17.234 8.098 17.397C8.454 17.56 8.887 17.487 9.182 17.231C9.189 17.224 10.055 16.5 12.5 16.5C14.916 16.5 15.789 17.208 15.793 17.208V17.207C16.078 17.493 16.506 17.577 16.88 17.425C17.253 17.271 17.498 16.907 17.5 16.504C17.501 16.38 17.541 13.5 19.5 13.5C20.051 13.5 20.5 13.948 20.5 14.5C20.5 15.052 20.051 15.5 19.5 15.5Z" fill="white"/>
</svg>
