<svg width="25" height="24" viewBox="0 0 25 24" fill="none" xmlns="http://www.w3.org/2000/svg">
    <path fill-rule="evenodd" clip-rule="evenodd"
        d="M4.97079 15.52C4.58069 15.9101 3.94775 15.9103 3.55792 15.5199C2.38792 14.3499 2.38792 12.4469 3.55792 11.2769L12.0429 2.79288C13.1749 1.65888 15.1519 1.65888 16.2859 2.79288C16.6758 3.18329 16.6758 3.816 16.2857 4.20613C15.8953 4.59646 15.2622 4.59621 14.8719 4.20588C14.6819 4.01688 14.4319 3.91288 14.1639 3.91288C13.8959 3.91288 13.6449 4.01688 13.4569 4.20588L4.97092 12.6909C4.58092 13.0819 4.58092 13.7159 4.97092 14.1059C5.36125 14.4962 5.36112 15.1297 4.97079 15.52ZM20.5274 8.45038C20.9177 8.06011 21.5513 8.06089 21.9419 8.45088C22.5079 9.01688 22.8199 9.77088 22.8199 10.5719C22.8199 11.3729 22.5079 12.1259 21.9419 12.6919L13.4569 21.1769C12.8899 21.7439 12.1369 22.0559 11.3359 22.0559C10.5339 22.0559 9.7809 21.7439 9.2139 21.1769C8.82347 20.7865 8.82358 20.1534 9.21415 19.7631C9.60451 19.373 10.2377 19.3737 10.6279 19.7639C11.0059 20.1409 11.6649 20.1409 12.0429 19.7639L20.5279 11.2779C20.7159 11.0889 20.8199 10.8379 20.8199 10.5719C20.8199 10.3039 20.7169 10.0539 20.5279 9.86488C20.137 9.4745 20.1367 8.84104 20.5274 8.45038ZM5.67726 20.47L11.3347 14.811C11.7249 14.4206 11.7249 13.7878 11.3345 13.3975C10.9441 13.0072 10.3112 13.0073 9.92098 13.3977L4.26356 19.0567C3.87329 19.4471 3.87338 20.0799 4.26376 20.4702C4.65414 20.8605 5.28699 20.8604 5.67726 20.47ZM21.2342 4.91418L15.5774 10.571C15.1869 10.9615 14.5537 10.9615 14.1632 10.571C13.7727 10.1805 13.7727 9.5473 14.1632 9.15678L19.82 3.49998C20.2105 3.10946 20.8437 3.10946 21.2342 3.49998C21.6247 3.8905 21.6247 4.52366 21.2342 4.91418Z"
        fill="white" />
</svg>