<svg width="18" height="18" viewBox="0 0 18 18" fill="none" xmlns="http://www.w3.org/2000/svg">
    <path
        d="M9 1.5C6.1005 1.5 3.75 3.8505 3.75 6.75C3.75 9.62364 6.83291 13.8185 8.27384 15.6222C8.65147 16.095 9.34853 16.095 9.72616 15.6222C11.1671 13.8185 14.25 9.62364 14.25 6.75C14.25 3.8505 11.8995 1.5 9 1.5ZM9 8.625C7.965 8.625 7.125 7.78575 7.125 6.75C7.125 5.71425 7.965 4.875 9 4.875C10.0357 4.875 10.875 5.71425 10.875 6.75C10.875 7.78575 10.0357 8.625 9 8.625Z"
        fill="white" />
</svg>