<svg width="18" height="18" viewBox="0 0 18 18" fill="none" xmlns="http://www.w3.org/2000/svg">
    <path
        d="M7.5 14.25C7.2875 14.25 7.1095 14.178 6.966 14.034C6.8225 13.89 6.7505 13.712 6.75 13.5C6.7495 13.288 6.8215 13.11 6.966 12.966C7.1105 12.822 7.2885 12.75 7.5 12.75H15C15.2125 12.75 15.3908 12.822 15.5348 12.966C15.6788 13.11 15.7505 13.288 15.75 13.5C15.7495 13.712 15.6775 13.8903 15.534 14.0348C15.3905 14.1793 15.2125 14.251 15 14.25H7.5ZM7.5 9.75C7.2875 9.75 7.1095 9.678 6.966 9.53401C6.8225 9.39001 6.7505 9.21201 6.75 9C6.7495 8.788 6.8215 8.61 6.966 8.46601C7.1105 8.32201 7.2885 8.25 7.5 8.25H15C15.2125 8.25 15.3908 8.32201 15.5348 8.46601C15.6788 8.61 15.7505 8.788 15.75 9C15.7495 9.21201 15.6775 9.39026 15.534 9.53476C15.3905 9.67926 15.2125 9.75101 15 9.75H7.5ZM7.5 5.25001C7.2875 5.25001 7.1095 5.178 6.966 5.034C6.8225 4.89 6.7505 4.71201 6.75 4.50001C6.7495 4.288 6.8215 4.11001 6.966 3.96601C7.1105 3.82201 7.2885 3.75001 7.5 3.75001H15C15.2125 3.75001 15.3908 3.82201 15.5348 3.96601C15.6788 4.11001 15.7505 4.288 15.75 4.50001C15.7495 4.71201 15.6775 4.89025 15.534 5.03475C15.3905 5.17925 15.2125 5.251 15 5.25001H7.5ZM3.75 15C3.3375 15 2.9845 14.8533 2.691 14.5598C2.3975 14.2663 2.2505 13.913 2.25 13.5C2.2495 13.087 2.3965 12.734 2.691 12.441C2.9855 12.148 3.3385 12.001 3.75 12C4.1615 11.999 4.51475 12.146 4.80975 12.441C5.10475 12.736 5.2515 13.089 5.25 13.5C5.2485 13.911 5.10175 14.2643 4.80975 14.5598C4.51775 14.8553 4.1645 15.002 3.75 15ZM3.75 10.5C3.3375 10.5 2.9845 10.3533 2.691 10.0598C2.3975 9.76625 2.2505 9.413 2.25 9C2.2495 8.58701 2.3965 8.23401 2.691 7.94101C2.9855 7.64801 3.3385 7.50101 3.75 7.5C4.1615 7.499 4.51475 7.64601 4.80975 7.94101C5.10475 8.23601 5.2515 8.589 5.25 9C5.2485 9.41101 5.10175 9.76426 4.80975 10.0598C4.51775 10.3553 4.1645 10.502 3.75 10.5ZM3.75 6.00001C3.3375 6.00001 2.9845 5.85326 2.691 5.55976C2.3975 5.26626 2.2505 4.913 2.25 4.50001C2.2495 4.08701 2.3965 3.734 2.691 3.441C2.9855 3.148 3.3385 3.00101 3.75 3.00001C4.1615 2.99901 4.51475 3.146 4.80975 3.441C5.10475 3.736 5.2515 4.089 5.25 4.50001C5.2485 4.91101 5.10175 5.26426 4.80975 5.55976C4.51775 5.85526 4.1645 6.00201 3.75 6.00001Z"
        fill="white" />
</svg>
    