<svg width="98" height="36" viewBox="0 0 98 36" fill="none" xmlns="http://www.w3.org/2000/svg">
    <circle cx="49" cy="18" r="12.5" stroke="white" stroke-opacity="0.09" />
    <circle cx="49" cy="18" r="17.5" stroke="white" stroke-opacity="0.06" />
    <path
        d="M0 9.6C0 6.23968 0 4.55953 0.653961 3.27606C1.2292 2.14708 2.14708 1.2292 3.27606 0.653961C4.55953 0 6.23969 0 9.6 0H26.4C29.7603 0 31.4405 0 32.7239 0.653961C33.8529 1.2292 34.7708 2.14708 35.346 3.27606C36 4.55953 36 6.23969 36 9.6V26.4C36 29.7603 36 31.4405 35.346 32.7239C34.7708 33.8529 33.8529 34.7708 32.7239 35.346C31.4405 36 29.7603 36 26.4 36H9.6C6.23968 36 4.55953 36 3.27606 35.346C2.14708 34.7708 1.2292 33.8529 0.653961 32.7239C0 31.4405 0 29.7603 0 26.4V9.6Z"
        fill="black" />
    <g clip-path="url(#clip0_18696_110073)">
        <path fill-rule="evenodd" clip-rule="evenodd"
            d="M19.6667 22C20.7712 22 21.6667 22.8954 21.6667 24C21.6667 25.1046 20.7712 26 19.6667 26C18.5621 26 17.6667 25.1046 17.6667 24C17.6667 22.8954 18.5621 22 19.6667 22ZM13 17C14.6569 17 16 18.3431 16 20C16 21.6569 14.6569 23 13 23C11.3431 23 10 21.6569 10 20C10 18.3431 11.3431 17 13 17ZM21.5 10C23.9853 10 26 12.0147 26 14.5C26 16.9853 23.9853 19 21.5 19C19.0147 19 17 16.9853 17 14.5C17 12.0147 19.0147 10 21.5 10Z"
            fill="url(#paint0_radial_18696_110073)" />
    </g>
    <path
        d="M42 18C42 14.134 45.134 11 49 11C52.866 11 56 14.134 56 18C56 21.866 52.866 25 49 25C45.134 25 42 21.866 42 18Z"
        fill="white" fill-opacity="0.18" />
    <path
        d="M53.0837 18.0013C53.0837 18.3235 52.8225 18.5846 52.5003 18.5846H49.5837V21.5013C49.5837 21.8235 49.3225 22.0846 49.0003 22.0846C48.6782 22.0846 48.417 21.8235 48.417 21.5013V18.5846H45.5003C45.1782 18.5846 44.917 18.3235 44.917 18.0013C44.917 17.6791 45.1782 17.418 45.5003 17.418H48.417V14.5013C48.417 14.1791 48.6782 13.918 49.0003 13.918C49.3225 13.918 49.5837 14.1791 49.5837 14.5013V17.418H52.5003C52.8225 17.418 53.0837 17.6791 53.0837 18.0013Z"
        fill="white" fill-opacity="0.54" />
    <path
        d="M62 9.6C62 6.23968 62 4.55953 62.654 3.27606C63.2292 2.14708 64.1471 1.2292 65.2761 0.653961C66.5595 0 68.2397 0 71.6 0H88.4C91.7603 0 93.4405 0 94.7239 0.653961C95.8529 1.2292 96.7708 2.14708 97.346 3.27606C98 4.55953 98 6.23969 98 9.6V26.4C98 29.7603 98 31.4405 97.346 32.7239C96.7708 33.8529 95.8529 34.7708 94.7239 35.346C93.4405 36 91.7603 36 88.4 36H71.6C68.2397 36 66.5595 36 65.2761 35.346C64.1471 34.7708 63.2292 33.8529 62.654 32.7239C62 31.4405 62 29.7603 62 26.4V9.6Z"
        fill="#635BFF" />
    <g clip-path="url(#clip1_18696_110073)">
        <path
            d="M92 18.1444C92 16.4377 91.1733 15.091 89.5933 15.091C88.0066 15.091 87.0466 16.4378 87.0466 18.1311C87.0466 20.1377 88.18 21.151 89.8066 21.151C90.6 21.151 91.2 20.971 91.6533 20.7177V19.3844C91.2 19.611 90.68 19.7511 90.02 19.7511C89.3733 19.7511 88.8 19.5244 88.7267 18.7377H91.9867C91.9867 18.651 92 18.3044 92 18.1444ZM88.7067 17.511C88.7067 16.7577 89.1667 16.4444 89.5867 16.4444C89.9933 16.4444 90.4267 16.7577 90.4267 17.511H88.7067ZM84.4734 15.091C83.82 15.091 83.4 15.3977 83.1667 15.6111L83.08 15.1977H81.6133V22.971L83.28 22.6177L83.2867 20.731C83.5267 20.9044 83.88 21.151 84.4667 21.151C85.66 21.151 86.7467 20.191 86.7467 18.0777C86.74 16.1444 85.64 15.091 84.4733 15.091M84.0733 19.6844C83.68 19.6844 83.4466 19.5444 83.2866 19.371L83.2799 16.8977C83.4533 16.7044 83.6933 16.5711 84.0733 16.5711C84.68 16.5711 85.1 17.251 85.1 18.1244C85.1 19.0177 84.6866 19.6844 84.0733 19.6844ZM79.32 14.6977L80.9933 14.3377V12.9844L79.32 13.3377V14.6977ZM79.32 15.2044H80.9933V21.0377H79.32V15.2044ZM77.5267 15.6977L77.42 15.2044H75.98V21.0377H77.6467V17.0844C78.04 16.5711 78.7067 16.6644 78.9133 16.7377V15.2044C78.7 15.1244 77.92 14.9777 77.5267 15.6977ZM74.1933 13.7577L72.5667 14.1044L72.56 19.4444C72.56 20.4311 73.3 21.1577 74.2867 21.1577C74.8333 21.1577 75.2333 21.0577 75.4533 20.9377V19.5844C75.24 19.671 74.1867 19.9777 74.1867 18.991V16.6244H75.4533V15.2044H74.1867L74.1933 13.7577ZM69.6867 16.8977C69.6867 16.6377 69.9 16.5377 70.2534 16.5377C70.76 16.5377 71.4 16.6911 71.9067 16.9644V15.3977C71.3533 15.1777 70.8067 15.091 70.2534 15.091C68.9 15.091 68 15.7977 68 16.9778C68 18.8177 70.5333 18.5244 70.5333 19.3178C70.5333 19.6244 70.2667 19.7244 69.8933 19.7244C69.34 19.7244 68.6333 19.4977 68.0733 19.191V20.7777C68.6933 21.0444 69.32 21.1577 69.8933 21.1577C71.28 21.1577 72.2333 20.4711 72.2333 19.2777C72.2267 17.2911 69.6867 17.6444 69.6867 16.8977Z"
            fill="white" />
    </g>
    <defs>
        <radialGradient id="paint0_radial_18696_110073" cx="0" cy="0" r="1"
            gradientUnits="userSpaceOnUse" gradientTransform="translate(18 18) scale(16.3482)">
            <stop stop-color="#FFDB00" />
            <stop offset="1" stop-color="#F5B42E" />
        </radialGradient>
        <clipPath id="clip0_18696_110073">
            <rect width="16" height="16" fill="white" transform="translate(10 10)" />
        </clipPath>
        <clipPath id="clip1_18696_110073">
            <rect width="24" height="10.0312" fill="white" transform="translate(68 12.9844)" />
        </clipPath>
    </defs>
</svg>