<svg width="24" height="24" viewBox="0 0 24 24" fill="none" xmlns="http://www.w3.org/2000/svg">
    <path fill-rule="evenodd" clip-rule="evenodd"
        d="M8 4.5C8 3.94772 8.44772 3.5 9 3.5H15C15.5523 3.5 16 3.94772 16 4.5C16 5.05228 15.5523 5.5 15 5.5H9C8.44772 5.5 8 5.05228 8 4.5ZM10 9.5V18.5H14V9.5H10ZM16 14V9.1C16 8.67566 15.8314 8.26869 15.5314 7.96863C15.2313 7.66857 14.8243 7.5 14.4 7.5H9.6C9.17566 7.5 8.76869 7.66857 8.46863 7.96863C8.16857 8.26869 8 8.67566 8 9.1V12H3.6C3.17566 12 2.76869 12.1686 2.46863 12.4686C2.16857 12.7687 2 13.1757 2 13.6V18.9C2 19.3243 2.16857 19.7313 2.46863 20.0314C2.76869 20.3314 3.17566 20.5 3.6 20.5H20.4C20.8243 20.5 21.2313 20.3314 21.5314 20.0314C21.8314 19.7313 22 19.3243 22 18.9V15.6C22 15.1757 21.8314 14.7687 21.5314 14.4686C21.2313 14.1686 20.8243 14 20.4 14H16ZM8 14H4V18.5H8V14ZM16 18.5H20V16H16V18.5Z"
        fill="#F7B39D" />
    <path fill-rule="evenodd" clip-rule="evenodd"
        d="M8 4.5C8 3.94772 8.44772 3.5 9 3.5H15C15.5523 3.5 16 3.94772 16 4.5C16 5.05228 15.5523 5.5 15 5.5H9C8.44772 5.5 8 5.05228 8 4.5ZM10 9.5V18.5H14V9.5H10ZM16 14V9.1C16 8.67566 15.8314 8.26869 15.5314 7.96863C15.2313 7.66857 14.8243 7.5 14.4 7.5H9.6C9.17566 7.5 8.76869 7.66857 8.46863 7.96863C8.16857 8.26869 8 8.67566 8 9.1V12H3.6C3.17566 12 2.76869 12.1686 2.46863 12.4686C2.16857 12.7687 2 13.1757 2 13.6V18.9C2 19.3243 2.16857 19.7313 2.46863 20.0314C2.76869 20.3314 3.17566 20.5 3.6 20.5H20.4C20.8243 20.5 21.2313 20.3314 21.5314 20.0314C21.8314 19.7313 22 19.3243 22 18.9V15.6C22 15.1757 21.8314 14.7687 21.5314 14.4686C21.2313 14.1686 20.8243 14 20.4 14H16ZM8 14H4V18.5H8V14ZM16 18.5H20V16H16V18.5Z"
        fill="url(#paint0_linear_2620_27731)" />
    <defs>
        <linearGradient id="paint0_linear_2620_27731" x1="12" y1="3.5" x2="12" y2="20.5" gradientUnits="userSpaceOnUse">
            <stop stop-color="#FAC8BD" />
            <stop offset="1" stop-color="#F38967" />
        </linearGradient>
    </defs>
</svg>