<svg width="12" height="15" viewBox="0 0 12 15" fill="none" xmlns="http://www.w3.org/2000/svg">
<g id="material-symbols:lock">
<g id="Vector" filter="url(#filter0_b_999_4684)">
<path d="M3 13C2.725 13 2.4895 12.902 2.2935 12.706C2.0975 12.51 1.99967 12.2747 2 12V7C2 6.725 2.098 6.4895 2.294 6.2935C2.49 6.0975 2.72533 5.99967 3 6H3.5V5C3.5 4.30833 3.74383 3.71867 4.2315 3.231C4.71917 2.74333 5.30867 2.49967 6 2.5C6.69167 2.5 7.28133 2.74383 7.769 3.2315C8.25667 3.71917 8.50033 4.30867 8.5 5V6H9C9.275 6 9.5105 6.098 9.7065 6.294C9.9025 6.49 10.0003 6.72533 10 7V12C10 12.275 9.902 12.5105 9.706 12.7065C9.51 12.9025 9.27467 13.0003 9 13H3ZM6 10.5C6.275 10.5 6.5105 10.402 6.7065 10.206C6.9025 10.01 7.00033 9.77467 7 9.5C7 9.225 6.902 8.9895 6.706 8.7935C6.51 8.5975 6.27467 8.49967 6 8.5C5.725 8.5 5.4895 8.598 5.2935 8.794C5.0975 8.99 4.99967 9.22533 5 9.5C5 9.775 5.098 10.0105 5.294 10.2065C5.49 10.4025 5.72533 10.5003 6 10.5ZM4.5 6H7.5V5C7.5 4.58333 7.35417 4.22917 7.0625 3.9375C6.77083 3.64583 6.41667 3.5 6 3.5C5.58333 3.5 5.22917 3.64583 4.9375 3.9375C4.64583 4.22917 4.5 4.58333 4.5 5V6Z" fill="white" fill-opacity="0.36"/>
<path d="M3 14C2.45742 14 1.96825 13.795 1.58639 13.4131C1.20467 13.0314 0.99953 12.5423 1 11.9995M3 14L6 1.5C5.04421 1.49966 4.20011 1.84818 3.52439 2.52389C2.84858 3.19971 2.5 4.04398 2.5 5V5.06117C2.1571 5.1481 1.84705 5.32624 1.58689 5.58639C1.20503 5.96825 1 6.45742 1 7V11.9995M3 14L8.99879 14C8.99911 14 8.99943 14 8.99975 14C8.99983 14 8.99992 14 9 14C9.54255 14.0004 10.0315 13.7952 10.4131 13.4136C10.795 13.0317 11 12.5426 11 12L11 7.00122C11 7.0009 11 7.00057 11 7.00025C11 7.00017 11 7.00008 11 7C11.0004 6.45745 10.7952 5.9685 10.4136 5.58689C10.1533 5.32655 9.84303 5.14839 9.5 5.06137V5.00048C9.5 5.00032 9.5 5.00016 9.5 5C9.50034 4.0442 9.15183 3.20011 8.47611 2.52439C7.80041 1.84869 6.9563 1.50012 6.00048 1.5L3 14ZM1 11.9995C1 11.9993 1 11.999 1 11.9988L2 12H1V11.9995ZM6.5 5H5.5C5.5 4.84552 5.54261 4.74661 5.64461 4.64461C5.74661 4.54261 5.84552 4.5 6 4.5C6.15448 4.5 6.25339 4.54261 6.35539 4.64461C6.4574 4.74661 6.5 4.84552 6.5 5Z" stroke="black" stroke-width="2"/>
</g>
</g>
<defs>
<filter id="filter0_b_999_4684" x="-12" y="-11.5" width="36" height="38.5" filterUnits="userSpaceOnUse" color-interpolation-filters="sRGB">
<feFlood flood-opacity="0" result="BackgroundImageFix"/>
<feGaussianBlur in="BackgroundImageFix" stdDeviation="6"/>
<feComposite in2="SourceAlpha" operator="in" result="effect1_backgroundBlur_999_4684"/>
<feBlend mode="normal" in="SourceGraphic" in2="effect1_backgroundBlur_999_4684" result="shape"/>
</filter>
</defs>
</svg>
