<svg width="18" height="18" viewBox="0 0 18 18" fill="none" xmlns="http://www.w3.org/2000/svg">
    <path
        d="M14.6445 6.11175C14.4232 5.9745 14.1465 5.96325 13.9147 6.07875L12 7.0365V6C12 5.172 11.3273 4.5 10.5 4.5H3.75C2.92275 4.5 2.25 5.172 2.25 6V12C2.25 12.828 2.92275 13.5 3.75 13.5H10.5C11.3273 13.5 12 12.828 12 12V10.9635L13.9147 11.9205C14.0205 11.973 14.1353 11.9993 14.25 11.9993C14.3872 11.9993 14.5237 11.961 14.6445 11.8875C14.865 11.751 15 11.5103 15 11.25V6.75C15 6.48975 14.865 6.249 14.6445 6.11175ZM10.4977 12H3.75V6H10.5L10.4977 12ZM13.5 10.0365L12 9.2865V8.7135L13.5 7.9635V10.0365Z"
        fill="white" />
</svg>
    