<svg width="18" height="18" viewBox="0 0 18 18" fill="none" xmlns="http://www.w3.org/2000/svg">
    <path fill-rule="evenodd" clip-rule="evenodd"
        d="M14.8514 8.3455C14.5504 5.61605 12.3838 3.4495 9.65435 3.14841V1.80005H8.34526V3.14841C5.6158 3.4495 3.44926 5.61605 3.14817 8.3455H1.7998V9.65459H3.14817C3.44926 12.384 5.6158 14.5506 8.34526 14.8517V16.2H9.65435V14.8517C12.3838 14.5506 14.5504 12.384 14.8514 9.65459H16.1998V8.3455H14.8514ZM8.99978 6.38187C7.55323 6.38187 6.3816 7.55351 6.3816 9.00006C6.3816 10.4466 7.55323 11.6182 8.99978 11.6182C10.4463 11.6182 11.618 10.4466 11.618 9.00006C11.618 7.55351 10.4463 6.38187 8.99978 6.38187ZM4.41797 9.00005C4.41797 11.5331 6.4667 13.5819 8.99979 13.5819C11.5329 13.5819 13.5816 11.5331 13.5816 9.00005C13.5816 6.46696 11.5329 4.41823 8.99979 4.41823C6.4667 4.41823 4.41797 6.46696 4.41797 9.00005Z"
        fill="white" />
</svg>