<svg width="18" height="19" viewBox="0 0 18 19" fill="none" xmlns="http://www.w3.org/2000/svg">
<g opacity="0.54">
<path d="M9.35616 15.1663H2.21383C1.92956 15.1663 1.67244 14.9977 1.55959 14.7377C1.44603 14.477 1.49745 14.1742 1.69101 13.9663L3.33803 12.1922C2.60023 11.1608 2.21383 9.97736 2.21383 8.73816C2.21383 5.19342 5.41788 2.31006 9.35616 2.31006C13.2944 2.31006 16.4985 5.19342 16.4985 8.73816C16.4985 12.2829 13.2944 15.1663 9.35616 15.1663ZM3.85157 13.7378H9.35616C12.5066 13.7378 15.07 11.4951 15.07 8.73816C15.07 5.98193 12.5066 3.73853 9.35616 3.73853C6.20568 3.73853 3.6423 5.98193 3.6423 8.73816C3.6423 9.83594 4.04798 10.8809 4.81507 11.7608C5.05505 12.0365 5.04862 12.4486 4.80007 12.7164L3.85157 13.7378Z" fill="white"/>
</g>
</svg>
