<svg width="24" height="24" viewBox="0 0 24 24" fill="none" xmlns="http://www.w3.org/2000/svg">
<path fill-rule="evenodd" clip-rule="evenodd" d="M6 2H20C20.553 2 21 2.448 21 3V21C21 21.552 20.553 22 20 22H6C5.447 22 5 21.552 5 21V19H3V17H5V15H3V13H5V11H3V9H5V7H3V5H5V3C5 2.448 5.447 2 6 2ZM7 19V20H19V4H7V5H8V7H7V9H8V11H7V13H8V15H7V17H8V19H7ZM12 15.586L12.892 14.694C11.764 14.059 11 12.471 11 10.5C11 7.935 12.289 6 14 6C15.711 6 17 7.935 17 10.5C17 12.471 16.236 14.059 15.108 14.693L15.9999 15.5849C16.3904 15.9754 16.3904 16.6086 15.9999 16.9991C15.6094 17.3896 14.9764 17.3897 14.5859 16.9994L14 16.414L13.414 17C13.0235 17.3905 12.3905 17.3905 12 17C11.6095 16.6095 11.6095 15.9765 12 15.586ZM15 9C15 8.447 14.553 8 14 8C13.447 8 13 8.447 13 9C13 9.552 13.447 10 14 10C14.553 10 15 9.552 15 9Z" fill="black"/>
</svg>
