<svg width="19" height="19" viewBox="0 0 19 19" fill="none" xmlns="http://www.w3.org/2000/svg">
<path d="M9.56954 15.5437H2.42721C2.14294 15.5437 1.88582 15.3751 1.77297 15.1152C1.65941 14.8545 1.71083 14.5516 1.90439 14.3438L3.55141 12.5696C2.81361 11.5383 2.42721 10.3548 2.42721 9.1156C2.42721 5.57086 5.63126 2.6875 9.56954 2.6875C13.5078 2.6875 16.7119 5.57086 16.7119 9.1156C16.7119 12.6603 13.5078 15.5437 9.56954 15.5437ZM4.06495 14.1152H9.56954C12.72 14.1152 15.2834 11.8725 15.2834 9.1156C15.2834 6.35937 12.72 4.11597 9.56954 4.11597C6.41906 4.11597 3.85568 6.35937 3.85568 9.1156C3.85568 10.2134 4.26136 11.2583 5.02845 12.1382C5.26843 12.4139 5.262 12.826 5.01345 13.0939L4.06495 14.1152Z" fill="white" fill-opacity="0.54"/>
</svg>
