<svg width="18" height="19" viewBox="0 0 18 19" fill="none" xmlns="http://www.w3.org/2000/svg">
<g clip-path="url(#clip0_14749_134855)">
<path fill-rule="evenodd" clip-rule="evenodd" d="M3 6.1875C3 5.19294 3.39509 4.23911 4.09835 3.53585C4.80161 2.83259 5.75544 2.4375 6.75 2.4375H11.25C12.2446 2.4375 13.1984 2.83259 13.9017 3.53585C14.6049 4.23911 15 5.19294 15 6.1875V10.6875C15 11.6821 14.6049 12.6359 13.9017 13.3392C13.1984 14.0424 12.2446 14.4375 11.25 14.4375H9.75V15.9375H11.25C11.4489 15.9375 11.6397 16.0165 11.7803 16.1572C11.921 16.2978 12 16.4886 12 16.6875C12 16.8864 11.921 17.0772 11.7803 17.2178C11.6397 17.3585 11.4489 17.4375 11.25 17.4375H6.75C6.55109 17.4375 6.36032 17.3585 6.21967 17.2178C6.07902 17.0772 6 16.8864 6 16.6875C6 16.4886 6.07902 16.2978 6.21967 16.1572C6.36032 16.0165 6.55109 15.9375 6.75 15.9375H8.25V14.4375H6.75C5.75544 14.4375 4.80161 14.0424 4.09835 13.3392C3.39509 12.6359 3 11.6821 3 10.6875V6.1875ZM9 12.9375H11.25C11.8467 12.9375 12.419 12.7004 12.841 12.2785C13.2629 11.8565 13.5 11.2842 13.5 10.6875H11.25C11.0511 10.6875 10.8603 10.6085 10.7197 10.4678C10.579 10.3272 10.5 10.1364 10.5 9.9375C10.5 9.73859 10.579 9.54782 10.7197 9.40717C10.8603 9.26652 11.0511 9.1875 11.25 9.1875H13.5V7.6875H11.25C11.0511 7.6875 10.8603 7.60848 10.7197 7.46783C10.579 7.32718 10.5 7.13641 10.5 6.9375C10.5 6.73859 10.579 6.54782 10.7197 6.40717C10.8603 6.26652 11.0511 6.1875 11.25 6.1875H13.5C13.5 5.59076 13.2629 5.01847 12.841 4.59651C12.419 4.17455 11.8467 3.9375 11.25 3.9375H6.75C6.15326 3.9375 5.58097 4.17455 5.15901 4.59651C4.73705 5.01847 4.5 5.59076 4.5 6.1875H6.75C6.94891 6.1875 7.13968 6.26652 7.28033 6.40717C7.42098 6.54782 7.5 6.73859 7.5 6.9375C7.5 7.13641 7.42098 7.32718 7.28033 7.46783C7.13968 7.60848 6.94891 7.6875 6.75 7.6875H4.5V9.1875H6.75C6.94891 9.1875 7.13968 9.26652 7.28033 9.40717C7.42098 9.54782 7.5 9.73859 7.5 9.9375C7.5 10.1364 7.42098 10.3272 7.28033 10.4678C7.13968 10.6085 6.94891 10.6875 6.75 10.6875H4.5C4.5 11.2842 4.73705 11.8565 5.15901 12.2785C5.58097 12.7004 6.15326 12.9375 6.75 12.9375H9Z" fill="white" fill-opacity="1"/>
</g>
<defs>
<clipPath id="clip0_14749_134855">
<rect width="18" height="18" fill="white" transform="translate(0 0.9375)"/>
</clipPath>
</defs>
</svg>
