<svg width="25" height="24" viewBox="0 0 25 24" fill="none" xmlns="http://www.w3.org/2000/svg">
    <path
        d="M21.6111 6.86383C21.963 7.21572 21.963 7.78541 21.6111 8.1364C21.0675 8.67998 21.0675 9.92105 21.6102 10.4637C21.9621 10.8156 21.9621 11.3853 21.6102 11.7363L20.6009 12.7456C20.3433 12.1866 19.9188 11.7205 19.3913 11.4109L19.8021 11.0001C19.2639 9.97145 19.2639 8.62868 19.8021 7.60001L17.2741 5.07197C16.276 5.59306 14.873 5.59306 13.8749 5.07197L5.94697 12.9999C6.48516 14.0285 6.48516 15.3713 5.94697 16.4L8.47501 18.9271C9.47309 18.4069 10.8762 18.4069 11.8742 18.9271L12.2856 18.5158C12.5952 19.0435 13.0615 19.4682 13.6206 19.7259L12.6104 20.7361C12.4349 20.9116 12.2036 20.9998 11.9741 20.9998C11.7446 20.9998 11.5142 20.9116 11.3387 20.7361C10.824 20.2213 9.52618 20.2213 9.0114 20.7361C8.65951 21.088 8.09072 21.088 7.73883 20.7361L4.13892 17.1362C3.78703 16.7843 3.78703 16.2155 4.13892 15.8636C4.6825 15.3209 4.6825 14.0798 4.13892 13.5363C3.78703 13.1844 3.78703 12.6156 4.13892 12.2637L13.1387 3.26392C13.4906 2.91203 14.0594 2.91203 14.4113 3.26392C14.926 3.77871 16.2238 3.77871 16.7386 3.26392C17.0905 2.91203 17.6593 2.91203 18.0112 3.26392L21.6111 6.86383Z"
        fill="url(#paint0_linear_10188_77689)" />
    <path fill-rule="evenodd" clip-rule="evenodd"
        d="M18.0103 10.8363L17.8465 11.0001C16.2123 11.0154 14.8904 12.3373 14.8751 13.9715L14.8465 14.0001C13.2123 14.0154 11.8904 15.3373 11.8751 16.9715L11.7104 17.1362C11.5349 17.3117 11.3036 17.3999 11.0741 17.3999C10.8447 17.3999 10.6143 17.3117 10.4388 17.1362L7.73883 14.4362C7.38694 14.0843 7.38694 13.5156 7.73883 13.1637L14.0387 6.86383C14.3906 6.51194 14.9593 6.51194 15.3112 6.86383L18.0103 9.56376C18.3622 9.91565 18.3622 10.4853 18.0103 10.8363ZM9.64768 13.8L11.0741 15.2273L13.4015 12.9L11.9741 11.4726L9.64768 13.8ZM13.2476 10.2L14.6741 11.6274L16.1014 10.2L14.6741 8.77268L13.2476 10.2Z"
        fill="url(#paint1_linear_10188_77689)" />
    <path
        d="M18.875 14C18.875 13.4477 18.4273 13 17.875 13C17.3227 13 16.875 13.4477 16.875 14V16H14.875C14.3227 16 13.875 16.4477 13.875 17C13.875 17.5523 14.3227 18 14.875 18H16.875V20C16.875 20.5523 17.3227 21 17.875 21C18.4273 21 18.875 20.5523 18.875 20V18H20.875C21.4273 18 21.875 17.5523 21.875 17C21.875 16.4477 21.4273 16 20.875 16H18.875V14Z"
        fill="url(#paint2_linear_10188_77689)" />
    <defs>
        <linearGradient id="paint0_linear_10188_77689" x1="12.875" y1="3" x2="12.875" y2="21"
            gradientUnits="userSpaceOnUse">
            <stop stop-color="#D8BAFC" />
            <stop offset="1" stop-color="#BA84FD" />
        </linearGradient>
        <linearGradient id="paint1_linear_10188_77689" x1="12.875" y1="3" x2="12.875" y2="21"
            gradientUnits="userSpaceOnUse">
            <stop stop-color="#D8BAFC" />
            <stop offset="1" stop-color="#BA84FD" />
        </linearGradient>
        <linearGradient id="paint2_linear_10188_77689" x1="12.875" y1="3" x2="12.875" y2="21"
            gradientUnits="userSpaceOnUse">
            <stop stop-color="#D8BAFC" />
            <stop offset="1" stop-color="#BA84FD" />
        </linearGradient>
    </defs>
</svg>
    