<svg width="30" height="22" viewBox="0 0 30 22" fill="none" xmlns="http://www.w3.org/2000/svg">
    <g clip-path="url(#clip0_3296_27405)">
        <path d="M18.0921 5.42871H11.8916V16.5712H18.0921V5.42871Z" fill="#FF5F00" />
        <path
            d="M12.2852 10.9999C12.2843 9.92676 12.5274 8.8675 12.9963 7.90227C13.4653 6.93705 14.1476 6.09115 14.9918 5.42863C13.9464 4.60694 12.6909 4.09594 11.3689 3.95405C10.0468 3.81215 8.71152 4.04507 7.51558 4.62619C6.31965 5.20732 5.31133 6.1132 4.6059 7.2403C3.90046 8.36739 3.52637 9.67021 3.52637 10.9999C3.52637 12.3295 3.90046 13.6323 4.6059 14.7594C5.31133 15.8865 6.31965 16.7924 7.51558 17.3735C8.71152 17.9547 10.0468 18.1876 11.3689 18.0457C12.6909 17.9038 13.9464 17.3928 14.9918 16.5711C14.1476 15.9086 13.4653 15.0627 12.9964 14.0974C12.5274 13.1322 12.2843 12.073 12.2852 10.9999Z"
            fill="#EB001B" />
        <path
            d="M26.4573 10.9999C26.4573 12.3295 26.0832 13.6323 25.3779 14.7594C24.6725 15.8865 23.6642 16.7924 22.4683 17.3735C21.2723 17.9546 19.9371 18.1876 18.615 18.0457C17.293 17.9038 16.0375 17.3928 14.9922 16.5711C15.8356 15.9079 16.5174 15.0619 16.9863 14.0968C17.4551 13.1317 17.6987 12.0728 17.6987 10.9999C17.6987 9.92693 17.4551 8.868 16.9863 7.90293C16.5174 6.93785 15.8356 6.09182 14.9922 5.42862C16.0375 4.60694 17.293 4.09594 18.615 3.95404C19.9371 3.81215 21.2723 4.04508 22.4683 4.62621C23.6642 5.20734 24.6725 6.11323 25.3779 7.24032C26.0832 8.36741 26.4573 9.67023 26.4573 10.9999Z"
            fill="#F79E1B" />
        <path
            d="M25.781 15.3908V15.1627H25.8729V15.1162H25.6387V15.1627H25.7307V15.3908H25.781ZM26.2357 15.3908V15.1157H26.1639L26.0814 15.3049L25.9987 15.1157H25.9269V15.3908H25.9776V15.1833L26.055 15.3622H26.1076L26.1851 15.1828V15.3908H26.2357Z"
            fill="#F79E1B" />
    </g>
    <defs>
        <clipPath id="clip0_3296_27405">
            <rect width="30" height="21.2589" fill="white" transform="translate(0 0.370605)" />
        </clipPath>
    </defs>
</svg>