<svg width="14" height="16" viewBox="0 0 14 16" fill="none" xmlns="http://www.w3.org/2000/svg">
<path d="M7 2C6.40326 2 5.83097 2.23705 5.40901 2.65901C4.98705 3.08097 4.75 3.65326 4.75 4.25V8.75C4.75 9.34674 4.98705 9.91903 5.40901 10.341C5.83097 10.7629 6.40326 11 7 11C7.59674 11 8.16903 10.7629 8.59099 10.341C9.01295 9.91903 9.25 9.34674 9.25 8.75V4.25C9.25 3.65326 9.01295 3.08097 8.59099 2.65901C8.16903 2.23705 7.59674 2 7 2ZM7 0.5C7.49246 0.5 7.98009 0.596997 8.43506 0.785452C8.89003 0.973907 9.30343 1.25013 9.65165 1.59835C9.99987 1.94657 10.2761 2.35997 10.4645 2.81494C10.653 3.26991 10.75 3.75754 10.75 4.25V8.75C10.75 9.74456 10.3549 10.6984 9.65165 11.4017C8.94839 12.1049 7.99456 12.5 7 12.5C6.00544 12.5 5.05161 12.1049 4.34835 11.4017C3.64509 10.6984 3.25 9.74456 3.25 8.75V4.25C3.25 3.25544 3.64509 2.30161 4.34835 1.59835C5.05161 0.895088 6.00544 0.5 7 0.5ZM0.25 8.7725C0.25 8.57359 0.329018 8.38282 0.46967 8.24217C0.610322 8.10152 0.801088 8.0225 1 8.0225C1.19891 8.0225 1.38968 8.10152 1.53033 8.24217C1.67098 8.38282 1.75 8.57359 1.75 8.7725C1.75 10.1589 2.30075 11.4886 3.2811 12.4689C4.26145 13.4492 5.59108 14 6.9775 14H7.0225C8.40892 14 9.73855 13.4492 10.7189 12.4689C11.6992 11.4886 12.25 10.1589 12.25 8.7725C12.25 8.57359 12.329 8.38282 12.4697 8.24217C12.6103 8.10152 12.8011 8.0225 13 8.0225C13.1989 8.0225 13.3897 8.10152 13.5303 8.24217C13.671 8.38282 13.75 8.57359 13.75 8.7725C13.75 10.5567 13.0412 12.2679 11.7796 13.5296C10.5179 14.7912 8.80674 15.5 7.0225 15.5H6.9775C5.19326 15.5 3.48209 14.7912 2.22044 13.5296C0.958788 12.2679 0.25 10.5567 0.25 8.7725Z" fill="white"/>
</svg>
