<svg width="18" height="19" viewBox="0 0 18 19" fill="none" xmlns="http://www.w3.org/2000/svg">
    <path
        d="M12.2625 12.7421L14.925 10.0796C15.075 9.92963 15.25 9.85763 15.45 9.86363C15.65 9.86963 15.825 9.94788 15.975 10.0984C16.1125 10.2484 16.1813 10.4234 16.1813 10.6234C16.1813 10.8234 16.1125 10.9984 15.975 11.1484L12.8063 14.3359C12.6563 14.4859 12.4813 14.5609 12.2813 14.5609C12.0813 14.5609 11.9063 14.4859 11.7563 14.3359L10.1438 12.7234C10.0063 12.5859 9.9375 12.4109 9.9375 12.1984C9.9375 11.9859 10.0063 11.8109 10.1438 11.6734C10.2813 11.5359 10.4563 11.4671 10.6688 11.4671C10.8813 11.4671 11.0563 11.5359 11.1938 11.6734L12.2625 12.7421ZM12.2625 6.74213L14.925 4.07963C15.075 3.92963 15.25 3.85763 15.45 3.86363C15.65 3.86963 15.825 3.94788 15.975 4.09838C16.1125 4.24838 16.1813 4.42338 16.1813 4.62338C16.1813 4.82338 16.1125 4.99838 15.975 5.14838L12.8063 8.33588C12.6563 8.48588 12.4813 8.56088 12.2813 8.56088C12.0813 8.56088 11.9063 8.48588 11.7563 8.33588L10.1438 6.72338C10.0063 6.58588 9.9375 6.41088 9.9375 6.19838C9.9375 5.98588 10.0063 5.81088 10.1438 5.67338C10.2813 5.53588 10.4563 5.46713 10.6688 5.46713C10.8813 5.46713 11.0563 5.53588 11.1938 5.67338L12.2625 6.74213ZM2.25 13.3609C2.0375 13.3609 1.8595 13.2889 1.716 13.1449C1.5725 13.0009 1.5005 12.8229 1.5 12.6109C1.4995 12.3989 1.5715 12.2209 1.716 12.0769C1.8605 11.9329 2.0385 11.8609 2.25 11.8609H7.5C7.7125 11.8609 7.89075 11.9329 8.03475 12.0769C8.17875 12.2209 8.2505 12.3989 8.25 12.6109C8.2495 12.8229 8.1775 13.0011 8.034 13.1456C7.8905 13.2901 7.7125 13.3619 7.5 13.3609H2.25ZM2.25 7.36088C2.0375 7.36088 1.8595 7.28888 1.716 7.14488C1.5725 7.00088 1.5005 6.82288 1.5 6.61088C1.4995 6.39888 1.5715 6.22088 1.716 6.07688C1.8605 5.93288 2.0385 5.86088 2.25 5.86088H7.5C7.7125 5.86088 7.89075 5.93288 8.03475 6.07688C8.17875 6.22088 8.2505 6.39888 8.25 6.61088C8.2495 6.82288 8.1775 7.00113 8.034 7.14563C7.8905 7.29013 7.7125 7.36188 7.5 7.36088H2.25Z"
        fill="white" />
</svg>