<svg width="42" height="42" viewBox="0 0 42 42" fill="none" xmlns="http://www.w3.org/2000/svg">
<rect width="42" height="42" rx="21" fill="#C69DF7" fill-opacity="0.24"/>
<g opacity="0.87">
<path fill-rule="evenodd" clip-rule="evenodd" d="M23.2637 15.1413L28.2391 16.1759C29.2124 16.3799 29.8423 17.352 29.6431 18.3453L27.4821 29.147C27.2821 30.1412 26.3205 30.7844 25.3544 30.5804L18.291 29.1103C17.9865 29.0469 17.7206 28.9008 17.498 28.7097C17.4761 28.7136 17.4543 28.718 17.4327 28.7224L17.4325 28.7224C17.3678 28.7354 17.3039 28.7483 17.2385 28.7483C16.4842 28.7483 15.7993 28.2034 15.5668 27.4086L12.4758 16.8421C12.3379 16.3725 12.3893 15.8764 12.6191 15.4436C12.8489 15.0108 13.2283 14.6957 13.6879 14.556L20.5971 12.4556C21.5497 12.1643 22.5563 12.7211 22.8393 13.6923L23.2637 15.1413ZM21.1126 14.216L14.2042 16.3174L17.0591 26.0791L19.048 16.1391C19.2328 15.2203 20.1294 14.4889 21.2604 14.7241L21.1126 14.216ZM25.7131 28.7795L18.6515 27.3094L20.8143 16.5067L27.8777 17.9768L25.7131 28.7795ZM23.3406 22.3092C24.0148 22.4446 24.6711 22.0078 24.8065 21.3336C24.9419 20.6595 24.5052 20.0031 23.831 19.8677C23.1568 19.7323 22.5005 20.1691 22.3651 20.8433C22.2297 21.5175 22.6664 22.1738 23.3406 22.3092ZM23.218 22.9196C22.1612 22.7073 21.3468 23.1953 21.066 24.1884C21.0359 24.2947 21.107 24.4006 21.2153 24.4223L24.4853 25.0791C24.5936 25.1008 24.7 25.0306 24.7133 24.9209C24.8377 23.8964 24.2749 23.1318 23.218 22.9196Z" fill="#C69DF7"/>
</g>
</svg>
