<svg width="36" height="36" viewBox="0 0 36 36" fill="none" xmlns="http://www.w3.org/2000/svg">
    <path d="M34.051 1.4707L20.1133 11.8225L22.6907 5.71506L34.051 1.4707Z" fill="#E2761B" stroke="#E2761B"
        stroke-width="0.164797" stroke-linecap="round" stroke-linejoin="round" />
    <path d="M1.88086 1.4707L15.7065 11.9205L13.2552 5.71506L1.88086 1.4707Z" fill="#E4761B" stroke="#E4761B"
        stroke-width="0.164797" stroke-linecap="round" stroke-linejoin="round" />
    <path d="M29.0382 25.4668L25.3262 31.154L33.2686 33.3392L35.5518 25.5929L29.0382 25.4668Z" fill="#E4761B"
        stroke="#E4761B" stroke-width="0.164797" stroke-linecap="round" stroke-linejoin="round" />
    <path d="M0.408203 25.5929L2.67746 33.3392L10.6199 31.154L6.90781 25.4668L0.408203 25.5929Z" fill="#E4761B"
        stroke="#E4761B" stroke-width="0.164797" stroke-linecap="round" stroke-linejoin="round" />
    <path d="M10.1722 15.8567L7.95898 19.2046L15.8454 19.5548L15.5652 11.0801L10.1722 15.8567Z" fill="#E4761B"
        stroke="#E4761B" stroke-width="0.164797" stroke-linecap="round" stroke-linejoin="round" />
    <path d="M25.7643 15.8571L20.3012 10.9824L20.1191 19.5552L27.9915 19.205L25.7643 15.8571Z" fill="#E4761B"
        stroke="#E4761B" stroke-width="0.164797" stroke-linecap="round" stroke-linejoin="round" />
    <path d="M10.6172 31.1535L15.3518 28.8422L11.2615 25.6484L10.6172 31.1535Z" fill="#E4761B" stroke="#E4761B"
        stroke-width="0.164797" stroke-linecap="round" stroke-linejoin="round" />
    <path d="M20.5781 28.8422L25.3268 31.1535L24.6684 25.6484L20.5781 28.8422Z" fill="#E4761B" stroke="#E4761B"
        stroke-width="0.164797" stroke-linecap="round" stroke-linejoin="round" />
    <path d="M25.3268 31.1531L20.5781 28.8418L20.9563 31.9375L20.9143 33.2402L25.3268 31.1531Z" fill="#D7C1B3"
        stroke="#D7C1B3" stroke-width="0.164797" stroke-linecap="round" stroke-linejoin="round" />
    <path d="M10.6172 31.1531L15.0296 33.2402L15.0016 31.9375L15.3518 28.8418L10.6172 31.1531Z" fill="#D7C1B3"
        stroke="#D7C1B3" stroke-width="0.164797" stroke-linecap="round" stroke-linejoin="round" />
    <path d="M15.1025 23.6034L11.1523 22.4407L13.9399 21.166L15.1025 23.6034Z" fill="#233447" stroke="#233447"
        stroke-width="0.164797" stroke-linecap="round" stroke-linejoin="round" />
    <path d="M20.832 23.6034L21.9947 21.166L24.7962 22.4407L20.832 23.6034Z" fill="#233447" stroke="#233447"
        stroke-width="0.164797" stroke-linecap="round" stroke-linejoin="round" />
    <path d="M10.6164 31.154L11.2887 25.4668L6.9043 25.5929L10.6164 31.154Z" fill="#CD6116" stroke="#CD6116"
        stroke-width="0.164797" stroke-linecap="round" stroke-linejoin="round" />
    <path d="M24.6504 25.4668L25.3228 31.154L29.0348 25.5929L24.6504 25.4668Z" fill="#CD6116" stroke="#CD6116"
        stroke-width="0.164797" stroke-linecap="round" stroke-linejoin="round" />
    <path d="M27.9857 19.2051L20.1133 19.5553L20.8417 23.6035L22.0043 21.1662L24.8059 22.4409L27.9857 19.2051Z"
        fill="#CD6116" stroke="#CD6116" stroke-width="0.164797" stroke-linecap="round" stroke-linejoin="round" />
    <path d="M11.1489 22.4409L13.9504 21.1662L15.099 23.6035L15.8415 19.5553L7.95508 19.2051L11.1489 22.4409Z"
        fill="#CD6116" stroke="#CD6116" stroke-width="0.164797" stroke-linecap="round" stroke-linejoin="round" />
    <path d="M7.95508 19.2051L11.2609 25.6487L11.1489 22.4409L7.95508 19.2051Z" fill="#E4751F" stroke="#E4751F"
        stroke-width="0.164797" stroke-linecap="round" stroke-linejoin="round" />
    <path d="M24.8061 22.4409L24.666 25.6487L27.9859 19.2051L24.8061 22.4409Z" fill="#E4751F" stroke="#E4751F"
        stroke-width="0.164797" stroke-linecap="round" stroke-linejoin="round" />
    <path d="M15.842 19.5547L15.0996 23.6029L16.0241 28.3796L16.2342 22.0901L15.842 19.5547Z" fill="#E4751F"
        stroke="#E4751F" stroke-width="0.164797" stroke-linecap="round" stroke-linejoin="round" />
    <path d="M20.1126 19.5547L19.7344 22.0761L19.9025 28.3796L20.841 23.6029L20.1126 19.5547Z" fill="#E4751F"
        stroke="#E4751F" stroke-width="0.164797" stroke-linecap="round" stroke-linejoin="round" />
    <path d="M20.8409 23.6021L19.9023 28.3788L20.5747 28.841L24.665 25.6472L24.8051 22.4395L20.8409 23.6021Z"
        fill="#F6851B" stroke="#F6851B" stroke-width="0.164797" stroke-linecap="round" stroke-linejoin="round" />
    <path d="M11.1523 22.4395L11.2644 25.6472L15.3547 28.841L16.0271 28.3788L15.1025 23.6021L11.1523 22.4395Z"
        fill="#F6851B" stroke="#F6851B" stroke-width="0.164797" stroke-linecap="round" stroke-linejoin="round" />
    <path
        d="M20.9129 33.2395L20.9549 31.9368L20.6047 31.6286H15.3238L15.0016 31.9368L15.0296 33.2395L10.6172 31.1523L12.158 32.413L15.2818 34.5842H20.6468L23.7845 32.413L25.3254 31.1523L20.9129 33.2395Z"
        fill="#C0AD9E" stroke="#C0AD9E" stroke-width="0.164797" stroke-linecap="round" stroke-linejoin="round" />
    <path
        d="M20.5751 28.8412L19.9027 28.3789H16.0226L15.3502 28.8412L15 31.9369L15.3222 31.6287H20.6031L20.9533 31.9369L20.5751 28.8412Z"
        fill="#161616" stroke="#161616" stroke-width="0.164797" stroke-linecap="round" stroke-linejoin="round" />
    <path
        d="M34.6419 12.4948L35.8326 6.77965L34.0536 1.4707L20.5781 11.4723L25.761 15.8567L33.0871 17.9999L34.712 16.1088L34.0116 15.6046L35.1322 14.582L34.2637 13.9096L35.3844 13.0551L34.6419 12.4948Z"
        fill="#763D16" stroke="#763D16" stroke-width="0.164797" stroke-linecap="round" stroke-linejoin="round" />
    <path
        d="M0.113281 6.77965L1.30394 12.4948L0.547523 13.0551L1.66815 13.9096L0.81367 14.582L1.93429 15.6046L1.2339 16.1088L2.8448 17.9999L10.1709 15.8567L15.3537 11.4723L1.87826 1.4707L0.113281 6.77965Z"
        fill="#763D16" stroke="#763D16" stroke-width="0.164797" stroke-linecap="round" stroke-linejoin="round" />
    <path d="M33.0847 18.0006L25.7586 15.8574L27.9859 19.2053L24.666 25.6489L29.0364 25.5928H35.5501L33.0847 18.0006Z"
        fill="#F6851B" stroke="#F6851B" stroke-width="0.164797" stroke-linecap="round" stroke-linejoin="round" />
    <path d="M10.1716 15.8574L2.84556 18.0006L0.408203 25.5928H6.90781L11.2642 25.6489L7.9584 19.2053L10.1716 15.8574Z"
        fill="#F6851B" stroke="#F6851B" stroke-width="0.164797" stroke-linecap="round" stroke-linejoin="round" />
    <path
        d="M20.1158 19.5545L20.578 11.472L22.7072 5.71484H13.252L15.3531 11.472L15.8434 19.5545L16.0115 22.1039L16.0255 28.3794H19.9057L19.9337 22.1039L20.1158 19.5545Z"
        fill="#F6851B" stroke="#F6851B" stroke-width="0.164797" stroke-linecap="round" stroke-linejoin="round" />
</svg>