<svg width="20" height="20" viewBox="0 0 20 20" fill="none" xmlns="http://www.w3.org/2000/svg">
    <path d="M3.33334 15.8334V14.1667H5.00001V8.33342C5.00001 7.18064 5.34723 6.15647 6.04168 5.26092C6.73612 4.36536 7.6389 3.77841 8.75001 3.50008V1.66675H11.25V3.50008C12.3611 3.77786 13.2639 4.3648 13.9583 5.26092C14.6528 6.15703 15 7.18119 15 8.33342V14.1667H16.6667V15.8334H3.33334ZM10 18.3334C9.54168 18.3334 9.14945 18.1704 8.82334 17.8442C8.49723 17.5181 8.3339 17.1256 8.33334 16.6667H11.6667C11.6667 17.1251 11.5036 17.5176 11.1775 17.8442C10.8514 18.1709 10.4589 18.334 10 18.3334ZM6.66668 14.1667H13.3333V8.33342C13.3333 7.41675 13.007 6.63203 12.3542 5.97925C11.7014 5.32647 10.9167 5.00008 10 5.00008C9.08334 5.00008 8.29862 5.32647 7.64584 5.97925C6.99307 6.63203 6.66668 7.41675 6.66668 8.33342V14.1667Z" fill="white" />
    </svg>
    