<svg width="25" height="24" viewBox="0 0 25 24" fill="none" xmlns="http://www.w3.org/2000/svg">
<path d="M5.49991 19C5.21658 19 4.97891 18.904 4.78691 18.712C4.59491 18.52 4.49924 18.2827 4.49991 18C4.49991 17.7167 4.59591 17.479 4.78791 17.287C4.97991 17.095 5.21724 16.9993 5.49991 17H6.49991V10C6.49991 8.61667 6.91658 7.38734 7.74991 6.312C8.58324 5.23667 9.66658 4.53267 10.9999 4.2V3.5C10.9999 3.08334 11.1459 2.729 11.4379 2.437C11.7299 2.145 12.0839 1.99934 12.4999 2C12.9166 2 13.2709 2.146 13.5629 2.438C13.8549 2.73 14.0006 3.084 13.9999 3.5V4.2C15.3332 4.53334 16.4166 5.23767 17.2499 6.313C18.0832 7.38834 18.4999 8.61734 18.4999 10V17H19.4999C19.7832 17 20.0209 17.096 20.2129 17.288C20.4049 17.48 20.5006 17.7173 20.4999 18C20.4999 18.2833 20.4039 18.521 20.2119 18.713C20.0199 18.905 19.7826 19.0007 19.4999 19H5.49991ZM12.4999 22C11.9499 22 11.4789 21.804 11.0869 21.412C10.6949 21.02 10.4992 20.5493 10.4999 20H14.4999C14.4999 20.55 14.3039 21.021 13.9119 21.413C13.5199 21.805 13.0492 22.0007 12.4999 22ZM8.49991 17H16.4999V10C16.4999 8.9 16.1082 7.95834 15.3249 7.175C14.5416 6.39167 13.5999 6 12.4999 6C11.3999 6 10.4582 6.39167 9.67491 7.175C8.89158 7.95834 8.49991 8.9 8.49991 10V17ZM3.49991 10C3.21658 10 2.97891 9.89167 2.78691 9.675C2.59491 9.45834 2.51591 9.20834 2.54991 8.925C2.68324 7.675 3.03324 6.51234 3.59991 5.437C4.16658 4.36167 4.89158 3.42434 5.77491 2.625C5.99158 2.44167 6.23758 2.35834 6.51291 2.375C6.78824 2.39167 7.00891 2.51667 7.17491 2.75C7.34158 2.98334 7.40824 3.23334 7.37491 3.5C7.34158 3.76667 7.21658 4 6.99991 4.2C6.34991 4.81667 5.81658 5.53334 5.39991 6.35C4.98324 7.16667 4.70824 8.05 4.57491 9C4.54158 9.28334 4.42491 9.521 4.22491 9.713C4.02491 9.905 3.78324 10.0007 3.49991 10ZM21.4999 10C21.2166 10 20.9749 9.904 20.7749 9.712C20.5749 9.52 20.4582 9.28267 20.4249 9C20.2916 8.05 20.0166 7.16667 19.5999 6.35C19.1832 5.53334 18.6499 4.81667 17.9999 4.2C17.7832 4 17.6582 3.76667 17.6249 3.5C17.5916 3.23334 17.6582 2.98334 17.8249 2.75C17.9916 2.51667 18.2126 2.39167 18.4879 2.375C18.7632 2.35834 19.0089 2.44167 19.2249 2.625C20.1082 3.425 20.8332 4.36234 21.3999 5.437C21.9666 6.51167 22.3166 7.67434 22.4499 8.925C22.4832 9.20834 22.4042 9.45834 22.2129 9.675C22.0216 9.89167 21.7839 10 21.4999 10Z" fill="white" fill-opacity="0.54"/>
</svg>
