<svg width="24" height="24" viewBox="0 0 24 24" fill="none" xmlns="http://www.w3.org/2000/svg">
    <path fill-rule="evenodd" clip-rule="evenodd"
        d="M3.13756 3.63756C3.46575 3.30938 3.91087 3.125 4.375 3.125H13.125C13.5891 3.125 14.0342 3.30938 14.3624 3.63756C14.6906 3.96575 14.875 4.41087 14.875 4.875H16.625C17.0891 4.875 17.5342 5.05937 17.8624 5.38756C18.1906 5.71575 18.375 6.16087 18.375 6.625V16.25C18.375 16.9462 18.0984 17.6139 17.6062 18.1062C17.1139 18.5984 16.4462 18.875 15.75 18.875H6.125C5.19674 18.875 4.3065 18.5063 3.65013 17.8499C2.99375 17.1935 2.625 16.3033 2.625 15.375V4.875C2.625 4.41087 2.80938 3.96575 3.13756 3.63756ZM13.2751 17.125H6.125C5.66087 17.125 5.21575 16.9406 4.88756 16.6124C4.55937 16.2842 4.375 15.8391 4.375 15.375L4.375 4.875L13.125 4.875V16.25C13.125 16.5509 13.1767 16.8466 13.2751 17.125ZM14.875 6.625V16.25C14.875 16.4821 14.9672 16.7046 15.1313 16.8687C15.2954 17.0328 15.5179 17.125 15.75 17.125C15.9821 17.125 16.2046 17.0328 16.3687 16.8687C16.5328 16.7046 16.625 16.4821 16.625 16.25V6.625H14.875ZM6.125 7.5C6.125 7.01675 6.51675 6.625 7 6.625H10.5C10.9832 6.625 11.375 7.01675 11.375 7.5C11.375 7.98325 10.9832 8.375 10.5 8.375H7C6.51675 8.375 6.125 7.98325 6.125 7.5ZM6.125 11C6.125 10.5168 6.51675 10.125 7 10.125H10.5C10.9832 10.125 11.375 10.5168 11.375 11C11.375 11.4832 10.9832 11.875 10.5 11.875H7C6.51675 11.875 6.125 11.4832 6.125 11ZM6.125 14.5C6.125 14.0168 6.51675 13.625 7 13.625H10.5C10.9832 13.625 11.375 14.0168 11.375 14.5C11.375 14.9832 10.9832 15.375 10.5 15.375H7C6.51675 15.375 6.125 14.9832 6.125 14.5Z"
        fill="white" />
</svg>