<svg width="20" height="20" viewBox="0 0 20 20" fill="none" xmlns="http://www.w3.org/2000/svg">
<path d="M7.40884 4.14063C6.95425 4.14063 6.58853 4.50635 6.58853 4.96094V15.3516C6.58853 15.6387 6.54068 15.9155 6.44839 16.1719H16.7057C17.1603 16.1719 17.526 15.8062 17.526 15.3516V4.96094C17.526 4.50635 17.1603 4.14063 16.7057 4.14063H7.40884ZM4.12759 17.8125C2.76724 17.8125 1.66666 16.7119 1.66666 15.3516V5.23438C1.66666 4.77979 2.03238 4.41406 2.48697 4.41406C2.94156 4.41406 3.30728 4.77979 3.30728 5.23438V15.3516C3.30728 15.8062 3.673 16.1719 4.12759 16.1719C4.58218 16.1719 4.94791 15.8062 4.94791 15.3516V4.96094C4.94791 3.60059 6.04849 2.5 7.40884 2.5H16.7057C18.0661 2.5 19.1667 3.60059 19.1667 4.96094V15.3516C19.1667 16.7119 18.0661 17.8125 16.7057 17.8125H4.12759ZM7.68228 6.05469C7.68228 5.6001 8.048 5.23438 8.50259 5.23438H11.7838C12.2384 5.23438 12.6042 5.6001 12.6042 6.05469V8.78906C12.6042 9.24365 12.2384 9.60938 11.7838 9.60938H8.50259C8.048 9.60938 7.68228 9.24365 7.68228 8.78906V6.05469ZM14.5182 5.23438H15.612C16.0666 5.23438 16.4323 5.6001 16.4323 6.05469C16.4323 6.50928 16.0666 6.875 15.612 6.875H14.5182C14.0636 6.875 13.6979 6.50928 13.6979 6.05469C13.6979 5.6001 14.0636 5.23438 14.5182 5.23438ZM14.5182 7.96875H15.612C16.0666 7.96875 16.4323 8.33447 16.4323 8.78906C16.4323 9.24365 16.0666 9.60938 15.612 9.60938H14.5182C14.0636 9.60938 13.6979 9.24365 13.6979 8.78906C13.6979 8.33447 14.0636 7.96875 14.5182 7.96875ZM8.50259 10.7031H15.612C16.0666 10.7031 16.4323 11.0688 16.4323 11.5234C16.4323 11.978 16.0666 12.3438 15.612 12.3438H8.50259C8.048 12.3438 7.68228 11.978 7.68228 11.5234C7.68228 11.0688 8.048 10.7031 8.50259 10.7031ZM8.50259 13.4375H15.612C16.0666 13.4375 16.4323 13.8032 16.4323 14.2578C16.4323 14.7124 16.0666 15.0781 15.612 15.0781H8.50259C8.048 15.0781 7.68228 14.7124 7.68228 14.2578C7.68228 13.8032 8.048 13.4375 8.50259 13.4375Z" fill="url(#paint0_linear_20034_29852)"/>
<defs>
<linearGradient id="paint0_linear_20034_29852" x1="10.4167" y1="2.5" x2="10.4167" y2="17.8125" gradientUnits="userSpaceOnUse">
<stop stop-color="#D9BDFA"/>
<stop offset="1" stop-color="#A667F3"/>
</linearGradient>
</defs>
</svg>
