<svg width="24" height="24" viewBox="0 0 24 24" fill="none" xmlns="http://www.w3.org/2000/svg">
    <path
        d="M4 19V17H6V10C6 8.61667 6.41667 7.38767 7.25 6.313C8.08333 5.23833 9.16667 4.534 10.5 4.2V2H13.5V4.2C14.8333 4.53333 15.9167 5.23767 16.75 6.313C17.5833 7.38833 18 8.61733 18 10V17H20V19H4ZM12 22C11.45 22 10.9793 21.8043 10.588 21.413C10.1967 21.0217 10.0007 20.5507 10 20H14C14 20.55 13.8043 21.021 13.413 21.413C13.0217 21.805 12.5507 22.0007 12 22Z"
        fill="white" />
</svg>
    