<svg width="16" height="15" viewBox="0 0 16 15" fill="none" xmlns="http://www.w3.org/2000/svg">
    <path
        d="M14.875 7.49375L13.35 5.75L13.5625 3.44375L11.3063 2.93125L10.125 0.9375L8 1.85L5.875 0.9375L4.69375 2.93125L2.4375 3.4375L2.65 5.75L1.125 7.49375L2.65 9.2375L2.4375 11.55L4.69375 12.0625L5.875 14.0625L8 13.1438L10.125 14.0562L11.3063 12.0625L13.5625 11.55L13.35 9.24375L14.875 7.49375ZM12.4062 8.41875L12.0562 8.825L12.1062 9.35625L12.2188 10.575L11.0312 10.8438L10.5063 10.9625L10.2312 11.425L9.6125 12.475L8.5 11.9938L8 11.7812L7.50625 11.9938L6.39375 12.475L5.775 11.4313L5.5 10.9688L4.975 10.85L3.7875 10.5813L3.9 9.35625L3.95 8.825L3.6 8.41875L2.79375 7.5L3.6 6.575L3.95 6.16875L3.89375 5.63125L3.78125 4.41875L4.96875 4.15L5.49375 4.03125L5.76875 3.56875L6.3875 2.51875L7.5 3L8 3.2125L8.49375 3L9.60625 2.51875L10.225 3.56875L10.5 4.03125L11.025 4.15L12.2125 4.41875L12.1 5.6375L12.05 6.16875L12.4 6.575L13.2063 7.49375L12.4062 8.41875Z"
        fill="white" />
    <path
        d="M6.80664 8.5937L5.35664 7.13745L4.43164 8.0687L6.80664 10.45L11.3941 5.84995L10.4691 4.9187L6.80664 8.5937Z"
        fill="white" />
</svg>
    