<svg width="15" height="16" viewBox="0 0 15 16" fill="none" xmlns="http://www.w3.org/2000/svg">
<g clip-path="url(#clip0_10728_115220)">
<path d="M7.5 4.25C7.83152 4.25 8.14946 4.1183 8.38388 3.88388C8.6183 3.64946 8.75 3.33152 8.75 3C8.75 2.7625 8.6875 2.54375 8.56875 2.35625L7.5 0.5L6.43125 2.35625C6.3125 2.54375 6.25 2.7625 6.25 3C6.25 3.6875 6.8125 4.25 7.5 4.25ZM11.25 6.125H8.125V4.875H6.875V6.125H3.75C2.7125 6.125 1.875 6.9625 1.875 8V13.625C1.875 13.9688 2.15625 14.25 2.5 14.25H12.5C12.8438 14.25 13.125 13.9688 13.125 13.625V8C13.125 6.9625 12.2875 6.125 11.25 6.125ZM11.875 13H3.125V11.125C3.6875 11.1187 4.225 10.8938 4.625 10.4937L5.30625 9.825L5.975 10.4937C6.79375 11.3125 8.21875 11.3062 9.03125 10.4937L9.70625 9.825L10.375 10.4937C10.775 10.8938 11.3125 11.1187 11.875 11.125V13ZM11.875 10.1875C11.5562 10.1812 11.2562 10.0625 11.0312 9.83125L9.7 8.5L8.3625 9.83125C7.9 10.2937 7.09375 10.2937 6.63125 9.83125L5.3 8.5L3.9625 9.83125C3.74375 10.0563 3.44375 10.1812 3.125 10.1875V8C3.125 7.65625 3.40625 7.375 3.75 7.375H11.25C11.5938 7.375 11.875 7.65625 11.875 8V10.1875Z" fill="white"/>
</g>
<defs>
<clipPath id="clip0_10728_115220">
<rect width="15" height="15" fill="white" transform="translate(0 0.5)"/>
</clipPath>
</defs>
</svg>
