<svg xmlns="http://www.w3.org/2000/svg" viewBox="0 0 100 100" fill="none" shape-rendering="auto">
    <g mask="url(#viewboxMask)">
        <rect fill="url(#backgroundLinear)" width="100" height="100" x="0" y="0" />
        <defs>
            <linearGradient id="backgroundLinear" gradientTransform="rotate(-90 0.5 0.5)">
                <stop stop-color="#ffdfbf" />
                <stop offset="1" stop-color="#b6e3f4" />
            </linearGradient>
        </defs>
        <g transform="translate(-3, 1) rotate(10 50 70)">
            <path d="M95 53.33C95 29.4 74.85 10 50 10S5 29.4 5 53.33V140h90V53.33Z"
                fill="transparent" />
            <g transform="translate(29 33)">
                <g transform="translate(5, 15) rotate(-6 21 21)">
                    <g transform="translate(0 5)">
                        <path
                            d="M13 8c0 3.31-1.34 6-3 6s-3-2.69-3-6 1.34-6 3-6 3 2.69 3 6ZM35 8c0 3.31-1.34 6-3 6s-3-2.69-3-6 1.34-6 3-6 3 2.69 3 6Z"
                            fill="#000000" />
                    </g>
                    <g transform="translate(6 23)">
                        <path
                            d="M15 10C6.79 10 3.02 3.88 4.22 3.12 5.42 2.35 6.1 6.6 15 6.49c8.9-.12 9.58-4.23 10.78-3.37C26.98 3.98 23.21 10 15 10Z"
                            fill="#000000" />
                    </g>
                </g>
            </g>
        </g>
    </g>
</svg>