<svg width="18" height="18" viewBox="0 0 18 18" fill="none" xmlns="http://www.w3.org/2000/svg">
<g id="material-symbols:privacy-tip-outline">
<path id="Vector" d="M8.25 12C8.25 12.4142 8.58579 12.75 9 12.75C9.41421 12.75 9.75 12.4142 9.75 12V9C9.75 8.58579 9.41421 8.25 9 8.25C8.58579 8.25 8.25 8.58579 8.25 9V12ZM9 6.75C9.2125 6.75 9.39075 6.678 9.53475 6.534C9.67875 6.39 9.7505 6.212 9.75 6C9.75 5.7875 9.678 5.60925 9.534 5.46525C9.39 5.32125 9.212 5.2495 9 5.25C8.7875 5.25 8.60925 5.322 8.46525 5.466C8.32125 5.61 8.2495 5.788 8.25 6C8.25 6.2125 8.322 6.39075 8.466 6.53475C8.61 6.67875 8.788 6.7505 9 6.75ZM9 16.5C7.2625 16.0625 5.828 15.0655 4.6965 13.509C3.565 11.9525 2.9995 10.2245 3 8.325V3.75L9 1.5L15 3.75V8.325C15 10.225 14.4342 11.9533 13.3027 13.5098C12.1712 15.0662 10.737 16.063 9 16.5ZM9 14.925C10.3 14.5125 11.375 13.6875 12.225 12.45C13.075 11.2125 13.5 9.8375 13.5 8.325V4.78125L9 3.09375L4.5 4.78125V8.325C4.5 9.8375 4.925 11.2125 5.775 12.45C6.625 13.6875 7.7 14.5125 9 14.925Z" fill="white" fill-opacity="0.54"/>
</g>
</svg>
