<svg width="12" height="12" viewBox="0 0 12 12" fill="none" xmlns="http://www.w3.org/2000/svg">
<path d="M6 6.5C8.355 6.5 10 7.7335 10 9.5C10 9.77614 9.77614 10 9.5 10H2.5C2.24112 10 2.02819 9.80325 2.00258 9.55112L2 9.5C2 7.7335 3.645 6.5 6 6.5ZM6 7.5C4.42753 7.5 3.36537 8.11689 3.0782 9H8.9218C8.63463 8.11689 7.57247 7.5 6 7.5ZM6 2C7.103 2 8 2.8975 8 4C8 5.103 7.103 6 6 6C4.897 6 4 5.103 4 4C4 2.8975 4.897 2 6 2ZM6 3C5.4495 3 5 3.44957 5 4C5 4.55072 5.44928 5 6 5C6.55072 5 7 4.55072 7 4C7 3.44957 6.5505 3 6 3Z" fill="white" fill-opacity="0.54"/>
</svg>
