<svg width="18" height="18" viewBox="0 0 18 18" fill="none" xmlns="http://www.w3.org/2000/svg">
    <g clip-path="url(#clip0_16679_124507)">
        <path fill-rule="evenodd" clip-rule="evenodd"
            d="M14.0445 5.60701C15.9787 6.87976 17.0482 8.48026 17.1202 8.59126C17.2845 8.8437 17.2822 9.17181 17.1127 9.42076C16.992 9.60001 14.0947 13.7888 8.99173 13.7888C8.00173 13.7888 7.09798 13.629 6.27823 13.3733L2.94899 16.7025C2.65614 16.9954 2.18133 16.9954 1.88848 16.7025C1.59563 16.4097 1.59562 15.9349 1.88846 15.642L15.4312 2.09857C15.7241 1.80569 16.1989 1.80568 16.4918 2.09855C16.7846 2.39139 16.7846 2.86617 16.4918 3.15904L14.0445 5.60701ZM7.51498 12.1358C7.98223 12.2303 8.47198 12.2888 8.99098 12.2888C12.4117 12.2888 14.733 9.95701 15.5482 8.98951C15.1095 8.44501 14.2192 7.47451 12.9502 6.70051L11.7045 7.94626C11.7562 8.13526 11.7877 8.33326 11.7877 8.53876C11.7877 9.78226 10.7797 10.7888 9.53773 10.7888C9.33148 10.7888 9.13423 10.7573 8.94523 10.7055L7.51498 12.1358ZM4.54276 10.866L3.45301 11.9558C1.83001 10.8045 0.936005 9.51752 0.871505 9.42077C0.702013 9.17176 0.699315 8.84397 0.863255 8.59127C0.983255 8.40527 3.87976 4.03877 8.99176 4.03877C9.74701 4.03877 10.4475 4.14152 11.103 4.30577L9.81601 5.59277C9.54825 5.56052 9.27526 5.53877 8.99176 5.53877C5.54926 5.53877 3.23625 7.98677 2.43375 8.98877C2.8155 9.44177 3.53701 10.1933 4.54276 10.866Z"
            fill="white" />
    </g>
    <defs>
        <clipPath id="clip0_16679_124507">
            <rect width="18" height="18" fill="white" />
        </clipPath>
    </defs>
</svg>
    