<svg width="21" height="22" viewBox="0 0 21 22" fill="none" xmlns="http://www.w3.org/2000/svg">
<g id="ic_poll">
<g id="Vector">
<path d="M3.69728 7.95195C3.69728 8.29989 3.41523 8.58195 3.06731 8.58195C2.71938 8.58195 2.43733 8.29989 2.43733 7.95195C2.43733 7.604 2.71938 7.32194 3.06731 7.32194C3.41523 7.32194 3.69728 7.604 3.69728 7.95195Z" fill="#F0F0F0" fill-opacity="0.75"/>
<path fill-rule="evenodd" clip-rule="evenodd" d="M3.0625 8.9C3.59407 8.9 4.025 8.46907 4.025 7.9375C4.025 7.40593 3.59407 6.975 3.0625 6.975C2.53093 6.975 2.1 7.40593 2.1 7.9375C2.1 8.46907 2.53093 8.9 3.0625 8.9ZM3.0625 10.125C4.27062 10.125 5.25 9.14562 5.25 7.9375C5.25 6.72938 4.27062 5.75 3.0625 5.75C1.85438 5.75 0.875 6.72938 0.875 7.9375C0.875 9.14562 1.85438 10.125 3.0625 10.125Z" fill="#F0F0F0" fill-opacity="0.75"/>
<path d="M7.98437 8.92187C7.70546 8.92187 7.47184 8.8277 7.2835 8.63936C7.0945 8.45036 7 8.2164 7 7.9375C7 7.65859 7.0945 7.42464 7.2835 7.23564C7.47184 7.04729 7.70546 6.95312 7.98437 6.95312H18.8125C19.0914 6.95312 19.325 7.04729 19.5134 7.23564C19.7024 7.42464 19.7969 7.65859 19.7969 7.9375C19.7969 8.2164 19.7024 8.45036 19.5134 8.63936C19.325 8.8277 19.0914 8.92187 18.8125 8.92187H7.98437Z" fill="#F0F0F0" fill-opacity="0.75"/>
<path fill-rule="evenodd" clip-rule="evenodd" d="M3.0625 15.025C3.59408 15.025 4.025 14.5941 4.025 14.0625C4.025 13.5309 3.59408 13.1 3.0625 13.1C2.53093 13.1 2.1 13.5309 2.1 14.0625C2.1 14.5941 2.53093 15.025 3.0625 15.025ZM3.0625 16.25C4.27063 16.25 5.25 15.2706 5.25 14.0625C5.25 12.8544 4.27063 11.875 3.0625 11.875C1.85438 11.875 0.875005 12.8544 0.875005 14.0625C0.875005 15.2706 1.85438 16.25 3.0625 16.25Z" fill="#F0F0F0" fill-opacity="0.75"/>
<path d="M7.98438 15.0469C7.70547 15.0469 7.47184 14.9527 7.2835 14.7644C7.0945 14.5754 7 14.3414 7 14.0625C7 13.7836 7.0945 13.5496 7.2835 13.3606C7.47184 13.1723 7.70547 13.0781 7.98438 13.0781H18.8125C19.0914 13.0781 19.325 13.1723 19.5134 13.3606C19.7024 13.5496 19.7969 13.7836 19.7969 14.0625C19.7969 14.3414 19.7024 14.5754 19.5134 14.7644C19.325 14.9527 19.0914 15.0469 18.8125 15.0469H7.98438Z" fill="#F0F0F0" fill-opacity="0.75"/>
</g>
</g>
</svg>
