<svg width="25" height="25" viewBox="0 0 25 25" fill="none" xmlns="http://www.w3.org/2000/svg">
<path fill-rule="evenodd" clip-rule="evenodd" d="M9.50025 2.49805C9.50025 1.94576 9.05254 1.49805 8.50025 1.49805C7.94797 1.49805 7.50025 1.94576 7.50025 2.49805V3.499H5.5C3.84315 3.499 2.5 4.84215 2.5 6.499V20.499C2.5 22.1559 3.84315 23.499 5.5 23.499H19.5C21.1569 23.499 22.5 22.1559 22.5 20.499V10.5207C22.5002 10.5132 22.5003 10.5056 22.5003 10.498C22.5003 10.4905 22.5002 10.4829 22.5 10.4754V6.499C22.5 4.84215 21.1569 3.499 19.5 3.499H17.5003V2.49805C17.5003 1.94576 17.0525 1.49805 16.5003 1.49805C15.948 1.49805 15.5003 1.94576 15.5003 2.49805V3.499H9.50025V2.49805ZM7.50025 5.499V6.49805C7.50025 7.05033 7.94797 7.49805 8.50025 7.49805C9.05254 7.49805 9.50025 7.05033 9.50025 6.49805V5.499H15.5003V6.49805C15.5003 7.05033 15.948 7.49805 16.5003 7.49805C17.0525 7.49805 17.5003 7.05033 17.5003 6.49805V5.499H19.5C20.0523 5.499 20.5 5.94672 20.5 6.499V9.49805H4.5V6.499C4.5 5.94672 4.94772 5.499 5.5 5.499H7.50025ZM4.5 11.498V20.499C4.5 21.0513 4.94772 21.499 5.5 21.499H19.5C20.0523 21.499 20.5 21.0513 20.5 20.499V11.498H4.5Z" fill="white" fill-opacity="0.54"/>
</svg>
