<svg width="15" height="16" viewBox="0 0 15 16" fill="none" xmlns="http://www.w3.org/2000/svg">
<path d="M5.625 13V10.5C5.09375 10.4583 4.57292 10.401 4.0625 10.3281C3.55208 10.2552 3.04167 10.1615 2.53125 10.0469C2.35417 10.0052 2.21354 9.90625 2.10938 9.75C2.00521 9.59375 1.97917 9.42708 2.03125 9.25C2.08333 9.07292 2.19021 8.94271 2.35188 8.85938C2.51354 8.77604 2.68271 8.75521 2.85937 8.79688C3.61979 8.97396 4.38812 9.09375 5.16437 9.15625C5.94062 9.21875 6.71917 9.25 7.5 9.25C8.28083 9.25 9.05958 9.21875 9.83625 9.15625C10.6129 9.09375 11.381 8.97396 12.1406 8.79688C12.3281 8.75521 12.5 8.77604 12.6562 8.85938C12.8125 8.94271 12.9167 9.07292 12.9688 9.25C13.0208 9.42708 12.9923 9.59375 12.8831 9.75C12.774 9.90625 12.6306 10.0052 12.4531 10.0469C11.9427 10.1615 11.4323 10.2552 10.9219 10.3281C10.4115 10.401 9.89583 10.4583 9.375 10.5V13C9.375 13.1771 9.31521 13.3256 9.19563 13.4456C9.07604 13.5656 8.9275 13.6254 8.75 13.625H6.25C6.07292 13.625 5.92458 13.565 5.805 13.445C5.68542 13.325 5.62542 13.1767 5.625 13ZM7.5 8.625C7.14583 8.625 6.84896 8.50521 6.60938 8.26562C6.36979 8.02604 6.25 7.72917 6.25 7.375C6.25 7.03125 6.36979 6.73708 6.60938 6.4925C6.84896 6.24792 7.14583 6.12542 7.5 6.125C7.84375 6.125 8.13812 6.2475 8.38313 6.4925C8.62813 6.7375 8.75042 7.03167 8.75 7.375C8.75 7.72917 8.62771 8.02604 8.38313 8.26562C8.13854 8.50521 7.84417 8.625 7.5 8.625ZM2.8125 6.75C2.54167 6.75 2.31771 6.66146 2.14062 6.48438C1.96354 6.30729 1.875 6.08333 1.875 5.8125C1.875 5.55208 1.96354 5.33083 2.14062 5.14875C2.31771 4.96667 2.54167 4.87542 2.8125 4.875C3.07292 4.875 3.29438 4.96625 3.47688 5.14875C3.65938 5.33125 3.75042 5.5525 3.75 5.8125C3.75 6.08333 3.65896 6.30729 3.47688 6.48438C3.29479 6.66146 3.07333 6.75 2.8125 6.75ZM12.1875 6.75C11.9167 6.75 11.6927 6.66146 11.5156 6.48438C11.3385 6.30729 11.25 6.08333 11.25 5.8125C11.25 5.55208 11.3385 5.33083 11.5156 5.14875C11.6927 4.96667 11.9167 4.87542 12.1875 4.875C12.4479 4.875 12.6694 4.96625 12.8519 5.14875C13.0344 5.33125 13.1254 5.5525 13.125 5.8125C13.125 6.08333 13.034 6.30729 12.8519 6.48438C12.6698 6.66146 12.4483 6.75 12.1875 6.75ZM4.53125 4.40625C4.26042 4.40625 4.03646 4.31771 3.85938 4.14062C3.68229 3.96354 3.59375 3.73958 3.59375 3.46875C3.59375 3.20833 3.68229 2.98708 3.85938 2.805C4.03646 2.62292 4.26042 2.53167 4.53125 2.53125C4.79167 2.53125 5.01312 2.6225 5.19562 2.805C5.37812 2.9875 5.46917 3.20875 5.46875 3.46875C5.46875 3.73958 5.37771 3.96354 5.19562 4.14062C5.01354 4.31771 4.79208 4.40625 4.53125 4.40625ZM10.4688 4.40625C10.1979 4.40625 9.97396 4.31771 9.79688 4.14062C9.61979 3.96354 9.53125 3.73958 9.53125 3.46875C9.53125 3.20833 9.61979 2.98708 9.79688 2.805C9.97396 2.62292 10.1979 2.53167 10.4688 2.53125C10.7292 2.53125 10.9506 2.6225 11.1331 2.805C11.3156 2.9875 11.4067 3.20875 11.4062 3.46875C11.4062 3.73958 11.3152 3.96354 11.1331 4.14062C10.951 4.31771 10.7296 4.40625 10.4688 4.40625ZM7.5 3.625C7.22917 3.625 7.00521 3.53646 6.82812 3.35937C6.65104 3.18229 6.5625 2.95833 6.5625 2.6875C6.5625 2.42708 6.65104 2.20583 6.82812 2.02375C7.00521 1.84167 7.22917 1.75042 7.5 1.75C7.76042 1.75 7.98187 1.84125 8.16437 2.02375C8.34687 2.20625 8.43792 2.4275 8.4375 2.6875C8.4375 2.95833 8.34646 3.18229 8.16437 3.35937C7.98229 3.53646 7.76083 3.625 7.5 3.625Z" fill="white"/>
</svg>
