<svg width="15" height="16" viewBox="0 0 15 16" fill="none" xmlns="http://www.w3.org/2000/svg">
<g id="ic_photos">
<path id="Vector" fill-rule="evenodd" clip-rule="evenodd" d="M4.375 11.7506H13.125C13.4706 11.7506 13.75 11.4706 13.75 11.1256V2.37561C13.75 2.03061 13.4706 1.75061 13.125 1.75061H4.375C4.02938 1.75061 3.75 2.03061 3.75 2.37561V11.1256C3.75 11.4706 4.02938 11.7506 4.375 11.7506ZM12.5 10.5006H5V3.00061H12.5V10.5006ZM1.875 14.2506H11.25V13.0006H2.5V4.25061H1.25V13.6256C1.25 13.9706 1.52938 14.2506 1.875 14.2506ZM6.875 6.12561C7.56536 6.12561 8.125 5.56597 8.125 4.87561C8.125 4.18525 7.56536 3.62561 6.875 3.62561C6.18464 3.62561 5.625 4.18525 5.625 4.87561C5.625 5.56597 6.18464 6.12561 6.875 6.12561ZM8.3825 8.55186L10 6.12561L11.875 9.87561H5.625L7.5 7.37561L8.3825 8.55186Z" fill="white" fill-opacity="0.87"/>
</g>
</svg>
