<svg width="24" height="24" viewBox="0 0 24 24" fill="none" xmlns="http://www.w3.org/2000/svg">
    <path fill-rule="evenodd" clip-rule="evenodd"
        d="M14.586 3.49964C14.9611 3.12469 15.4697 2.91406 16 2.91406C16.5303 2.91406 17.0389 3.12469 17.414 3.49964L19.5001 5.58574C19.875 5.9608 20.0858 6.46952 20.0858 6.99985C20.0858 7.53018 19.8752 8.0388 19.5002 8.41385L8.20711 19.707C8.01957 19.8945 7.76522 19.9998 7.5 19.9998H4C3.44772 19.9998 3 19.5521 3 18.9998V15.4998C3 15.2346 3.10536 14.9803 3.29289 14.7927L14.586 3.49964ZM5 15.9141V17.9998H7.08579L15.3358 9.74985L13.25 7.66406L5 15.9141ZM14.6642 6.24985L16.75 8.33564L18.0858 6.99985L16 4.91406L14.6642 6.24985Z"
        fill="#9DF7E1" />
    <path d="M13 19H19" stroke="#9DF7E1" stroke-width="2" stroke-linecap="round"
        stroke-linejoin="round" />
</svg>
    