<svg width="15" height="16" viewBox="0 0 15 16" fill="none" xmlns="http://www.w3.org/2000/svg">
<g id="ic_public">
<path id="Vector" fill-rule="evenodd" clip-rule="evenodd" d="M7.5 3.625C11.3888 3.625 14.1456 7.47625 14.2606 7.64062C14.4131 7.85625 14.4131 8.14375 14.2606 8.36C14.1456 8.52375 11.3888 12.375 7.5 12.375C3.61125 12.375 0.854375 8.52375 0.739375 8.36C0.586875 8.14437 0.586875 7.85625 0.739375 7.64062C0.854375 7.47625 3.61125 3.625 7.5 3.625ZM2.04313 7.99937C2.78188 8.89062 4.89625 11.125 7.5 11.125C10.1125 11.125 12.22 8.8925 12.9569 8.00063C12.2181 7.11 10.1038 4.875 7.5 4.875C4.8875 4.875 2.78 7.10812 2.04313 7.99937ZM5 8C5 6.62188 6.12125 5.5 7.5 5.5C8.87875 5.5 10 6.62188 10 8C10 9.37875 8.87875 10.5 7.5 10.5C6.12125 10.5 5 9.37875 5 8ZM6.25 8C6.25 8.68937 6.81063 9.25 7.5 9.25C8.18937 9.25 8.75 8.68937 8.75 8C8.75 7.31125 8.18937 6.75 7.5 6.75C6.81063 6.75 6.25 7.31125 6.25 8Z" fill="white" fill-opacity="0.75"/>
</g>
</svg>
