<svg width="30" height="30" viewBox="0 0 30 30" fill="none" xmlns="http://www.w3.org/2000/svg">
<path d="M26.9707 8.26641L21.7336 3.03047C21.2941 2.59109 20.6981 2.34425 20.0766 2.34425C19.4551 2.34425 18.8591 2.59109 18.4195 3.03047L3.96798 17.4809C3.74959 17.6979 3.57645 17.9561 3.45857 18.2406C3.34069 18.525 3.28042 18.83 3.28126 19.1379V24.375C3.28126 24.9966 3.52819 25.5927 3.96773 26.0323C4.40727 26.4718 5.00341 26.7188 5.62501 26.7188H10.8621C11.17 26.7197 11.475 26.6594 11.7595 26.5415C12.0439 26.4236 12.3021 26.2505 12.5191 26.032L21.8309 16.7215L22.3184 18.3492L18.225 22.4426C17.9608 22.7068 17.8124 23.0651 17.8124 23.4387C17.8124 23.8123 17.9608 24.1706 18.225 24.4348C18.4892 24.6989 18.8475 24.8474 19.2211 24.8474C19.5947 24.8474 19.953 24.6989 20.2172 24.4348L24.9047 19.7473C25.0842 19.5675 25.2117 19.3425 25.2736 19.0962C25.3355 18.8498 25.3295 18.5913 25.2563 18.348L24.0914 14.4656L26.9731 11.584C27.191 11.3661 27.3638 11.1075 27.4817 10.8227C27.5995 10.538 27.6601 10.2329 27.6599 9.92471C27.6596 9.61657 27.5987 9.31149 27.4804 9.02694C27.3622 8.74239 27.189 8.48395 26.9707 8.26641ZM7.6172 17.8125L15.9375 9.49219L20.5078 14.0625L12.1875 22.3828L7.6172 17.8125ZM6.09376 20.2734L9.72657 23.9063H6.09376V20.2734ZM22.5 12.0703L17.9297 7.5L20.0789 5.35078L24.6492 9.9211L22.5 12.0703Z" fill="#9DC1F7"/>
</svg>
