<svg width="25" height="24" viewBox="0 0 25 24" fill="none" xmlns="http://www.w3.org/2000/svg">
<path d="M12.7001 2C7.18007 2 2.70007 6.48 2.70007 12C2.70007 17.52 7.18007 22 12.7001 22C18.2201 22 22.7001 17.52 22.7001 12C22.7001 6.48 18.2201 2 12.7001 2ZM12.7001 6C14.6301 6 16.2001 7.57 16.2001 9.5C16.2001 11.43 14.6301 13 12.7001 13C10.7701 13 9.20007 11.43 9.20007 9.5C9.20007 7.57 10.7701 6 12.7001 6ZM12.7001 20C10.6701 20 8.27007 19.18 6.56007 17.12C8.31168 15.7457 10.4737 14.9988 12.7001 14.9988C14.9265 14.9988 17.0885 15.7457 18.8401 17.12C17.1301 19.18 14.7301 20 12.7001 20Z" fill="white" fill-opacity="0.87"/>
</svg>