<svg width="24" height="24" viewBox="0 0 24 24" fill="none" xmlns="http://www.w3.org/2000/svg">
    <path
        d="M18 11H16C15.7167 11 15.4793 10.904 15.288 10.712C15.0967 10.52 15.0007 10.2827 15 10C15 9.71667 15.096 9.47933 15.288 9.288C15.48 9.09667 15.7173 9.00067 16 9H18V7C18 6.71667 18.096 6.47933 18.288 6.288C18.48 6.09667 18.7173 6.00067 19 6C19.2833 6 19.521 6.096 19.713 6.288C19.905 6.48 20.0007 6.71733 20 7V9H22C22.2833 9 22.521 9.096 22.713 9.288C22.905 9.48 23.0007 9.71733 23 10C23 10.2833 22.904 10.521 22.712 10.713C22.52 10.905 22.2827 11.0007 22 11H20V13C20 13.2833 19.904 13.521 19.712 13.713C19.52 13.905 19.2827 14.0007 19 14C18.7167 14 18.4793 13.904 18.288 13.712C18.0967 13.52 18.0007 13.2827 18 13V11ZM9 12C7.9 12 6.95833 11.6083 6.175 10.825C5.39167 10.0417 5 9.1 5 8C5 6.9 5.39167 5.95833 6.175 5.175C6.95833 4.39167 7.9 4 9 4C10.1 4 11.0417 4.39167 11.825 5.175C12.6083 5.95833 13 6.9 13 8C13 9.1 12.6083 10.0417 11.825 10.825C11.0417 11.6083 10.1 12 9 12ZM1 18V17.2C1 16.6333 1.146 16.1127 1.438 15.638C1.73 15.1633 2.11733 14.8007 2.6 14.55C3.63333 14.0333 4.68333 13.646 5.75 13.388C6.81667 13.13 7.9 13.0007 9 13C10.1 13 11.1833 13.1293 12.25 13.388C13.3167 13.6467 14.3667 14.034 15.4 14.55C15.8833 14.8 16.271 15.1627 16.563 15.638C16.855 16.1133 17.0007 16.634 17 17.2V18C17 18.55 16.8043 19.021 16.413 19.413C16.0217 19.805 15.5507 20.0007 15 20H3C2.45 20 1.97933 19.8043 1.588 19.413C1.19667 19.0217 1.00067 18.5507 1 18ZM3 18H15V17.2C15 17.0167 14.9543 16.85 14.863 16.7C14.7717 16.55 14.6507 16.4333 14.5 16.35C13.6 15.9 12.6917 15.5627 11.775 15.338C10.8583 15.1133 9.93333 15.0007 9 15C8.06667 15 7.14167 15.1127 6.225 15.338C5.30833 15.5633 4.4 15.9007 3.5 16.35C3.35 16.4333 3.229 16.55 3.137 16.7C3.045 16.85 2.99933 17.0167 3 17.2V18ZM9 10C9.55 10 10.021 9.80433 10.413 9.413C10.805 9.02167 11.0007 8.55067 11 8C11 7.45 10.8043 6.97933 10.413 6.588C10.0217 6.19667 9.55067 6.00067 9 6C8.45 6 7.97933 6.196 7.588 6.588C7.19667 6.98 7.00067 7.45067 7 8C7 8.55 7.196 9.021 7.588 9.413C7.98 9.805 8.45067 10.0007 9 10Z"
        fill="white" />
</svg>
    