<svg width="36" height="37" viewBox="0 0 36 37" fill="none" xmlns="http://www.w3.org/2000/svg">
<rect width="36" height="36" rx="9" fill="white" fill-opacity="0.06"/>
<path d="M14.6155 23.625C14.2326 23.625 13.9427 23.2791 14.0096 22.9021L14.325 21.125H12.5689C12.1806 21.125 11.8863 20.7747 11.9532 20.3923C12.0056 20.0932 12.2653 19.875 12.5689 19.875H14.5438L15.2063 16.125H13.4501C13.0619 16.125 12.7676 15.7747 12.8345 15.3923C12.8868 15.0932 13.1465 14.875 13.4501 14.875H15.425L15.7786 12.8828C15.8308 12.589 16.0862 12.375 16.3845 12.375C16.7674 12.375 17.0574 12.7209 16.9904 13.0979L16.675 14.875H20.425L20.7786 12.8828C20.8308 12.589 21.0862 12.375 21.3845 12.375C21.7674 12.375 22.0574 12.7209 21.9904 13.0979L21.675 14.875H23.4311C23.8194 14.875 24.1137 15.2253 24.0468 15.6077C23.9944 15.9068 23.7348 16.125 23.4311 16.125H21.4563L20.7938 19.875H22.5499C22.9382 19.875 23.2325 20.2253 23.1655 20.6077C23.1132 20.9068 22.8535 21.125 22.5499 21.125H20.575L20.2214 23.1172C20.1693 23.411 19.9139 23.625 19.6155 23.625C19.2326 23.625 18.9427 23.2791 19.0096 22.9021L19.325 21.125H15.575L15.2214 23.1172C15.1693 23.411 14.9139 23.625 14.6155 23.625ZM16.4563 16.125L15.7938 19.875H19.5438L20.2063 16.125H16.4563Z" fill="white" fill-opacity="0.36"/>
<g filter="url(#filter0_b_999_4694)">
<path d="M27 35C26.725 35 26.4895 34.902 26.2935 34.706C26.0975 34.51 25.9997 34.2747 26 34V29C26 28.725 26.098 28.4895 26.294 28.2935C26.49 28.0975 26.7253 27.9997 27 28H27.5V27C27.5 26.3083 27.7438 25.7187 28.2315 25.231C28.7192 24.7433 29.3087 24.4997 30 24.5C30.6917 24.5 31.2813 24.7438 31.769 25.2315C32.2567 25.7192 32.5003 26.3087 32.5 27V28H33C33.275 28 33.5105 28.098 33.7065 28.294C33.9025 28.49 34.0003 28.7253 34 29V34C34 34.275 33.902 34.5105 33.706 34.7065C33.51 34.9025 33.2747 35.0003 33 35H27ZM30 32.5C30.275 32.5 30.5105 32.402 30.7065 32.206C30.9025 32.01 31.0003 31.7747 31 31.5C31 31.225 30.902 30.9895 30.706 30.7935C30.51 30.5975 30.2747 30.4997 30 30.5C29.725 30.5 29.4895 30.598 29.2935 30.794C29.0975 30.99 28.9997 31.2253 29 31.5C29 31.775 29.098 32.0105 29.294 32.2065C29.49 32.4025 29.7253 32.5003 30 32.5ZM28.5 28H31.5V27C31.5 26.5833 31.3542 26.2292 31.0625 25.9375C30.7708 25.6458 30.4167 25.5 30 25.5C29.5833 25.5 29.2292 25.6458 28.9375 25.9375C28.6458 26.2292 28.5 26.5833 28.5 27V28Z" fill="white" fill-opacity="0.36"/>
<path d="M27 36C26.4574 36 25.9683 35.795 25.5864 35.4131C25.2047 35.0314 24.9995 34.5423 25 33.9995M27 36L30 23.5C29.0442 23.4997 28.2001 23.8482 27.5244 24.5239C26.8486 25.1997 26.5 26.044 26.5 27V27.0612C26.1571 27.1481 25.8471 27.3262 25.5869 27.5864C25.205 27.9683 25 28.4574 25 29V33.9995M27 36L32.9988 36C32.9991 36 32.9994 36 32.9997 36C32.9998 36 32.9999 36 33 36C33.5425 36.0004 34.0315 35.7952 34.4131 35.4136C34.795 35.0317 35 34.5426 35 34L35 29.0012C35 29.0009 35 29.0006 35 29.0003C35 29.0002 35 29.0001 35 29C35.0004 28.4575 34.7952 27.9685 34.4136 27.5869C34.1533 27.3265 33.843 27.1484 33.5 27.0614V27.0005C33.5 27.0003 33.5 27.0002 33.5 27C33.5003 26.0442 33.1518 25.2001 32.4761 24.5244C31.8004 23.8487 30.9563 23.5001 30.0005 23.5L27 36ZM25 33.9995C25 33.9993 25 33.999 25 33.9988L26 34H25V33.9995ZM30.5 27H29.5C29.5 26.8455 29.5426 26.7466 29.6446 26.6446C29.7466 26.5426 29.8455 26.5 30 26.5C30.1545 26.5 30.2534 26.5426 30.3554 26.6446C30.4574 26.7466 30.5 26.8455 30.5 27Z" stroke="black" stroke-width="2"/>
</g>
<defs>
<filter id="filter0_b_999_4694" x="12" y="10.5" width="36" height="38.5" filterUnits="userSpaceOnUse" color-interpolation-filters="sRGB">
<feFlood flood-opacity="0" result="BackgroundImageFix"/>
<feGaussianBlur in="BackgroundImageFix" stdDeviation="6"/>
<feComposite in2="SourceAlpha" operator="in" result="effect1_backgroundBlur_999_4694"/>
<feBlend mode="normal" in="SourceGraphic" in2="effect1_backgroundBlur_999_4694" result="shape"/>
</filter>
</defs>
</svg>
