<svg width="18" height="18" viewBox="0 0 18 18" fill="none" xmlns="http://www.w3.org/2000/svg">
    <path fill-rule="evenodd" clip-rule="evenodd"
        d="M8.625 2.625C8.625 2.41789 8.79289 2.25 9 2.25C9.20711 2.25 9.375 2.41789 9.375 2.625C9.375 2.83211 9.20711 3 9 3C8.79289 3 8.625 2.83211 8.625 2.625ZM7.61548 3.88943L3.75 6.06368V10.656C3.85024 10.6998 3.94591 10.7521 4.0361 10.812L6 9.6898V7.68754C6 7.42079 6.14168 7.17411 6.3721 7.03971L8.25 5.94426V4.34398C8.00742 4.23799 7.79159 4.08216 7.61548 3.88943ZM2.25 5.62504V10.656C1.58779 10.9453 1.125 11.6061 1.125 12.375C1.125 13.4105 1.96447 14.25 3 14.25C3.42436 14.25 3.81579 14.109 4.13002 13.8714L8.63232 16.4037C8.86063 16.5321 9.13939 16.5321 9.3677 16.4037L12.3677 14.7162L13.87 13.8713C14.1842 14.109 14.5756 14.25 15 14.25C16.0355 14.25 16.875 13.4105 16.875 12.375C16.875 11.6061 16.4122 10.9453 15.75 10.656V5.62504C15.75 5.35408 15.6038 5.10419 15.3677 4.97135L10.8659 2.43919C10.7726 1.49088 9.97283 0.75 9 0.75C8.02717 0.75 7.22738 1.49088 7.13409 2.43919L2.63231 4.97135C2.39615 5.10419 2.25 5.35408 2.25 5.62504ZM14.9955 12C14.997 12 14.9985 12 15 12C15.0015 12 15.003 12 15.0045 12C15.2095 12.0024 15.375 12.1694 15.375 12.375C15.375 12.5821 15.2071 12.75 15 12.75C14.7929 12.75 14.625 12.5821 14.625 12.375C14.625 12.1694 14.7905 12.0024 14.9955 12ZM14.25 10.656V6.06368L10.3845 3.88943C10.2084 4.08216 9.99258 4.23799 9.75 4.34398V5.94426L11.6279 7.03971C11.8583 7.17411 12 7.42079 12 7.68754V9.6898L13.9639 10.812C14.0541 10.7521 14.1498 10.6998 14.25 10.656ZM13.149 12.074L11.4162 11.0838L9.3779 12.2729C9.14438 12.4091 8.85562 12.4091 8.6221 12.2729L6.58376 11.0838L4.85097 12.074C4.86678 12.172 4.875 12.2725 4.875 12.375C4.875 12.4388 4.87181 12.5019 4.86558 12.5641L8.99999 14.8895L11.6323 13.4089L13.1344 12.5641C13.1282 12.5019 13.125 12.4388 13.125 12.375C13.125 12.2725 13.1332 12.172 13.149 12.074ZM2.625 12.375C2.625 12.1694 2.79048 12.0024 2.99553 12L3 12L3.00447 12C3.20952 12.0024 3.375 12.1694 3.375 12.375C3.375 12.5821 3.20711 12.75 3 12.75C2.79289 12.75 2.625 12.5821 2.625 12.375ZM10.5 8.11832V9.88176L9 10.7568L7.5 9.88176V8.11832L9 7.24332L10.5 8.11832Z"
        fill="white" />
</svg>