<svg width="24" height="24" viewBox="0 0 24 24" fill="none" xmlns="http://www.w3.org/2000/svg">
<path fill-rule="evenodd" clip-rule="evenodd" d="M17.1996 8.69805L16.2177 6.07905L13.5996 5.09805L16.2177 4.11615L17.1996 1.49805L18.1815 4.11615L20.7996 5.09805L18.1815 6.07905L17.1996 8.69805ZM6.39961 18.5981H17.1996V10.4981H18.9996V18.1481C18.9996 19.3907 17.9923 20.3981 16.7496 20.3981H6.84961C5.60697 20.3981 4.59961 19.3907 4.59961 18.1481V5.09809C4.59961 4.10449 5.40691 3.29809 6.39961 3.29809H12.6996V5.09809H6.39961V6.89809H14.4996V8.69809H6.39961V18.5981ZM9.21376 16.8078C9.08134 17.2869 9.50251 17.698 9.99957 17.698H13.5996C14.0966 17.698 14.5178 17.2869 14.3854 16.8078C14.0726 15.6763 13.1357 14.998 11.7996 14.998C10.4635 14.998 9.52649 15.6763 9.21376 16.8078ZM13.5996 12.2981C13.5996 13.2922 12.7938 14.0981 11.7996 14.0981C10.8055 14.0981 9.99964 13.2922 9.99964 12.2981C9.99964 11.3039 10.8055 10.4981 11.7996 10.4981C12.7938 10.4981 13.5996 11.3039 13.5996 12.2981Z" fill="white"/>
</svg>
