<svg width="20" height="20" viewBox="0 0 20 20" fill="none" xmlns="http://www.w3.org/2000/svg">
    <path
        d="M9.99999 18.3334C8.8611 18.3334 7.78471 18.1145 6.77082 17.6767C5.75693 17.239 4.87166 16.6417 4.11499 15.8851C3.35832 15.1284 2.7611 14.2431 2.32332 13.2292C1.88555 12.2154 1.66666 11.139 1.66666 10.0001C1.66666 8.8473 1.89249 7.76397 2.34416 6.75008C2.79582 5.73619 3.40693 4.85425 4.17749 4.10425C4.94805 3.35425 5.84721 2.76064 6.87499 2.32341C7.90277 1.88619 8.99999 1.6673 10.1667 1.66675C11.2778 1.66675 12.3264 1.85786 13.3125 2.24008C14.2986 2.6223 15.1633 3.15008 15.9067 3.82341C16.65 4.49675 17.2403 5.29536 17.6775 6.21925C18.1147 7.14314 18.3333 8.13953 18.3333 9.20842C18.3333 10.8056 17.8472 12.0315 16.875 12.8859C15.9028 13.7404 14.7222 14.1673 13.3333 14.1667H11.7917C11.6667 14.1667 11.58 14.2015 11.5317 14.2709C11.4833 14.3404 11.4589 14.4167 11.4583 14.5001C11.4583 14.6667 11.5625 14.9065 11.7708 15.2192C11.9792 15.532 12.0833 15.8895 12.0833 16.2917C12.0833 16.9862 11.8925 17.5001 11.5108 17.8334C11.1292 18.1667 10.6255 18.3334 9.99999 18.3334ZM5.41666 10.8334C5.77777 10.8334 6.07638 10.7154 6.31249 10.4792C6.5486 10.2431 6.66666 9.94453 6.66666 9.58342C6.66666 9.2223 6.5486 8.92369 6.31249 8.68758C6.07638 8.45147 5.77777 8.33342 5.41666 8.33342C5.05555 8.33342 4.75693 8.45147 4.52082 8.68758C4.28471 8.92369 4.16666 9.2223 4.16666 9.58342C4.16666 9.94453 4.28471 10.2431 4.52082 10.4792C4.75693 10.7154 5.05555 10.8334 5.41666 10.8334ZM7.91666 7.50008C8.27777 7.50008 8.57638 7.38203 8.81249 7.14592C9.0486 6.9098 9.16666 6.61119 9.16666 6.25008C9.16666 5.88897 9.0486 5.59036 8.81249 5.35425C8.57638 5.11814 8.27777 5.00008 7.91666 5.00008C7.55555 5.00008 7.25693 5.11814 7.02082 5.35425C6.78471 5.59036 6.66666 5.88897 6.66666 6.25008C6.66666 6.61119 6.78471 6.9098 7.02082 7.14592C7.25693 7.38203 7.55555 7.50008 7.91666 7.50008ZM12.0833 7.50008C12.4444 7.50008 12.743 7.38203 12.9792 7.14592C13.2153 6.9098 13.3333 6.61119 13.3333 6.25008C13.3333 5.88897 13.2153 5.59036 12.9792 5.35425C12.743 5.11814 12.4444 5.00008 12.0833 5.00008C11.7222 5.00008 11.4236 5.11814 11.1875 5.35425C10.9514 5.59036 10.8333 5.88897 10.8333 6.25008C10.8333 6.61119 10.9514 6.9098 11.1875 7.14592C11.4236 7.38203 11.7222 7.50008 12.0833 7.50008ZM14.5833 10.8334C14.9444 10.8334 15.243 10.7154 15.4792 10.4792C15.7153 10.2431 15.8333 9.94453 15.8333 9.58342C15.8333 9.2223 15.7153 8.92369 15.4792 8.68758C15.243 8.45147 14.9444 8.33342 14.5833 8.33342C14.2222 8.33342 13.9236 8.45147 13.6875 8.68758C13.4514 8.92369 13.3333 9.2223 13.3333 9.58342C13.3333 9.94453 13.4514 10.2431 13.6875 10.4792C13.9236 10.7154 14.2222 10.8334 14.5833 10.8334ZM9.99999 16.6667C10.125 16.6667 10.2258 16.632 10.3025 16.5626C10.3792 16.4931 10.4172 16.4029 10.4167 16.2917C10.4167 16.0973 10.3125 15.8681 10.1042 15.6042C9.89582 15.3404 9.79166 14.9445 9.79166 14.4167C9.79166 13.8334 9.99305 13.3681 10.3958 13.0209C10.7986 12.6737 11.2917 12.5001 11.875 12.5001H13.3333C14.25 12.5001 15.0347 12.2329 15.6875 11.6984C16.3403 11.164 16.6667 10.334 16.6667 9.20842C16.6667 7.52786 16.0244 6.12842 14.74 5.01008C13.4555 3.89175 11.9311 3.33286 10.1667 3.33341C8.27777 3.33341 6.66666 3.97925 5.33332 5.27091C3.99999 6.56258 3.33332 8.13897 3.33332 10.0001C3.33332 11.8473 3.98277 13.4204 5.28166 14.7192C6.58055 16.0181 8.15332 16.6673 9.99999 16.6667Z"
        fill="white" />
</svg>
    