<svg width="22" height="22" viewBox="0 0 22 22" fill="none" xmlns="http://www.w3.org/2000/svg">
    <g opacity="0.87" clip-path="url(#clip0_1_4315)">
        <path
            d="M15.6527 11.613C16.9263 12.4777 17.8188 13.6491 17.8188 15.2109V18H21.5376V15.2109C21.5376 13.1842 18.2186 11.9849 15.6527 11.613ZM14.1001 10.5625C16.1547 10.5625 17.8188 8.89836 17.8188 6.84375C17.8188 4.78914 16.1547 3.125 14.1001 3.125C13.6631 3.125 13.2541 3.21797 12.8636 3.34812C13.6636 4.33751 14.1001 5.57138 14.1001 6.84375C14.1001 8.11612 13.6636 9.34999 12.8636 10.3394C13.2541 10.4695 13.6631 10.5625 14.1001 10.5625ZM8.52197 10.5625C10.5766 10.5625 12.2407 8.89836 12.2407 6.84375C12.2407 4.78914 10.5766 3.125 8.52197 3.125C6.46736 3.125 4.80322 4.78914 4.80322 6.84375C4.80322 8.89836 6.46736 10.5625 8.52197 10.5625ZM8.52197 4.98438C9.54463 4.98438 10.3813 5.82109 10.3813 6.84375C10.3813 7.86641 9.54463 8.70312 8.52197 8.70312C7.49932 8.70312 6.6626 7.86641 6.6626 6.84375C6.6626 5.82109 7.49932 4.98438 8.52197 4.98438ZM8.52197 11.4922C6.03971 11.4922 1.08447 12.738 1.08447 15.2109V18H15.9595V15.2109C15.9595 12.738 11.0042 11.4922 8.52197 11.4922ZM14.1001 16.1406H2.94385V15.2202C3.12979 14.5509 6.01182 13.3516 8.52197 13.3516C11.0321 13.3516 13.9142 14.5509 14.1001 15.2109V16.1406Z"
            fill="white" />
    </g>
    <defs>
        <clipPath id="clip0_1_4315">
            <rect width="21" height="21" fill="white" transform="translate(0.5 0.5)" />
        </clipPath>
    </defs>
</svg>