<svg width="16" height="16" viewBox="0 0 16 16" fill="none" xmlns="http://www.w3.org/2000/svg">
    <path
        d="M7.99984 7.99999C7.2665 7.99999 6.63873 7.73888 6.1165 7.21666C5.59428 6.69443 5.33317 6.06666 5.33317 5.33332C5.33317 4.59999 5.59428 3.97221 6.1165 3.44999C6.63873 2.92777 7.2665 2.66666 7.99984 2.66666C8.73317 2.66666 9.36095 2.92777 9.88317 3.44999C10.4054 3.97221 10.6665 4.59999 10.6665 5.33332C10.6665 6.06666 10.4054 6.69443 9.88317 7.21666C9.36095 7.73888 8.73317 7.99999 7.99984 7.99999ZM2.6665 13.3333V11.4667C2.6665 11.0889 2.76384 10.7418 2.9585 10.4253C3.15317 10.1089 3.41139 9.8671 3.73317 9.69999C4.42206 9.35555 5.12206 9.09732 5.83317 8.92532C6.54428 8.75332 7.2665 8.6671 7.99984 8.66666C8.73317 8.66621 9.45539 8.75243 10.1665 8.92532C10.8776 9.09821 11.5776 9.35643 12.2665 9.69999C12.5887 9.86666 12.8472 10.1084 13.0418 10.4253C13.2365 10.7422 13.3336 11.0893 13.3332 11.4667V13.3333H2.6665ZM3.99984 12H11.9998V11.4667C11.9998 11.3444 11.9694 11.2333 11.9085 11.1333C11.8476 11.0333 11.7669 10.9555 11.6665 10.9C11.0665 10.6 10.4609 10.3751 9.84984 10.2253C9.23873 10.0755 8.62206 10.0004 7.99984 9.99999C7.37761 9.99955 6.76095 10.0747 6.14984 10.2253C5.53873 10.376 4.93317 10.6009 4.33317 10.9C4.23317 10.9555 4.1525 11.0333 4.09117 11.1333C4.02984 11.2333 3.99939 11.3444 3.99984 11.4667V12ZM7.99984 6.66666C8.3665 6.66666 8.6805 6.53621 8.94184 6.27532C9.20317 6.01443 9.33362 5.70043 9.33317 5.33332C9.33273 4.96621 9.20228 4.65243 8.94184 4.39199C8.68139 4.13155 8.36739 4.00088 7.99984 3.99999C7.63228 3.9991 7.3185 4.12977 7.0585 4.39199C6.7985 4.65421 6.66784 4.96799 6.6665 5.33332C6.66517 5.69866 6.79584 6.01266 7.0585 6.27532C7.32117 6.53799 7.63495 6.66843 7.99984 6.66666Z"
        fill="white" />
</svg>
    