<svg width="36" height="36" viewBox="0 0 36 36" fill="none" xmlns="http://www.w3.org/2000/svg">
<rect width="36" height="36" rx="9" fill="white" fill-opacity="0.06"/>
<path d="M14.6155 23.625C14.2326 23.625 13.9427 23.2791 14.0096 22.9021L14.325 21.125H12.5689C12.1806 21.125 11.8863 20.7747 11.9532 20.3923C12.0056 20.0932 12.2653 19.875 12.5689 19.875H14.5438L15.2063 16.125H13.4501C13.0619 16.125 12.7676 15.7747 12.8345 15.3923C12.8868 15.0932 13.1465 14.875 13.4501 14.875H15.425L15.7786 12.8828C15.8308 12.589 16.0862 12.375 16.3845 12.375C16.7674 12.375 17.0574 12.7209 16.9904 13.0979L16.675 14.875H20.425L20.7786 12.8828C20.8308 12.589 21.0862 12.375 21.3845 12.375C21.7674 12.375 22.0574 12.7209 21.9904 13.0979L21.675 14.875H23.4311C23.8194 14.875 24.1137 15.2253 24.0468 15.6077C23.9944 15.9068 23.7348 16.125 23.4311 16.125H21.4563L20.7938 19.875H22.5499C22.9382 19.875 23.2325 20.2253 23.1655 20.6077C23.1132 20.9068 22.8535 21.125 22.5499 21.125H20.575L20.2214 23.1172C20.1693 23.411 19.9139 23.625 19.6155 23.625C19.2326 23.625 18.9427 23.2791 19.0096 22.9021L19.325 21.125H15.575L15.2214 23.1172C15.1693 23.411 14.9139 23.625 14.6155 23.625ZM16.4563 16.125L15.7938 19.875H19.5438L20.2063 16.125H16.4563Z" fill="white" fill-opacity="0.36"/>
</svg>
