<svg width="18" height="18" viewBox="0 0 18 18" fill="none" xmlns="http://www.w3.org/2000/svg">
    <path
        d="M8.25 11.25V9H9C9.828 9 10.5 8.32725 10.5 7.5C10.5 6.672 9.828 6 9 6C8.172 6 7.5 6.672 7.5 7.5H6C6 5.84625 7.34625 4.5 9 4.5C10.6537 4.5 12 5.84625 12 7.5C12 8.895 11.0422 10.071 9.75 10.4062V11.25H8.25Z"
        fill="white" />
    <path
        d="M9.9375 12.75C9.9375 13.2678 9.51777 13.6875 9 13.6875C8.48223 13.6875 8.0625 13.2678 8.0625 12.75C8.0625 12.2322 8.48223 11.8125 9 11.8125C9.51777 11.8125 9.9375 12.2322 9.9375 12.75Z"
        fill="white" />
    <path fill-rule="evenodd" clip-rule="evenodd"
        d="M9 16.5C4.8645 16.5 1.5 13.1362 1.5 9C1.5 4.86525 4.8645 1.5 9 1.5C13.1355 1.5 16.5 4.8645 16.5 9C16.5 13.1362 13.1355 16.5 9 16.5ZM9 3C5.69175 3 3 5.69175 3 9C3 12.3082 5.69175 15 9 15C12.3082 15 15 12.3082 15 9C15 5.69175 12.3082 3 9 3Z"
        fill="white" />
</svg>
    