<svg width="14" height="20" viewBox="0 0 14 20" fill="none" xmlns="http://www.w3.org/2000/svg">
    <path
        d="M6.75249 13.5302C6.18579 13.5302 5.71287 13.0711 5.70165 12.5045C5.6859 11.7084 5.725 10.8867 6.14672 10.2418C6.42694 9.7967 6.92145 9.41758 7.63024 9.10439L8.32254 8.80769C9.17969 8.44506 9.84727 8.01648 10.3253 7.52198C10.8033 7.01099 11.0423 6.3022 11.0423 5.3956C11.0423 4.71978 10.8692 4.1511 10.5231 3.68956C10.1769 3.22802 9.70716 2.87363 9.11375 2.62637C8.52035 2.37912 7.85276 2.2555 7.11101 2.2555C6.36925 2.2555 5.67694 2.38736 5.03408 2.6511C4.40771 2.89835 3.89672 3.28571 3.50112 3.81319C3.0955 4.35989 2.97756 4.98673 2.94427 5.63069C2.91571 6.18299 2.4841 6.63187 1.93106 6.63187C1.37802 6.63187 0.921097 6.18316 0.946791 5.63071C0.991491 4.66961 1.15163 3.73446 1.7209 2.89835C2.26485 2.10714 2.99837 1.51374 3.92145 1.11813C4.86101 0.706044 5.92419 0.5 7.11101 0.5C8.28134 0.5 9.31155 0.714286 10.2017 1.14286C11.1083 1.55495 11.8088 2.13187 12.3033 2.87363C12.8143 3.5989 13.0698 4.43956 13.0698 5.3956C13.0698 6.33516 12.8885 7.11813 12.5258 7.74451C12.1797 8.3544 11.7264 8.86539 11.166 9.27747C10.6055 9.67308 9.98738 10.0192 9.31156 10.3159L8.64397 10.6126C8.33079 10.7445 8.10826 10.9176 7.97639 11.1319C7.74829 11.5025 7.71773 12.0075 7.7326 12.5053C7.74951 13.0717 7.31919 13.5302 6.75249 13.5302ZM6.78958 19.5C6.29507 19.5 5.89123 19.3434 5.57804 19.0302C5.26485 18.717 5.10826 18.3132 5.10826 17.8187C5.10826 17.3242 5.26485 16.9203 5.57804 16.6071C5.89123 16.294 6.29507 16.1374 6.78958 16.1374C7.2676 16.1374 7.6632 16.294 7.97639 16.6071C8.30606 16.9203 8.4709 17.3242 8.4709 17.8187C8.4709 18.3132 8.30606 18.717 7.97639 19.0302C7.6632 19.3434 7.2676 19.5 6.78958 19.5Z"
        fill="white" fill-opacity="0.18" />
</svg>