<svg width="24" height="24" viewBox="0 0 24 24" fill="none" xmlns="http://www.w3.org/2000/svg">
    <path
        d="M12.1496 0C14.4774 0 16.6523 0.654627 18.5002 1.78983C19.1858 2.21099 19.2357 3.15446 18.6668 3.72341L3.72341 18.6668C3.15446 19.2357 2.21099 19.1858 1.78983 18.5002C0.654627 16.6523 0 14.4774 0 12.1496V4.04988C0 1.81319 1.81319 0 4.04988 0H12.1496Z"
        fill="white" />
    <path
        d="M15.4087 10.7997L20.5759 5.63254C21.1448 5.06359 22.0883 5.11347 22.5095 5.79905C23.1688 6.87228 23.666 8.05579 23.967 9.31549C24.1539 10.0978 23.522 10.7997 22.7177 10.7997L15.4087 10.7997Z"
        fill="white" />
    <path
        d="M5.79905 22.5095C5.11347 22.0883 5.06359 21.1448 5.63254 20.5759L10.7997 15.4087V22.7177C10.7997 23.522 10.0978 24.1539 9.31549 23.967C8.05579 23.666 6.87228 23.1688 5.79905 22.5095Z"
        fill="white" />
    <path
        d="M18.6668 20.5759C19.2357 21.1448 19.1858 22.0883 18.5002 22.5095C17.427 23.1688 16.2435 23.666 14.9838 23.967C14.2015 24.1539 13.4996 23.522 13.4996 22.7177V15.4087L18.6668 20.5759Z"
        fill="white" />
    <path
        d="M22.5095 18.5002C22.0883 19.1858 21.1448 19.2357 20.5759 18.6668L15.4087 13.4996L22.7177 13.4996C23.522 13.4996 24.1539 14.2015 23.967 14.9838C23.666 16.2435 23.1688 17.427 22.5095 18.5002Z"
        fill="white" />
</svg>
    