<svg width="18" height="18" viewBox="0 0 18 18" fill="none" xmlns="http://www.w3.org/2000/svg">
    <path fill-rule="evenodd" clip-rule="evenodd"
        d="M13.5 4.5C13.8978 4.5 14.2794 4.65804 14.5607 4.93934C14.842 5.22064 15 5.60218 15 6V8.25C15 9.075 14.325 9.75 13.5 9.75H11.25C11.25 10.3467 11.4871 10.919 11.909 11.341C12.331 11.7629 12.9033 12 13.5 12H14.25C14.4489 12 14.6397 12.079 14.7803 12.2197C14.921 12.3603 15 12.5511 15 12.75C15 12.9489 14.921 13.1397 14.7803 13.2803C14.6397 13.421 14.4489 13.5 14.25 13.5H13.5C12.5054 13.5 11.5516 13.1049 10.8483 12.4017C10.1451 11.6984 9.75 10.7446 9.75 9.75V6C9.75 5.60218 9.90804 5.22064 10.1893 4.93934C10.4706 4.65804 10.8522 4.5 11.25 4.5H13.5ZM6.75 4.5C7.14782 4.5 7.52936 4.65804 7.81066 4.93934C8.09196 5.22064 8.25 5.60218 8.25 6V8.25C8.25 9.075 7.575 9.75 6.75 9.75H4.5C4.5 10.3467 4.73705 10.919 5.15901 11.341C5.58097 11.7629 6.15326 12 6.75 12H7.5C7.69891 12 7.88968 12.079 8.03033 12.2197C8.17098 12.3603 8.25 12.5511 8.25 12.75C8.25 12.9489 8.17098 13.1397 8.03033 13.2803C7.88968 13.421 7.69891 13.5 7.5 13.5H6.75C5.75544 13.5 4.80161 13.1049 4.09835 12.4017C3.39509 11.6984 3 10.7446 3 9.75V6C3 5.60218 3.15804 5.22064 3.43934 4.93934C3.72064 4.65804 4.10218 4.5 4.5 4.5H6.75Z"
        fill="#FFD98E" />
</svg>
    