<svg width="24" height="25" viewBox="0 0 24 25" fill="none" xmlns="http://www.w3.org/2000/svg">
    <path
        d="M20.0799 12.3819L16.0399 6.73191C15.6999 6.25191 15.1499 5.96191 14.5599 5.96191C13.0699 5.96191 12.2099 7.64191 13.0699 8.85191L15.9999 12.9619L13.0699 17.0719C12.1999 18.2819 13.0699 19.9619 14.5599 19.9619C15.1499 19.9619 15.7099 19.6719 16.0499 19.1919L20.0899 13.5419C20.3299 13.1919 20.3299 12.7319 20.0799 12.3819Z"
        fill="black" />
    <path
        d="M13.0799 12.3819L9.04992 6.73191C8.69992 6.25191 8.14992 5.96191 7.55992 5.96191C6.06992 5.96191 5.19992 7.64191 6.06992 8.85191L8.99992 12.9619L6.06992 17.0719C5.19992 18.2819 6.06992 19.9619 7.55992 19.9619C8.14992 19.9619 8.70992 19.6719 9.04992 19.1919L13.0899 13.5419C13.3299 13.1919 13.3299 12.7319 13.0799 12.3819Z"
        fill="black" />
</svg>