<svg width="24" height="24" viewBox="0 0 24 24" fill="none" xmlns="http://www.w3.org/2000/svg">
    <path
        d="M3 6C3 5.73478 3.11589 5.48043 3.32218 5.29289C3.52847 5.10536 3.80826 5 4.1 5H12.9C13.1917 5 13.4715 5.10536 13.6778 5.29289C13.8841 5.48043 14 5.73478 14 6C14 6.26522 13.8841 6.51957 13.6778 6.70711C13.4715 6.89464 13.1917 7 12.9 7H4.1C3.80826 7 3.52847 6.89464 3.32218 6.70711C3.11589 6.51957 3 6.26522 3 6ZM3 14C3 13.7348 3.11589 13.4804 3.32218 13.2929C3.52847 13.1054 3.80826 13 4.1 13H12.9C13.1917 13 13.4715 13.1054 13.6778 13.2929C13.8841 13.4804 14 13.7348 14 14C14 14.2652 13.8841 14.5196 13.6778 14.7071C13.4715 14.8946 13.1917 15 12.9 15H4.1C3.80826 15 3.52847 14.8946 3.32218 14.7071C3.11589 14.5196 3 14.2652 3 14ZM3 18C3 17.7348 3.11589 17.4804 3.32218 17.2929C3.52847 17.1054 3.80826 17 4.1 17H12.9C13.1917 17 13.4715 17.1054 13.6778 17.2929C13.8841 17.4804 14 17.7348 14 18C14 18.2652 13.8841 18.5196 13.6778 18.7071C13.4715 18.8946 13.1917 19 12.9 19H4.1C3.80826 19 3.52847 18.8946 3.32218 18.7071C3.11589 18.5196 3 18.2652 3 18Z"
        fill="white" />
    <path fill-rule="evenodd" clip-rule="evenodd"
        d="M15.17 11.001C15.4059 11.6685 15.8702 12.2311 16.4808 12.5894C17.0914 12.9476 17.809 13.0785 18.5068 12.9588C19.2046 12.8391 19.8375 12.4766 20.2939 11.9354C20.7502 11.3941 21.0005 10.709 21.0005 10.001C21.0005 9.29305 20.7502 8.60789 20.2939 8.06663C19.8375 7.52538 19.2046 7.16287 18.5068 7.0432C17.809 6.92352 17.0914 7.05438 16.4808 7.41265C15.8702 7.77091 15.4059 8.33351 15.17 9.00101H4C3.73478 9.00101 3.48043 9.10636 3.29289 9.2939C3.10536 9.48144 3 9.73579 3 10.001C3 10.2662 3.10536 10.5206 3.29289 10.7081C3.48043 10.8956 3.73478 11.001 4 11.001H15.17ZM19 10.001C19 10.2662 18.8946 10.5206 18.7071 10.7081C18.5196 10.8956 18.2652 11.001 18 11.001C17.7348 11.001 17.4804 10.8956 17.2929 10.7081C17.1054 10.5206 17 10.2662 17 10.001C17 9.73579 17.1054 9.48144 17.2929 9.2939C17.4804 9.10636 17.7348 9.00101 18 9.00101C18.2652 9.00101 18.5196 9.10636 18.7071 9.2939C18.8946 9.48144 19 9.73579 19 10.001Z"
        fill="white" />
</svg>
    