<svg width="14" height="16" viewBox="0 0 14 16" fill="none" xmlns="http://www.w3.org/2000/svg">
<path fill-rule="evenodd" clip-rule="evenodd" d="M12.2504 0.5C12.6647 0.5 13.0004 0.835786 13.0004 1.25V5C13.0004 5.41421 12.6647 5.75 12.2504 5.75H8.50045C8.08623 5.75 7.75045 5.41421 7.75045 5C7.75045 4.58579 8.08623 4.25 8.50045 4.25H10.6742C10.314 3.89718 9.90313 3.59637 9.45298 3.35855C8.58458 2.89976 7.6049 2.69376 6.62527 2.76396C5.64564 2.83417 4.70535 3.17775 3.91125 3.75568C3.11714 4.33361 2.50108 5.1227 2.13305 6.03329C1.97784 6.41732 1.5407 6.60282 1.15666 6.44761C0.772629 6.29239 0.587132 5.85525 0.742343 5.47121C1.21551 4.30047 2.0076 3.28592 3.02859 2.54287C4.04958 1.79982 5.25853 1.35806 6.51805 1.2678C7.77758 1.17754 9.03716 1.44239 10.1537 2.03226C10.6414 2.28992 11.0932 2.60508 11.5004 2.9693V1.25C11.5004 0.835786 11.8362 0.5 12.2504 0.5ZM12.8449 9.55236C13.2289 9.70751 13.4145 10.1446 13.2593 10.5287C12.7863 11.6997 11.9942 12.7144 10.9731 13.4576C9.95203 14.2008 8.74294 14.6427 7.48325 14.733C6.22357 14.8232 4.96382 14.5583 3.84721 13.9683C3.35951 13.7105 2.90766 13.3953 2.50045 13.0311V14.75C2.50045 15.1642 2.16466 15.5 1.75045 15.5C1.33623 15.5 1.00045 15.1642 1.00045 14.75V11C1.00045 10.5858 1.33623 10.25 1.75045 10.25H5.50045C5.91466 10.25 6.25045 10.5858 6.25045 11C6.25045 11.4142 5.91466 11.75 5.50045 11.75H3.32633C3.68662 12.1031 4.09767 12.4041 4.54801 12.642C5.41648 13.1009 6.39628 13.307 7.37604 13.2368C8.35579 13.1666 9.2962 12.8229 10.0904 12.2449C10.8845 11.6668 11.5006 10.8776 11.8686 9.96681C12.0237 9.58275 12.4608 9.3972 12.8449 9.55236Z" fill="white" fill-opacity="0.36"/>
</svg>
