<svg width="13" height="12" viewBox="0 0 13 12" fill="none" xmlns="http://www.w3.org/2000/svg">
    <g clip-path="url(#clip0_11782_89344)">
        <path fill-rule="evenodd" clip-rule="evenodd"
            d="M6.00352 0.18812C7.01028 0.102203 8.02211 0.27927 8.93987 0.701977C9.85763 1.12468 10.6498 1.77853 11.2389 2.59947V1.44302C11.2389 1.29798 11.2965 1.15888 11.3991 1.05632C11.5017 0.953758 11.6408 0.896141 11.7858 0.896141C11.9308 0.896141 12.0699 0.953758 12.1725 1.05632C12.2751 1.15888 12.3327 1.29798 12.3327 1.44302V4.54197H9.23372C9.08868 4.54197 8.94958 4.48436 8.84703 4.3818C8.74447 4.27924 8.68685 4.14014 8.68685 3.9951C8.68685 3.85006 8.74447 3.71096 8.84703 3.6084C8.94958 3.50584 9.08868 3.44822 9.23372 3.44822H10.493C9.99433 2.66795 9.27801 2.05084 8.43253 1.67313C7.58705 1.29543 6.64944 1.17367 5.73553 1.3229C4.82162 1.47212 3.97145 1.8858 3.29003 2.51283C2.6086 3.13986 2.12579 3.95277 1.90122 4.85114C1.88466 4.92171 1.85423 4.98828 1.81171 5.04699C1.76918 5.10569 1.71541 5.15536 1.65352 5.1931C1.59163 5.23083 1.52286 5.25589 1.4512 5.26681C1.37953 5.27773 1.30642 5.27429 1.2361 5.2567C1.16578 5.23911 1.09965 5.20771 1.04158 5.16433C0.983497 5.12096 0.934622 5.06647 0.897792 5.00403C0.860962 4.9416 0.836911 4.87247 0.827039 4.80065C0.817167 4.72884 0.82167 4.65578 0.840286 4.58572C1.13527 3.40624 1.79141 2.34841 2.71701 1.56008C3.64261 0.771756 4.79139 0.29234 6.00279 0.188849L6.00352 0.18812ZM3.52435 11.0177C4.30601 11.481 5.18508 11.7553 6.09151 11.8187C6.99794 11.8821 7.90665 11.7329 8.7452 11.383C9.58376 11.033 10.329 10.492 10.9214 9.80312C11.5139 9.11419 11.9372 8.29638 12.1577 7.41489C12.1905 7.27503 12.167 7.12788 12.0922 7.00522C12.0174 6.88257 11.8974 6.79426 11.758 6.7594C11.6186 6.72453 11.4712 6.74591 11.3474 6.8189C11.2237 6.89189 11.1336 7.01063 11.0967 7.14947C10.8721 8.04766 10.3892 8.86036 9.70786 9.48723C9.0265 10.1141 8.17646 10.5277 7.2627 10.6769C6.34895 10.8261 5.4115 10.7044 4.56612 10.3269C3.72074 9.94932 3.00445 9.33244 2.5057 8.55239H3.76497C3.91001 8.55239 4.04911 8.49477 4.15167 8.39221C4.25423 8.28966 4.31185 8.15056 4.31185 8.00552C4.31185 7.86048 4.25423 7.72138 4.15167 7.61882C4.04911 7.51626 3.91001 7.45864 3.76497 7.45864H0.666016V10.5576C0.666016 10.7026 0.723633 10.8417 0.826192 10.9443C0.928751 11.0469 1.06785 11.1045 1.21289 11.1045C1.35793 11.1045 1.49703 11.0469 1.59959 10.9443C1.70215 10.8417 1.75977 10.7026 1.75977 10.5576V9.40114C2.22992 10.0562 2.83076 10.6066 3.52435 11.0177Z"
            fill="white" />
    </g>
    <defs>
        <clipPath id="clip0_11782_89344">
            <rect width="11.6667" height="11.6667" fill="white"
                transform="translate(0.666016 0.166748)" />
        </clipPath>
    </defs>
</svg>