<svg width="15" height="16" viewBox="0 0 15 16" fill="none" xmlns="http://www.w3.org/2000/svg">
<g id="ic:round-report-gmailerrorred">
<path id="Vector" d="M12.9437 5.4875L10.0188 2.5625C9.9 2.44375 9.7375 2.375 9.575 2.375H5.425C5.2625 2.375 5.1 2.44375 4.9875 2.55625L2.05625 5.4875C1.94375 5.6 1.875 5.7625 1.875 5.925V10.0688C1.875 10.2375 1.94375 10.3938 2.05625 10.5125L4.98125 13.4375C5.1 13.5563 5.2625 13.625 5.425 13.625H9.56875C9.7375 13.625 9.89375 13.5562 10.0125 13.4437L12.9375 10.5188C12.9957 10.4606 13.0417 10.3913 13.0728 10.3151C13.104 10.2389 13.1196 10.1573 13.1187 10.075V5.925C13.125 5.7625 13.0562 5.6 12.9437 5.4875ZM11.875 9.8125L9.3125 12.375H5.6875L3.125 9.8125V6.1875L5.6875 3.625H9.3125L11.875 6.1875V9.8125Z" fill="#FF6565"/>
<path id="Vector_2" d="M7.5 11.125C7.84518 11.125 8.125 10.8452 8.125 10.5C8.125 10.1548 7.84518 9.875 7.5 9.875C7.15482 9.875 6.875 10.1548 6.875 10.5C6.875 10.8452 7.15482 11.125 7.5 11.125Z" fill="#FF6565"/>
<path id="Vector_3" d="M7.5 4.875C7.15625 4.875 6.875 5.15625 6.875 5.5V8.625C6.875 8.96875 7.15625 9.25 7.5 9.25C7.84375 9.25 8.125 8.96875 8.125 8.625V5.5C8.125 5.15625 7.84375 4.875 7.5 4.875Z" fill="#FF6565"/>
</g>
</svg>
