<svg width="15" height="16" viewBox="0 0 15 16" fill="none" xmlns="http://www.w3.org/2000/svg">
    <path
        d="M7.5 6.125H10C10.3438 6.125 10.625 5.84375 10.625 5.5C10.625 5.15625 10.3438 4.875 10 4.875H7.5C7.15625 4.875 6.875 5.15625 6.875 5.5C6.875 5.84375 7.15625 6.125 7.5 6.125ZM7.5 8.625H10C10.3438 8.625 10.625 8.34375 10.625 8C10.625 7.65625 10.3438 7.375 10 7.375H7.5C7.15625 7.375 6.875 7.65625 6.875 8C6.875 8.34375 7.15625 8.625 7.5 8.625ZM7.5 11.125H10C10.3438 11.125 10.625 10.8438 10.625 10.5C10.625 10.1562 10.3438 9.875 10 9.875H7.5C7.15625 9.875 6.875 10.1562 6.875 10.5C6.875 10.8438 7.15625 11.125 7.5 11.125ZM4.375 4.875H5.625V6.125H4.375V4.875ZM4.375 7.375H5.625V8.625H4.375V7.375ZM4.375 9.875H5.625V11.125H4.375V9.875ZM12.5 2.375H2.5C2.15625 2.375 1.875 2.65625 1.875 3V13C1.875 13.3438 2.15625 13.625 2.5 13.625H12.5C12.8438 13.625 13.125 13.3438 13.125 13V3C13.125 2.65625 12.8438 2.375 12.5 2.375ZM11.875 12.375H3.125V3.625H11.875V12.375Z"
        fill="white"
    />
</svg>