<svg width="18" height="18" viewBox="0 0 18 18" fill="none" xmlns="http://www.w3.org/2000/svg">
<path d="M9 9C8.175 9 7.46875 8.70625 6.88125 8.11875C6.29375 7.53125 6 6.825 6 6C6 5.175 6.29375 4.46875 6.88125 3.88125C7.46875 3.29375 8.175 3 9 3C9.825 3 10.5312 3.29375 11.1187 3.88125C11.7062 4.46875 12 5.175 12 6C12 6.825 11.7062 7.53125 11.1187 8.11875C10.5312 8.70625 9.825 9 9 9ZM3 13.5V12.9C3 12.4875 3.10625 12.1 3.31875 11.7375C3.53125 11.375 3.825 11.1 4.2 10.9125C4.925 10.55 5.675 10.2655 6.45 10.059C7.225 9.8525 8.01875 9.7495 8.83125 9.75C9.04375 9.75 9.222 9.825 9.366 9.975C9.51 10.125 9.58175 10.3062 9.58125 10.5187C9.58075 10.7312 9.50875 10.9095 9.36525 11.0535C9.22175 11.1975 9.04375 11.2692 8.83125 11.2687C8.13125 11.2687 7.453 11.3562 6.7965 11.5312C6.14 11.7063 5.4995 11.95 4.875 12.2625C4.75 12.325 4.65625 12.4125 4.59375 12.525C4.53125 12.6375 4.5 12.7625 4.5 12.9V13.5H8.83125C9.04375 13.5 9.222 13.572 9.366 13.716C9.51 13.86 9.58175 14.038 9.58125 14.25C9.58075 14.462 9.50875 14.6402 9.36525 14.7847C9.22175 14.9292 9.04375 15.001 8.83125 15H4.5C4.0875 15 3.7345 14.8533 3.441 14.5598C3.1475 14.2663 3.0005 13.913 3 13.5ZM9 7.5C9.4125 7.5 9.76575 7.35325 10.0598 7.05975C10.3538 6.76625 10.5005 6.413 10.5 6C10.4995 5.587 10.3528 5.234 10.0598 4.941C9.76675 4.648 9.4135 4.501 9 4.5C8.5865 4.499 8.2335 4.646 7.941 4.941C7.6485 5.236 7.5015 5.589 7.5 6C7.4985 6.411 7.6455 6.76425 7.941 7.05975C8.2365 7.35525 8.5895 7.502 9 7.5Z" fill="white" fill-opacity="1"/>
<path d="M10.5 12H15" stroke="white" stroke-opacity="1" stroke-width="1.5" stroke-linecap="round"/>
</svg>
