<svg width="25" height="25" viewBox="0 0 25 25" fill="none" xmlns="http://www.w3.org/2000/svg">
<path d="M18.4997 22.5016C18.3067 22.5016 18.1127 22.4456 17.9447 22.3336L12.4997 18.7036L7.05474 22.3336C6.70674 22.5656 6.24974 22.5576 5.90974 22.3096C5.57174 22.0626 5.42374 21.6306 5.53874 21.2276L7.37674 14.7926L2.79274 10.2086C2.50674 9.92363 2.42174 9.49263 2.57574 9.11863C2.72974 8.74563 3.09574 8.50163 3.49974 8.50163H8.88174L11.6057 3.05462C11.9447 2.37762 13.0557 2.37762 13.3947 3.05462L16.1187 8.50163H21.4997C21.9037 8.50163 22.2697 8.74563 22.4237 9.11863C22.5777 9.49263 22.4927 9.92363 22.2067 10.2086L17.6227 14.7926L19.4607 21.2276C19.5757 21.6306 19.4277 22.0626 19.0897 22.3096C18.9137 22.4376 18.7067 22.5016 18.4997 22.5016ZM12.4997 16.5016C12.6927 16.5016 12.8867 16.5586 13.0547 16.6696L16.7907 19.1606L15.5387 14.7766C15.4377 14.4266 15.5357 14.0506 15.7927 13.7946L19.0857 10.5016H15.4997C15.1207 10.5016 14.7747 10.2876 14.6047 9.94863L12.4997 5.73763L10.3947 9.94863C10.2247 10.2876 9.87875 10.5016 9.49974 10.5016H5.91374L9.20674 13.7946C9.46374 14.0516 9.56075 14.4276 9.46075 14.7766L8.20875 19.1606L11.9447 16.6696C12.1127 16.5586 12.3067 16.5016 12.4997 16.5016Z" fill="white" fill-opacity="1"/>
</svg>
