<svg width="24" height="24" viewBox="0 0 24 24" fill="none" xmlns="http://www.w3.org/2000/svg">
    <path
        d="M14.5881 21.6593C19.9231 20.2303 23.0881 14.7463 21.6601 9.41233L21.6591 9.41033C20.2301 4.07633 14.7461 0.910327 9.41208 2.34233C7.29864 2.90855 5.42914 4.1521 4.09003 5.88243C2.75092 7.61276 2.01607 9.73442 1.99808 11.9223C1.99108 12.8243 2.99308 13.3233 3.71108 12.8403L6.38408 11.0383C7.39208 10.3593 6.71608 8.78833 5.53008 9.05333L4.47308 9.28833C5.09531 7.56216 6.292 6.10236 7.86256 5.1536C9.43313 4.20485 11.2821 3.82483 13.0995 4.07723C14.917 4.32964 16.5924 5.19913 17.845 6.53996C19.0976 7.88079 19.8512 9.61145 19.9795 11.4418C20.1078 13.2722 19.603 15.0911 18.5497 16.5936C17.4963 18.096 15.9586 19.1907 14.1941 19.6942C12.4296 20.1976 10.5457 20.0792 8.85818 19.3588C7.17063 18.6384 5.78201 17.3598 4.92508 15.7373C4.80149 15.5026 4.58972 15.3266 4.33636 15.248C4.083 15.1694 3.8088 15.1947 3.57408 15.3183C3.33937 15.4419 3.16336 15.6537 3.08478 15.907C3.0062 16.1604 3.03149 16.4346 3.15508 16.6693C5.28408 20.7093 9.99008 22.8913 14.5881 21.6593Z"
        fill="#67F38E" />
    <path
        d="M12 7C12.5523 7 13 7.44772 13 8H14C14.5523 8 15 8.44772 15 9C15 9.55228 14.5523 10 14 10H11.5C11.225 10 11 10.224 11 10.5C11 10.776 11.225 11 11.5 11H12.5C13.879 11 15 12.122 15 13.5C15 14.706 14.14 15.717 13 15.949V16C13 16.5523 12.5523 17 12 17C11.4477 17 11 16.5523 11 16H10C9.44772 16 9 15.5523 9 15C9 14.4477 9.44772 14 10 14H12.5C12.776 14 13 13.776 13 13.5C13 13.224 12.776 13 12.5 13H11.5C10.122 13 9 11.878 9 10.5C9 9.293 9.86 8.283 11 8.051V8C11 7.44772 11.4477 7 12 7Z"
        fill="#67F38E" />
</svg>
    