<svg width="16" height="16" viewBox="0 0 16 16" fill="none" xmlns="http://www.w3.org/2000/svg">
<path d="M8.78746 2.37328C5.60621 2.28578 2.99996 4.84203 2.99996 7.99828H1.88121C1.59996 7.99828 1.46246 8.33578 1.66246 8.52953L3.40621 10.2795C3.53121 10.4045 3.72496 10.4045 3.84996 10.2795L5.59371 8.52953C5.6369 8.48547 5.66608 8.42961 5.67757 8.36899C5.68907 8.30837 5.68236 8.24571 5.6583 8.1889C5.63424 8.13208 5.5939 8.08367 5.54236 8.04974C5.49083 8.01582 5.4304 7.99791 5.36871 7.99828H4.24996C4.24996 5.56078 6.23746 3.59203 8.68746 3.62328C11.0125 3.65453 12.9687 5.61077 13 7.93577C13.0312 10.3795 11.0625 12.3733 8.62496 12.3733C7.61871 12.3733 6.68746 12.0295 5.94996 11.4483C5.83025 11.354 5.68005 11.307 5.52794 11.3162C5.37582 11.3254 5.2324 11.3902 5.12496 11.4983C4.86246 11.7608 4.88121 12.2045 5.17496 12.4295C6.15691 13.2061 7.37307 13.6269 8.62496 13.6233C11.7812 13.6233 14.3375 11.017 14.25 7.83578C14.1687 4.90453 11.7187 2.45453 8.78746 2.37328ZM8.46871 5.49828C8.21246 5.49828 7.99996 5.71077 7.99996 5.96703V8.26703C7.99996 8.48578 8.11871 8.69203 8.30621 8.80453L10.2562 9.96078C10.4812 10.092 10.7687 10.017 10.9 9.79828C11.0312 9.57328 10.9562 9.28578 10.7375 9.15453L8.93746 8.08578V5.96077C8.93746 5.71077 8.72496 5.49828 8.46871 5.49828Z" fill="white" fill-opacity="0.54"/>
</svg>
