<svg width="18" height="18" viewBox="0 0 18 18" fill="none" xmlns="http://www.w3.org/2000/svg">
    <path
        d="M4.5 16.5004C3.875 16.5004 3.34375 16.2816 2.90625 15.8441C2.46875 15.4066 2.25 14.8754 2.25 14.2504V12.7504C2.25 12.5379 2.322 12.3599 2.466 12.2164C2.61 12.0729 2.788 12.0009 3 12.0004H4.5V1.95039C4.5 1.86289 4.5375 1.80339 4.6125 1.77189C4.6875 1.74039 4.75625 1.75614 4.81875 1.81914L5.3625 2.36289C5.4375 2.43789 5.525 2.47539 5.625 2.47539C5.725 2.47539 5.8125 2.43789 5.8875 2.36289L6.4875 1.76289C6.5625 1.68789 6.65 1.65039 6.75 1.65039C6.85 1.65039 6.9375 1.68789 7.0125 1.76289L7.6125 2.36289C7.6875 2.43789 7.775 2.47539 7.875 2.47539C7.975 2.47539 8.0625 2.43789 8.1375 2.36289L8.7375 1.76289C8.8125 1.68789 8.9 1.65039 9 1.65039C9.1 1.65039 9.1875 1.68789 9.2625 1.76289L9.8625 2.36289C9.9375 2.43789 10.025 2.47539 10.125 2.47539C10.225 2.47539 10.3125 2.43789 10.3875 2.36289L10.9875 1.76289C11.0625 1.68789 11.15 1.65039 11.25 1.65039C11.35 1.65039 11.4375 1.68789 11.5125 1.76289L12.1125 2.36289C12.1875 2.43789 12.275 2.47539 12.375 2.47539C12.475 2.47539 12.5625 2.43789 12.6375 2.36289L13.2375 1.76289C13.3125 1.68789 13.4 1.65039 13.5 1.65039C13.6 1.65039 13.6875 1.68789 13.7625 1.76289L14.3625 2.36289C14.4375 2.43789 14.525 2.47539 14.625 2.47539C14.725 2.47539 14.8125 2.43789 14.8875 2.36289L15.4313 1.81914C15.4938 1.75664 15.5625 1.74089 15.6375 1.77189C15.7125 1.80289 15.75 1.86239 15.75 1.95039V14.2504C15.75 14.8754 15.5312 15.4066 15.0938 15.8441C14.6562 16.2816 14.125 16.5004 13.5 16.5004H4.5ZM13.5 15.0004C13.7125 15.0004 13.8907 14.9284 14.0347 14.7844C14.1787 14.6404 14.2505 14.4624 14.25 14.2504V3.75039H6V12.0004H12C12.2125 12.0004 12.3907 12.0724 12.5347 12.2164C12.6787 12.3604 12.7505 12.5384 12.75 12.7504V14.2504C12.75 14.4629 12.822 14.6411 12.966 14.7851C13.11 14.9291 13.288 15.0009 13.5 15.0004ZM7.5 5.25039H10.5C10.7125 5.25039 10.8907 5.32239 11.0347 5.46639C11.1788 5.61039 11.2505 5.78839 11.25 6.00039C11.25 6.21289 11.178 6.39114 11.034 6.53514C10.89 6.67914 10.712 6.75089 10.5 6.75039H7.5C7.2875 6.75039 7.1095 6.67839 6.966 6.53439C6.8225 6.39039 6.7505 6.21239 6.75 6.00039C6.75 5.78789 6.822 5.60989 6.966 5.46639C7.11 5.32289 7.288 5.25089 7.5 5.25039ZM7.5 7.50039H10.5C10.7125 7.50039 10.8907 7.57239 11.0347 7.71639C11.1788 7.86039 11.2505 8.03839 11.25 8.25039C11.25 8.46289 11.178 8.64114 11.034 8.78514C10.89 8.92914 10.712 9.00089 10.5 9.00039H7.5C7.2875 9.00039 7.1095 8.92839 6.966 8.78439C6.8225 8.64039 6.7505 8.46239 6.75 8.25039C6.75 8.03789 6.822 7.85989 6.966 7.71639C7.11 7.57289 7.288 7.50089 7.5 7.50039ZM12.75 6.75039C12.5375 6.75039 12.3595 6.67839 12.216 6.53439C12.0725 6.39039 12.0005 6.21239 12 6.00039C12 5.78789 12.072 5.60989 12.216 5.46639C12.36 5.32289 12.538 5.25089 12.75 5.25039C12.9625 5.25039 13.1407 5.32239 13.2847 5.46639C13.4287 5.61039 13.5005 5.78839 13.5 6.00039C13.5 6.21289 13.428 6.39114 13.284 6.53514C13.14 6.67914 12.962 6.75089 12.75 6.75039ZM12.75 9.00039C12.5375 9.00039 12.3595 8.92839 12.216 8.78439C12.0725 8.64039 12.0005 8.46239 12 8.25039C12 8.03789 12.072 7.85989 12.216 7.71639C12.36 7.57289 12.538 7.50089 12.75 7.50039C12.9625 7.50039 13.1407 7.57239 13.2847 7.71639C13.4287 7.86039 13.5005 8.03839 13.5 8.25039C13.5 8.46289 13.428 8.64114 13.284 8.78514C13.14 8.92914 12.962 9.00089 12.75 9.00039ZM4.5 15.0004H11.25V13.5004H3.75V14.2504C3.75 14.4629 3.822 14.6411 3.966 14.7851C4.11 14.9291 4.288 15.0009 4.5 15.0004Z"
        fill="white" />
</svg>
    