<svg width="16" height="16" viewBox="0 0 16 16" fill="none" xmlns="http://www.w3.org/2000/svg">
<g id="jam:refresh">
<path id="Vector" d="M12.5808 4.68381L12.8433 3.82318C12.8673 3.74468 12.9065 3.67167 12.9588 3.60832C13.011 3.54498 13.0752 3.49255 13.1477 3.45401C13.2202 3.41547 13.2995 3.39159 13.3812 3.38373C13.463 3.37586 13.5454 3.38417 13.6239 3.40818C13.7024 3.43219 13.7754 3.47142 13.8388 3.52365C13.9021 3.57587 13.9546 3.64006 13.9931 3.71254C14.0316 3.78503 14.0555 3.8644 14.0634 3.94612C14.0712 4.02783 14.0629 4.1103 14.0389 4.18881L13.3077 6.57943C13.2592 6.73786 13.1498 6.87057 13.0036 6.94838C12.8573 7.0262 12.6861 7.04276 12.5277 6.99443L10.1371 6.26318C10.0569 6.24062 9.98208 6.20227 9.91696 6.15039C9.85184 6.09851 9.79774 6.03414 9.75784 5.96106C9.71794 5.88798 9.69304 5.80767 9.68461 5.72484C9.67618 5.642 9.68439 5.55832 9.70875 5.4787C9.73311 5.39908 9.77313 5.32514 9.82647 5.2612C9.8798 5.19726 9.94538 5.14463 10.0193 5.10639C10.0933 5.06814 10.1742 5.04507 10.2572 5.0385C10.3402 5.03194 10.4236 5.04203 10.5027 5.06818L11.5477 5.38756C11.0857 4.68687 10.4413 4.12548 9.68397 3.76386C8.9266 3.40224 8.08492 3.25408 7.24959 3.33535C6.41426 3.41662 5.61693 3.72424 4.94346 4.22507C4.27 4.72589 3.74593 5.40096 3.42768 6.17756L3.26518 6.57318C3.23563 6.65128 3.19073 6.72266 3.13312 6.78311C3.07552 6.84357 3.00639 6.89186 2.92981 6.92516C2.85324 6.95845 2.77076 6.97605 2.68727 6.97694C2.60377 6.97783 2.52094 6.96197 2.44368 6.93031C2.36641 6.89865 2.29627 6.85183 2.2374 6.79262C2.17853 6.7334 2.13212 6.66298 2.10092 6.58553C2.06971 6.50808 2.05435 6.42516 2.05572 6.34167C2.0571 6.25818 2.07519 6.17581 2.10893 6.09943L2.27143 5.70381C2.67533 4.71835 3.34001 3.86153 4.19411 3.22532C5.04821 2.58911 6.05946 2.19756 7.1193 2.0927C8.17913 1.98784 9.24751 2.17364 10.2097 2.63014C11.1719 3.08664 11.9916 3.79661 12.5808 4.68381ZM2.87956 11.3169L2.67518 12.1363C2.6569 12.2176 2.62255 12.2944 2.57417 12.3622C2.52578 12.43 2.46433 12.4874 2.39343 12.5311C2.32253 12.5748 2.2436 12.6039 2.1613 12.6167C2.07899 12.6295 1.99496 12.6257 1.91414 12.6055C1.83332 12.5853 1.75735 12.5492 1.69069 12.4993C1.62403 12.4493 1.56802 12.3866 1.52596 12.3147C1.4839 12.2428 1.45664 12.1632 1.44577 12.0806C1.4349 11.9981 1.44065 11.9141 1.46268 11.8338L2.06706 9.40881C2.08745 9.32624 2.12447 9.2487 2.17587 9.18094C2.22727 9.11318 2.29195 9.05663 2.36597 9.01474C2.43998 8.97284 2.52177 8.9465 2.60631 8.93731C2.69086 8.92812 2.7764 8.93629 2.85768 8.96131L5.25018 9.55756C5.41105 9.59767 5.5494 9.70005 5.63479 9.84216C5.72017 9.98428 5.74561 10.1545 5.70549 10.3154C5.66538 10.4762 5.563 10.6146 5.42089 10.7C5.27877 10.7854 5.10855 10.8108 4.94768 10.7707L3.83143 10.4926C4.30863 11.2231 4.98316 11.8034 5.77677 12.1661C6.57039 12.5288 7.45057 12.6591 8.31523 12.5418C9.17989 12.4246 9.9936 12.0646 10.662 11.5037C11.3303 10.9427 11.826 10.2038 12.0914 9.37256C12.1418 9.21459 12.2529 9.08311 12.4002 9.00704C12.4732 8.96937 12.5528 8.94644 12.6347 8.93956C12.7165 8.93268 12.7988 8.94198 12.8771 8.96693C12.9553 8.99188 13.0278 9.032 13.0905 9.08498C13.1532 9.13797 13.2049 9.20279 13.2426 9.27574C13.2802 9.34869 13.3032 9.42835 13.3101 9.51016C13.3169 9.59197 13.3076 9.67434 13.2827 9.75256C13.0225 10.5688 12.5866 11.3181 12.0057 11.9477C11.4247 12.5773 10.7129 13.072 9.92018 13.3969C8.68507 13.9029 7.31433 13.9726 6.03428 13.5944C4.75423 13.2163 3.64141 12.4129 2.87956 11.3169Z" fill="white" fill-opacity="0.87"/>
</g>
</svg>
