<svg width="15" height="16" viewBox="0 0 15 16" fill="none" xmlns="http://www.w3.org/2000/svg">
<path d="M4.28066 12.375L4.81191 12.9062C4.93691 13.0312 4.99691 13.1771 4.99191 13.3437C4.98691 13.5104 4.92691 13.6562 4.81191 13.7812C4.68691 13.9062 4.53858 13.9714 4.36691 13.9769C4.19525 13.9823 4.04671 13.9223 3.92129 13.7969L2.31191 12.1875C2.24941 12.125 2.20504 12.0573 2.17879 11.9844C2.15254 11.9114 2.13983 11.8333 2.14066 11.75C2.1415 11.6666 2.15462 11.5885 2.18004 11.5156C2.20546 11.4427 2.24962 11.375 2.31254 11.3125L3.92191 9.7031C4.04691 9.5781 4.19545 9.51831 4.36754 9.52373C4.53962 9.52914 4.68796 9.59414 4.81254 9.71873C4.92712 9.84373 4.98712 9.98956 4.99254 10.1562C4.99795 10.3229 4.93796 10.4687 4.81254 10.5937L4.28129 11.125H10.6244V9.24998C10.6244 9.07289 10.6844 8.92456 10.8044 8.80498C10.9244 8.68539 11.0727 8.62539 11.2494 8.62498C11.4261 8.62456 11.5746 8.68456 11.695 8.80498C11.8155 8.92539 11.8752 9.07373 11.8744 9.24998V11.125C11.8744 11.4687 11.7521 11.7631 11.5075 12.0081C11.263 12.2531 10.9686 12.3754 10.6244 12.375H4.28066ZM10.7182 4.87498H4.37441V6.74998C4.37441 6.92706 4.31441 7.0756 4.19441 7.1956C4.07441 7.3156 3.92608 7.37539 3.74941 7.37498C3.57275 7.37456 3.42441 7.31456 3.30441 7.19498C3.18441 7.07539 3.12441 6.92706 3.12441 6.74998V4.87498C3.12441 4.53123 3.24691 4.23706 3.49191 3.99248C3.73691 3.74789 4.03108 3.62539 4.37441 3.62498H10.7182L10.1869 3.09373C10.0619 2.96873 10.0019 2.82289 10.0069 2.65623C10.0119 2.48956 10.0719 2.34373 10.1869 2.21873C10.3119 2.09373 10.4602 2.02873 10.6319 2.02373C10.8036 2.01873 10.9521 2.07852 11.0775 2.2031L12.6869 3.81248C12.7494 3.87498 12.7938 3.94269 12.82 4.0156C12.8463 4.08852 12.8592 4.16664 12.8588 4.24998C12.8584 4.33331 12.8455 4.41144 12.82 4.48435C12.7946 4.55727 12.7502 4.62498 12.6869 4.68748L11.0775 6.29685C10.9525 6.42185 10.8042 6.48185 10.6325 6.47685C10.4609 6.47185 10.3123 6.40664 10.1869 6.28123C10.0723 6.15623 10.0123 6.01039 10.0069 5.84373C10.0015 5.67706 10.0615 5.53123 10.1869 5.40623L10.7182 4.87498Z" fill="white" fill-opacity="0.54"/>
</svg>
