<svg width="20" height="20" viewBox="0 0 20 20" fill="none" xmlns="http://www.w3.org/2000/svg">
    <path
        d="M10 18.3334C8.06945 17.8473 6.47557 16.7395 5.21834 15.0101C3.96112 13.2806 3.33279 11.3606 3.33334 9.25008V4.16675L10 1.66675L16.6667 4.16675V9.25008C16.6667 11.3612 16.0383 13.2815 14.7817 15.0109C13.525 16.7404 11.9311 17.8479 10 18.3334ZM10 16.5834C11.4445 16.1251 12.6389 15.2084 13.5833 13.8334C14.5278 12.4584 15 10.9306 15 9.25008V5.31258L10 3.43758L5.00001 5.31258V9.25008C5.00001 10.9306 5.47223 12.4584 6.41668 13.8334C7.36112 15.2084 8.55557 16.1251 10 16.5834ZM7.50001 13.3334H12.5V9.16675H11.6667V8.33342C11.6667 7.87508 11.5036 7.48286 11.1775 7.15675C10.8514 6.83064 10.4589 6.6673 10 6.66675C9.54112 6.66619 9.1489 6.82953 8.82334 7.15675C8.49779 7.48397 8.33446 7.87619 8.33334 8.33342V9.16675H7.50001V13.3334ZM9.16668 9.16675V8.33342C9.16668 8.0973 9.24668 7.89953 9.40668 7.74008C9.56668 7.58064 9.76445 7.50064 10 7.50008C10.2356 7.49953 10.4336 7.57953 10.5942 7.74008C10.7547 7.90064 10.8345 8.09841 10.8333 8.33342V9.16675H9.16668Z"
        fill="white" />
</svg>
    