<svg width="18" height="19" viewBox="0 0 18 19" fill="none" xmlns="http://www.w3.org/2000/svg">
<path d="M14.25 16.25C13.7625 16.25 13.325 16.1095 12.9375 15.8285C12.55 15.5475 12.2812 15.188 12.1312 14.75H8.25C7.425 14.75 6.71875 14.4563 6.13125 13.8688C5.54375 13.2813 5.25 12.575 5.25 11.75C5.25 10.925 5.54375 10.2188 6.13125 9.63125C6.71875 9.04375 7.425 8.75 8.25 8.75H9.75C10.1625 8.75 10.5157 8.60325 10.8097 8.30975C11.1038 8.01625 11.2505 7.663 11.25 7.25C11.2495 6.837 11.1027 6.484 10.8097 6.191C10.5168 5.898 10.1635 5.751 9.75 5.75H5.86875C5.70625 6.1875 5.43425 6.547 5.05275 6.8285C4.67125 7.11 4.237 7.2505 3.75 7.25C3.125 7.25 2.59375 7.03125 2.15625 6.59375C1.71875 6.15625 1.5 5.625 1.5 5C1.5 4.375 1.71875 3.84375 2.15625 3.40625C2.59375 2.96875 3.125 2.75 3.75 2.75C4.2375 2.75 4.672 2.89075 5.0535 3.17225C5.435 3.45375 5.70675 3.813 5.86875 4.25H9.75C10.575 4.25 11.2812 4.54375 11.8687 5.13125C12.4563 5.71875 12.75 6.425 12.75 7.25C12.75 8.075 12.4563 8.78125 11.8687 9.36875C11.2812 9.95625 10.575 10.25 9.75 10.25H8.25C7.8375 10.25 7.4845 10.397 7.191 10.691C6.8975 10.985 6.7505 11.338 6.75 11.75C6.7495 12.162 6.8965 12.5153 7.191 12.8097C7.4855 13.1042 7.8385 13.251 8.25 13.25H12.1312C12.2937 12.8125 12.5658 12.4532 12.9473 12.1722C13.3288 11.8912 13.763 11.7505 14.25 11.75C14.875 11.75 15.4062 11.9688 15.8438 12.4062C16.2812 12.8438 16.5 13.375 16.5 14C16.5 14.625 16.2812 15.1562 15.8438 15.5938C15.4062 16.0312 14.875 16.25 14.25 16.25ZM3.75 5.75C3.9625 5.75 4.14075 5.678 4.28475 5.534C4.42875 5.39 4.5005 5.212 4.5 5C4.4995 4.788 4.4275 4.61 4.284 4.466C4.1405 4.322 3.9625 4.25 3.75 4.25C3.5375 4.25 3.3595 4.322 3.216 4.466C3.0725 4.61 3.0005 4.788 3 5C2.9995 5.212 3.0715 5.39025 3.216 5.53475C3.3605 5.67925 3.5385 5.751 3.75 5.75Z" fill="white"/>
</svg>
