<svg width="19" height="18" viewBox="0 0 19 18" fill="none" xmlns="http://www.w3.org/2000/svg">
    <path fill-rule="evenodd" clip-rule="evenodd"
        d="M8.75005 10.7713V4.61934L7.53892 5.78203C7.25472 6.05486 6.80588 6.05486 6.52169 5.78203C6.2206 5.49299 6.2206 5.01146 6.52169 4.72241L8.99775 2.34539C9.27842 2.07595 9.72169 2.07595 10.0024 2.34539L12.4784 4.72241C12.7795 5.01146 12.7795 5.49299 12.4784 5.78203C12.1942 6.05486 11.7454 6.05486 11.4612 5.78203L10.2501 4.61934V10.7713C10.2501 11.1855 9.91427 11.5213 9.50005 11.5213C9.08584 11.5213 8.75005 11.1855 8.75005 10.7713ZM12.8904 7.20128H13.2498C14.0778 7.20128 14.7498 7.8464 14.7498 8.64128V14.4013C14.7498 15.1947 14.0778 15.8413 13.2498 15.8413H5.74976C4.92176 15.8413 4.24976 15.1947 4.24976 14.4013V8.64128C4.24976 7.8464 4.92176 7.20128 5.74976 7.20128H6.10913C6.32487 7.20128 6.49976 7.37617 6.49976 7.5919V8.25065C6.49976 8.46639 6.32487 8.64128 6.10913 8.64128H5.74976V14.4013H13.2498V8.64128H12.8904C12.6746 8.64128 12.4998 8.46639 12.4998 8.25065V7.5919C12.4998 7.37617 12.6746 7.20128 12.8904 7.20128Z"
        fill="url(#paint0_linear_5803_44883)" />
    <defs>
        <linearGradient id="paint0_linear_5803_44883" x1="9.49976" y1="2.14331" x2="9.49976" y2="15.8413"
            gradientUnits="userSpaceOnUse">
            <stop stop-color="#BDFACE" />
            <stop offset="1" stop-color="#68F38F" />
        </linearGradient>
    </defs>
</svg>