<svg width="14" height="14" viewBox="0 0 14 14" fill="none" xmlns="http://www.w3.org/2000/svg">
    <rect width="14" height="14" rx="7" fill="#635BFF" />
    <path
        d="M7.64005 6.07498C6.93589 5.81341 6.5522 5.6129 6.5522 5.29417C6.5522 5.0248 6.7735 4.87107 7.16845 4.87107C7.89036 4.87107 8.63176 5.14909 9.14234 5.3994L9.43076 3.61909C9.02585 3.42594 8.19783 3.10938 7.05325 3.10938C6.24343 3.10938 5.57002 3.32114 5.08889 3.71609C4.5887 4.12923 4.328 4.72686 4.328 5.44834C4.328 6.75748 5.12786 7.3157 6.42705 7.78817C7.26545 8.08611 7.54391 8.29831 7.54391 8.62571C7.54391 8.94271 7.27152 9.12589 6.78086 9.12589C6.17327 9.12589 5.1716 8.82751 4.51552 8.44252L4.22363 10.2428C4.78834 10.5598 5.82812 10.8872 6.90731 10.8872C7.76304 10.8872 8.47673 10.6849 8.95786 10.2999C9.49702 9.87682 9.77634 9.25105 9.77634 8.44252C9.77634 7.10393 8.95829 6.54571 7.63919 6.07454H7.64005V6.07498Z"
        fill="white" />
</svg>