<svg width="30" height="30" viewBox="0 0 30 30" fill="none" xmlns="http://www.w3.org/2000/svg">
<g filter="url(#filter0_b_0_3)">
<rect width="30" height="30" rx="15" fill="#0A66C2"/>
<path d="M20.25 8.25C20.6478 8.25 21.0294 8.40804 21.3107 8.68934C21.592 8.97064 21.75 9.35218 21.75 9.75V20.25C21.75 20.6478 21.592 21.0294 21.3107 21.3107C21.0294 21.592 20.6478 21.75 20.25 21.75H9.75C9.35218 21.75 8.97064 21.592 8.68934 21.3107C8.40804 21.0294 8.25 20.6478 8.25 20.25V9.75C8.25 9.35218 8.40804 8.97064 8.68934 8.68934C8.97064 8.40804 9.35218 8.25 9.75 8.25H20.25ZM19.875 19.875V15.9C19.875 15.2515 19.6174 14.6297 19.1589 14.1711C18.7003 13.7126 18.0785 13.455 17.43 13.455C16.7925 13.455 16.05 13.845 15.69 14.43V13.5975H13.5975V19.875H15.69V16.1775C15.69 15.6 16.155 15.1275 16.7325 15.1275C17.011 15.1275 17.278 15.2381 17.475 15.435C17.6719 15.632 17.7825 15.899 17.7825 16.1775V19.875H19.875ZM11.16 12.42C11.4942 12.42 11.8147 12.2873 12.051 12.051C12.2873 11.8147 12.42 11.4942 12.42 11.16C12.42 10.4625 11.8575 9.8925 11.16 9.8925C10.8238 9.8925 10.5014 10.026 10.2637 10.2637C10.026 10.5014 9.8925 10.8238 9.8925 11.16C9.8925 11.8575 10.4625 12.42 11.16 12.42ZM12.2025 19.875V13.5975H10.125V19.875H12.2025Z" fill="white"/>
</g>
<defs>
<filter id="filter0_b_0_3" x="-24" y="-24" width="78" height="78" filterUnits="userSpaceOnUse" color-interpolation-filters="sRGB">
<feFlood flood-opacity="0" result="BackgroundImageFix"/>
<feGaussianBlur in="BackgroundImageFix" stdDeviation="12"/>
<feComposite in2="SourceAlpha" operator="in" result="effect1_backgroundBlur_0_3"/>
<feBlend mode="normal" in="SourceGraphic" in2="effect1_backgroundBlur_0_3" result="shape"/>
</filter>
</defs>
</svg>
