<svg width="30" height="30" viewBox="0 0 30 30" fill="none" xmlns="http://www.w3.org/2000/svg">
<g filter="url(#filter0_b_0_3)">
<rect width="30" height="30" rx="15" fill="url(#paint0_radial_0_3)"/>
<rect width="30" height="30" rx="15" fill="url(#paint1_radial_0_3)"/>
<path d="M15.771 7.50075C16.3183 7.49865 16.8656 7.50415 17.4128 7.51725L17.5583 7.5225C17.7262 7.5285 17.892 7.536 18.0922 7.545C18.8902 7.5825 19.4347 7.7085 19.9125 7.89375C20.4075 8.08425 20.8245 8.34225 21.2415 8.75925C21.6228 9.13395 21.9179 9.58721 22.1063 10.0875C22.2915 10.5653 22.4175 11.1105 22.455 11.9085C22.464 12.108 22.4715 12.2745 22.4775 12.4425L22.482 12.588C22.4953 13.1349 22.5011 13.6819 22.4993 14.229L22.5 14.7885V15.771C22.5018 16.3183 22.4961 16.8656 22.4827 17.4128L22.4783 17.5583C22.4723 17.7263 22.4648 17.892 22.4558 18.0922C22.4183 18.8903 22.2908 19.4347 22.1063 19.9125C21.9185 20.4133 21.6233 20.8669 21.2415 21.2415C20.8665 21.6227 20.413 21.9178 19.9125 22.1063C19.4347 22.2915 18.8902 22.4175 18.0922 22.455C17.892 22.464 17.7262 22.4715 17.5583 22.4775L17.4128 22.482C16.8656 22.4953 16.3183 22.5011 15.771 22.4993L15.2115 22.5H14.2297C13.6824 22.5018 13.1351 22.4961 12.588 22.4827L12.4425 22.4783C12.2645 22.4718 12.0865 22.4643 11.9085 22.4558C11.1105 22.4183 10.566 22.2908 10.0875 22.1063C9.58701 21.9183 9.13368 21.6231 8.75925 21.2415C8.37753 20.8667 8.08217 20.4132 7.89375 19.9125C7.7085 19.4347 7.5825 18.8903 7.545 18.0922C7.53665 17.9143 7.52915 17.7363 7.5225 17.5583L7.51875 17.4128C7.50492 16.8656 7.49867 16.3183 7.5 15.771V14.229C7.49791 13.682 7.50341 13.1349 7.5165 12.588L7.52175 12.4425C7.52775 12.2745 7.53525 12.108 7.54425 11.9085C7.58175 11.1097 7.70775 10.566 7.893 10.0875C8.08153 9.58697 8.37747 9.13383 8.76 8.76C9.13417 8.37806 9.58722 8.08243 10.0875 7.89375C10.566 7.7085 11.1097 7.5825 11.9085 7.545L12.4425 7.5225L12.588 7.51875C13.1349 7.50493 13.6819 7.49868 14.229 7.5L15.771 7.50075ZM15 11.2508C14.5031 11.2437 14.0098 11.3355 13.5487 11.5208C13.0876 11.7061 12.668 11.9812 12.3141 12.33C11.9603 12.6789 11.6793 13.0947 11.4875 13.5531C11.2957 14.0115 11.197 14.5035 11.197 15.0004C11.197 15.4973 11.2957 15.9893 11.4875 16.4477C11.6793 16.9061 11.9603 17.3218 12.3141 17.6707C12.668 18.0196 13.0876 18.2947 13.5487 18.4799C14.0098 18.6652 14.5031 18.757 15 18.75C15.9946 18.75 16.9484 18.3549 17.6517 17.6517C18.3549 16.9484 18.75 15.9946 18.75 15C18.75 14.0054 18.3549 13.0516 17.6517 12.3483C16.9484 11.6451 15.9946 11.2508 15 11.2508ZM15 12.7508C15.2989 12.7452 15.5959 12.7993 15.8736 12.9099C16.1513 13.0205 16.4043 13.1853 16.6176 13.3947C16.8309 13.6041 17.0004 13.8539 17.1161 14.1295C17.2318 14.4051 17.2914 14.7011 17.2915 15C17.2915 15.2989 17.232 15.5949 17.1164 15.8705C17.0008 16.1462 16.8314 16.3961 16.6181 16.6056C16.4049 16.815 16.152 16.9799 15.8743 17.0906C15.5966 17.2012 15.2996 17.2554 15.0008 17.25C14.404 17.25 13.8317 17.0129 13.4098 16.591C12.9878 16.169 12.7508 15.5967 12.7508 15C12.7508 14.4033 12.9878 13.831 13.4098 13.409C13.8317 12.9871 14.404 12.75 15.0008 12.75L15 12.7508ZM18.9375 10.1258C18.6955 10.1354 18.4667 10.2384 18.299 10.413C18.1312 10.5876 18.0375 10.8204 18.0375 11.0625C18.0375 11.3046 18.1312 11.5374 18.299 11.712C18.4667 11.8866 18.6955 11.9896 18.9375 11.9993C19.1861 11.9993 19.4246 11.9005 19.6004 11.7247C19.7762 11.5488 19.875 11.3104 19.875 11.0618C19.875 10.8131 19.7762 10.5747 19.6004 10.3988C19.4246 10.223 19.1861 10.1243 18.9375 10.1243V10.1258Z" fill="white"/>
</g>
<defs>
<filter id="filter0_b_0_3" x="-24" y="-24" width="78" height="78" filterUnits="userSpaceOnUse" color-interpolation-filters="sRGB">
<feFlood flood-opacity="0" result="BackgroundImageFix"/>
<feGaussianBlur in="BackgroundImageFix" stdDeviation="12"/>
<feComposite in2="SourceAlpha" operator="in" result="effect1_backgroundBlur_0_3"/>
<feBlend mode="normal" in="SourceGraphic" in2="effect1_backgroundBlur_0_3" result="shape"/>
</filter>
<radialGradient id="paint0_radial_0_3" cx="0" cy="0" r="1" gradientUnits="userSpaceOnUse" gradientTransform="translate(7.96875 32.3106) rotate(-90) scale(29.7322 27.6533)">
<stop stop-color="#FFDD55"/>
<stop offset="0.104167" stop-color="#FFDD55"/>
<stop offset="0.5" stop-color="#FF543E"/>
<stop offset="1" stop-color="#C837AB"/>
</radialGradient>
<radialGradient id="paint1_radial_0_3" cx="0" cy="0" r="1" gradientUnits="userSpaceOnUse" gradientTransform="translate(-5.02512 2.16105) rotate(78.681) scale(13.2905 54.7837)">
<stop stop-color="#3771C8"/>
<stop stop-color="#3771C8"/>
<stop offset="1" stop-color="#6600FF" stop-opacity="0"/>
</radialGradient>
</defs>
</svg>
