<svg width="15" height="16" viewBox="0 0 15 16" fill="none" xmlns="http://www.w3.org/2000/svg">
<path d="M1.875 2.99563C1.875 2.65313 2.15313 2.375 2.49563 2.375H12.5044C12.8469 2.375 13.125 2.65313 13.125 2.99563V13.0044C13.1248 13.1689 13.0594 13.3267 12.943 13.443C12.8267 13.5594 12.6689 13.6248 12.5044 13.625H2.49563C2.33103 13.625 2.17317 13.5596 2.05678 13.4432C1.94039 13.3268 1.875 13.169 1.875 13.0044V2.99563ZM3.125 3.625V12.375H11.875V3.625H3.125ZM6.63875 5.75938L9.68813 7.79187C9.72242 7.8147 9.75054 7.84564 9.76999 7.88195C9.78944 7.91826 9.79962 7.95881 9.79962 8C9.79962 8.04119 9.78944 8.08174 9.76999 8.11805C9.75054 8.15436 9.72242 8.1853 9.68813 8.20813L6.63813 10.2406C6.60052 10.2656 6.55686 10.2798 6.5118 10.282C6.46673 10.2841 6.42192 10.274 6.38213 10.2527C6.34234 10.2314 6.30905 10.1998 6.28579 10.1611C6.26252 10.1225 6.25016 10.0782 6.25 10.0331V5.96687C6.25008 5.92166 6.26243 5.87731 6.28572 5.83855C6.30902 5.79979 6.34239 5.76808 6.38228 5.74679C6.42217 5.7255 6.46709 5.71542 6.51225 5.71764C6.55742 5.71985 6.60113 5.73428 6.63875 5.75938Z" fill="white" fill-opacity="0.54"/>
</svg>
