<svg width="18" height="18" viewBox="0 0 18 18" fill="none" xmlns="http://www.w3.org/2000/svg">
<path fill-rule="evenodd" clip-rule="evenodd" d="M4.5 3.75C4.30109 3.75 4.11032 3.82902 3.96967 3.96967C3.82902 4.11032 3.75 4.30109 3.75 4.5V6C3.75 6.41421 3.41421 6.75 3 6.75C2.58579 6.75 2.25 6.41421 2.25 6V4.5C2.25 3.90326 2.48705 3.33097 2.90901 2.90901C3.33097 2.48705 3.90326 2.25 4.5 2.25H6C6.41421 2.25 6.75 2.58579 6.75 3C6.75 3.41421 6.41421 3.75 6 3.75H4.5ZM11.25 3C11.25 2.58579 11.5858 2.25 12 2.25H13.5C14.0967 2.25 14.669 2.48705 15.091 2.90901C15.5129 3.33097 15.75 3.90326 15.75 4.5V6C15.75 6.41421 15.4142 6.75 15 6.75C14.5858 6.75 14.25 6.41421 14.25 6V4.5C14.25 4.30109 14.171 4.11032 14.0303 3.96967C13.8897 3.82902 13.6989 3.75 13.5 3.75H12C11.5858 3.75 11.25 3.41421 11.25 3ZM4.5 9C4.5 8.58579 4.83579 8.25 5.25 8.25H12.75C13.1642 8.25 13.5 8.58579 13.5 9C13.5 9.41421 13.1642 9.75 12.75 9.75H5.25C4.83579 9.75 4.5 9.41421 4.5 9ZM3 11.25C3.41421 11.25 3.75 11.5858 3.75 12V13.5C3.75 13.6989 3.82902 13.8897 3.96967 14.0303C4.11032 14.171 4.30109 14.25 4.5 14.25H6C6.41421 14.25 6.75 14.5858 6.75 15C6.75 15.4142 6.41421 15.75 6 15.75H4.5C3.90326 15.75 3.33097 15.5129 2.90901 15.091C2.48705 14.669 2.25 14.0967 2.25 13.5V12C2.25 11.5858 2.58579 11.25 3 11.25ZM15 11.25C15.4142 11.25 15.75 11.5858 15.75 12V13.5C15.75 14.0967 15.5129 14.669 15.091 15.091C14.669 15.5129 14.0967 15.75 13.5 15.75H12C11.5858 15.75 11.25 15.4142 11.25 15C11.25 14.5858 11.5858 14.25 12 14.25H13.5C13.6989 14.25 13.8897 14.171 14.0303 14.0303C14.171 13.8897 14.25 13.6989 14.25 13.5V12C14.25 11.5858 14.5858 11.25 15 11.25Z" fill="#C69DF7" fill-opacity="0.87"/>
</svg>
