<svg width="18" height="18" viewBox="0 0 18 18" fill="none" xmlns="http://www.w3.org/2000/svg">
    <path fill-rule="evenodd" clip-rule="evenodd"
        d="M4.49997 2.25C5.03132 2.24921 5.54582 2.4365 5.95232 2.77869C6.35882 3.12089 6.6311 3.59591 6.72093 4.11962C6.81076 4.64333 6.71235 5.18193 6.44312 5.64004C6.17389 6.09814 5.75121 6.44617 5.24997 6.6225V8.25H11.3775C11.5544 7.74938 11.9026 7.32743 12.3606 7.05873C12.8185 6.79003 13.3567 6.69189 13.8801 6.78164C14.4034 6.8714 14.8781 7.14328 15.2204 7.54922C15.5626 7.95517 15.7503 8.46904 15.7503 9C15.7503 9.53097 15.5626 10.0448 15.2204 10.4508C14.8781 10.8567 14.4034 11.1286 13.8801 11.2184C13.3567 11.3081 12.8185 11.21 12.3606 10.9413C11.9026 10.6726 11.5544 10.2506 11.3775 9.75H5.24997V12.75C5.24997 12.9489 5.32898 13.1397 5.46964 13.2803C5.61029 13.421 5.80105 13.5 5.99997 13.5H11.3775C11.5544 12.9994 11.9026 12.5774 12.3606 12.3087C12.8185 12.04 13.3567 11.9419 13.8801 12.0316C14.4034 12.1214 14.8781 12.3933 15.2204 12.7992C15.5626 13.2052 15.7503 13.719 15.7503 14.25C15.7503 14.781 15.5626 15.2948 15.2204 15.7008C14.8781 16.1067 14.4034 16.3786 13.8801 16.4684C13.3567 16.5581 12.8185 16.46 12.3606 16.1913C11.9026 15.9226 11.5544 15.5006 11.3775 15H5.99997C5.40323 15 4.83093 14.7629 4.40898 14.341C3.98702 13.919 3.74997 13.3467 3.74997 12.75V6.6225C3.2496 6.44539 2.82794 6.09714 2.55944 5.63928C2.29095 5.18141 2.19291 4.64339 2.28265 4.12025C2.37238 3.5971 2.64411 3.12251 3.04984 2.78029C3.45556 2.43807 3.96918 2.25025 4.49997 2.25ZM13.5 13.5C13.3011 13.5 13.1103 13.579 12.9696 13.7197C12.829 13.8603 12.75 14.0511 12.75 14.25C12.75 14.4489 12.829 14.6397 12.9696 14.7803C13.1103 14.921 13.3011 15 13.5 15C13.6989 15 13.8896 14.921 14.0303 14.7803C14.1709 14.6397 14.25 14.4489 14.25 14.25C14.25 14.0511 14.1709 13.8603 14.0303 13.7197C13.8896 13.579 13.6989 13.5 13.5 13.5ZM13.5 8.25C13.3011 8.25 13.1103 8.32902 12.9696 8.46967C12.829 8.61032 12.75 8.80109 12.75 9C12.75 9.19891 12.829 9.38968 12.9696 9.53033C13.1103 9.67098 13.3011 9.75 13.5 9.75C13.6989 9.75 13.8896 9.67098 14.0303 9.53033C14.1709 9.38968 14.25 9.19891 14.25 9C14.25 8.80109 14.1709 8.61032 14.0303 8.46967C13.8896 8.32902 13.6989 8.25 13.5 8.25ZM4.49997 3.75C4.30105 3.75 4.11029 3.82902 3.96964 3.96967C3.82898 4.11032 3.74997 4.30109 3.74997 4.5C3.74997 4.69891 3.82898 4.88968 3.96964 5.03033C4.11029 5.17098 4.30105 5.25 4.49997 5.25C4.69888 5.25 4.88964 5.17098 5.0303 5.03033C5.17095 4.88968 5.24997 4.69891 5.24997 4.5C5.24997 4.30109 5.17095 4.11032 5.0303 3.96967C4.88964 3.82902 4.69888 3.75 4.49997 3.75Z"
        fill="white" />
    <path fill-rule="evenodd" clip-rule="evenodd"
        d="M4.49997 2.25C5.03132 2.24921 5.54582 2.4365 5.95232 2.77869C6.35882 3.12089 6.6311 3.59591 6.72093 4.11962C6.81076 4.64333 6.71235 5.18193 6.44312 5.64004C6.17389 6.09814 5.75121 6.44617 5.24997 6.6225V8.25H11.3775C11.5544 7.74938 11.9026 7.32743 12.3606 7.05873C12.8185 6.79003 13.3567 6.69189 13.8801 6.78164C14.4034 6.8714 14.8781 7.14328 15.2204 7.54922C15.5626 7.95517 15.7503 8.46904 15.7503 9C15.7503 9.53097 15.5626 10.0448 15.2204 10.4508C14.8781 10.8567 14.4034 11.1286 13.8801 11.2184C13.3567 11.3081 12.8185 11.21 12.3606 10.9413C11.9026 10.6726 11.5544 10.2506 11.3775 9.75H5.24997V12.75C5.24997 12.9489 5.32898 13.1397 5.46964 13.2803C5.61029 13.421 5.80105 13.5 5.99997 13.5H11.3775C11.5544 12.9994 11.9026 12.5774 12.3606 12.3087C12.8185 12.04 13.3567 11.9419 13.8801 12.0316C14.4034 12.1214 14.8781 12.3933 15.2204 12.7992C15.5626 13.2052 15.7503 13.719 15.7503 14.25C15.7503 14.781 15.5626 15.2948 15.2204 15.7008C14.8781 16.1067 14.4034 16.3786 13.8801 16.4684C13.3567 16.5581 12.8185 16.46 12.3606 16.1913C11.9026 15.9226 11.5544 15.5006 11.3775 15H5.99997C5.40323 15 4.83093 14.7629 4.40898 14.341C3.98702 13.919 3.74997 13.3467 3.74997 12.75V6.6225C3.2496 6.44539 2.82794 6.09714 2.55944 5.63928C2.29095 5.18141 2.19291 4.64339 2.28265 4.12025C2.37238 3.5971 2.64411 3.12251 3.04984 2.78029C3.45556 2.43807 3.96918 2.25025 4.49997 2.25ZM13.5 13.5C13.3011 13.5 13.1103 13.579 12.9696 13.7197C12.829 13.8603 12.75 14.0511 12.75 14.25C12.75 14.4489 12.829 14.6397 12.9696 14.7803C13.1103 14.921 13.3011 15 13.5 15C13.6989 15 13.8896 14.921 14.0303 14.7803C14.1709 14.6397 14.25 14.4489 14.25 14.25C14.25 14.0511 14.1709 13.8603 14.0303 13.7197C13.8896 13.579 13.6989 13.5 13.5 13.5ZM13.5 8.25C13.3011 8.25 13.1103 8.32902 12.9696 8.46967C12.829 8.61032 12.75 8.80109 12.75 9C12.75 9.19891 12.829 9.38968 12.9696 9.53033C13.1103 9.67098 13.3011 9.75 13.5 9.75C13.6989 9.75 13.8896 9.67098 14.0303 9.53033C14.1709 9.38968 14.25 9.19891 14.25 9C14.25 8.80109 14.1709 8.61032 14.0303 8.46967C13.8896 8.32902 13.6989 8.25 13.5 8.25ZM4.49997 3.75C4.30105 3.75 4.11029 3.82902 3.96964 3.96967C3.82898 4.11032 3.74997 4.30109 3.74997 4.5C3.74997 4.69891 3.82898 4.88968 3.96964 5.03033C4.11029 5.17098 4.30105 5.25 4.49997 5.25C4.69888 5.25 4.88964 5.17098 5.0303 5.03033C5.17095 4.88968 5.24997 4.69891 5.24997 4.5C5.24997 4.30109 5.17095 4.11032 5.0303 3.96967C4.88964 3.82902 4.69888 3.75 4.49997 3.75Z"
        fill="url(#paint0_linear_16181_40892)" />
    <defs>
        <linearGradient id="paint0_linear_16181_40892" x1="9.00029" y1="2.25" x2="9.00029"
            y2="16.5008" gradientUnits="userSpaceOnUse">
            <stop stop-color="#D9BDFA" />
            <stop offset="1" stop-color="#A667F3" />
        </linearGradient>
    </defs>
</svg>
    