<svg width="25" height="24" viewBox="0 0 25 24" fill="none" xmlns="http://www.w3.org/2000/svg">
<path fill-rule="evenodd" clip-rule="evenodd" d="M9.08266 3.23881C9.18569 2.48462 9.84332 2 10.5263 2H14.2273C14.9103 2 15.568 2.48466 15.671 3.2389L15.9415 5.07356C16.2141 5.20761 16.4762 5.3567 16.7286 5.5196L18.5511 4.80765L18.5663 4.80224C19.1579 4.59301 19.9436 4.77014 20.3286 5.44007L22.1808 8.55694L22.1869 8.56789C22.53 9.17967 22.4003 9.97494 21.8127 10.4261L21.8091 10.4289L20.3019 11.5753C20.3108 11.7121 20.3162 11.8535 20.3162 12C20.3162 12.1465 20.3108 12.2879 20.3019 12.4247L21.8128 13.5739C22.4003 14.0251 22.53 14.8203 22.1869 15.4321L22.1808 15.4431L20.3286 18.56C19.9597 19.2016 19.1915 19.436 18.5441 19.1896L18.5359 19.1865L16.7248 18.4789C16.4757 18.639 16.215 18.7891 15.9417 18.9248L15.671 20.7611C15.568 21.5153 14.9103 22 14.2273 22H10.5263C9.84332 22 9.1857 21.5154 9.08266 20.7612L8.81219 18.9264C8.53956 18.7924 8.27744 18.6433 8.02508 18.4804L6.20258 19.1924L6.18729 19.1978C5.59576 19.407 4.80999 19.2299 4.42503 18.5599L2.57284 15.4431L2.5667 15.4321C2.22364 14.8203 2.35336 14.0251 2.94089 13.5739L2.94454 13.5711L4.45196 12.4245C4.44288 12.2861 4.43746 12.1441 4.43746 12C4.43746 11.8559 4.44288 11.7139 4.45196 11.5755L2.94088 10.4261C2.38429 9.99871 2.18577 9.1998 2.58109 8.54307L4.42506 5.44004C4.7939 4.79837 5.56208 4.56397 6.20955 4.81041L6.2177 4.81351L8.02886 5.52108C8.27789 5.36098 8.53866 5.21089 8.81194 5.07523L9.08266 3.23881ZM10.9921 4L10.6267 6.47863L10.0917 6.69191C9.6213 6.87942 9.17627 7.13974 8.74705 7.45287L8.3043 7.77587L5.91755 6.84349L4.55308 9.13961L6.56775 10.6721L6.49407 11.2455C6.45976 11.5124 6.43746 11.7627 6.43746 12C6.43746 12.2373 6.45976 12.4876 6.49407 12.7545L6.56775 13.3279L4.55308 14.8604L5.91755 17.1565L8.31165 16.2213L8.75679 16.5543C9.17247 16.8654 9.61428 17.1178 10.0917 17.3081L10.6267 17.5214L10.9921 20H13.7616L14.127 17.5214L14.662 17.3081C15.1323 17.1206 15.5774 16.8603 16.0066 16.5471L16.4493 16.2241L18.8361 17.1565L20.2006 14.8604L18.1859 13.3279L18.2596 12.7545C18.294 12.4866 18.3162 12.2457 18.3162 12C18.3162 11.7543 18.294 11.5134 18.2596 11.2455L18.1859 10.6721L20.2006 9.13961L18.8361 6.84349L16.442 7.77874L15.9969 7.44568C15.5812 7.13464 15.1394 6.88222 14.662 6.69191L14.127 6.47863L13.7616 4H10.9921ZM12.3768 9.85C11.1171 9.85 10.1385 10.8412 10.1385 12C10.1385 13.1588 11.1171 14.15 12.3768 14.15C13.6365 14.15 14.6152 13.1588 14.6152 12C14.6152 10.8412 13.6365 9.85 12.3768 9.85ZM8.13845 12C8.13845 9.68482 10.0651 7.85 12.3768 7.85C14.6886 7.85 16.6152 9.68482 16.6152 12C16.6152 14.3152 14.6886 16.15 12.3768 16.15C10.0651 16.15 8.13845 14.3152 8.13845 12Z" fill="url(#paint0_linear_7055_46709)"/>
<defs>
<linearGradient id="paint0_linear_7055_46709" x1="12.3742" y1="2" x2="12.3742" y2="22" gradientUnits="userSpaceOnUse">
<stop stop-color="#B3F5E9"/>
<stop offset="1" stop-color="#57E1C8"/>
</linearGradient>
</defs>
</svg>
