<svg width="18" height="18" viewBox="0 0 18 18" fill="none" xmlns="http://www.w3.org/2000/svg">
    <path
        d="M11.8125 7.59375C9.69785 7.59375 7.94707 9.14941 7.64121 11.1797H5.625C5.35254 11.1797 5.13281 10.96 5.13281 10.6875V4.28906H10.248C10.4977 4.90781 11.1041 5.34375 11.8125 5.34375C12.7441 5.34375 13.5 4.58789 13.5 3.65625C13.5 2.72461 12.7441 1.96875 11.8125 1.96875C11.1041 1.96875 10.4977 2.40469 10.248 3.02344H1.96875V4.28906H3.86719V10.6875C3.86719 11.6578 4.65469 12.4453 5.625 12.4453H7.64121C7.94707 14.4756 9.69785 16.0312 11.8125 16.0312C14.1416 16.0312 16.0312 14.1416 16.0312 11.8125C16.0312 9.4834 14.1416 7.59375 11.8125 7.59375ZM14.0625 12.2695C14.0625 12.3469 13.9992 12.4102 13.9219 12.4102H12.4102V13.9219C12.4102 13.9992 12.3469 14.0625 12.2695 14.0625H11.3555C11.2781 14.0625 11.2148 13.9992 11.2148 13.9219V12.4102H9.70312C9.62578 12.4102 9.5625 12.3469 9.5625 12.2695V11.3555C9.5625 11.2781 9.62578 11.2148 9.70312 11.2148H11.2148V9.70312C11.2148 9.62578 11.2781 9.5625 11.3555 9.5625H12.2695C12.3469 9.5625 12.4102 9.62578 12.4102 9.70312V11.2148H13.9219C13.9992 11.2148 14.0625 11.2781 14.0625 11.3555V12.2695Z"
        fill="white" />
</svg>
    