<svg width="29" height="9" viewBox="0 0 29 9" fill="none" xmlns="http://www.w3.org/2000/svg">
    <g clip-path="url(#clip0_5444_50014)">
        <path
            d="M14.595 4.24777C14.308 4.12895 13.9574 4.0299 13.5433 3.95045H13.5345C13.1322 3.87732 12.8304 3.8102 12.6292 3.74907C12.428 3.6883 12.2698 3.60592 12.1544 3.50217C12.0389 3.39857 11.9814 3.25525 11.9814 3.07222C11.9814 2.8039 12.079 2.59962 12.2742 2.4594C12.4696 2.31917 12.7269 2.24895 13.0463 2.24895C13.3955 2.24895 13.6778 2.3404 13.8939 2.52342C14.0878 2.6878 14.2066 2.8966 14.2503 3.1495C14.2589 3.19992 14.3003 3.23712 14.3499 3.23767L15.3319 3.24527C15.3921 3.24582 15.4403 3.1925 15.4344 3.13062C15.4015 2.7923 15.2932 2.48462 15.1098 2.20777C14.9057 1.89992 14.6246 1.66045 14.2666 1.48955C13.9087 1.31885 13.5019 1.2334 13.0463 1.2334C12.6144 1.2334 12.2255 1.31577 11.8793 1.48047C11.5333 1.6452 11.264 1.8738 11.0716 2.1666C10.8793 2.4594 10.7832 2.78867 10.7832 3.15457C10.7832 3.55712 10.8689 3.88042 11.0405 4.12422C11.2121 4.36822 11.4368 4.55272 11.7149 4.67772C11.993 4.80272 12.3272 4.90177 12.7177 4.97507L12.7621 4.98415C13.176 5.06342 13.4854 5.13362 13.6896 5.19457C13.8937 5.25572 14.0547 5.34097 14.1732 5.45072C14.2915 5.5605 14.3506 5.70997 14.3506 5.899C14.3506 6.1675 14.2441 6.37775 14.0312 6.53015C13.8182 6.68272 13.543 6.75892 13.2057 6.75892C12.8032 6.75892 12.478 6.6537 12.2295 6.44325C12.0034 6.25185 11.8703 6.00605 11.8304 5.70597C11.8235 5.6541 11.7816 5.61472 11.7309 5.614L10.7501 5.59877C10.6904 5.59785 10.6422 5.64975 10.6468 5.71107C10.6746 6.08005 10.7865 6.4126 10.9826 6.70865C11.1985 7.03502 11.4958 7.29117 11.8745 7.47712C12.2531 7.66325 12.688 7.75615 13.1792 7.75615C13.6346 7.75615 14.043 7.67087 14.4039 7.5C14.7647 7.32927 15.0474 7.0929 15.2515 6.79102C15.4557 6.48915 15.5577 6.14917 15.5577 5.77092C15.5577 5.36837 15.4689 5.04365 15.2915 4.79655C15.1141 4.54965 14.8819 4.36677 14.595 4.24777Z"
            fill="white" fill-opacity="0.54" />
        <path
            d="M20.626 6.71338H20.4727C20.384 6.71338 20.3143 6.68908 20.2642 6.64008C20.2138 6.59148 20.1887 6.51201 20.1887 6.40226V4.65488C20.1887 4.09993 20.0171 3.67761 19.674 3.38788C19.3309 3.09836 18.9268 2.95068 18.2937 2.95068C17.696 2.95068 17.2291 3.08456 16.8624 3.34671C16.528 3.58581 16.3265 3.91326 16.2575 4.32961C16.2467 4.39436 16.2943 4.45368 16.3578 4.45368H17.2598C17.305 4.45368 17.3455 4.42303 17.3574 4.37803C17.3986 4.22403 17.4894 4.09831 17.6299 4.00088C17.7925 3.88803 17.9857 3.83163 18.2402 3.83163C18.7202 3.83163 19.0614 4.13658 19.0614 4.59083V4.73288C19.0614 4.79093 19.0158 4.83793 18.9595 4.83793H18.1425C17.4799 4.83793 16.9769 4.97218 16.6339 5.24048C16.2907 5.50898 16.1191 5.89013 16.1191 6.38393C16.1191 6.81098 16.2759 7.14643 16.5896 7.39023C16.8249 7.57311 17.1061 7.67868 17.3956 7.72496C17.6168 7.76033 17.8441 7.77321 18.0658 7.73656C18.2981 7.69828 18.4868 7.59958 18.6756 7.45881C18.8453 7.33256 18.9868 7.17073 19.116 6.97336C19.179 6.86178 19.3442 6.90658 19.3442 7.03558V7.19068C19.3441 7.47261 19.5656 7.70118 19.8391 7.70118H20.626C20.6823 7.70118 20.7279 7.65421 20.7279 7.59616V6.81823C20.7279 6.76018 20.6823 6.71338 20.626 6.71338ZM19.0616 5.77113C19.0616 5.99681 19.0157 6.19346 18.924 6.36108C18.7318 6.71266 18.3879 6.89626 18.0009 6.89626C17.7759 6.89626 17.5956 6.84146 17.4595 6.73171C17.3233 6.62196 17.2554 6.47556 17.2554 6.29251C17.2554 6.08533 17.3309 5.92513 17.4817 5.81231C17.6325 5.69963 17.8469 5.64303 18.1251 5.64303H18.9597C19.016 5.64303 19.0616 5.69003 19.0616 5.74808V5.77113Z"
            fill="white" fill-opacity="0.54" />
        <path
            d="M23.9139 1.30029H22.7402C22.121 1.30029 21.6191 1.81767 21.6191 2.45589V2.96367C21.6191 3.02172 21.5735 3.06872 21.5172 3.06872H20.847C20.7907 3.06872 20.7451 3.11569 20.7451 3.17374V3.96072C20.7451 4.01877 20.7907 4.06577 20.847 4.06577H21.5172C21.5735 4.06577 21.6191 4.11274 21.6191 4.17079V7.59627C21.6191 7.65432 21.6647 7.70129 21.721 7.70129H22.6355C22.6918 7.70129 22.7374 7.65432 22.7374 7.59627V4.17079C22.7374 4.11274 22.7829 4.06577 22.8393 4.06577H23.9049C23.9612 4.06577 24.0069 4.01877 24.0069 3.96072V3.17374C24.0069 3.11569 23.9612 3.06872 23.9049 3.06872H22.8393C22.7829 3.06872 22.7374 3.02172 22.7374 2.96367V2.50742C22.7374 2.39132 22.8287 2.29734 22.9412 2.29734H23.9137C23.97 2.29734 24.0156 2.25034 24.0156 2.19229V1.40532C24.0156 1.34727 23.9702 1.30029 23.9139 1.30029Z"
            fill="white" fill-opacity="0.54" />
        <path
            d="M28.3941 4.01497C28.1961 3.67355 27.9251 3.41122 27.5821 3.2282C27.2391 3.04532 26.8424 2.95117 26.3931 2.95117C25.9436 2.95117 25.5556 3.05295 25.2126 3.25105C24.8694 3.44932 24.6031 3.7298 24.4139 4.09262C24.2246 4.45565 24.1299 4.88087 24.1299 5.36887C24.1299 5.85687 24.2276 6.26397 24.4226 6.6268C24.6181 6.98962 24.8976 7.26865 25.2614 7.46385C25.6251 7.65905 26.0526 7.75665 26.5439 7.75665C26.9224 7.75665 27.2611 7.685 27.5601 7.54167C27.8586 7.39855 28.0999 7.2017 28.2831 6.95172C28.4401 6.73765 28.5474 6.50325 28.6046 6.24872C28.6196 6.1827 28.5714 6.1192 28.5054 6.1192H27.5869C27.5429 6.1192 27.5041 6.1486 27.4901 6.1916C27.4254 6.3888 27.3111 6.54462 27.1474 6.65892C26.9639 6.787 26.7361 6.85102 26.4639 6.85102C26.2391 6.85102 26.0424 6.80222 25.8739 6.70462C25.7051 6.6072 25.5721 6.46987 25.4744 6.293C25.4359 6.22315 25.4044 6.14932 25.3794 6.0733C25.3524 5.99167 25.3329 5.9075 25.3196 5.82222C25.3151 5.79247 25.3109 5.76237 25.3074 5.73225C25.3004 5.6702 25.3481 5.61597 25.4086 5.61597H28.5766C28.6281 5.61597 28.6721 5.57677 28.6779 5.52397C28.6824 5.48535 28.6854 5.44597 28.6869 5.40552C28.6899 5.33242 28.6914 5.2653 28.6914 5.20432C28.6914 4.75315 28.5921 4.35657 28.3941 4.01497ZM27.4424 4.81992H25.4581C25.3931 4.81992 25.3439 4.7577 25.3584 4.6922C25.3901 4.5487 25.4449 4.41917 25.5231 4.30307C25.6236 4.15377 25.7539 4.0393 25.9136 3.96002C26.0734 3.88072 26.2479 3.841 26.4371 3.841C26.7449 3.841 26.9994 3.92645 27.2004 4.09717C27.3731 4.24375 27.4869 4.44185 27.5419 4.69165C27.5564 4.75732 27.5076 4.81992 27.4424 4.81992Z"
            fill="white" fill-opacity="0.54" />
        <path
            d="M8.3648 4.49951H7.49502C7.23525 4.49951 7.02477 4.71649 7.02477 4.98424V6.28554C7.02477 6.55329 6.81427 6.77026 6.55452 6.77026H3.0943C2.83452 6.77026 2.62402 6.98724 2.62402 7.25501V8.15156C2.62402 8.41931 2.83452 8.63629 3.0943 8.63629H6.7548C7.01457 8.63629 7.22205 8.41931 7.22205 8.15156V7.43224C7.22205 7.16449 7.43255 6.97454 7.69232 6.97454H8.36462C8.62437 6.97454 8.83487 6.75756 8.83487 6.48979V4.97861C8.83487 4.71086 8.62455 4.49951 8.3648 4.49951Z"
            fill="white" fill-opacity="0.54" />
        <path
            d="M2.62374 2.71845C2.62374 2.45067 2.83424 2.2337 3.09402 2.2337H6.55212C6.81189 2.2337 7.02237 2.01672 7.02237 1.74897V0.852413C7.02237 0.584646 6.81189 0.367676 6.55212 0.367676H2.89354C2.63379 0.367676 2.42329 0.584646 2.42329 0.852413V1.54325C2.42329 1.811 2.21282 2.02797 1.95304 2.02797H1.28373C1.02396 2.02797 0.813477 2.24495 0.813477 2.51272V4.02552C0.813477 4.2933 1.02484 4.49937 1.28461 4.49937H2.15437C2.41414 4.49937 2.62464 4.28242 2.62464 4.01465L2.62374 2.71845Z"
            fill="white" fill-opacity="0.54" />
        <path
            d="M4.415 3.55713H5.25045C5.52273 3.55713 5.7436 3.78498 5.7436 4.06545V4.92663C5.7436 5.20725 5.52255 5.43493 5.25045 5.43493H4.415C4.14275 5.43493 3.92188 5.20708 3.92188 4.92663V4.06545C3.92188 3.7848 4.14292 3.55713 4.415 3.55713Z"
            fill="white" fill-opacity="0.54" />
    </g>
    <defs>
        <clipPath id="clip0_5444_50014">
            <rect width="29" height="9" fill="white" />
        </clipPath>
    </defs>
</svg>