<svg width="38" height="36" viewBox="0 0 38 36" fill="none" xmlns="http://www.w3.org/2000/svg">
    <g filter="url(#filter0_d_10728_114372)">
        <path
            d="M19.0008 24.0015C18.8628 24.0015 18.7256 23.9632 18.604 23.8875C18.3438 23.7255 12.25 19.8692 12.25 15.7505C12.25 13.6825 13.9325 12 16.0005 12C17.1961 12 18.3033 12.6278 19.0008 13.5602C19.6984 12.6278 20.8056 12 22.0012 12C24.0692 12 25.7517 13.6825 25.7517 15.7505C25.7517 19.8692 19.6579 23.7255 19.3976 23.8875C19.2761 23.9632 19.1389 24.0015 19.0008 24.0015Z"
            fill="url(#paint0_linear_10728_114372)" />
    </g>
    <defs>
        <filter id="filter0_d_10728_114372" x="0.25" y="0" width="37.502" height="36.002"
            filterUnits="userSpaceOnUse" color-interpolation-filters="sRGB">
            <feFlood flood-opacity="0" result="BackgroundImageFix" />
            <feColorMatrix in="SourceAlpha" type="matrix"
                values="0 0 0 0 0 0 0 0 0 0 0 0 0 0 0 0 0 0 127 0" result="hardAlpha" />
            <feOffset />
            <feGaussianBlur stdDeviation="6" />
            <feComposite in2="hardAlpha" operator="out" />
            <feColorMatrix type="matrix" values="0 0 0 0 1 0 0 0 0 1 0 0 0 0 1 0 0 0 0.36 0" />
            <feBlend mode="normal" in2="BackgroundImageFix" result="effect1_dropShadow_10728_114372" />
            <feBlend mode="normal" in="SourceGraphic" in2="effect1_dropShadow_10728_114372"
                result="shape" />
        </filter>
        <linearGradient id="paint0_linear_10728_114372" x1="19.0008" y1="12" x2="19.0008"
            y2="24.0015" gradientUnits="userSpaceOnUse">
            <stop stop-color="#E4CDFF" />
            <stop offset="1" stop-color="#C69DF7" />
        </linearGradient>
    </defs>
</svg>
    