<svg width="24" height="24" viewBox="0 0 24 24" fill="none" xmlns="http://www.w3.org/2000/svg">
<path fill-rule="evenodd" clip-rule="evenodd" d="M8.70791 3.23881C8.81094 2.48462 9.46856 2 10.1516 2H13.8526C14.5356 2 15.1932 2.48466 15.2962 3.2389L15.5667 5.07356C15.8393 5.20761 16.1014 5.3567 16.3538 5.5196L18.1763 4.80765L18.1916 4.80224C18.7831 4.59301 19.5689 4.77014 19.9538 5.44007L21.806 8.55694L21.8122 8.56789C22.1552 9.17967 22.0255 9.97494 21.438 10.4261L21.4343 10.4289L19.9272 11.5753C19.9361 11.7121 19.9414 11.8535 19.9414 12C19.9414 12.1465 19.9361 12.2879 19.9272 12.4247L21.438 13.5739C22.0255 14.0251 22.1552 14.8203 21.8122 15.4321L21.806 15.4431L19.9538 18.56C19.5849 19.2016 18.8168 19.436 18.1693 19.1896L18.1612 19.1865L16.35 18.4789C16.101 18.639 15.8402 18.7891 15.5669 18.9248L15.2962 20.7611C15.1932 21.5153 14.5356 22 13.8526 22H10.1516C9.46856 22 8.81094 21.5154 8.70791 20.7612L8.43743 18.9264C8.1648 18.7924 7.90269 18.6433 7.65032 18.4804L5.82782 19.1924L5.81253 19.1978C5.221 19.407 4.43523 19.2299 4.05027 18.5599L2.19809 15.4431L2.19194 15.4321C1.84889 14.8203 1.97861 14.0251 2.56613 13.5739L2.56978 13.5711L4.0772 12.4245C4.06812 12.2861 4.0627 12.1441 4.0627 12C4.0627 11.8559 4.06812 11.7139 4.0772 11.5755L2.56613 10.4261C2.00954 9.99871 1.81101 9.1998 2.20633 8.54307L4.0503 5.44004C4.41914 4.79837 5.18732 4.56397 5.83479 4.81041L5.84295 4.81351L7.6541 5.52108C7.90313 5.36098 8.16391 5.21089 8.43718 5.07523L8.70791 3.23881ZM10.6173 4L10.2519 6.47863L9.71691 6.69191C9.24655 6.87942 8.80151 7.13974 8.3723 7.45287L7.92955 7.77587L5.54279 6.84349L4.17832 9.13961L6.193 10.6721L6.11931 11.2455C6.08501 11.5124 6.0627 11.7627 6.0627 12C6.0627 12.2373 6.08501 12.4876 6.11931 12.7545L6.193 13.3279L4.17832 14.8604L5.54279 17.1565L7.9369 16.2213L8.38203 16.5543C8.79772 16.8654 9.23953 17.1178 9.71691 17.3081L10.2519 17.5214L10.6173 20H13.3868L13.7522 17.5214L14.2872 17.3081C14.7576 17.1206 15.2026 16.8603 15.6318 16.5471L16.0746 16.2241L18.4613 17.1565L19.8258 14.8604L17.8111 13.3279L17.8848 12.7545C17.9192 12.4866 17.9414 12.2457 17.9414 12C17.9414 11.7543 17.9192 11.5134 17.8848 11.2455L17.8111 10.6721L19.8258 9.13961L18.4613 6.84349L16.0672 7.77874L15.6221 7.44568C15.2064 7.13464 14.7646 6.88222 14.2872 6.69191L13.7522 6.47863L13.3868 4H10.6173ZM12.0021 9.85C10.7424 9.85 9.7637 10.8412 9.7637 12C9.7637 13.1588 10.7424 14.15 12.0021 14.15C13.2618 14.15 14.2404 13.1588 14.2404 12C14.2404 10.8412 13.2618 9.85 12.0021 9.85ZM7.7637 12C7.7637 9.68482 9.69031 7.85 12.0021 7.85C14.3138 7.85 16.2404 9.68482 16.2404 12C16.2404 14.3152 14.3138 16.15 12.0021 16.15C9.69031 16.15 7.7637 14.3152 7.7637 12Z" fill="url(#paint0_linear_2597_24806)"/>
<defs>
<linearGradient id="paint0_linear_2597_24806" x1="11.9994" y1="2" x2="11.9994" y2="22" gradientUnits="userSpaceOnUse">
<stop stop-color="#FABDBD"/>
<stop offset="1" stop-color="#F36868"/>
</linearGradient>
</defs>
</svg>
