<svg width="16" height="16" viewBox="0 0 16 16" fill="none" xmlns="http://www.w3.org/2000/svg">
<path d="M14.1506 4.30686L11.6931 1.84938C11.4294 1.58566 11.0717 1.4375 10.6988 1.4375H2.84375C2.06709 1.4375 1.4375 2.06709 1.4375 2.84375V13.1562C1.4375 13.9329 2.06709 14.5625 2.84375 14.5625H13.1562C13.9329 14.5625 14.5625 13.9329 14.5625 13.1562V5.30123C14.5625 4.92827 14.4143 4.57059 14.1506 4.30686ZM9.40625 2.84375V5.1875H5.65625V2.84375H9.40625ZM12.9805 13.1562H3.01953C2.97291 13.1562 2.9282 13.1377 2.89524 13.1048C2.86227 13.0718 2.84375 13.0271 2.84375 12.9805V3.01953C2.84375 2.97291 2.86227 2.9282 2.89524 2.89524C2.9282 2.86227 2.97291 2.84375 3.01953 2.84375H4.25V5.89062C4.25 6.27895 4.5648 6.59375 4.95312 6.59375H10.1094C10.4977 6.59375 10.8125 6.27895 10.8125 5.89062V2.95748L13.1048 5.24976C13.1211 5.26608 13.134 5.28546 13.1429 5.30679C13.1517 5.32812 13.1563 5.35098 13.1562 5.37406V12.9805C13.1562 13.0271 13.1377 13.0718 13.1048 13.1048C13.0718 13.1377 13.0271 13.1562 12.9805 13.1562ZM8 7.29688C6.57843 7.29688 5.42188 8.45343 5.42188 9.875C5.42188 11.2966 6.57843 12.4531 8 12.4531C9.42157 12.4531 10.5781 11.2966 10.5781 9.875C10.5781 8.45343 9.42157 7.29688 8 7.29688ZM8 11.0469C7.35383 11.0469 6.82812 10.5212 6.82812 9.875C6.82812 9.22883 7.35383 8.70312 8 8.70312C8.64617 8.70312 9.17188 9.22883 9.17188 9.875C9.17188 10.5212 8.64617 11.0469 8 11.0469Z" fill="#C69DF7"/>
</svg>
