<svg width="120" height="120" viewBox="0 0 120 120" fill="none" xmlns="http://www.w3.org/2000/svg">
    <g filter="url(#filter0_i_2540_18775)">
        <path fill-rule="evenodd" clip-rule="evenodd"
            d="M60 120C93.1371 120 120 93.1371 120 60C120 26.8629 93.1371 0 60 0C26.8629 0 0 26.8629 0 60C0 93.1371 26.8629 120 60 120ZM52.5621 85.8948C54.5511 87.2207 57.2334 86.729 58.6229 84.7839L85.9933 46.4682C88.4016 43.0968 87.6204 38.4113 84.2484 36.0037C80.8771 33.5966 76.1928 34.3781 73.7855 37.7492L52.3683 67.7413L46.6528 63.9272C43.2058 61.6268 38.5464 62.5579 36.248 66.0063C33.9506 69.4532 34.8823 74.1098 38.3291 76.4073L52.5621 85.8948Z"
            fill="url(#paint0_linear_2540_18775)" />
    </g>
    <defs>
        <filter id="filter0_i_2540_18775" x="0" y="0" width="120" height="122" filterUnits="userSpaceOnUse"
            color-interpolation-filters="sRGB">
            <feFlood flood-opacity="0" result="BackgroundImageFix" />
            <feBlend mode="normal" in="SourceGraphic" in2="BackgroundImageFix" result="shape" />
            <feColorMatrix in="SourceAlpha" type="matrix" values="0 0 0 0 0 0 0 0 0 0 0 0 0 0 0 0 0 0 127 0"
                result="hardAlpha" />
            <feOffset dy="2" />
            <feGaussianBlur stdDeviation="1" />
            <feComposite in2="hardAlpha" operator="arithmetic" k2="-1" k3="1" />
            <feColorMatrix type="matrix" values="0 0 0 0 1 0 0 0 0 1 0 0 0 0 1 0 0 0 0.36 0" />
            <feBlend mode="normal" in2="shape" result="effect1_innerShadow_2540_18775" />
        </filter>
        <linearGradient id="paint0_linear_2540_18775" x1="60" y1="0" x2="60" y2="120" gradientUnits="userSpaceOnUse">
            <stop stop-color="#A3FACB" />
            <stop offset="1" stop-color="#1BA459" />
        </linearGradient>
    </defs>
</svg>