<svg width="18" height="19" viewBox="0 0 18 19" fill="none" xmlns="http://www.w3.org/2000/svg">
<g id="ic_settings_24px">
<path id="Shape" d="M7.02558 3.00203L7.02561 3.00203L7.02633 2.99679C7.06617 2.70517 7.32388 2.5 7.61368 2.5H10.3894C10.6792 2.5 10.9369 2.70519 10.9768 2.99682L10.9767 2.99683L10.9775 3.0021L11.1804 4.37809L11.2187 4.63797L11.4544 4.75387C11.641 4.8456 11.8207 4.9478 11.9942 5.05978L12.2091 5.19849L12.4473 5.10543L13.8066 4.57441L13.8104 4.57306L13.8104 4.57306C14.0644 4.48322 14.3823 4.56893 14.5319 4.82917L14.5318 4.82919L14.5355 4.83548L15.9215 7.16778L15.923 7.17047C16.0652 7.42404 16.0073 7.74383 15.774 7.92303L15.773 7.92373L15.7722 7.92436L14.6427 8.78355L14.4289 8.94612L14.4464 9.21408C14.4525 9.30715 14.4561 9.40231 14.4561 9.5C14.4561 9.59769 14.4525 9.69285 14.4464 9.78592L14.4289 10.0539L14.6427 10.2164L15.774 11.077C15.7742 11.0771 15.7744 11.0773 15.7747 11.0775C16.0074 11.2568 16.0651 11.5762 15.923 11.8295L15.9215 11.8322L14.5355 14.1646L14.5355 14.1645L14.5319 14.1708C14.3848 14.4267 14.0743 14.5274 13.8049 14.4249L13.8048 14.4249L13.8007 14.4233L12.4445 13.8935L12.2068 13.8006L11.9921 13.9386C11.8193 14.0497 11.6398 14.153 11.4529 14.2457L11.2187 14.362L11.1806 14.6207L10.9775 15.9979L10.9775 15.9979L10.9768 16.0032C10.9369 16.2948 10.6792 16.5 10.3894 16.5H7.61368C7.32388 16.5 7.06617 16.2948 7.02633 16.0032L7.02636 16.0032L7.02558 15.998L6.82273 14.6219L6.78442 14.362L6.54869 14.2461C6.36213 14.1544 6.18239 14.0522 6.00891 13.9402L5.79403 13.8015L5.55581 13.8946L4.19649 14.4256L4.19266 14.4269C3.93867 14.5168 3.62077 14.4311 3.47123 14.1708L3.47128 14.1708L3.46754 14.1645L2.0816 11.8323L2.08007 11.8295L2.08 11.8296L2.08007 11.8295C1.93788 11.576 1.99578 11.2562 2.22913 11.077L1.9246 10.6804L2.22914 11.077L2.23004 11.0763L2.23187 11.0749L3.3606 10.2163L3.57441 10.0537L3.55683 9.78563C3.55063 9.69105 3.54703 9.5956 3.54703 9.5C3.54703 9.4044 3.55063 9.30895 3.55683 9.21437L3.57441 8.94632L3.36061 8.78369L2.22913 7.92304C2.22888 7.92284 2.22863 7.92265 2.22838 7.92246C2.00019 7.74665 1.92628 7.42573 2.08313 7.16516L2.08458 7.16273L3.46756 4.83546L3.46761 4.83549L3.47122 4.82921C3.6183 4.57331 3.92882 4.47256 4.19823 4.5751L4.19824 4.5751L4.2023 4.57665L5.55864 5.10653L5.79632 5.19939L6.01096 5.06139C6.18377 4.9503 6.36333 4.84705 6.55022 4.75427L6.78441 4.63801L6.82254 4.37934L7.02558 3.00203ZM7.96298 3H7.53129L7.46833 3.42708L7.23628 5.00116L7.10253 5.05448C6.70274 5.21386 6.33241 5.43193 5.98454 5.68572L5.87385 5.76647L4.33903 5.16689L3.94394 5.01255L3.72726 5.37719L2.70391 7.09928L2.47608 7.48266L2.83103 7.75266L4.11198 8.72702L4.09356 8.87037C4.06649 9.08106 4.04703 9.29215 4.04703 9.5C4.04703 9.70785 4.06649 9.91894 4.09356 10.1296L4.11198 10.273L2.83103 11.2473L2.47608 11.5173L2.70391 11.9007L3.72726 13.6228L3.94394 13.9874L4.33903 13.8331L5.87569 13.2328L5.98697 13.3161C6.33146 13.5738 6.70098 13.7854 7.10253 13.9455L7.23628 13.9988L7.46833 15.5729L7.53129 16H7.96298H10.0401H10.4718L10.5348 15.5729L10.7668 13.9988L10.9006 13.9455C11.3004 13.7861 11.6707 13.5681 12.0186 13.3143L12.1292 13.2335L13.6641 13.8331L14.0591 13.9874L14.2758 13.6228L15.2992 11.9007L15.527 11.5173L15.1721 11.2473L13.8911 10.273L13.9095 10.1296C13.9366 9.9187 13.9561 9.71445 13.9561 9.5C13.9561 9.28555 13.9366 9.0813 13.9095 8.87036L13.8911 8.72702L15.1721 7.75266L15.527 7.48267L15.2992 7.09928L14.2758 5.37719L14.0591 5.01255L13.6641 5.16689L12.1274 5.76719L12.0161 5.68392C11.6716 5.42616 11.3021 5.21455 10.9006 5.05448L10.7668 5.00116L10.5348 3.42708L10.4718 3H10.0401H7.96298ZM9.00155 7.3875C7.79194 7.3875 6.82277 8.34357 6.82277 9.5C6.82277 10.6564 7.79194 11.6125 9.00155 11.6125C10.2112 11.6125 11.1803 10.6564 11.1803 9.5C11.1803 8.34357 10.2112 7.3875 9.00155 7.3875ZM6.32277 9.5C6.32277 8.05363 7.52979 6.8875 9.00155 6.8875C10.4733 6.8875 11.6803 8.05363 11.6803 9.5C11.6803 10.9464 10.4733 12.1125 9.00155 12.1125C7.52979 12.1125 6.32277 10.9464 6.32277 9.5Z" stroke="white"/>
</g>
</svg>
