<svg width="19" height="19" viewBox="0 0 19 19" fill="none" xmlns="http://www.w3.org/2000/svg">
<path fill-rule="evenodd" clip-rule="evenodd" d="M8.46319 11.209V5.05709L7.25205 6.21978C6.96786 6.4926 6.51902 6.4926 6.23482 6.21978C5.93374 5.93073 5.93374 5.4492 6.23482 5.16016L8.71089 2.78314C8.99155 2.51369 9.43482 2.51369 9.71549 2.78314L12.1916 5.16016C12.4926 5.4492 12.4926 5.93073 12.1916 6.21978C11.9074 6.4926 11.4585 6.4926 11.1743 6.21978L9.96319 5.05709V11.209C9.96319 11.6232 9.6274 11.959 9.21319 11.959C8.79897 11.959 8.46319 11.6232 8.46319 11.209ZM12.6035 7.63902H12.9629C13.7909 7.63902 14.4629 8.28414 14.4629 9.07902V14.839C14.4629 15.6325 13.7909 16.279 12.9629 16.279H5.46289C4.63489 16.279 3.96289 15.6325 3.96289 14.839V9.07902C3.96289 8.28414 4.63489 7.63902 5.46289 7.63902H5.82227C6.038 7.63902 6.21289 7.81391 6.21289 8.02965V8.6884C6.21289 8.90413 6.038 9.07902 5.82227 9.07902H5.46289V14.839H12.9629V9.07902H12.6035C12.3878 9.07902 12.2129 8.90413 12.2129 8.6884V8.02965C12.2129 7.81391 12.3878 7.63902 12.6035 7.63902Z" fill="white"/>
</svg>