<svg width="19" height="18" viewBox="0 0 19 18" fill="none" xmlns="http://www.w3.org/2000/svg">
    <g clip-path="url(#clip0_10581_79624)">
        <path
            d="M13.9998 16.5012C13.8551 16.5012 13.7096 16.4592 13.5836 16.3752L9.49981 13.6527L5.41606 16.3752C5.15506 16.5492 4.81231 16.5432 4.55731 16.3572C4.30381 16.172 4.19281 15.848 4.27906 15.5457L5.65756 10.7195L2.21956 7.28147C2.00506 7.06772 1.94131 6.74447 2.05681 6.46397C2.17231 6.18422 2.44681 6.00122 2.74981 6.00122H6.78631L8.82931 1.91597C9.08356 1.40822 9.91681 1.40822 10.1711 1.91597L12.2141 6.00122H16.2498C16.5528 6.00122 16.8273 6.18422 16.9428 6.46397C17.0583 6.74447 16.9946 7.06772 16.7801 7.28147L13.3421 10.7195L14.7206 15.5457C14.8068 15.848 14.6958 16.172 14.4423 16.3572C14.3103 16.4532 14.1551 16.5012 13.9998 16.5012ZM9.49981 12.0012C9.64456 12.0012 9.79006 12.044 9.91606 12.1272L12.7181 13.9955L11.7791 10.7075C11.7033 10.445 11.7768 10.163 11.9696 9.97097L14.4393 7.50122H11.7498C11.4656 7.50122 11.2061 7.34072 11.0786 7.08647L9.49981 3.92822L7.92106 7.08647C7.79356 7.34072 7.53406 7.50122 7.24981 7.50122H4.56031L7.03006 9.97097C7.22281 10.1637 7.29556 10.4457 7.22056 10.7075L6.28156 13.9955L9.08356 12.1272C9.20956 12.044 9.35506 12.0012 9.49981 12.0012Z"
            fill="white" />
    </g>
    <defs>
        <clipPath id="clip0_10581_79624">
            <rect width="18" height="18" fill="white" transform="translate(0.5)" />
        </clipPath>
    </defs>
</svg>
    