<svg width="25" height="24" viewBox="0 0 25 24" fill="none" xmlns="http://www.w3.org/2000/svg">
<path fill-rule="evenodd" clip-rule="evenodd" d="M11.5 14.3633V6.16075L9.88517 7.711C9.50624 8.07477 8.90779 8.07477 8.52886 7.711C8.12741 7.32561 8.12741 6.68357 8.52886 6.29818L11.8303 3.12882C12.2045 2.76956 12.7955 2.76956 13.1697 3.12882L16.4712 6.29818C16.8726 6.68357 16.8726 7.32561 16.4712 7.711C16.0922 8.07477 15.4938 8.07477 15.1149 7.711L13.5 6.16075V14.3633C13.5 14.9156 13.0523 15.3633 12.5 15.3633C11.9477 15.3633 11.5 14.9156 11.5 14.3633ZM16.8906 9.60257H17.5C18.604 9.60257 19.5 10.4627 19.5 11.5226V19.2026C19.5 20.2605 18.604 21.1226 17.5 21.1226H7.5C6.396 21.1226 5.5 20.2605 5.5 19.2026V11.5226C5.5 10.4627 6.396 9.60257 7.5 9.60257H8.10938C8.32511 9.60257 8.5 9.77746 8.5 9.9932V11.1319C8.5 11.3477 8.32511 11.5226 8.10938 11.5226H7.5V19.2026H17.5V11.5226H16.8906C16.6749 11.5226 16.5 11.3477 16.5 11.1319V9.9932C16.5 9.77746 16.6749 9.60257 16.8906 9.60257Z" fill="url(#paint0_linear_6745_49168)"/>
<defs>
<linearGradient id="paint0_linear_6745_49168" x1="12.5" y1="2.85937" x2="12.5" y2="21.1226" gradientUnits="userSpaceOnUse">
<stop stop-color="#FAD3BD"/>
<stop offset="1" stop-color="#F39A68"/>
</linearGradient>
</defs>
</svg>
