<svg width="18" height="19" viewBox="0 0 18 19" fill="none" xmlns="http://www.w3.org/2000/svg">
    <path
        d="M5.25 12.6094C5.0375 12.6094 4.8595 12.5374 4.716 12.3934C4.5725 12.2494 4.5005 12.0714 4.5 11.8594C4.4995 11.6474 4.5715 11.4694 4.716 11.3254C4.8605 11.1814 5.0385 11.1094 5.25 11.1094H6.75C6.9625 11.1094 7.14075 11.1814 7.28475 11.3254C7.42875 11.4694 7.5005 11.6474 7.5 11.8594C7.4995 12.0714 7.4275 12.2496 7.284 12.3941C7.1405 12.5386 6.9625 12.6104 6.75 12.6094H5.25ZM5.25 9.60938C5.0375 9.60938 4.8595 9.53737 4.716 9.39337C4.5725 9.24937 4.5005 9.07137 4.5 8.85938C4.4995 8.64738 4.5715 8.46938 4.716 8.32538C4.8605 8.18138 5.0385 8.10938 5.25 8.10938H13.5C13.7125 8.10938 13.8908 8.18138 14.0348 8.32538C14.1788 8.46938 14.2505 8.64738 14.25 8.85938C14.2495 9.07137 14.1775 9.24963 14.034 9.39412C13.8905 9.53863 13.7125 9.61037 13.5 9.60938H5.25ZM5.25 6.60938C5.0375 6.60938 4.8595 6.53737 4.716 6.39337C4.5725 6.24937 4.5005 6.07138 4.5 5.85938C4.4995 5.64737 4.5715 5.46938 4.716 5.32538C4.8605 5.18138 5.0385 5.10938 5.25 5.10938H13.5C13.7125 5.10938 13.8908 5.18138 14.0348 5.32538C14.1788 5.46938 14.2505 5.64737 14.25 5.85938C14.2495 6.07138 14.1775 6.24962 14.034 6.39412C13.8905 6.53862 13.7125 6.61038 13.5 6.60938H5.25ZM11.9625 15.2906C11.8625 15.2906 11.7688 15.2751 11.6813 15.2441C11.5938 15.2131 11.5125 15.1599 11.4375 15.0844L9.3 12.9469C9.15 12.7969 9.078 12.6189 9.084 12.4129C9.09 12.2069 9.16825 12.0286 9.31875 11.8781C9.46925 11.7276 9.6475 11.6526 9.8535 11.6531C10.0595 11.6536 10.2375 11.7286 10.3875 11.8781L11.9625 13.4719L15.6563 9.77813C15.8063 9.62813 15.9845 9.55613 16.191 9.56213C16.3975 9.56813 16.5755 9.64638 16.725 9.79688C16.8625 9.94688 16.9345 10.1219 16.941 10.3219C16.9475 10.5219 16.8755 10.6969 16.725 10.8469L12.4875 15.0844C12.4125 15.1594 12.3313 15.2126 12.2438 15.2441C12.1563 15.2756 12.0625 15.2911 11.9625 15.2906ZM2.25 6.60938C2.0375 6.60938 1.8595 6.53737 1.716 6.39337C1.5725 6.24937 1.5005 6.07138 1.5 5.85938C1.4995 5.64737 1.5715 5.46938 1.716 5.32538C1.8605 5.18138 2.0385 5.10938 2.25 5.10938C2.4615 5.10938 2.63975 5.18138 2.78475 5.32538C2.92975 5.46938 3.0015 5.64737 3 5.85938C2.9985 6.07138 2.9265 6.24962 2.784 6.39412C2.6415 6.53862 2.4635 6.61038 2.25 6.60938ZM2.25 9.60938C2.0375 9.60938 1.8595 9.53737 1.716 9.39337C1.5725 9.24937 1.5005 9.07137 1.5 8.85938C1.4995 8.64738 1.5715 8.46938 1.716 8.32538C1.8605 8.18138 2.0385 8.10938 2.25 8.10938C2.4615 8.10938 2.63975 8.18138 2.78475 8.32538C2.92975 8.46938 3.0015 8.64738 3 8.85938C2.9985 9.07137 2.9265 9.24963 2.784 9.39412C2.6415 9.53863 2.4635 9.61037 2.25 9.60938ZM2.25 12.6094C2.0375 12.6094 1.8595 12.5374 1.716 12.3934C1.5725 12.2494 1.5005 12.0714 1.5 11.8594C1.4995 11.6474 1.5715 11.4694 1.716 11.3254C1.8605 11.1814 2.0385 11.1094 2.25 11.1094C2.4615 11.1094 2.63975 11.1814 2.78475 11.3254C2.92975 11.4694 3.0015 11.6474 3 11.8594C2.9985 12.0714 2.9265 12.2496 2.784 12.3941C2.6415 12.5386 2.4635 12.6104 2.25 12.6094Z"
        fill="white" />
</svg>