<svg width="49" height="49" viewBox="0 0 49 49" fill="none" xmlns="http://www.w3.org/2000/svg">
<g id="material-symbols:add-photo-alternate-outline-rounded">
<path id="Vector" d="M10.5 42.5C9.4 42.5 8.458 42.108 7.674 41.324C6.89 40.54 6.49867 39.5987 6.5 38.5V10.5C6.5 9.40001 6.892 8.45801 7.676 7.67401C8.46 6.89001 9.40134 6.49867 10.5 6.50001H26.5C27.0667 6.50001 27.542 6.69201 27.926 7.07601C28.31 7.46001 28.5013 7.93467 28.5 8.50001C28.5 9.06667 28.308 9.54201 27.924 9.92601C27.54 10.31 27.0653 10.5013 26.5 10.5H10.5V38.5H38.5V22.5C38.5 21.9333 38.692 21.458 39.076 21.074C39.46 20.69 39.9347 20.4987 40.5 20.5C41.0667 20.5 41.542 20.692 41.926 21.076C42.31 21.46 42.5013 21.9347 42.5 22.5V38.5C42.5 39.6 42.108 40.542 41.324 41.326C40.54 42.11 39.5987 42.5013 38.5 42.5H10.5ZM34.5 14.5H32.5C31.9333 14.5 31.458 14.308 31.074 13.924C30.69 13.54 30.4987 13.0653 30.5 12.5C30.5 11.9333 30.692 11.458 31.076 11.074C31.46 10.69 31.9347 10.4987 32.5 10.5H34.5V8.50001C34.5 7.93334 34.692 7.45801 35.076 7.07401C35.46 6.69001 35.9347 6.49867 36.5 6.50001C37.0667 6.50001 37.542 6.69201 37.926 7.07601C38.31 7.46001 38.5013 7.93467 38.5 8.50001V10.5H40.5C41.0667 10.5 41.542 10.692 41.926 11.076C42.31 11.46 42.5013 11.9347 42.5 12.5C42.5 13.0667 42.308 13.542 41.924 13.926C41.54 14.31 41.0653 14.5013 40.5 14.5H38.5V16.5C38.5 17.0667 38.308 17.542 37.924 17.926C37.54 18.31 37.0653 18.5013 36.5 18.5C35.9333 18.5 35.458 18.308 35.074 17.924C34.69 17.54 34.4987 17.0653 34.5 16.5V14.5ZM23 32.5L19.3 27.55C19.1 27.2833 18.8333 27.15 18.5 27.15C18.1667 27.15 17.9 27.2833 17.7 27.55L13.7 32.9C13.4333 33.2333 13.4 33.5833 13.6 33.95C13.8 34.3167 14.1 34.5 14.5 34.5H34.5C34.9 34.5 35.2 34.3167 35.4 33.95C35.6 33.5833 35.5667 33.2333 35.3 32.9L29.8 25.55C29.6 25.2833 29.3333 25.15 29 25.15C28.6667 25.15 28.4 25.2833 28.2 25.55L23 32.5Z" fill="white" fill-opacity="0.36"/>
</g>
</svg>
