<svg width="18" height="18" viewBox="0 0 18 18" fill="none" xmlns="http://www.w3.org/2000/svg">
    <g clip-path="url(#clip0_10068_84448)">
        <path fill-rule="evenodd" clip-rule="evenodd"
            d="M3 5.25C3 4.25544 3.39509 3.30161 4.09835 2.59835C4.80161 1.89509 5.75544 1.5 6.75 1.5H11.25C12.2446 1.5 13.1984 1.89509 13.9017 2.59835C14.6049 3.30161 15 4.25544 15 5.25V9.75C15 10.7446 14.6049 11.6984 13.9017 12.4017C13.1984 13.1049 12.2446 13.5 11.25 13.5H9.75V15H11.25C11.4489 15 11.6397 15.079 11.7803 15.2197C11.921 15.3603 12 15.5511 12 15.75C12 15.9489 11.921 16.1397 11.7803 16.2803C11.6397 16.421 11.4489 16.5 11.25 16.5H6.75C6.55109 16.5 6.36032 16.421 6.21967 16.2803C6.07902 16.1397 6 15.9489 6 15.75C6 15.5511 6.07902 15.3603 6.21967 15.2197C6.36032 15.079 6.55109 15 6.75 15H8.25V13.5H6.75C5.75544 13.5 4.80161 13.1049 4.09835 12.4017C3.39509 11.6984 3 10.7446 3 9.75V5.25ZM9 12H11.25C11.8467 12 12.419 11.7629 12.841 11.341C13.2629 10.919 13.5 10.3467 13.5 9.75H11.25C11.0511 9.75 10.8603 9.67098 10.7197 9.53033C10.579 9.38968 10.5 9.19891 10.5 9C10.5 8.80109 10.579 8.61032 10.7197 8.46967C10.8603 8.32902 11.0511 8.25 11.25 8.25H13.5V6.75H11.25C11.0511 6.75 10.8603 6.67098 10.7197 6.53033C10.579 6.38968 10.5 6.19891 10.5 6C10.5 5.80109 10.579 5.61032 10.7197 5.46967C10.8603 5.32902 11.0511 5.25 11.25 5.25H13.5C13.5 4.65326 13.2629 4.08097 12.841 3.65901C12.419 3.23705 11.8467 3 11.25 3H6.75C6.15326 3 5.58097 3.23705 5.15901 3.65901C4.73705 4.08097 4.5 4.65326 4.5 5.25H6.75C6.94891 5.25 7.13968 5.32902 7.28033 5.46967C7.42098 5.61032 7.5 5.80109 7.5 6C7.5 6.19891 7.42098 6.38968 7.28033 6.53033C7.13968 6.67098 6.94891 6.75 6.75 6.75H4.5V8.25H6.75C6.94891 8.25 7.13968 8.32902 7.28033 8.46967C7.42098 8.61032 7.5 8.80109 7.5 9C7.5 9.19891 7.42098 9.38968 7.28033 9.53033C7.13968 9.67098 6.94891 9.75 6.75 9.75H4.5C4.5 10.3467 4.73705 10.919 5.15901 11.341C5.58097 11.7629 6.15326 12 6.75 12H9Z"
            fill="white" />
    </g>
    <defs>
    <clipPath id="clip0_10068_84448">
            <rect width="18" height="18" fill="white" />
    </clipPath>
    </defs>
    </svg>
    