<svg width="18" height="18" viewBox="0 0 18 18" fill="none" xmlns="http://www.w3.org/2000/svg">
<path d="M13.7175 11.7825L10.2825 15.2175C9.99 15.51 9.51 15.51 9.2175 15.2175C8.925 14.925 8.925 14.445 9.2175 14.1525L11.3775 12H3.75C3.3375 12 3 11.6625 3 11.25V3.75C3 3.3375 3.3375 3 3.75 3C4.1625 3 4.5 3.3375 4.5 3.75V10.5H11.3775L9.2175 8.3475C8.925 8.055 8.925 7.575 9.2175 7.2825C9.51 6.99 9.99 6.99 10.2825 7.2825L13.7175 10.7175C14.01 11.01 14.01 11.49 13.7175 11.7825Z" fill="white" fill-opacity="0.36"/>
</svg>
