<svg width="25" height="24" viewBox="0 0 25 24" fill="none" xmlns="http://www.w3.org/2000/svg">
    <path
        d="M12.894 2.07991L12.5 2.99991L12.106 2.07991C12.2305 2.02654 12.3645 1.99902 12.5 1.99902C12.6355 1.99902 12.7695 2.02654 12.894 2.07991Z"
        fill="#C69DF7" />
    <path fill-rule="evenodd" clip-rule="evenodd"
        d="M20.5 13.5179V6.65991C20.5 6.26857 20.3851 5.88584 20.1697 5.55913C19.9542 5.23243 19.6477 4.9751 19.288 4.82091L12.894 2.08091L12.5 2.99991L12.106 2.08091L5.712 4.81991C5.35216 4.97417 5.0455 5.23165 4.83005 5.55855C4.61479 5.88517 4.50004 6.26775 4.5 6.65891C4.5 6.65925 4.5 6.65958 4.5 6.65991V13.5189H6.5V6.65991L12.5011 4.08828L18.5 6.65991V13.5179C18.4999 14.3994 18.2667 15.2652 17.8242 16.0275C17.3816 16.7899 16.7454 17.4217 15.98 17.8589L12.5 19.8484L9.019 17.8589C8.25406 17.4217 7.61823 16.7902 7.17587 16.0282C6.73352 15.2663 6.50036 14.401 6.5 13.5199H4.5C4.5003 14.7533 4.82648 15.9648 5.44554 17.0316C6.06494 18.099 6.95551 18.9836 8.027 19.5959L12.004 21.8679C12.1551 21.9542 12.326 21.9996 12.5 21.9996C12.674 21.9996 12.8449 21.9542 12.996 21.8679L16.973 19.5959C18.0446 18.9835 18.9353 18.0997 19.5547 17.0321C20.1738 15.9651 20.4999 14.7535 20.5 13.5199C20.5 13.5192 20.5 13.5186 20.5 13.5179ZM8.027 19.5959L8.523 18.7269H8.524L8.027 19.5959ZM6.49957 6.65891L5.712 4.81991V4.82191L6.49957 6.65891Z"
        fill="#C69DF7" />
    <path
        d="M16.2071 10.7071C16.5976 10.3166 16.5976 9.68342 16.2071 9.29289C15.8166 8.90237 15.1834 8.90237 14.7929 9.29289L11.5 12.5858L10.2071 11.2929C9.81658 10.9024 9.18342 10.9024 8.79289 11.2929C8.40237 11.6834 8.40237 12.3166 8.79289 12.7071L10.7929 14.7071C11.1834 15.0976 11.8166 15.0976 12.2071 14.7071L16.2071 10.7071Z"
        fill="#C69DF7" />
</svg>