<svg width="24" height="25" viewBox="0 0 24 25" fill="none" xmlns="http://www.w3.org/2000/svg">
    <path
        d="M13 6.5H11V7.5C11 7.76522 11.1054 8.01957 11.2929 8.20711C11.4804 8.39464 11.7348 8.5 12 8.5C12.2652 8.5 12.5196 8.39464 12.7071 8.20711C12.8946 8.01957 13 7.76522 13 7.5V6.5Z"
        fill="white" />
    <path fill-rule="evenodd" clip-rule="evenodd"
        d="M6 2.5V4.5H7V7.5C7 8.82608 7.52678 10.0979 8.46447 11.0355C9.40215 11.9732 10.6739 12.5 12 12.5C10.6739 12.5 9.40215 13.0268 8.46447 13.9645C7.52678 14.9021 7 16.1739 7 17.5V20.5H6V22.5H18V20.5H17V17.5C17 16.1739 16.4732 14.9021 15.5355 13.9645C14.5979 13.0268 13.3261 12.5 12 12.5C12.6566 12.5 13.3068 12.3707 13.9134 12.1194C14.52 11.8681 15.0712 11.4998 15.5355 11.0355C15.9998 10.5712 16.3681 10.02 16.6194 9.41342C16.8707 8.80679 17 8.15661 17 7.5V4.5H18V2.5H6ZM9 4.5H15V7.5C15 8.29565 14.6839 9.05871 14.1213 9.62132C13.5587 10.1839 12.7956 10.5 12 10.5C11.2044 10.5 10.4413 10.1839 9.87868 9.62132C9.31607 9.05871 9 8.29565 9 7.5V4.5ZM9 17.5V20.5H15V17.5C15 16.7044 14.6839 15.9413 14.1213 15.3787C13.5587 14.8161 12.7956 14.5 12 14.5C11.2044 14.5 10.4413 14.8161 9.87868 15.3787C9.31607 15.9413 9 16.7044 9 17.5Z"
        fill="white" />
</svg>
    