<svg width="18" height="18" viewBox="0 0 18 18" fill="none" xmlns="http://www.w3.org/2000/svg">
    <path
        d="M10.1093 7.41334C8.88975 6.96034 8.22525 6.61309 8.22525 6.06109C8.22525 5.59459 8.6085 5.32834 9.2925 5.32834C10.5428 5.32834 11.8268 5.80984 12.711 6.24334L13.2105 3.16009C12.5093 2.82559 11.0753 2.27734 9.093 2.27734C7.6905 2.27734 6.52425 2.64409 5.691 3.32809C4.82475 4.04359 4.37325 5.07859 4.37325 6.32809C4.37325 8.59534 5.7585 9.56209 8.0085 10.3803C9.4605 10.8963 9.94275 11.2638 9.94275 11.8308C9.94275 12.3798 9.471 12.6971 8.62125 12.6971C7.569 12.6971 5.83425 12.1803 4.698 11.5136L4.1925 14.6313C5.1705 15.1803 6.97125 15.7473 8.84025 15.7473C10.3223 15.7473 11.5583 15.3971 12.3915 14.7303C13.3253 13.9976 13.809 12.9138 13.809 11.5136C13.809 9.19534 12.3923 8.22859 10.1078 7.41259H10.1093V7.41334Z"
        fill="#635BFF" />
</svg>
    