<svg width="19" height="19" viewBox="0 0 19 19" fill="none" xmlns="http://www.w3.org/2000/svg">
<path d="M9.5 17C5.3645 17 2 13.6362 2 9.5C2 5.3645 5.3645 2 9.5 2C13.6355 2 17 5.3645 17 9.5C17 13.6362 13.6355 17 9.5 17ZM9.5 3.5C6.19175 3.5 3.5 6.19175 3.5 9.5C3.5 12.8082 6.19175 15.5 9.5 15.5C12.8082 15.5 15.5 12.8082 15.5 9.5C15.5 6.19175 12.8082 3.5 9.5 3.5Z" fill="#9DF7D7"/>
<path d="M9.5 11.5491L10.8049 12.2953C11.1865 12.5134 11.6437 12.1685 11.5386 11.7417L11.2025 10.3767L12.2927 9.48202C12.6404 9.19667 12.4639 8.63317 12.0155 8.59713L10.5538 8.47964L9.95641 7.14443C9.77995 6.75001 9.22005 6.75001 9.04359 7.14443L8.44625 8.47964L6.98446 8.59713C6.53611 8.63317 6.35962 9.19667 6.70731 9.48202L7.7975 10.3767L7.4614 11.7417C7.3563 12.1685 7.8135 12.5134 8.19508 12.2953L9.5 11.5491Z" fill="#9DF7D7"/>
</svg>
