<svg width="24" height="25" viewBox="0 0 24 25" fill="none" xmlns="http://www.w3.org/2000/svg">
<path fill-rule="evenodd" clip-rule="evenodd" d="M11 15.002V6.416L9.414 8.002C9.02353 8.39247 8.39046 8.39247 8 8.002C7.60953 7.61154 7.60953 6.97847 8 6.588L11.282 3.30602C11.6785 2.90947 12.3215 2.90947 12.718 3.30602L16 6.588C16.3905 6.97847 16.3905 7.61154 16 8.002C15.6095 8.39247 14.9765 8.39247 14.586 8.002L13 6.416V15.002C13 15.5543 12.5523 16.002 12 16.002C11.4477 16.002 11 15.5543 11 15.002ZM16.5 10.002H17C18.104 10.002 19 10.898 19 12.002V20.002C19 21.104 18.104 22.002 17 22.002H7C5.896 22.002 5 21.104 5 20.002V12.002C5 10.898 5.896 10.002 7 10.002H7.5C7.77614 10.002 8 10.2259 8 10.502V11.502C8 11.7781 7.77614 12.002 7.5 12.002H7V20.002H17V12.002H16.5C16.2239 12.002 16 11.7781 16 11.502V10.502C16 10.2259 16.2239 10.002 16.5 10.002Z" fill="black"/>
</svg>
