<svg width="24" height="24" viewBox="0 0 24 24" fill="none" xmlns="http://www.w3.org/2000/svg">
<path fill-rule="evenodd" clip-rule="evenodd" d="M13.294 6.29301C13.685 5.90201 14.317 5.90201 14.708 6.29301L17.707 9.29301C18.098 9.68401 18.098 10.317 17.707 10.707L10.707 17.707C10.512 17.902 10.255 18 9.99998 18C9.74498 18 9.48898 17.902 9.29398 17.707L6.29398 14.707C5.90298 14.316 5.90298 13.684 6.29398 13.293L13.294 6.29301ZM8.41498 14L9.99998 15.586L12.586 13L11 11.414L8.41498 14ZM12.415 10L14 11.586L15.586 10L14 8.41401L12.415 10Z" fill="url(#paint0_linear_2597_24777)"/>
<path fill-rule="evenodd" clip-rule="evenodd" d="M21.708 6.29301C22.099 6.68401 22.099 7.31701 21.708 7.70701C21.104 8.31101 21.104 9.69001 21.707 10.293C22.098 10.684 22.098 11.317 21.707 11.707L11.707 21.707C11.512 21.902 11.255 22 11 22C10.745 22 10.489 21.902 10.294 21.707C9.72198 21.135 8.27998 21.135 7.70798 21.707C7.31698 22.098 6.68498 22.098 6.29398 21.707L2.29398 17.707C1.90298 17.316 1.90298 16.684 2.29398 16.293C2.89798 15.69 2.89798 14.311 2.29398 13.707C1.90298 13.316 1.90298 12.684 2.29398 12.293L12.294 2.29301C12.685 1.90201 13.317 1.90201 13.708 2.29301C14.28 2.86501 15.722 2.86501 16.294 2.29301C16.685 1.90201 17.317 1.90201 17.708 2.29301L21.708 6.29301ZM10.889 19.697L19.698 10.889C19.1 9.74601 19.1 8.25401 19.698 7.11101L16.889 4.30201C15.78 4.88101 14.221 4.88101 13.112 4.30201L4.30298 13.111C4.90098 14.254 4.90098 15.746 4.30298 16.889L7.11198 19.697C8.22098 19.119 9.77998 19.119 10.889 19.697Z" fill="url(#paint1_linear_2597_24777)"/>
<defs>
<linearGradient id="paint0_linear_2597_24777" x1="12.001" y1="1.99976" x2="12.001" y2="22.0003" gradientUnits="userSpaceOnUse">
<stop stop-color="#BDD5FA"/>
<stop offset="1" stop-color="#68A0F3"/>
</linearGradient>
<linearGradient id="paint1_linear_2597_24777" x1="12.001" y1="1.99976" x2="12.001" y2="22.0003" gradientUnits="userSpaceOnUse">
<stop stop-color="#BDD5FA"/>
<stop offset="1" stop-color="#68A0F3"/>
</linearGradient>
</defs>
</svg>
