<svg width="18" height="19" viewBox="0 0 18 19" fill="none" xmlns="http://www.w3.org/2000/svg">
    <path fill-rule="evenodd" clip-rule="evenodd"
        d="M10.5059 14.7523L10.5104 13.25C10.5104 13.0506 10.5897 12.8593 10.7307 12.7183C10.8717 12.5773 11.0629 12.4981 11.2623 12.4981C11.4617 12.4981 11.653 12.5773 11.794 12.7183C11.935 12.8593 12.0142 13.0506 12.0142 13.25V14.7327C12.0142 15.0935 12.0142 15.2743 12.1297 15.3853C12.2459 15.4955 12.4222 15.488 12.7769 15.473C14.1742 15.4138 15.0329 15.2255 15.6374 14.621C16.2449 14.0165 16.4332 13.1578 16.4924 11.7582C16.5037 11.4807 16.5097 11.3412 16.4579 11.249C16.4054 11.1567 16.1992 11.0413 15.7852 10.8095C15.552 10.6795 15.3577 10.4896 15.2225 10.2594C15.0873 10.0291 15.016 9.76699 15.016 9.5C15.016 9.23301 15.0873 8.97086 15.2225 8.74065C15.3577 8.51043 15.552 8.32051 15.7852 8.1905C16.1992 7.9595 16.4062 7.84325 16.4579 7.751C16.5097 7.65875 16.5037 7.52 16.4917 7.24175C16.4332 5.84225 16.2442 4.98425 15.6374 4.379C14.9797 3.722 14.0212 3.55625 12.3959 3.51425C12.3462 3.51295 12.2967 3.52163 12.2503 3.53978C12.2039 3.55792 12.1617 3.58517 12.126 3.61992C12.0904 3.65466 12.0621 3.69619 12.0427 3.74207C12.0234 3.78794 12.0134 3.83722 12.0134 3.887V5.75C12.0134 5.94941 11.9342 6.14065 11.7932 6.28166C11.6522 6.42266 11.461 6.50187 11.2616 6.50187C11.0622 6.50187 10.8709 6.42266 10.7299 6.28166C10.5889 6.14065 10.5097 5.94941 10.5097 5.75L10.5044 3.87425C10.5042 3.77492 10.4647 3.67973 10.3943 3.60957C10.324 3.53941 10.2288 3.5 10.1294 3.5H7.49545C4.66045 3.5 3.24295 3.5 2.3617 4.379C1.7542 4.9835 1.56595 5.84225 1.5067 7.24175C1.49545 7.51925 1.48945 7.65875 1.5412 7.751C1.5937 7.84325 1.79995 7.9595 2.21395 8.1905C2.44715 8.32051 2.6414 8.51043 2.77663 8.74065C2.91186 8.97086 2.98316 9.23301 2.98316 9.5C2.98316 9.76699 2.91186 10.0291 2.77663 10.2594C2.6414 10.4896 2.44715 10.6795 2.21395 10.8095C1.79995 11.0413 1.59295 11.1567 1.5412 11.249C1.48945 11.3412 1.49545 11.48 1.50745 11.7575C1.56595 13.1578 1.75495 14.0165 2.3617 14.621C3.24295 15.5 4.66045 15.5 7.4962 15.5H9.7537C10.1077 15.5 10.2839 15.5 10.3942 15.3905C10.5044 15.281 10.5052 15.1055 10.5059 14.7523ZM12.0134 10.25V8.75C12.0134 8.55059 11.9342 8.35935 11.7932 8.21834C11.6522 8.07734 11.461 7.99813 11.2616 7.99813C11.0622 7.99813 10.8709 8.07734 10.7299 8.21834C10.5889 8.35935 10.5097 8.55059 10.5097 8.75V10.25C10.5097 10.4495 10.589 10.6408 10.73 10.7819C10.8711 10.923 11.0624 11.0023 11.2619 11.0023C11.4615 11.0023 11.6528 10.923 11.7939 10.7819C11.9349 10.6408 12.0134 10.4495 12.0134 10.25Z"
        fill="white" fill-opacity="0.87" />
</svg>