<svg width="18" height="18" viewBox="0 0 18 18" fill="none" xmlns="http://www.w3.org/2000/svg">
<path d="M6.75008 12L6.13133 14.4562C6.09383 14.6187 6.01258 14.75 5.88758 14.85C5.76258 14.95 5.61258 15 5.43758 15C5.20008 15 5.00633 14.9062 4.85633 14.7188C4.70633 14.5312 4.66258 14.325 4.72508 14.1L5.25008 12H3.20633C2.95633 12 2.75633 11.9032 2.60633 11.7098C2.45633 11.5162 2.41258 11.3005 2.47508 11.0625C2.51258 10.8875 2.60008 10.75 2.73758 10.65C2.87508 10.55 3.03133 10.5 3.20633 10.5H5.62508L6.37508 7.5H4.33133C4.08133 7.5 3.88133 7.40325 3.73133 7.20975C3.58133 7.01625 3.53758 6.8005 3.60008 6.5625C3.63758 6.3875 3.72508 6.25 3.86258 6.15C4.00008 6.05 4.15633 6 4.33133 6H6.75008L7.36883 3.54375C7.40633 3.38125 7.48758 3.25 7.61258 3.15C7.73758 3.05 7.88758 3 8.06258 3C8.30008 3 8.49383 3.09375 8.64383 3.28125C8.79383 3.46875 8.83758 3.675 8.77508 3.9L8.25008 6H11.2501L11.8688 3.54375C11.9063 3.38125 11.9876 3.25 12.1126 3.15C12.2376 3.05 12.3876 3 12.5626 3C12.8001 3 12.9938 3.09375 13.1438 3.28125C13.2938 3.46875 13.3376 3.675 13.2751 3.9L12.7501 6H14.7938C15.0438 6 15.2438 6.09675 15.3938 6.29025C15.5438 6.48375 15.5876 6.6995 15.5251 6.9375C15.4876 7.1125 15.4001 7.25 15.2626 7.35C15.1251 7.45 14.9688 7.5 14.7938 7.5H12.3751L11.6251 10.5H13.6688C13.9188 10.5 14.1188 10.597 14.2688 10.791C14.4188 10.985 14.4626 11.2005 14.4001 11.4375C14.3626 11.6125 14.2751 11.75 14.1376 11.85C14.0001 11.95 13.8438 12 13.6688 12H11.2501L10.6313 14.4562C10.5938 14.6187 10.5126 14.75 10.3876 14.85C10.2626 14.95 10.1126 15 9.93758 15C9.70008 15 9.50633 14.9062 9.35633 14.7188C9.20633 14.5312 9.16258 14.325 9.22508 14.1L9.75008 12H6.75008ZM7.12508 10.5H10.1251L10.8751 7.5H7.87508L7.12508 10.5Z" fill="white"/>
</svg>
