<svg width="18" height="18" viewBox="0 0 18 18" fill="none" xmlns="http://www.w3.org/2000/svg">
<g opacity="0.87">
<path d="M17.7326 3.70464C17.1064 3.98214 16.4336 4.16964 15.7264 4.25439C16.4561 3.81773 17.0021 3.13049 17.2624 2.32089C16.5768 2.72813 15.8264 3.01479 15.0439 3.16839C14.5177 2.60654 13.8207 2.23413 13.0611 2.10899C12.3016 1.98386 11.5219 2.11298 10.8433 2.47633C10.1647 2.83967 9.62496 3.41691 9.30799 4.11842C8.99102 4.81992 8.91453 5.60645 9.09037 6.35589C7.70114 6.28614 6.3421 5.92505 5.10144 5.29607C3.86079 4.66708 2.76626 3.78426 1.88887 2.70489C1.58887 3.22239 1.41638 3.82239 1.41638 4.46139C1.41604 5.03664 1.5577 5.60307 1.82878 6.11044C2.09987 6.61781 2.492 7.05042 2.97038 7.36989C2.41558 7.35224 1.87303 7.20233 1.38788 6.93264V6.97764C1.38782 7.78444 1.6669 8.56642 2.17776 9.19089C2.68862 9.81535 3.3998 10.2438 4.19063 10.4036C3.67596 10.5429 3.13638 10.5634 2.61263 10.4636C2.83575 11.1578 3.27037 11.7649 3.85565 12.1998C4.44093 12.6348 5.14756 12.8758 5.87663 12.8891C4.639 13.8607 3.11054 14.3877 1.53712 14.3854C1.25841 14.3855 0.979932 14.3692 0.703125 14.3366C2.30023 15.3635 4.15938 15.9085 6.05813 15.9064C12.4856 15.9064 15.9994 10.5829 15.9994 5.96589C15.9994 5.81589 15.9956 5.66439 15.9889 5.51439C16.6723 5.02012 17.2623 4.40806 17.7311 3.70689L17.7326 3.70464Z" fill="white" fill-opacity="0.72"/>
</g>
</svg>
