<svg width="40" height="40" viewBox="0 0 40 40" fill="none" xmlns="http://www.w3.org/2000/svg">
    <path
        d="M3.33301 31.6673V16.6673C3.33301 15.7833 3.68445 14.9357 4.30957 14.3105C4.93469 13.6854 5.78229 13.334 6.66634 13.334H11.6663C12.5868 13.334 13.333 14.0802 13.333 15.0007C13.333 15.9211 12.5868 16.6673 11.6663 16.6673H6.66634V31.6673H19.9997C19.9997 30.7468 20.7459 30.0007 21.6663 30.0007C22.5868 30.0007 23.333 30.7468 23.333 31.6673H26.6663V27.5007C26.6663 26.5802 27.4125 25.834 28.333 25.834C29.2535 25.834 29.9997 26.5802 29.9997 27.5007V31.6673C29.9997 32.5514 29.6482 33.399 29.0231 34.0241C28.398 34.6492 27.5504 35.0007 26.6663 35.0007H6.66634C5.78229 35.0007 4.93469 34.6492 4.30957 34.0241C3.76243 33.4769 3.42492 32.7594 3.34928 31.9961L3.33301 31.6673Z"
        fill="url(#paint0_linear_20472_34485)" />
    <path fill-rule="evenodd" clip-rule="evenodd"
        d="M36.6667 9.99935C36.6667 9.11529 36.3155 8.26745 35.6904 7.64233C35.0652 7.0172 34.2174 6.66602 33.3333 6.66602H13.3333C12.4493 6.66602 11.6014 7.0172 10.9763 7.64233C10.3512 8.26745 10 9.11529 10 9.99935V24.9993C10 25.8834 10.3512 26.7312 10.9763 27.3564C11.6014 27.9815 12.4493 28.3327 13.3333 28.3327H33.3333C34.2174 28.3327 35.0652 27.9815 35.6904 27.3564C36.3155 26.7312 36.6667 25.8834 36.6667 24.9993V9.99935ZM30 10.001C30 10.443 29.8244 10.867 29.5118 11.1795C29.1993 11.4921 28.7754 11.6677 28.3333 11.6677C27.8913 11.6677 27.4674 11.4921 27.1548 11.1795C26.8423 10.867 26.6667 10.443 26.6667 10.001C26.6667 9.55899 26.8423 9.1334 27.1548 8.82084C27.4674 8.50828 27.8913 8.33268 28.3333 8.33268C28.7754 8.33268 29.1993 8.50828 29.5118 8.82084C29.8244 9.1334 30 9.55899 30 10.001ZM28.3333 18.3343C28.7754 18.3343 29.1993 18.1588 29.5118 17.8462C29.8244 17.5336 30 17.1097 30 16.6677V16.666C30 16.224 29.8244 15.8001 29.5118 15.4875C29.1993 15.1749 28.7754 14.9993 28.3333 14.9993C27.8913 14.9993 27.4674 15.1749 27.1548 15.4875C26.8423 15.8001 26.6667 16.224 26.6667 16.666V16.6677C26.6667 17.1097 26.8423 17.5336 27.1548 17.8462C27.4674 18.1588 27.8913 18.3343 28.3333 18.3343ZM30 23.3343C30 23.7764 29.8244 24.2003 29.5118 24.5129C29.1993 24.8254 28.7754 25.001 28.3333 25.001C27.8913 25.001 27.4674 24.8254 27.1548 24.5129C26.8423 24.2003 26.6667 23.7764 26.6667 23.3343V23.3327C26.6667 22.8907 26.8423 22.4667 27.1548 22.1542C27.4674 21.8416 27.8913 21.666 28.3333 21.666C28.7754 21.666 29.1993 21.8416 29.5118 22.1542C29.8244 22.4667 30 22.8907 30 23.3327V23.3343Z"
        fill="url(#paint1_linear_20472_34485)" />
    <defs>
        <linearGradient id="paint0_linear_20472_34485" x1="16.6663" y1="13.334" x2="16.6663"
            y2="35.0007" gradientUnits="userSpaceOnUse">
            <stop stop-color="#424242" />
            <stop offset="1" stop-color="#272727" />
        </linearGradient>
        <linearGradient id="paint1_linear_20472_34485" x1="23.3333" y1="6.66602" x2="23.3333"
            y2="28.3327" gradientUnits="userSpaceOnUse">
            <stop stop-color="#424242" />
            <stop offset="1" stop-color="#272727" />
        </linearGradient>
    </defs>
</svg>
    