<svg width="18" height="18" viewBox="0 0 18 18" fill="none" xmlns="http://www.w3.org/2000/svg">
<g id="mingcute:file-certificate-line" clip-path="url(#clip0_3734_48297)">
<g id="Group">
<path id="Vector" fill-rule="evenodd" clip-rule="evenodd" d="M10.1895 1.5C10.5873 1.50008 10.9688 1.65818 11.25 1.9395L14.5605 5.25C14.8419 5.53124 15 5.91271 15 6.3105V15C15 15.3978 14.842 15.7794 14.5607 16.0607C14.2794 16.342 13.8979 16.5 13.5 16.5H9.75004C9.55113 16.5 9.36037 16.421 9.21971 16.2803C9.07906 16.1397 9.00004 15.9489 9.00004 15.75C9.00004 15.5511 9.07906 15.3603 9.21971 15.2197C9.36037 15.079 9.55113 15 9.75004 15H13.5V7.5H10.125C9.82668 7.5 9.54053 7.38147 9.32955 7.1705C9.11857 6.95952 9.00004 6.67337 9.00004 6.375V3H4.50004V6C4.50004 6.19891 4.42103 6.38968 4.28037 6.53033C4.13972 6.67098 3.94896 6.75 3.75004 6.75C3.55113 6.75 3.36037 6.67098 3.21971 6.53033C3.07906 6.38968 3.00004 6.19891 3.00004 6V3C3.00004 2.60218 3.15808 2.22064 3.43938 1.93934C3.72069 1.65804 4.10222 1.5 4.50004 1.5H10.1895ZM5.25004 7.5C5.82742 7.49997 6.39254 7.66655 6.87759 7.97975C7.36263 8.29296 7.74699 8.73948 7.98454 9.26572C8.22209 9.79197 8.30273 10.3756 8.21679 10.9465C8.13085 11.5175 7.88198 12.0515 7.50004 12.4845V15.6285C7.50006 15.7691 7.46413 15.9075 7.39565 16.0303C7.32718 16.1531 7.22843 16.2564 7.1088 16.3304C6.98917 16.4043 6.85262 16.4465 6.71212 16.4528C6.57162 16.4591 6.43183 16.4294 6.30604 16.3665L5.25004 15.8385L4.19404 16.3665C4.06825 16.4294 3.92847 16.4591 3.78797 16.4528C3.64747 16.4465 3.51092 16.4043 3.39129 16.3304C3.27165 16.2564 3.17291 16.1531 3.10443 16.0303C3.03596 15.9075 3.00002 15.7691 3.00004 15.6285V12.4845C2.61811 12.0515 2.36924 11.5175 2.2833 10.9465C2.19736 10.3756 2.278 9.79197 2.51555 9.26572C2.7531 8.73948 3.13746 8.29296 3.6225 7.97975C4.10755 7.66655 4.67267 7.49997 5.25004 7.5ZM6.00004 13.4055C5.50807 13.5322 4.99202 13.5322 4.50004 13.4055V14.5365L4.91479 14.3295C5.01889 14.2775 5.13367 14.2504 5.25004 14.2504C5.36642 14.2504 5.48119 14.2775 5.58529 14.3295L6.00004 14.5365V13.4055ZM5.25004 9C4.85222 9 4.47069 9.15804 4.18938 9.43934C3.90808 9.72064 3.75004 10.1022 3.75004 10.5C3.75004 10.8978 3.90808 11.2794 4.18938 11.5607C4.47069 11.842 4.85222 12 5.25004 12C5.64787 12 6.0294 11.842 6.3107 11.5607C6.59201 11.2794 6.75004 10.8978 6.75004 10.5C6.75004 10.1022 6.59201 9.72064 6.3107 9.43934C6.0294 9.15804 5.64787 9 5.25004 9ZM10.5 3.3105V6H13.1895L10.5 3.3105Z" fill="white" fill-opacity="0.54"/>
</g>
</g>
<defs>
<clipPath id="clip0_3734_48297">
<rect width="18" height="18" fill="white"/>
</clipPath>
</defs>
</svg>
