<svg width="19" height="18" viewBox="0 0 19 18" fill="none" xmlns="http://www.w3.org/2000/svg">
    <path
        d="M9.75 16.2746C9.625 16.2746 9.5 16.2591 9.375 16.2281C9.25 16.1971 9.13125 16.1501 9.01875 16.0871L3.76875 13.1809C3.53125 13.0434 3.34375 12.8589 3.20625 12.6274C3.06875 12.3959 3 12.1429 3 11.8684V6.13086C3 5.85586 3.06875 5.60286 3.20625 5.37186C3.34375 5.14086 3.53125 4.95636 3.76875 4.81836L9.01875 1.91211C9.13125 1.84961 9.25 1.80286 9.375 1.77186C9.5 1.74086 9.625 1.72511 9.75 1.72461C9.875 1.72461 10 1.74036 10.125 1.77186C10.25 1.80336 10.3688 1.85011 10.4813 1.91211L15.7313 4.81836C15.9688 4.95586 16.1562 5.14036 16.2938 5.37186C16.4313 5.60336 16.5 5.85636 16.5 6.13086V11.8684C16.5 12.1434 16.4313 12.3966 16.2938 12.6281C16.1562 12.8596 15.9688 13.0439 15.7313 13.1809L10.4813 16.0871C10.3688 16.1496 10.25 16.1966 10.125 16.2281C10 16.2596 9.875 16.2751 9.75 16.2746ZM7.575 6.93711C7.85 6.64961 8.172 6.42136 8.541 6.25236C8.91 6.08336 9.313 5.99911 9.75 5.99961C10.1875 5.99961 10.5907 6.08411 10.9598 6.25311C11.3287 6.42211 11.6505 6.65011 11.925 6.93711L14.175 5.68086L9.75 3.22461L5.325 5.68086L7.575 6.93711ZM9 14.3621V11.9059C8.35 11.7309 7.8125 11.3776 7.3875 10.8461C6.9625 10.3146 6.75 9.69911 6.75 8.99961C6.75 8.86211 6.75625 8.73086 6.76875 8.60586C6.78125 8.48086 6.80625 8.36211 6.84375 8.24961L4.5 6.93711V11.8684L9 14.3621ZM9.75 10.4996C10.1625 10.4996 10.5157 10.3526 10.8098 10.0586C11.1038 9.76461 11.2505 9.41161 11.25 8.99961C11.25 8.58711 11.103 8.23386 10.809 7.93986C10.515 7.64586 10.162 7.49911 9.75 7.49961C9.3375 7.49961 8.98425 7.64661 8.69025 7.94061C8.39625 8.23461 8.2495 8.58761 8.25 8.99961C8.25 9.41211 8.397 9.76536 8.691 10.0594C8.985 10.3534 9.338 10.5001 9.75 10.4996ZM10.5 14.3621L15 11.8684V6.93711L12.6562 8.24961C12.6938 8.37461 12.7188 8.49661 12.7313 8.61561C12.7438 8.73461 12.75 8.86261 12.75 8.99961C12.75 9.69961 12.5375 10.3154 12.1125 10.8469C11.6875 11.3784 11.15 11.7314 10.5 11.9059V14.3621Z"
        fill="white" />
</svg>
    