<svg width="15" height="16" viewBox="0 0 15 16" fill="none" xmlns="http://www.w3.org/2000/svg">
<path d="M7.5 1.75C7.73438 1.75 7.96562 1.7625 8.19375 1.78813C8.27533 1.79715 8.35434 1.82216 8.42626 1.86172C8.49818 1.90129 8.5616 1.95463 8.6129 2.0187C8.66421 2.08277 8.70239 2.15632 8.72527 2.23515C8.74815 2.31398 8.75528 2.39654 8.74625 2.47812C8.73722 2.55971 8.71221 2.63872 8.67265 2.71063C8.63309 2.78255 8.57975 2.84597 8.51568 2.89728C8.4516 2.94858 8.37805 2.98677 8.29923 3.00964C8.2204 3.03252 8.13783 3.03965 8.05625 3.03062C7.02628 2.9154 5.98595 3.12309 5.07917 3.62495C4.17239 4.12682 3.44397 4.89806 2.99467 5.832C2.54536 6.76594 2.39738 7.81642 2.57118 8.83814C2.74499 9.85986 3.23199 10.8023 3.96484 11.5352C4.69768 12.268 5.64014 12.755 6.66186 12.9288C7.68358 13.1026 8.73406 12.9546 9.668 12.5053C10.6019 12.056 11.3732 11.3276 11.875 10.4208C12.3769 9.51405 12.5846 8.47372 12.4694 7.44375C12.4603 7.36217 12.4675 7.2796 12.4904 7.20077C12.5132 7.12195 12.5514 7.0484 12.6027 6.98432C12.7063 6.85492 12.8571 6.77198 13.0219 6.75375C13.1866 6.73552 13.3519 6.78348 13.4813 6.8871C13.5454 6.9384 13.5987 7.00182 13.6383 7.07374C13.6778 7.14566 13.7028 7.22467 13.7119 7.30625C13.7369 7.53438 13.75 7.76562 13.75 8C13.75 11.4519 10.9519 14.25 7.5 14.25C4.04813 14.25 1.25 11.4519 1.25 8C1.25 4.54813 4.04813 1.75 7.5 1.75ZM7.48 5.42312C7.52119 5.58358 7.497 5.75382 7.41273 5.89644C7.32847 6.03907 7.19104 6.1424 7.03062 6.18375C6.58992 6.29919 6.20627 6.57104 5.95127 6.94857C5.69627 7.32609 5.58735 7.7835 5.64481 8.23544C5.70228 8.68737 5.92222 9.10296 6.26359 9.40465C6.60495 9.70634 7.04443 9.87352 7.5 9.875C7.91576 9.87496 8.31973 9.73683 8.64847 9.4823C8.97721 9.22777 9.2121 8.87125 9.31625 8.46875C9.36055 8.31147 9.46468 8.1778 9.60634 8.09636C9.748 8.01492 9.91592 7.9922 10.0741 8.03306C10.2323 8.07392 10.3683 8.17511 10.4528 8.31496C10.5373 8.45481 10.5636 8.62219 10.5262 8.78125C10.3345 9.51621 9.88177 10.1562 9.2526 10.5817C8.62342 11.0072 7.86085 11.1891 7.10735 11.0934C6.35385 10.9977 5.66096 10.631 5.15813 10.0617C4.6553 9.49243 4.37692 8.75955 4.375 8C4.37511 7.30717 4.60536 6.63401 5.02958 6.08625C5.45381 5.53849 6.04798 5.14716 6.71875 4.97375C6.79824 4.95326 6.88099 4.94863 6.96227 4.96013C7.04355 4.97163 7.12177 4.99902 7.19246 5.04075C7.26315 5.08248 7.32493 5.13773 7.37427 5.20334C7.4236 5.26894 7.45953 5.34363 7.48 5.42312ZM11.565 1.82938C11.6791 1.87667 11.7766 1.95671 11.8452 2.05938C11.9139 2.16205 11.9505 2.28275 11.9506 2.40625V3.55H13.0938C13.2173 3.55003 13.3382 3.5867 13.4409 3.65537C13.5437 3.72405 13.6238 3.82165 13.671 3.93584C13.7183 4.05003 13.7307 4.17567 13.7066 4.29689C13.6825 4.41812 13.623 4.52947 13.5356 4.61687L11.325 6.825C11.2078 6.94222 11.0489 7.00809 10.8831 7.00813H9.375L8.2325 8.15125C8.11522 8.26853 7.95617 8.33441 7.79031 8.33441C7.62446 8.33441 7.4654 8.26853 7.34812 8.15125C7.23085 8.03397 7.16496 7.87492 7.16496 7.70906C7.16496 7.54321 7.23085 7.38415 7.34812 7.26687L8.49125 6.125V4.61625C8.49129 4.4505 8.55716 4.29156 8.67437 4.17438L10.8837 1.96437C10.9712 1.87692 11.0825 1.81735 11.2038 1.79321C11.3251 1.76907 11.4508 1.78143 11.565 1.82875M10.7006 3.91437L9.74125 4.875V5.75875H10.625L11.585 4.79938H11.3256C11.1599 4.79938 11.0009 4.73353 10.8837 4.61632C10.7665 4.49911 10.7006 4.34014 10.7006 4.17438V3.91437Z" fill="white"/>
</svg>
