<svg width="16" height="17" viewBox="0 0 16 17" fill="none" xmlns="http://www.w3.org/2000/svg">
<path fill-rule="evenodd" clip-rule="evenodd" d="M6.78383 2.67523C7.05524 2.92403 7.07358 3.34574 6.82478 3.61715L4.18217 6.5H13.3333C13.7015 6.5 14 6.79848 14 7.16667C14 7.53486 13.7015 7.83334 13.3333 7.83334H2.66668C2.4023 7.83334 2.1629 7.67711 2.05645 7.43511C1.94999 7.19311 1.9966 6.91107 2.17524 6.71619L5.84191 2.71619C6.09071 2.44477 6.51242 2.42644 6.78383 2.67523ZM2.00001 9.83334C2.00001 9.46515 2.29849 9.16667 2.66668 9.16667H13.3333C13.5977 9.16667 13.8371 9.3229 13.9436 9.5649C14.05 9.80689 14.0034 10.0889 13.8248 10.2838L10.1581 14.2838C9.90932 14.5552 9.48761 14.5736 9.2162 14.3248C8.94478 14.076 8.92645 13.6543 9.17524 13.3829L11.8179 10.5H2.66668C2.29849 10.5 2.00001 10.2015 2.00001 9.83334Z" fill="white"/>
</svg>
