<svg width="24" height="24" viewBox="0 0 24 24" fill="none" xmlns="http://www.w3.org/2000/svg">
<path fill-rule="evenodd" clip-rule="evenodd" d="M13.294 6.29301C13.685 5.90201 14.317 5.90201 14.708 6.29301L17.707 9.29301C18.098 9.68401 18.098 10.317 17.707 10.707L10.707 17.707C10.512 17.902 10.255 18 10 18C9.74501 18 9.48901 17.902 9.29401 17.707L6.29401 14.707C5.90301 14.316 5.90301 13.684 6.29401 13.293L13.294 6.29301ZM8.41501 14L10 15.586L12.586 13L11 11.414L8.41501 14ZM12.415 10L14 11.586L15.586 10L14 8.41401L12.415 10Z" fill="black"/>
<path fill-rule="evenodd" clip-rule="evenodd" d="M21.708 6.29301C22.099 6.68401 22.099 7.31701 21.708 7.70701C21.104 8.31101 21.104 9.69001 21.707 10.293C22.098 10.684 22.098 11.317 21.707 11.707L11.707 21.707C11.512 21.902 11.255 22 11 22C10.745 22 10.489 21.902 10.294 21.707C9.72201 21.135 8.28001 21.135 7.70801 21.707C7.31701 22.098 6.68501 22.098 6.29401 21.707L2.29401 17.707C1.90301 17.316 1.90301 16.684 2.29401 16.293C2.89801 15.69 2.89801 14.311 2.29401 13.707C1.90301 13.316 1.90301 12.684 2.29401 12.293L12.294 2.29301C12.685 1.90201 13.317 1.90201 13.708 2.29301C14.28 2.86501 15.722 2.86501 16.294 2.29301C16.685 1.90201 17.317 1.90201 17.708 2.29301L21.708 6.29301ZM10.889 19.697L19.698 10.889C19.1 9.74601 19.1 8.25401 19.698 7.11101L16.889 4.30201C15.78 4.88101 14.221 4.88101 13.112 4.30201L4.30301 13.111C4.90101 14.254 4.90101 15.746 4.30301 16.889L7.11201 19.697C8.22101 19.119 9.78001 19.119 10.889 19.697Z" fill="black"/>
</svg>
