<svg width="25" height="24" viewBox="0 0 25 24" fill="none" xmlns="http://www.w3.org/2000/svg">
<path fill-rule="evenodd" clip-rule="evenodd" d="M21.3611 8.1364C21.713 7.78541 21.713 7.21572 21.3611 6.86383L17.7612 3.26392C17.4093 2.91203 16.8405 2.91203 16.4886 3.26392C15.9738 3.77871 14.676 3.77871 14.1613 3.26392C13.8094 2.91203 13.2406 2.91203 12.8887 3.26392L3.88892 12.2637C3.53703 12.6156 3.53703 13.1844 3.88892 13.5363C4.4325 14.0798 4.4325 15.3209 3.88892 15.8636C3.53703 16.2155 3.53703 16.7843 3.88892 17.1362L7.48883 20.7361C7.84072 21.088 8.40951 21.088 8.7614 20.7361C9.12536 20.3721 9.8807 20.2655 10.474 20.4162C9.97619 19.8842 9.6047 19.2542 9.37894 18.5732C8.96803 18.6283 8.57204 18.7463 8.22501 18.9271L5.69697 16.4C6.23516 15.3713 6.23516 14.0285 5.69697 12.9999L13.6249 5.07197C14.623 5.59306 16.026 5.59306 17.0241 5.07197L19.5521 7.60001C19.0139 8.62868 19.0139 9.97145 19.5521 11.0001L17.1588 13.3931C17.2798 13.5835 17.3799 13.7885 17.456 14.0047C17.9264 13.9784 18.4018 14.0622 18.8402 14.2563L21.3602 11.7363C21.7121 11.3853 21.7121 10.8156 21.3602 10.4637C20.8175 9.92105 20.8175 8.67998 21.3611 8.1364ZM16.1692 12.4274L17.7603 10.8363C18.1122 10.4853 18.1122 9.91565 17.7603 9.56376L15.0612 6.86383C14.7093 6.51194 14.1406 6.51194 13.7887 6.86383L7.48883 13.1637C7.13694 13.5156 7.13694 14.0843 7.48883 14.4362L9.19847 16.1459C9.31169 15.4928 9.5536 14.8693 9.90914 14.3117L9.39768 13.8L11.7241 11.4726L12.5171 12.2656C13.0302 12.0913 13.5729 12 14.125 12H14.625C15.1898 12 15.7181 12.1561 16.1692 12.4274ZM14.4241 11.6274L12.9976 10.2L14.4241 8.77268L15.8514 10.2L14.4241 11.6274Z" fill="url(#paint0_linear_7055_46719)"/>
<path fill-rule="evenodd" clip-rule="evenodd" d="M15.625 15C15.625 14.4477 15.1773 14 14.625 14H14.125C13.3294 14 12.5663 14.3161 12.0037 14.8787C11.4411 15.4413 11.125 16.2043 11.125 17C11.125 17.7957 11.4411 18.5587 12.0037 19.1213C12.5663 19.6839 13.3294 20 14.125 20H17.2108L16.9179 20.2929C16.5274 20.6834 16.5274 21.3166 16.9179 21.7071C17.3084 22.0976 17.9416 22.0976 18.3321 21.7071L20.3321 19.7071C20.7226 19.3166 20.7226 18.6834 20.3321 18.2929L18.3321 16.2929C17.9416 15.9024 17.3084 15.9024 16.9179 16.2929C16.5274 16.6834 16.5274 17.3166 16.9179 17.7071L17.2108 18H14.125C13.8598 18 13.6054 17.8946 13.4179 17.7071C13.2304 17.5196 13.125 17.2652 13.125 17C13.125 16.7348 13.2304 16.4804 13.4179 16.2929C13.6054 16.1054 13.8598 16 14.125 16H14.625C15.1773 16 15.625 15.5523 15.625 15Z" fill="url(#paint1_linear_7055_46719)"/>
<defs>
<linearGradient id="paint0_linear_7055_46719" x1="12.625" y1="3" x2="12.625" y2="21" gradientUnits="userSpaceOnUse">
<stop stop-color="#D8BAFC"/>
<stop offset="1" stop-color="#BA84FD"/>
</linearGradient>
<linearGradient id="paint1_linear_7055_46719" x1="15.875" y1="14" x2="15.875" y2="22" gradientUnits="userSpaceOnUse">
<stop stop-color="#D8BAFC"/>
<stop offset="1" stop-color="#BA84FD"/>
</linearGradient>
</defs>
</svg>
