<svg width="15" height="16" viewBox="0 0 15 16" fill="none" xmlns="http://www.w3.org/2000/svg">
    <path fill-rule="evenodd" clip-rule="evenodd"
        d="M12.5 3.625H14.375V4.875H12.5V6.75H11.25V4.875H9.375V3.625H11.25V1.75H12.5V3.625ZM7.5 10.5C7.5 9.05937 6.515 7.85563 5.18625 7.495C5.81313 7.19187 6.25 6.55437 6.25 5.8125C6.25 4.77875 5.40875 3.9375 4.375 3.9375C3.34125 3.9375 2.5 4.77875 2.5 5.8125C2.5 6.555 2.93687 7.19187 3.56375 7.495C2.235 7.855 1.25 9.05937 1.25 10.5V11.75C1.25 12.0956 1.52938 12.375 1.875 12.375H2.5V14.25C2.5 14.5956 2.77938 14.875 3.125 14.875H5.625C5.97062 14.875 6.25 14.5956 6.25 14.25V12.375H6.875C7.22062 12.375 7.5 12.0956 7.5 11.75V10.5ZM4.375 5.1875C4.71937 5.1875 5 5.46812 5 5.8125C5 6.15687 4.71937 6.4375 4.375 6.4375C4.03063 6.4375 3.75 6.15687 3.75 5.8125C3.75 5.46812 4.03125 5.1875 4.375 5.1875ZM6.25 11.125H5.625C5.27938 11.125 5 11.405 5 11.75V13.625H3.75V11.75C3.75 11.405 3.47062 11.125 3.125 11.125H2.5V10.5C2.5 9.46625 3.34125 8.625 4.375 8.625C5.40875 8.625 6.25 9.46625 6.25 10.5V11.125ZM11.0963 11.3894C11.5662 11.0481 11.875 10.4988 11.875 9.875C11.875 8.84125 11.0338 8 10 8C8.96625 8 8.125 8.84125 8.125 9.875C8.125 10.4988 8.43375 11.0481 8.90375 11.3894C8.07625 11.7969 7.5 12.6419 7.5 13.625V14.25C7.5 14.5956 7.77938 14.875 8.125 14.875H11.875C12.2206 14.875 12.5 14.5956 12.5 14.25V13.625C12.5 12.6419 11.9244 11.7969 11.0963 11.3894ZM10 9.25C10.3444 9.25 10.625 9.53063 10.625 9.875C10.625 10.2194 10.3444 10.5 10 10.5C9.65563 10.5 9.375 10.2194 9.375 9.875C9.375 9.53063 9.65625 9.25 10 9.25ZM8.75 13.625C8.75 12.935 9.31 12.375 10 12.375C10.69 12.375 11.25 12.935 11.25 13.625H8.75Z"
        fill="white" />
</svg>