<svg width="25" height="24" viewBox="0 0 25 24" fill="none" xmlns="http://www.w3.org/2000/svg">
<path d="M15.5 4C14.4391 4 13.4217 4.42143 12.6716 5.17157C11.9214 5.92172 11.5 6.93913 11.5 8C11.5 9.06087 11.9214 10.0783 12.6716 10.8284C13.4217 11.5786 14.4391 12 15.5 12C16.5609 12 17.5783 11.5786 18.3284 10.8284C19.0786 10.0783 19.5 9.06087 19.5 8C19.5 6.93913 19.0786 5.92172 18.3284 5.17157C17.5783 4.42143 16.5609 4 15.5 4ZM15.5 5.9C15.7758 5.9 16.0489 5.95432 16.3036 6.05985C16.5584 6.16539 16.7899 6.32007 16.9849 6.51508C17.1799 6.71008 17.3346 6.94158 17.4401 7.19636C17.5457 7.45115 17.6 7.72422 17.6 8C17.6 8.27578 17.5457 8.54885 17.4401 8.80364C17.3346 9.05842 17.1799 9.28992 16.9849 9.48492C16.7899 9.67993 16.5584 9.83461 16.3036 9.94015C16.0489 10.0457 15.7758 10.1 15.5 10.1C15.2242 10.1 14.9511 10.0457 14.6964 9.94015C14.4416 9.83461 14.2101 9.67993 14.0151 9.48492C13.8201 9.28992 13.6654 9.05842 13.5599 8.80364C13.4543 8.54885 13.4 8.27578 13.4 8C13.4 7.44305 13.6212 6.9089 14.0151 6.51508C14.4089 6.12125 14.943 5.9 15.5 5.9ZM4.5 7V10H1.5V12H4.5V15H6.5V12H9.5V10H6.5V7H4.5ZM15.5 13C12.83 13 7.5 14.33 7.5 17V20H23.5V17C23.5 14.33 18.17 13 15.5 13ZM15.5 14.9C18.47 14.9 21.6 16.36 21.6 17V18.1H9.4V17C9.4 16.36 12.5 14.9 15.5 14.9Z" fill="url(#paint0_linear_6745_49164)"/>
<defs>
<linearGradient id="paint0_linear_6745_49164" x1="12.5" y1="4" x2="12.5" y2="20" gradientUnits="userSpaceOnUse">
<stop stop-color="#BDD5FA"/>
<stop offset="1" stop-color="#68A0F3"/>
</linearGradient>
</defs>
</svg>
