<svg width="24" height="24" viewBox="0 0 24 24" fill="none" xmlns="http://www.w3.org/2000/svg">
    <path fill-rule="evenodd" clip-rule="evenodd"
        d="M20 5H23V7H20V10H18V7H15V5H18V2H20V5ZM12 16C12 13.695 10.424 11.769 8.298 11.192C9.301 10.707 10 9.68698 10 8.49998C10 6.84598 8.654 5.49998 7 5.49998C5.346 5.49998 4 6.84598 4 8.49998C4 9.68798 4.699 10.707 5.702 11.192C3.576 11.768 2 13.695 2 16V18C2 18.553 2.447 19 3 19H4V22C4 22.553 4.447 23 5 23H9C9.553 23 10 22.553 10 22V19H11C11.553 19 12 18.553 12 18V16ZM7 7.49998C7.551 7.49998 8 7.94898 8 8.49998C8 9.05098 7.551 9.49998 7 9.49998C6.449 9.49998 6 9.05098 6 8.49998C6 7.94898 6.45 7.49998 7 7.49998ZM10 17H9C8.447 17 8 17.448 8 18V21H6V18C6 17.448 5.553 17 5 17H4V16C4 14.346 5.346 13 7 13C8.654 13 10 14.346 10 16V17ZM17.754 17.423C18.506 16.877 19 15.998 19 15C19 13.346 17.654 12 16 12C14.346 12 13 13.346 13 15C13 15.998 13.494 16.877 14.246 17.423C12.922 18.075 12 19.427 12 21V22C12 22.553 12.447 23 13 23H19C19.553 23 20 22.553 20 22V21C20 19.427 19.079 18.075 17.754 17.423ZM16 14C16.551 14 17 14.449 17 15C17 15.551 16.551 16 16 16C15.449 16 15 15.551 15 15C15 14.449 15.45 14 16 14ZM14 21C14 19.896 14.896 19 16 19C17.104 19 18 19.896 18 21H14Z"
        fill="url(#paint0_linear_2620_27721)" />
    <defs>
        <linearGradient id="paint0_linear_2620_27721" x1="12.5" y1="2" x2="12.5" y2="23" gradientUnits="userSpaceOnUse">
            <stop stop-color="#BDFACE" />
            <stop offset="1" stop-color="#68F38F" />
        </linearGradient>
    </defs>
</svg>