<svg width="24" height="24" viewBox="0 0 24 24" fill="none" xmlns="http://www.w3.org/2000/svg">
    <path
        d="M4.25 18.3C3.61667 17.55 3.10833 16.725 2.725 15.825C2.34167 14.925 2.1 13.9833 2 13H4.05C4.15 13.7167 4.33333 14.4043 4.6 15.063C4.86667 15.7217 5.21667 16.334 5.65 16.9L4.25 18.3ZM2 11C2.13333 10.0167 2.38333 9.07499 2.75 8.17499C3.11667 7.27499 3.61667 6.44999 4.25 5.69999L5.65 7.09999C5.21667 7.66665 4.86667 8.27932 4.6 8.93799C4.33333 9.59665 4.15 10.284 4.05 11H2ZM10.95 21.95C9.96667 21.85 9.02933 21.6127 8.138 21.238C7.24667 20.8633 6.41733 20.3673 5.65 19.75L7.05 18.3C7.63333 18.7333 8.25 19.0917 8.9 19.375C9.55 19.6583 10.2333 19.85 10.95 19.95V21.95ZM7.1 5.69999L5.65 4.24999C6.43333 3.63332 7.275 3.13732 8.175 2.76199C9.075 2.38665 10.0167 2.14932 11 2.04999V4.04999C10.2833 4.14999 9.596 4.34165 8.938 4.62499C8.28 4.90832 7.66733 5.26665 7.1 5.69999ZM12.95 21.95V19.95C13.6833 19.85 14.3793 19.6627 15.038 19.388C15.6967 19.1133 16.3173 18.7507 16.9 18.3L18.35 19.75C17.5667 20.3833 16.721 20.8833 15.813 21.25C14.905 21.6167 13.9507 21.85 12.95 21.95ZM16.95 5.69999C16.3667 5.26665 15.7417 4.90832 15.075 4.62499C14.4083 4.34165 13.7167 4.14999 13 4.04999V2.04999C13.9833 2.14999 14.9293 2.38765 15.838 2.76299C16.7467 3.13832 17.584 3.63399 18.35 4.24999L16.95 5.69999ZM19.75 18.3L18.35 16.9C18.7833 16.3333 19.1333 15.721 19.4 15.063C19.6667 14.405 19.85 13.7173 19.95 13H22C21.8667 13.9833 21.6167 14.925 21.25 15.825C20.8833 16.725 20.3833 17.55 19.75 18.3ZM19.95 11C19.85 10.2833 19.6667 9.59599 19.4 8.93799C19.1333 8.27999 18.7833 7.66732 18.35 7.09999L19.75 5.69999C20.3833 6.44999 20.8917 7.27499 21.275 8.17499C21.6583 9.07499 21.9 10.0167 22 11H19.95ZM11.025 17V10.825L8.425 13.425L7.025 12L12.025 6.99999L17.025 12L15.6 13.4L13.025 10.825V17H11.025Z"
        fill="white" />
</svg>
    