<svg width="18" height="18" viewBox="0 0 18 18" fill="none" xmlns="http://www.w3.org/2000/svg">
    <g clip-path="url(#clip0_10581_79618)">
        <path d="M7.5 11.25L12 9L7.5 6.75V11.25Z" fill="white" />
        <path
            d="M15.75 1.5H2.25C1.42275 1.5 0.75 2.172 0.75 3V15C0.75 15.8273 1.42275 16.5 2.25 16.5H15.75C16.5773 16.5 17.25 15.8273 17.25 15V3C17.25 2.172 16.5773 1.5 15.75 1.5ZM2.25 15V3H15.75L15.7507 15H2.25Z"
            fill="white" />
        <path d="M14.25 12.75H12.75V14.25H14.25V12.75Z" fill="white" />
        <path d="M11.25 12.75H9.75V14.25H11.25V12.75Z" fill="white" />
        <path d="M8.25 12.75H6.75V14.25H8.25V12.75Z" fill="white" />
        <path d="M5.25 12.75H3.75V14.25H5.25V12.75Z" fill="white" />
        <path d="M14.25 3.75H12.75V5.25H14.25V3.75Z" fill="white" />
        <path d="M11.25 3.75H9.75V5.25H11.25V3.75Z" fill="white" />
        <path d="M8.25 3.75H6.75V5.25H8.25V3.75Z" fill="white" />
        <path d="M5.25 3.75H3.75V5.25H5.25V3.75Z" fill="white" />
    </g>
    <defs>
        <clipPath id="clip0_10581_79618">
            <rect width="18" height="18" fill="white" />
        </clipPath>
    </defs>
</svg>