<svg width="16" height="16" viewBox="0 0 16 16" fill="none" xmlns="http://www.w3.org/2000/svg">
    <path
        d="M4.00065 14C3.26732 14 2.63954 13.7389 2.11732 13.2167C1.5951 12.6944 1.33398 12.0667 1.33398 11.3333C1.33398 10.6 1.5951 9.97222 2.11732 9.45C2.63954 8.92778 3.26732 8.66667 4.00065 8.66667C4.73398 8.66667 5.36176 8.92778 5.88398 9.45C6.40621 9.97222 6.66732 10.6 6.66732 11.3333C6.66732 12.0667 6.40621 12.6944 5.88398 13.2167C5.36176 13.7389 4.73398 14 4.00065 14ZM12.0007 14C11.2673 14 10.6395 13.7389 10.1173 13.2167C9.5951 12.6944 9.33398 12.0667 9.33398 11.3333C9.33398 10.6 9.5951 9.97222 10.1173 9.45C10.6395 8.92778 11.2673 8.66667 12.0007 8.66667C12.734 8.66667 13.3618 8.92778 13.884 9.45C14.4062 9.97222 14.6673 10.6 14.6673 11.3333C14.6673 12.0667 14.4062 12.6944 13.884 13.2167C13.3618 13.7389 12.734 14 12.0007 14ZM4.00065 12.6667C4.36732 12.6667 4.68132 12.5362 4.94265 12.2753C5.20398 12.0144 5.33443 11.7004 5.33398 11.3333C5.33354 10.9662 5.2031 10.6524 4.94265 10.392C4.68221 10.1316 4.36821 10.0009 4.00065 10C3.6331 9.99911 3.31932 10.1298 3.05932 10.392C2.79932 10.6542 2.66865 10.968 2.66732 11.3333C2.66598 11.6987 2.79665 12.0127 3.05932 12.2753C3.32198 12.538 3.63576 12.6684 4.00065 12.6667ZM12.0007 12.6667C12.3673 12.6667 12.6813 12.5362 12.9427 12.2753C13.204 12.0144 13.3344 11.7004 13.334 11.3333C13.3335 10.9662 13.2031 10.6524 12.9427 10.392C12.6822 10.1316 12.3682 10.0009 12.0007 10C11.6331 9.99911 11.3193 10.1298 11.0593 10.392C10.7993 10.6542 10.6687 10.968 10.6673 11.3333C10.666 11.6987 10.7967 12.0127 11.0593 12.2753C11.322 12.538 11.6358 12.6684 12.0007 12.6667ZM8.00065 7.33333C7.26732 7.33333 6.63954 7.07222 6.11732 6.55C5.5951 6.02778 5.33398 5.4 5.33398 4.66667C5.33398 3.93333 5.5951 3.30556 6.11732 2.78333C6.63954 2.26111 7.26732 2 8.00065 2C8.73398 2 9.36176 2.26111 9.88398 2.78333C10.4062 3.30556 10.6673 3.93333 10.6673 4.66667C10.6673 5.4 10.4062 6.02778 9.88398 6.55C9.36176 7.07222 8.73398 7.33333 8.00065 7.33333ZM8.00065 6C8.36732 6 8.68132 5.86956 8.94265 5.60867C9.20398 5.34778 9.33443 5.03378 9.33398 4.66667C9.33354 4.29956 9.2031 3.98578 8.94265 3.72533C8.68221 3.46489 8.36821 3.33422 8.00065 3.33333C7.6331 3.33244 7.31932 3.46311 7.05932 3.72533C6.79932 3.98756 6.66865 4.30133 6.66732 4.66667C6.66598 5.032 6.79665 5.346 7.05932 5.60867C7.32198 5.87133 7.63576 6.00178 8.00065 6Z"
        fill="white" />
</svg>