<svg width="22" height="21" viewBox="0 0 22 21" fill="none" xmlns="http://www.w3.org/2000/svg">
    <path fill-rule="evenodd" clip-rule="evenodd"
        d="M18.25 14.0001H14.2372L12.4872 12.2501L14.2372 10.5001H18.25V14.0001ZM16.4974 17.5001H4.25V7.00007H16.5V8.75007H13.875C13.6431 8.75007 13.4209 8.84194 13.2564 9.00644L10.6314 11.6314C10.2893 11.9736 10.2893 12.5266 10.6314 12.8696L13.2564 15.4946C13.4209 15.6573 13.6431 15.7501 13.875 15.7501H16.4983L16.4974 17.5001ZM13.4524 3.73632L14.2092 5.25007H9.66887L13.4524 3.73632ZM19.125 8.75007H18.25V7.00007C18.25 6.03494 17.4651 5.25007 16.5 5.25007H16.1658L14.6573 2.23394C14.4543 1.82707 13.973 1.64419 13.5495 1.81219L4.95613 5.25007H4.25C3.28487 5.25007 2.5 6.03494 2.5 7.00007V17.5001C2.5 18.4652 3.28487 19.2501 4.25 19.2501H16.5C17.4651 19.2501 18.25 18.4652 18.25 17.5001V15.7501H19.125C19.608 15.7501 20 15.3581 20 14.8751V9.62507C20 9.14207 19.608 8.75007 19.125 8.75007Z"
        fill="#C69DF7" />
    <path fill-rule="evenodd" clip-rule="evenodd"
        d="M13.875 12.2501C13.875 12.734 14.267 13.1251 14.75 13.1251C15.233 13.1251 15.625 12.734 15.625 12.2501C15.625 11.768 15.233 11.3751 14.75 11.3751C14.267 11.3751 13.875 11.768 13.875 12.2501Z"
        fill="#C69DF7" />
</svg>