<svg width="18" height="18" viewBox="0 0 18 18" fill="none" xmlns="http://www.w3.org/2000/svg">
<path d="M14.25 3C14.6478 3 15.0294 3.15804 15.3107 3.43934C15.592 3.72064 15.75 4.10218 15.75 4.5V6.201C15.978 6.33265 16.1674 6.522 16.299 6.75002C16.4307 6.97804 16.5 7.2367 16.5 7.5V10.5C16.5 10.7633 16.4307 11.022 16.299 11.25C16.1674 11.478 15.978 11.6674 15.75 11.799V13.5C15.75 13.8978 15.592 14.2794 15.3107 14.5607C15.0294 14.842 14.6478 15 14.25 15H3.75C3.35218 15 2.97064 14.842 2.68934 14.5607C2.40804 14.2794 2.25 13.8978 2.25 13.5V4.5C2.25 4.10218 2.40804 3.72064 2.68934 3.43934C2.97064 3.15804 3.35218 3 3.75 3H14.25ZM14.25 4.5H3.75V13.5H14.25V12H11.25C10.4673 12 9.71565 11.6942 9.15534 11.1477C8.59503 10.6012 8.27046 9.85744 8.25089 9.07502C8.23132 8.2926 8.51829 7.53351 9.05058 6.95972C9.58286 6.38593 10.3183 6.04287 11.1 6.00375L11.25 6H14.25V4.5ZM15 7.5H11.25C10.8522 7.5 10.4706 7.65804 10.1893 7.93934C9.90804 8.22064 9.75 8.60218 9.75 9C9.75 9.39782 9.90804 9.77936 10.1893 10.0607C10.4706 10.342 10.8522 10.5 11.25 10.5H15V7.5ZM12 8.25C12.1989 8.25 12.3897 8.32902 12.5303 8.46967C12.671 8.61032 12.75 8.80109 12.75 9C12.75 9.19891 12.671 9.38968 12.5303 9.53033C12.3897 9.67098 12.1989 9.75 12 9.75C11.8011 9.75 11.6103 9.67098 11.4697 9.53033C11.329 9.38968 11.25 9.19891 11.25 9C11.25 8.80109 11.329 8.61032 11.4697 8.46967C11.6103 8.32902 11.8011 8.25 12 8.25Z" fill="white" fill-opacity="0.54"/>
</svg>
