<svg width="25" height="24" viewBox="0 0 25 24" fill="none" xmlns="http://www.w3.org/2000/svg">
<path d="M16.1001 13.5C16.5334 13.5 16.8918 13.3583 17.1751 13.075C17.4584 12.7917 17.6001 12.4333 17.6001 12C17.6001 11.5667 17.4584 11.2083 17.1751 10.925C16.8918 10.6417 16.5334 10.5 16.1001 10.5C15.6668 10.5 15.3084 10.6417 15.0251 10.925C14.7418 11.2083 14.6001 11.5667 14.6001 12C14.6001 12.4333 14.7418 12.7917 15.0251 13.075C15.3084 13.3583 15.6668 13.5 16.1001 13.5ZM13.1001 17C12.5501 17 12.0791 16.804 11.6871 16.412C11.2951 16.02 11.0994 15.5493 11.1001 15V9C11.1001 8.45 11.2961 7.979 11.6881 7.587C12.0801 7.195 12.5508 6.99934 13.1001 7H20.1001C20.6501 7 21.1211 7.196 21.5131 7.588C21.9051 7.98 22.1008 8.45067 22.1001 9V15C22.1001 15.55 21.9041 16.021 21.5121 16.413C21.1201 16.805 20.6494 17.0007 20.1001 17H13.1001ZM5.1001 21C4.5501 21 4.0791 20.804 3.6871 20.412C3.2951 20.02 3.09943 19.5493 3.1001 19V5C3.1001 4.45 3.2961 3.979 3.6881 3.587C4.0801 3.195 4.55077 2.99934 5.1001 3H19.1001C19.6501 3 20.1211 3.196 20.5131 3.588C20.9051 3.98 21.1008 4.45067 21.1001 5H13.1001C11.9168 5 10.9541 5.371 10.2121 6.113C9.4701 6.855 9.09943 7.81734 9.1001 9V15C9.1001 16.1833 9.4711 17.146 10.2131 17.888C10.9551 18.63 11.9174 19.0007 13.1001 19H21.1001C21.1001 19.55 20.9041 20.021 20.5121 20.413C20.1201 20.805 19.6494 21.0007 19.1001 21H5.1001Z" fill="white" fill-opacity="0.87"/>
</svg>
