<svg width="24" height="24" viewBox="0 0 24 24" fill="none" xmlns="http://www.w3.org/2000/svg">
    <path fill-rule="evenodd" clip-rule="evenodd"
        d="M20 16.0004H15.414L13.414 14.0004L15.414 12.0004H20V16.0004ZM17.997 20.0004H4V8.00044H18V10.0004H15C14.735 10.0004 14.481 10.1054 14.293 10.2934L11.293 13.2934C10.902 13.6844 10.902 14.3164 11.293 14.7084L14.293 17.7084C14.481 17.8944 14.735 18.0004 15 18.0004H17.998L17.997 20.0004ZM14.517 4.27044L15.382 6.00044H10.193L14.517 4.27044ZM21 10.0004H20V8.00044C20 6.89744 19.103 6.00044 18 6.00044H17.618L15.894 2.55344C15.662 2.08844 15.112 1.87944 14.628 2.07144L4.807 6.00044H4C2.897 6.00044 2 6.89744 2 8.00044V20.0004C2 21.1034 2.897 22.0004 4 22.0004H18C19.103 22.0004 20 21.1034 20 20.0004V18.0004H21C21.552 18.0004 22 17.5524 22 17.0004V11.0004C22 10.4484 21.552 10.0004 21 10.0004Z"
        fill="white" />
    <path fill-rule="evenodd" clip-rule="evenodd"
        d="M15 14.0005C15 14.5535 15.448 15.0005 16 15.0005C16.552 15.0005 17 14.5535 17 14.0005C17 13.4495 16.552 13.0005 16 13.0005C15.448 13.0005 15 13.4495 15 14.0005Z"
        fill="white" />
</svg>