<svg width="25" height="24" viewBox="0 0 25 24" fill="none" xmlns="http://www.w3.org/2000/svg">
    <path
        d="M12.5001 5.99018L20.0301 19.0002H4.97012L12.5001 5.99018ZM3.24012 18.0002C2.47012 19.3302 3.43012 21.0002 4.97012 21.0002H20.0301C21.5701 21.0002 22.5301 19.3302 21.7601 18.0002L14.2301 4.99018C13.4601 3.66018 11.5401 3.66018 10.7701 4.99018L3.24012 18.0002ZM11.5001 11.0002V13.0002C11.5001 13.5502 11.9501 14.0002 12.5001 14.0002C13.0501 14.0002 13.5001 13.5502 13.5001 13.0002V11.0002C13.5001 10.4502 13.0501 10.0002 12.5001 10.0002C11.9501 10.0002 11.5001 10.4502 11.5001 11.0002ZM11.5001 16.0002H13.5001V18.0002H11.5001V16.0002Z"
        fill="#C69DF7" />
</svg>