<svg width="25" height="24" viewBox="0 0 25 24" fill="none" xmlns="http://www.w3.org/2000/svg">
    <path fill-rule="evenodd" clip-rule="evenodd"
        d="M7.29993 3C5.09079 3 3.29993 4.79086 3.29993 7C3.29993 9.20914 5.09079 11 7.29993 11C9.50907 11 11.2999 9.20914 11.2999 7C11.2999 4.79086 9.50907 3 7.29993 3Z"
        fill="white" />
    <path fill-rule="evenodd" clip-rule="evenodd"
        d="M17.2999 3C15.0908 3 13.2999 4.79086 13.2999 7C13.2999 9.20914 15.0908 11 17.2999 11C19.5091 11 21.2999 9.20914 21.2999 7C21.2999 4.79086 19.5091 3 17.2999 3Z"
        fill="white" />
    <path fill-rule="evenodd" clip-rule="evenodd"
        d="M13.2999 17C13.2999 14.7909 15.0908 13 17.2999 13C19.5091 13 21.2999 14.7909 21.2999 17C21.2999 19.2091 19.5091 21 17.2999 21C15.0908 21 13.2999 19.2091 13.2999 17Z"
        fill="white" />
    <path fill-rule="evenodd" clip-rule="evenodd"
        d="M7.29993 13C5.09079 13 3.29993 14.7909 3.29993 17C3.29993 19.2091 5.09079 21 7.29993 21C9.50907 21 11.2999 19.2091 11.2999 17C11.2999 14.7909 9.50907 13 7.29993 13Z"
        fill="white" />
</svg>
    