<svg width="20" height="20" viewBox="0 0 20 20" fill="none" xmlns="http://www.w3.org/2000/svg">
    <path
        d="M16.3392 5.82917C16.2759 5.58083 16.0959 5.39333 15.8901 5.33583C15.5251 5.23333 13.7509 5 10.0009 5C6.25092 5 4.47758 5.23333 4.11008 5.33583C3.90675 5.3925 3.72675 5.58 3.66258 5.82917C3.57175 6.1825 3.33425 7.6625 3.33425 10C3.33425 12.3375 3.57175 13.8167 3.66258 14.1717C3.72591 14.4192 3.90591 14.6067 4.11091 14.6633C4.47758 14.7667 6.25008 15 10.0001 15C13.7501 15 15.5242 14.7667 15.8909 14.6642C16.0942 14.6075 16.2742 14.42 16.3384 14.1708C16.4301 13.8175 16.6667 12.3333 16.6667 10C16.6667 7.66667 16.4301 6.18333 16.3392 5.82917ZM17.9526 5.415C18.3334 6.9 18.3334 10 18.3334 10C18.3334 10 18.3334 13.1 17.9526 14.585C17.7409 15.4058 17.1217 16.0517 16.3376 16.27C14.9142 16.6667 10.0001 16.6667 10.0001 16.6667C10.0001 16.6667 5.08925 16.6667 3.66258 16.27C2.87508 16.0483 2.25675 15.4033 2.04758 14.585C1.66675 13.1 1.66675 10 1.66675 10C1.66675 10 1.66675 6.9 2.04758 5.415C2.25925 4.59417 2.87841 3.94833 3.66258 3.73C5.09008 3.33333 10.0009 3.33333 10.0009 3.33333C10.0009 3.33333 14.9142 3.33333 16.3384 3.73C17.1251 3.95167 17.7442 4.59667 17.9534 5.415M8.33425 12.9167V7.08333L13.3342 10L8.33425 12.9167Z"
        fill="white" />
</svg>
    