<svg width="18" height="18" viewBox="0 0 18 18" fill="none" xmlns="http://www.w3.org/2000/svg">
<path d="M9 3.96818C6.226 3.96818 3.96818 6.22619 3.96818 9C3.96818 11.7742 6.22577 14.0318 9 14.0318C9.47447 14.0318 9.85909 14.4164 9.85909 14.8909C9.85909 15.3654 9.47447 15.75 9 15.75C5.27765 15.75 2.25 12.7226 2.25 9C2.25 5.27787 5.27787 2.25 9 2.25C12.7221 2.25 15.75 5.27787 15.75 9C15.75 9.47447 15.3654 9.85909 14.8909 9.85909C14.4164 9.85909 14.0318 9.47447 14.0318 9C14.0318 6.22619 11.774 3.96818 9 3.96818ZM11.9531 11.9531V10.6875C11.9531 10.2215 12.3309 9.84375 12.7969 9.84375H12.7995C13.2645 9.84375 13.6418 10.2199 13.6433 10.6848L13.6473 11.9531H14.9062C15.3722 11.9531 15.75 12.3309 15.75 12.7969C15.75 13.2629 15.3722 13.6406 14.9062 13.6406H13.6406V14.9062C13.6406 15.3722 13.2629 15.75 12.7969 15.75C12.3309 15.75 11.9531 15.3722 11.9531 14.9062V13.6406H10.6875C10.2215 13.6406 9.84375 13.2629 9.84375 12.7969C9.84375 12.3309 10.2215 11.9531 10.6875 11.9531H11.9531Z" fill="white" fill-opacity="0.87"/>
</svg>
