<svg width="25" height="24" viewBox="0 0 25 24" fill="none" xmlns="http://www.w3.org/2000/svg">
<path d="M4.30005 19V10C4.30005 9.68333 4.37105 9.38333 4.51305 9.1C4.65505 8.81667 4.85072 8.58333 5.10005 8.4L11.1001 3.9C11.4501 3.63333 11.8501 3.5 12.3001 3.5C12.7501 3.5 13.1501 3.63333 13.5001 3.9L19.5001 8.4C19.7501 8.58333 19.9461 8.81667 20.0881 9.1C20.2301 9.38333 20.3007 9.68333 20.3001 10V19C20.3001 19.55 20.1041 20.021 19.7121 20.413C19.3201 20.805 18.8494 21.0007 18.3001 21H15.3001C15.0167 21 14.7791 20.904 14.5871 20.712C14.3951 20.52 14.2994 20.2827 14.3001 20V15C14.3001 14.7167 14.2041 14.479 14.0121 14.287C13.8201 14.095 13.5827 13.9993 13.3001 14H11.3001C11.0167 14 10.7791 14.096 10.5871 14.288C10.3951 14.48 10.2994 14.7173 10.3001 15V20C10.3001 20.2833 10.2041 20.521 10.0121 20.713C9.82005 20.905 9.58272 21.0007 9.30005 21H6.30005C5.75005 21 5.27905 20.804 4.88705 20.412C4.49505 20.02 4.29938 19.5493 4.30005 19Z" fill="white" fill-opacity="0.87"/>
</svg>
